<svg width="210" height="34" viewBox="0 0 210 34" fill="none" xmlns="http://www.w3.org/2000/svg">
<path d="M10.5074 32L8.61362 31.8832C6.33982 31.7879 4.08114 31.4723 1.87044 30.9408C1.47425 30.8396 1.07806 30.6994 0.681873 30.567C0.544661 30.5218 0.422604 30.4406 0.329016 30.3322C0.235427 30.2237 0.173847 30.0921 0.150943 29.9517C0.0580933 29.5819 0.00764189 29.2032 0.000436611 28.8224C-0.0107775 27.0446 0.194066 25.2719 0.610585 23.5419C0.886347 22.3615 1.37762 21.24 2.06061 20.2319C2.58672 19.5871 3.29958 19.1146 4.10492 18.8767C5.15878 18.4795 6.1968 18.0512 7.27444 17.6384C7.39694 17.5933 7.51185 17.5303 7.61521 17.4515C7.88462 17.2023 8.11441 17.249 8.40759 17.4515C8.47237 17.4918 8.52489 17.5485 8.55974 17.6157C8.59459 17.6828 8.61048 17.7579 8.60568 17.8331C8.60568 18.9001 8.55809 19.9749 8.55016 21.0497C8.54807 21.2139 8.57495 21.3773 8.62948 21.5325L11.9574 30.271C11.9751 30.3268 11.9962 30.3814 12.0208 30.4345C12.0487 30.5445 12.1129 30.6422 12.2031 30.7126C12.2934 30.7831 12.4048 30.8222 12.52 30.824C12.641 30.826 12.7592 30.7879 12.8555 30.7158C12.9519 30.6438 13.0207 30.542 13.0509 30.4268L13.8433 28.3785C14.707 26.1043 15.5786 23.8301 16.4344 21.5559C16.498 21.3945 16.5302 21.2228 16.5295 21.0497C16.5295 19.9749 16.5294 18.9001 16.466 17.8253C16.466 17.4748 16.7355 17.4203 16.9257 17.2957C16.9906 17.2815 17.0578 17.2804 17.1232 17.2924C17.1886 17.3045 17.2507 17.3294 17.306 17.3658C18.3833 17.9734 19.5296 18.4544 20.7212 18.7989C21.3575 18.9743 21.9455 19.2879 22.442 19.7166C22.9384 20.1452 23.3307 20.678 23.5896 21.2755C24.3029 22.8227 24.7346 24.4807 24.8654 26.1744C24.9525 27.1946 24.9683 28.2227 25 29.2429C24.9889 29.4486 24.9544 29.6524 24.897 29.8504C24.8587 30.033 24.7707 30.2019 24.6423 30.3391C24.5139 30.4763 24.35 30.5766 24.1681 30.6293C22.3689 31.1991 20.5067 31.5547 18.6214 31.6885C17.3298 31.8131 16.0303 31.8676 14.7308 31.9455C14.6533 31.9565 14.5765 31.9721 14.501 31.9922L10.5074 32Z" fill="white"/>
<path d="M18.6373 7.1164C18.5026 7.76283 18.3679 8.40927 18.2253 9.0557C18.2073 9.12688 18.2044 9.2009 18.2167 9.27322C18.2289 9.34555 18.2561 9.41464 18.2966 9.47625C18.4469 9.74646 18.5285 10.0484 18.5343 10.3563C18.5529 11.0636 18.357 11.7603 17.9717 12.3579C17.9254 12.4336 17.8982 12.5191 17.8924 12.6072C17.5476 14.1543 16.7357 15.5631 15.5629 16.6493C13.6374 18.3783 11.5297 18.4873 9.50908 16.7583C8.23019 15.6826 7.36357 14.2098 7.05272 12.5838C7.04849 12.5049 7.0268 12.4278 6.98927 12.3579C6.55319 11.6572 6.34838 10.8411 6.40291 10.0214C6.40505 9.81717 6.47148 9.61855 6.59308 9.45289C6.64007 9.39286 6.67176 9.32269 6.68555 9.24817C6.69933 9.17366 6.69478 9.09698 6.6723 9.02454C6.39201 8.12404 6.33498 7.1707 6.50593 6.24412C6.76571 4.95213 7.50873 3.80275 8.58835 3.02275C9.66796 2.24275 11.0057 1.88877 12.3378 2.03066C13.9911 2.21973 15.5649 2.83205 16.902 3.80638C17.4271 4.17932 17.8527 4.67158 18.1425 5.24116C18.4322 5.81074 18.5775 6.44076 18.5659 7.07747L18.6373 7.1164Z" fill="white"/>
<path d="M12.2507 20.9328L10.9194 18.9234C11.9272 19.239 13.0099 19.239 14.0177 18.9234L12.7102 20.8939C13.0668 21.2833 13.4075 21.6338 13.7245 22.0076C13.812 22.1127 13.8572 22.2458 13.8513 22.3814C13.4551 24.801 13.051 27.2232 12.6389 29.6479C12.606 29.7423 12.5549 29.8295 12.4884 29.9049C12.433 29.8193 12.3299 29.7414 12.314 29.6401L11.1017 22.4048C11.0839 22.3255 11.0884 22.243 11.1149 22.1661C11.1414 22.0892 11.189 22.0209 11.2523 21.9687C11.5613 21.6649 11.9099 21.3067 12.2507 20.9328Z" fill="white"/>
<path d="M38.472 8.106C39.872 8.106 40.8987 8.372 41.552 8.904C42.2147 9.42667 42.546 10.1453 42.546 11.06C42.546 11.6387 42.406 12.1613 42.126 12.628C41.8553 13.0853 41.44 13.4493 40.88 13.72C40.3293 13.9813 39.648 14.112 38.836 14.112C38.1453 14.112 37.478 14.0093 36.834 13.804C36.19 13.5893 35.658 13.2953 35.238 12.922L35.882 11.816C36.218 12.1333 36.6473 12.39 37.17 12.586C37.6927 12.7727 38.2433 12.866 38.822 12.866C39.5593 12.866 40.1287 12.712 40.53 12.404C40.9407 12.0867 41.146 11.6573 41.146 11.116C41.146 10.528 40.922 10.0847 40.474 9.786C40.026 9.478 39.2607 9.324 38.178 9.324H35.952L36.47 4.2H42V5.418H37.646L37.38 8.106H38.472ZM47.7151 14.112C46.9404 14.112 46.2497 13.916 45.6431 13.524C45.0457 13.1227 44.5744 12.544 44.2291 11.788C43.8837 11.032 43.7111 10.136 43.7111 9.1C43.7111 8.064 43.8837 7.168 44.2291 6.412C44.5744 5.656 45.0457 5.082 45.6431 4.69C46.2497 4.28867 46.9404 4.088 47.7151 4.088C48.4804 4.088 49.1617 4.28867 49.7591 4.69C50.3657 5.082 50.8417 5.656 51.1871 6.412C51.5324 7.168 51.7051 8.064 51.7051 9.1C51.7051 10.136 51.5324 11.032 51.1871 11.788C50.8417 12.544 50.3657 13.1227 49.7591 13.524C49.1617 13.916 48.4804 14.112 47.7151 14.112ZM47.7151 12.866C48.4991 12.866 49.1244 12.544 49.5911 11.9C50.0671 11.256 50.3051 10.3227 50.3051 9.1C50.3051 7.87733 50.0671 6.944 49.5911 6.3C49.1244 5.656 48.4991 5.334 47.7151 5.334C46.9217 5.334 46.2871 5.656 45.8111 6.3C45.3444 6.944 45.1111 7.87733 45.1111 9.1C45.1111 10.3227 45.3444 11.256 45.8111 11.9C46.2871 12.544 46.9217 12.866 47.7151 12.866ZM57.053 14.112C56.2783 14.112 55.5876 13.916 54.981 13.524C54.3836 13.1227 53.9123 12.544 53.567 11.788C53.2216 11.032 53.049 10.136 53.049 9.1C53.049 8.064 53.2216 7.168 53.567 6.412C53.9123 5.656 54.3836 5.082 54.981 4.69C55.5876 4.28867 56.2783 4.088 57.053 4.088C57.8183 4.088 58.4996 4.28867 59.097 4.69C59.7036 5.082 60.1796 5.656 60.525 6.412C60.8703 7.168 61.043 8.064 61.043 9.1C61.043 10.136 60.8703 11.032 60.525 11.788C60.1796 12.544 59.7036 13.1227 59.097 13.524C58.4996 13.916 57.8183 14.112 57.053 14.112ZM57.053 12.866C57.837 12.866 58.4623 12.544 58.929 11.9C59.405 11.256 59.643 10.3227 59.643 9.1C59.643 7.87733 59.405 6.944 58.929 6.3C58.4623 5.656 57.837 5.334 57.053 5.334C56.2596 5.334 55.625 5.656 55.149 6.3C54.6823 6.944 54.449 7.87733 54.449 9.1C54.449 10.3227 54.6823 11.256 55.149 11.9C55.625 12.544 56.2596 12.866 57.053 12.866ZM69.0205 9.66H66.4725V12.166H65.2965V9.66H62.7485V8.554H65.2965V6.034H66.4725V8.554H69.0205V9.66ZM81.7408 14L79.6268 10.99C79.3654 11.0087 79.1601 11.018 79.0108 11.018H76.5888V14H75.1888V4.2H79.0108C80.2801 4.2 81.2788 4.50333 82.0068 5.11C82.7348 5.71667 83.0988 6.552 83.0988 7.616C83.0988 8.372 82.9121 9.016 82.5388 9.548C82.1654 10.08 81.6334 10.4673 80.9428 10.71L83.2668 14H81.7408ZM78.9688 9.828C79.8554 9.828 80.5321 9.63667 80.9988 9.254C81.4654 8.87133 81.6988 8.32533 81.6988 7.616C81.6988 6.90667 81.4654 6.36533 80.9988 5.992C80.5321 5.60933 79.8554 5.418 78.9688 5.418H76.5888V9.828H78.9688ZM91.8706 10.332C91.8706 10.4347 91.8613 10.57 91.8426 10.738H85.8226C85.9066 11.3913 86.1913 11.9187 86.6766 12.32C87.1713 12.712 87.7826 12.908 88.5106 12.908C89.3973 12.908 90.1113 12.6093 90.6526 12.012L91.3946 12.88C91.0586 13.272 90.6386 13.5707 90.1346 13.776C89.64 13.9813 89.0846 14.084 88.4686 14.084C87.6846 14.084 86.9893 13.9253 86.3826 13.608C85.776 13.2813 85.3046 12.8287 84.9686 12.25C84.642 11.6713 84.4786 11.018 84.4786 10.29C84.4786 9.57133 84.6373 8.92267 84.9546 8.344C85.2813 7.76533 85.7246 7.31733 86.2846 7C86.854 6.67333 87.4933 6.51 88.2026 6.51C88.912 6.51 89.542 6.67333 90.0926 7C90.6526 7.31733 91.0866 7.76533 91.3946 8.344C91.712 8.92267 91.8706 9.58533 91.8706 10.332ZM88.2026 7.644C87.5586 7.644 87.0173 7.84 86.5786 8.232C86.1493 8.624 85.8973 9.13733 85.8226 9.772H90.5826C90.508 9.14667 90.2513 8.638 89.8126 8.246C89.3833 7.84467 88.8466 7.644 88.2026 7.644ZM100.835 6.58V12.992C100.835 14.2893 100.513 15.246 99.8689 15.862C99.2249 16.4873 98.2636 16.8 96.9849 16.8C96.2849 16.8 95.6176 16.702 94.9829 16.506C94.3482 16.3193 93.8349 16.0487 93.4429 15.694L94.0869 14.658C94.4322 14.9567 94.8569 15.19 95.3609 15.358C95.8742 15.5353 96.4016 15.624 96.9429 15.624C97.8109 15.624 98.4502 15.4187 98.8609 15.008C99.2809 14.5973 99.4909 13.972 99.4909 13.132V12.544C99.1736 12.9267 98.7816 13.216 98.3149 13.412C97.8576 13.5987 97.3582 13.692 96.8169 13.692C96.1076 13.692 95.4636 13.5427 94.8849 13.244C94.3156 12.936 93.8676 12.5113 93.5409 11.97C93.2142 11.4193 93.0509 10.794 93.0509 10.094C93.0509 9.394 93.2142 8.77333 93.5409 8.232C93.8676 7.68133 94.3156 7.25667 94.8849 6.958C95.4636 6.65933 96.1076 6.51 96.8169 6.51C97.3769 6.51 97.8949 6.61267 98.3709 6.818C98.8562 7.02333 99.2529 7.32667 99.5609 7.728V6.58H100.835ZM96.9709 12.516C97.4562 12.516 97.8902 12.4133 98.2729 12.208C98.6649 12.0027 98.9682 11.718 99.1829 11.354C99.4069 10.9807 99.5189 10.5607 99.5189 10.094C99.5189 9.37533 99.2809 8.79667 98.8049 8.358C98.3289 7.91 97.7176 7.686 96.9709 7.686C96.2149 7.686 95.5989 7.91 95.1229 8.358C94.6469 8.79667 94.4089 9.37533 94.4089 10.094C94.4089 10.5607 94.5162 10.9807 94.7309 11.354C94.9549 11.718 95.2582 12.0027 95.6409 12.208C96.0329 12.4133 96.4762 12.516 96.9709 12.516ZM103.403 6.58H104.747V14H103.403V6.58ZM104.075 5.152C103.814 5.152 103.594 5.068 103.417 4.9C103.249 4.732 103.165 4.52667 103.165 4.284C103.165 4.04133 103.249 3.836 103.417 3.668C103.594 3.49067 103.814 3.402 104.075 3.402C104.336 3.402 104.551 3.486 104.719 3.654C104.896 3.81267 104.985 4.01333 104.985 4.256C104.985 4.508 104.896 4.72267 104.719 4.9C104.551 5.068 104.336 5.152 104.075 5.152ZM109.441 14.084C108.834 14.084 108.251 14.0047 107.691 13.846C107.131 13.678 106.692 13.468 106.375 13.216L106.935 12.152C107.262 12.3853 107.658 12.572 108.125 12.712C108.592 12.852 109.063 12.922 109.539 12.922C110.715 12.922 111.303 12.586 111.303 11.914C111.303 11.69 111.224 11.5127 111.065 11.382C110.906 11.2513 110.706 11.158 110.463 11.102C110.23 11.0367 109.894 10.9667 109.455 10.892C108.858 10.7987 108.368 10.6913 107.985 10.57C107.612 10.4487 107.29 10.2433 107.019 9.954C106.748 9.66467 106.613 9.25867 106.613 8.736C106.613 8.064 106.893 7.52733 107.453 7.126C108.013 6.71533 108.764 6.51 109.707 6.51C110.202 6.51 110.696 6.57067 111.191 6.692C111.686 6.81333 112.092 6.97667 112.409 7.182L111.835 8.246C111.228 7.854 110.514 7.658 109.693 7.658C109.124 7.658 108.69 7.75133 108.391 7.938C108.092 8.12467 107.943 8.372 107.943 8.68C107.943 8.92267 108.027 9.114 108.195 9.254C108.363 9.394 108.568 9.49667 108.811 9.562C109.063 9.62733 109.413 9.702 109.861 9.786C110.458 9.88867 110.939 10.0007 111.303 10.122C111.676 10.234 111.994 10.43 112.255 10.71C112.516 10.99 112.647 11.382 112.647 11.886C112.647 12.558 112.358 13.0947 111.779 13.496C111.21 13.888 110.43 14.084 109.441 14.084ZM118.499 13.566C118.303 13.734 118.06 13.8647 117.771 13.958C117.481 14.042 117.183 14.084 116.875 14.084C116.128 14.084 115.549 13.8833 115.139 13.482C114.728 13.0807 114.523 12.5067 114.523 11.76V7.686H113.263V6.58H114.523V4.956H115.867V6.58H117.995V7.686H115.867V11.704C115.867 12.1053 115.965 12.4133 116.161 12.628C116.366 12.8427 116.655 12.95 117.029 12.95C117.439 12.95 117.789 12.8333 118.079 12.6L118.499 13.566ZM126.584 10.332C126.584 10.4347 126.574 10.57 126.556 10.738H120.536C120.62 11.3913 120.904 11.9187 121.39 12.32C121.884 12.712 122.496 12.908 123.224 12.908C124.11 12.908 124.824 12.6093 125.366 12.012L126.108 12.88C125.772 13.272 125.352 13.5707 124.848 13.776C124.353 13.9813 123.798 14.084 123.182 14.084C122.398 14.084 121.702 13.9253 121.096 13.608C120.489 13.2813 120.018 12.8287 119.682 12.25C119.355 11.6713 119.192 11.018 119.192 10.29C119.192 9.57133 119.35 8.92267 119.668 8.344C119.994 7.76533 120.438 7.31733 120.998 7C121.567 6.67333 122.206 6.51 122.916 6.51C123.625 6.51 124.255 6.67333 124.806 7C125.366 7.31733 125.8 7.76533 126.108 8.344C126.425 8.92267 126.584 9.58533 126.584 10.332ZM122.916 7.644C122.272 7.644 121.73 7.84 121.292 8.232C120.862 8.624 120.61 9.13733 120.536 9.772H125.296C125.221 9.14667 124.964 8.638 124.526 8.246C124.096 7.84467 123.56 7.644 122.916 7.644ZM129.738 7.826C129.971 7.39667 130.316 7.07 130.774 6.846C131.231 6.622 131.786 6.51 132.44 6.51V7.812C132.365 7.80267 132.262 7.798 132.132 7.798C131.404 7.798 130.83 8.01733 130.41 8.456C129.999 8.88533 129.794 9.50133 129.794 10.304V14H128.45V6.58H129.738V7.826ZM140.734 10.332C140.734 10.4347 140.725 10.57 140.706 10.738H134.686C134.77 11.3913 135.055 11.9187 135.54 12.32C136.035 12.712 136.646 12.908 137.374 12.908C138.261 12.908 138.975 12.6093 139.516 12.012L140.258 12.88C139.922 13.272 139.502 13.5707 138.998 13.776C138.503 13.9813 137.948 14.084 137.332 14.084C136.548 14.084 135.853 13.9253 135.246 13.608C134.639 13.2813 134.168 12.8287 133.832 12.25C133.505 11.6713 133.342 11.018 133.342 10.29C133.342 9.57133 133.501 8.92267 133.818 8.344C134.145 7.76533 134.588 7.31733 135.148 7C135.717 6.67333 136.357 6.51 137.066 6.51C137.775 6.51 138.405 6.67333 138.956 7C139.516 7.31733 139.95 7.76533 140.258 8.344C140.575 8.92267 140.734 9.58533 140.734 10.332ZM137.066 7.644C136.422 7.644 135.881 7.84 135.442 8.232C135.013 8.624 134.761 9.13733 134.686 9.772H139.446C139.371 9.14667 139.115 8.638 138.676 8.246C138.247 7.84467 137.71 7.644 137.066 7.644ZM149.6 3.612V14H148.312V12.824C148.014 13.2347 147.636 13.5473 147.178 13.762C146.721 13.9767 146.217 14.084 145.666 14.084C144.948 14.084 144.304 13.9253 143.734 13.608C143.165 13.2907 142.717 12.8473 142.39 12.278C142.073 11.6993 141.914 11.0367 141.914 10.29C141.914 9.54333 142.073 8.88533 142.39 8.316C142.717 7.74667 143.165 7.30333 143.734 6.986C144.304 6.66867 144.948 6.51 145.666 6.51C146.198 6.51 146.688 6.61267 147.136 6.818C147.584 7.014 147.958 7.308 148.256 7.7V3.612H149.6ZM145.778 12.908C146.245 12.908 146.67 12.8007 147.052 12.586C147.435 12.362 147.734 12.054 147.948 11.662C148.163 11.2607 148.27 10.8033 148.27 10.29C148.27 9.77667 148.163 9.324 147.948 8.932C147.734 8.53067 147.435 8.22267 147.052 8.008C146.67 7.79333 146.245 7.686 145.778 7.686C145.302 7.686 144.873 7.79333 144.49 8.008C144.117 8.22267 143.818 8.53067 143.594 8.932C143.38 9.324 143.272 9.77667 143.272 10.29C143.272 10.8033 143.38 11.2607 143.594 11.662C143.818 12.054 144.117 12.362 144.49 12.586C144.873 12.8007 145.302 12.908 145.778 12.908ZM43.582 29.782V31H36.47V21.2H43.386V22.418H37.87V25.428H42.784V26.618H37.87V29.782H43.582ZM52.5572 20.612V31H51.2692V29.824C50.9705 30.2347 50.5925 30.5473 50.1352 30.762C49.6779 30.9767 49.1739 31.084 48.6232 31.084C47.9045 31.084 47.2605 30.9253 46.6912 30.608C46.1219 30.2907 45.6739 29.8473 45.3472 29.278C45.0299 28.6993 44.8712 28.0367 44.8712 27.29C44.8712 26.5433 45.0299 25.8853 45.3472 25.316C45.6739 24.7467 46.1219 24.3033 46.6912 23.986C47.2605 23.6687 47.9045 23.51 48.6232 23.51C49.1552 23.51 49.6452 23.6127 50.0932 23.818C50.5412 24.014 50.9145 24.308 51.2132 24.7V20.612H52.5572ZM48.7352 29.908C49.2019 29.908 49.6265 29.8007 50.0092 29.586C50.3919 29.362 50.6905 29.054 50.9052 28.662C51.1199 28.2607 51.2272 27.8033 51.2272 27.29C51.2272 26.7767 51.1199 26.324 50.9052 25.932C50.6905 25.5307 50.3919 25.2227 50.0092 25.008C49.6265 24.7933 49.2019 24.686 48.7352 24.686C48.2592 24.686 47.8299 24.7933 47.4472 25.008C47.0739 25.2227 46.7752 25.5307 46.5512 25.932C46.3365 26.324 46.2292 26.7767 46.2292 27.29C46.2292 27.8033 46.3365 28.2607 46.5512 28.662C46.7752 29.054 47.0739 29.362 47.4472 29.586C47.8299 29.8007 48.2592 29.908 48.7352 29.908ZM62.0162 23.58V31H60.7422V29.88C60.4715 30.2627 60.1122 30.5613 59.6642 30.776C59.2255 30.9813 58.7448 31.084 58.2222 31.084C57.2328 31.084 56.4535 30.8133 55.8842 30.272C55.3148 29.7213 55.0302 28.914 55.0302 27.85V23.58H56.3742V27.696C56.3742 28.4147 56.5468 28.9607 56.8922 29.334C57.2375 29.698 57.7322 29.88 58.3762 29.88C59.0855 29.88 59.6455 29.6653 60.0562 29.236C60.4668 28.8067 60.6722 28.2 60.6722 27.416V23.58H62.0162ZM67.8088 31.084C67.0528 31.084 66.3761 30.9207 65.7788 30.594C65.1908 30.2673 64.7288 29.8193 64.3928 29.25C64.0568 28.6713 63.8888 28.018 63.8888 27.29C63.8888 26.562 64.0568 25.9133 64.3928 25.344C64.7288 24.7653 65.1908 24.3173 65.7788 24C66.3761 23.6733 67.0528 23.51 67.8088 23.51C68.4808 23.51 69.0781 23.6453 69.6008 23.916C70.1328 24.1867 70.5434 24.5787 70.8328 25.092L69.8108 25.75C69.5774 25.3953 69.2881 25.1293 68.9428 24.952C68.5974 24.7747 68.2148 24.686 67.7948 24.686C67.3094 24.686 66.8708 24.7933 66.4788 25.008C66.0961 25.2227 65.7928 25.5307 65.5688 25.932C65.3541 26.324 65.2468 26.7767 65.2468 27.29C65.2468 27.8127 65.3541 28.2747 65.5688 28.676C65.7928 29.068 66.0961 29.3713 66.4788 29.586C66.8708 29.8007 67.3094 29.908 67.7948 29.908C68.2148 29.908 68.5974 29.8193 68.9428 29.642C69.2881 29.4647 69.5774 29.1987 69.8108 28.844L70.8328 29.488C70.5434 30.0013 70.1328 30.398 69.6008 30.678C69.0781 30.9487 68.4808 31.084 67.8088 31.084ZM75.2748 23.51C76.3015 23.51 77.0855 23.762 77.6268 24.266C78.1775 24.77 78.4528 25.5213 78.4528 26.52V31H77.1788V30.02C76.9548 30.3653 76.6328 30.6313 76.2128 30.818C75.8022 30.9953 75.3122 31.084 74.7428 31.084C73.9122 31.084 73.2448 30.8833 72.7408 30.482C72.2462 30.0807 71.9988 29.5533 71.9988 28.9C71.9988 28.2467 72.2368 27.724 72.7128 27.332C73.1888 26.9307 73.9448 26.73 74.9808 26.73H77.1088V26.464C77.1088 25.8853 76.9408 25.442 76.6048 25.134C76.2688 24.826 75.7742 24.672 75.1208 24.672C74.6822 24.672 74.2528 24.7467 73.8328 24.896C73.4128 25.036 73.0582 25.2273 72.7688 25.47L72.2088 24.462C72.5915 24.154 73.0488 23.9207 73.5808 23.762C74.1128 23.594 74.6775 23.51 75.2748 23.51ZM74.9668 30.048C75.4802 30.048 75.9235 29.936 76.2968 29.712C76.6702 29.4787 76.9408 29.152 77.1088 28.732V27.696H75.0368C73.8982 27.696 73.3288 28.0787 73.3288 28.844C73.3288 29.2173 73.4735 29.5113 73.7628 29.726C74.0522 29.9407 74.4535 30.048 74.9668 30.048ZM85.112 30.566C84.916 30.734 84.6733 30.8647 84.384 30.958C84.0947 31.042 83.796 31.084 83.488 31.084C82.7413 31.084 82.1627 30.8833 81.752 30.482C81.3413 30.0807 81.136 29.5067 81.136 28.76V24.686H79.876V23.58H81.136V21.956H82.48V23.58H84.608V24.686H82.48V28.704C82.48 29.1053 82.578 29.4133 82.774 29.628C82.9793 29.8427 83.2687 29.95 83.642 29.95C84.0527 29.95 84.4027 29.8333 84.692 29.6L85.112 30.566ZM86.7369 23.58H88.0809V31H86.7369V23.58ZM87.4089 22.152C87.1476 22.152 86.9282 22.068 86.7509 21.9C86.5829 21.732 86.4989 21.5267 86.4989 21.284C86.4989 21.0413 86.5829 20.836 86.7509 20.668C86.9282 20.4907 87.1476 20.402 87.4089 20.402C87.6702 20.402 87.8849 20.486 88.0529 20.654C88.2302 20.8127 88.3189 21.0133 88.3189 21.256C88.3189 21.508 88.2302 21.7227 88.0529 21.9C87.8849 22.068 87.6702 22.152 87.4089 22.152ZM93.825 31.084C93.0877 31.084 92.425 30.9207 91.837 30.594C91.249 30.2673 90.787 29.8193 90.451 29.25C90.1244 28.6713 89.961 28.018 89.961 27.29C89.961 26.562 90.1244 25.9133 90.451 25.344C90.787 24.7653 91.249 24.3173 91.837 24C92.425 23.6733 93.0877 23.51 93.825 23.51C94.5624 23.51 95.2204 23.6733 95.799 24C96.387 24.3173 96.8444 24.7653 97.171 25.344C97.507 25.9133 97.675 26.562 97.675 27.29C97.675 28.018 97.507 28.6713 97.171 29.25C96.8444 29.8193 96.387 30.2673 95.799 30.594C95.2204 30.9207 94.5624 31.084 93.825 31.084ZM93.825 29.908C94.301 29.908 94.7257 29.8007 95.099 29.586C95.4817 29.362 95.7804 29.054 95.995 28.662C96.2097 28.2607 96.317 27.8033 96.317 27.29C96.317 26.7767 96.2097 26.324 95.995 25.932C95.7804 25.5307 95.4817 25.2227 95.099 25.008C94.7257 24.7933 94.301 24.686 93.825 24.686C93.349 24.686 92.9197 24.7933 92.537 25.008C92.1637 25.2227 91.865 25.5307 91.641 25.932C91.4264 26.324 91.319 26.7767 91.319 27.29C91.319 27.8033 91.4264 28.2607 91.641 28.662C91.865 29.054 92.1637 29.362 92.537 29.586C92.9197 29.8007 93.349 29.908 93.825 29.908ZM103.496 23.51C104.438 23.51 105.185 23.7853 105.736 24.336C106.296 24.8773 106.576 25.6753 106.576 26.73V31H105.232V26.884C105.232 26.1653 105.059 25.624 104.714 25.26C104.368 24.896 103.874 24.714 103.23 24.714C102.502 24.714 101.928 24.9287 101.508 25.358C101.088 25.778 100.878 26.3847 100.878 27.178V31H99.5338V23.58H100.822V24.7C101.092 24.3173 101.456 24.0233 101.914 23.818C102.38 23.6127 102.908 23.51 103.496 23.51ZM111.765 23.51C112.792 23.51 113.576 23.762 114.117 24.266C114.668 24.77 114.943 25.5213 114.943 26.52V31H113.669V30.02C113.445 30.3653 113.123 30.6313 112.703 30.818C112.292 30.9953 111.802 31.084 111.233 31.084C110.402 31.084 109.735 30.8833 109.231 30.482C108.736 30.0807 108.489 29.5533 108.489 28.9C108.489 28.2467 108.727 27.724 109.203 27.332C109.679 26.9307 110.435 26.73 111.471 26.73H113.599V26.464C113.599 25.8853 113.431 25.442 113.095 25.134C112.759 24.826 112.264 24.672 111.611 24.672C111.172 24.672 110.743 24.7467 110.323 24.896C109.903 25.036 109.548 25.2273 109.259 25.47L108.699 24.462C109.082 24.154 109.539 23.9207 110.071 23.762C110.603 23.594 111.168 23.51 111.765 23.51ZM111.457 30.048C111.97 30.048 112.414 29.936 112.787 29.712C113.16 29.4787 113.431 29.152 113.599 28.732V27.696H111.527C110.388 27.696 109.819 28.0787 109.819 28.844C109.819 29.2173 109.964 29.5113 110.253 29.726C110.542 29.9407 110.944 30.048 111.457 30.048ZM117.43 20.612H118.774V31H117.43V20.612ZM129.678 31.112C128.698 31.112 127.812 30.8973 127.018 30.468C126.234 30.0293 125.618 29.432 125.17 28.676C124.722 27.9107 124.498 27.052 124.498 26.1C124.498 25.148 124.722 24.294 125.17 23.538C125.618 22.7727 126.239 22.1753 127.032 21.746C127.826 21.3073 128.712 21.088 129.692 21.088C130.458 21.088 131.158 21.2187 131.792 21.48C132.427 21.732 132.968 22.11 133.416 22.614L132.506 23.496C131.769 22.7213 130.85 22.334 129.748 22.334C129.02 22.334 128.362 22.4973 127.774 22.824C127.186 23.1507 126.724 23.6033 126.388 24.182C126.062 24.7513 125.898 25.3907 125.898 26.1C125.898 26.8093 126.062 27.4533 126.388 28.032C126.724 28.6013 127.186 29.0493 127.774 29.376C128.362 29.7027 129.02 29.866 129.748 29.866C130.84 29.866 131.76 29.474 132.506 28.69L133.416 29.572C132.968 30.076 132.422 30.4587 131.778 30.72C131.144 30.9813 130.444 31.112 129.678 31.112ZM138.081 31.084C137.344 31.084 136.681 30.9207 136.093 30.594C135.505 30.2673 135.043 29.8193 134.707 29.25C134.38 28.6713 134.217 28.018 134.217 27.29C134.217 26.562 134.38 25.9133 134.707 25.344C135.043 24.7653 135.505 24.3173 136.093 24C136.681 23.6733 137.344 23.51 138.081 23.51C138.818 23.51 139.476 23.6733 140.055 24C140.643 24.3173 141.1 24.7653 141.427 25.344C141.763 25.9133 141.931 26.562 141.931 27.29C141.931 28.018 141.763 28.6713 141.427 29.25C141.1 29.8193 140.643 30.2673 140.055 30.594C139.476 30.9207 138.818 31.084 138.081 31.084ZM138.081 29.908C138.557 29.908 138.982 29.8007 139.355 29.586C139.738 29.362 140.036 29.054 140.251 28.662C140.466 28.2607 140.573 27.8033 140.573 27.29C140.573 26.7767 140.466 26.324 140.251 25.932C140.036 25.5307 139.738 25.2227 139.355 25.008C138.982 24.7933 138.557 24.686 138.081 24.686C137.605 24.686 137.176 24.7933 136.793 25.008C136.42 25.2227 136.121 25.5307 135.897 25.932C135.682 26.324 135.575 26.7767 135.575 27.29C135.575 27.8033 135.682 28.2607 135.897 28.662C136.121 29.054 136.42 29.362 136.793 29.586C137.176 29.8007 137.605 29.908 138.081 29.908ZM147.752 23.51C148.694 23.51 149.441 23.7853 149.992 24.336C150.552 24.8773 150.832 25.6753 150.832 26.73V31H149.488V26.884C149.488 26.1653 149.315 25.624 148.97 25.26C148.624 24.896 148.13 24.714 147.486 24.714C146.758 24.714 146.184 24.9287 145.764 25.358C145.344 25.778 145.134 26.3847 145.134 27.178V31H143.79V23.58H145.078V24.7C145.348 24.3173 145.712 24.0233 146.17 23.818C146.636 23.6127 147.164 23.51 147.752 23.51ZM155.447 31.084C154.84 31.084 154.257 31.0047 153.697 30.846C153.137 30.678 152.698 30.468 152.381 30.216L152.941 29.152C153.268 29.3853 153.664 29.572 154.131 29.712C154.598 29.852 155.069 29.922 155.545 29.922C156.721 29.922 157.309 29.586 157.309 28.914C157.309 28.69 157.23 28.5127 157.071 28.382C156.912 28.2513 156.712 28.158 156.469 28.102C156.236 28.0367 155.9 27.9667 155.461 27.892C154.864 27.7987 154.374 27.6913 153.991 27.57C153.618 27.4487 153.296 27.2433 153.025 26.954C152.754 26.6647 152.619 26.2587 152.619 25.736C152.619 25.064 152.899 24.5273 153.459 24.126C154.019 23.7153 154.77 23.51 155.713 23.51C156.208 23.51 156.702 23.5707 157.197 23.692C157.692 23.8133 158.098 23.9767 158.415 24.182L157.841 25.246C157.234 24.854 156.52 24.658 155.699 24.658C155.13 24.658 154.696 24.7513 154.397 24.938C154.098 25.1247 153.949 25.372 153.949 25.68C153.949 25.9227 154.033 26.114 154.201 26.254C154.369 26.394 154.574 26.4967 154.817 26.562C155.069 26.6273 155.419 26.702 155.867 26.786C156.464 26.8887 156.945 27.0007 157.309 27.122C157.682 27.234 158 27.43 158.261 27.71C158.522 27.99 158.653 28.382 158.653 28.886C158.653 29.558 158.364 30.0947 157.785 30.496C157.216 30.888 156.436 31.084 155.447 31.084ZM167.249 23.58V31H165.975V29.88C165.704 30.2627 165.345 30.5613 164.897 30.776C164.458 30.9813 163.977 31.084 163.455 31.084C162.465 31.084 161.686 30.8133 161.117 30.272C160.547 29.7213 160.263 28.914 160.263 27.85V23.58H161.607V27.696C161.607 28.4147 161.779 28.9607 162.125 29.334C162.47 29.698 162.965 29.88 163.609 29.88C164.318 29.88 164.878 29.6653 165.289 29.236C165.699 28.8067 165.905 28.2 165.905 27.416V23.58H167.249ZM169.807 20.612H171.151V31H169.807V20.612ZM178.067 30.566C177.871 30.734 177.628 30.8647 177.339 30.958C177.05 31.042 176.751 31.084 176.443 31.084C175.696 31.084 175.118 30.8833 174.707 30.482C174.296 30.0807 174.091 29.5067 174.091 28.76V24.686H172.831V23.58H174.091V21.956H175.435V23.58H177.563V24.686H175.435V28.704C175.435 29.1053 175.533 29.4133 175.729 29.628C175.934 29.8427 176.224 29.95 176.597 29.95C177.008 29.95 177.358 29.8333 177.647 29.6L178.067 30.566ZM182.394 23.51C183.421 23.51 184.205 23.762 184.746 24.266C185.297 24.77 185.572 25.5213 185.572 26.52V31H184.298V30.02C184.074 30.3653 183.752 30.6313 183.332 30.818C182.921 30.9953 182.431 31.084 181.862 31.084C181.031 31.084 180.364 30.8833 179.86 30.482C179.365 30.0807 179.118 29.5533 179.118 28.9C179.118 28.2467 179.356 27.724 179.832 27.332C180.308 26.9307 181.064 26.73 182.1 26.73H184.228V26.464C184.228 25.8853 184.06 25.442 183.724 25.134C183.388 24.826 182.893 24.672 182.24 24.672C181.801 24.672 181.372 24.7467 180.952 24.896C180.532 25.036 180.177 25.2273 179.888 25.47L179.328 24.462C179.711 24.154 180.168 23.9207 180.7 23.762C181.232 23.594 181.797 23.51 182.394 23.51ZM182.086 30.048C182.599 30.048 183.043 29.936 183.416 29.712C183.789 29.4787 184.06 29.152 184.228 28.732V27.696H182.156C181.017 27.696 180.448 28.0787 180.448 28.844C180.448 29.2173 180.593 29.5113 180.882 29.726C181.171 29.9407 181.573 30.048 182.086 30.048ZM192.021 23.51C192.964 23.51 193.71 23.7853 194.261 24.336C194.821 24.8773 195.101 25.6753 195.101 26.73V31H193.757V26.884C193.757 26.1653 193.584 25.624 193.239 25.26C192.894 24.896 192.399 24.714 191.755 24.714C191.027 24.714 190.453 24.9287 190.033 25.358C189.613 25.778 189.403 26.3847 189.403 27.178V31H188.059V23.58H189.347V24.7C189.618 24.3173 189.982 24.0233 190.439 23.818C190.906 23.6127 191.433 23.51 192.021 23.51ZM201.76 30.566C201.564 30.734 201.322 30.8647 201.032 30.958C200.743 31.042 200.444 31.084 200.136 31.084C199.39 31.084 198.811 30.8833 198.4 30.482C197.99 30.0807 197.784 29.5067 197.784 28.76V24.686H196.524V23.58H197.784V21.956H199.128V23.58H201.256V24.686H199.128V28.704C199.128 29.1053 199.226 29.4133 199.422 29.628C199.628 29.8427 199.917 29.95 200.29 29.95C200.701 29.95 201.051 29.8333 201.34 29.6L201.76 30.566ZM205.513 31.084C204.907 31.084 204.323 31.0047 203.763 30.846C203.203 30.678 202.765 30.468 202.447 30.216L203.007 29.152C203.334 29.3853 203.731 29.572 204.197 29.712C204.664 29.852 205.135 29.922 205.611 29.922C206.787 29.922 207.375 29.586 207.375 28.914C207.375 28.69 207.296 28.5127 207.137 28.382C206.979 28.2513 206.778 28.158 206.535 28.102C206.302 28.0367 205.966 27.9667 205.527 27.892C204.93 27.7987 204.44 27.6913 204.057 27.57C203.684 27.4487 203.362 27.2433 203.091 26.954C202.821 26.6647 202.685 26.2587 202.685 25.736C202.685 25.064 202.965 24.5273 203.525 24.126C204.085 23.7153 204.837 23.51 205.779 23.51C206.274 23.51 206.769 23.5707 207.263 23.692C207.758 23.8133 208.164 23.9767 208.481 24.182L207.907 25.246C207.301 24.854 206.587 24.658 205.765 24.658C205.196 24.658 204.762 24.7513 204.463 24.938C204.165 25.1247 204.015 25.372 204.015 25.68C204.015 25.9227 204.099 26.114 204.267 26.254C204.435 26.394 204.641 26.4967 204.883 26.562C205.135 26.6273 205.485 26.702 205.933 26.786C206.531 26.8887 207.011 27.0007 207.375 27.122C207.749 27.234 208.066 27.43 208.327 27.71C208.589 27.99 208.719 28.382 208.719 28.886C208.719 29.558 208.43 30.0947 207.851 30.496C207.282 30.888 206.503 31.084 205.513 31.084Z" fill="white"/>
</svg>
