<svg width="102" height="22" viewBox="0 0 102 22" fill="none" xmlns="http://www.w3.org/2000/svg">
<path d="M35.48 17H33.266L33.248 8.648L29.108 15.56H28.064L23.924 8.756V17H21.692V4.4H23.618L28.622 12.752L33.536 4.4H35.462L35.48 17ZM47.7034 12.248C47.7034 12.428 47.6854 12.698 47.6674 12.914H40.1254C40.3954 14.318 41.5654 15.218 43.2394 15.218C44.3194 15.218 45.1654 14.876 45.8494 14.174L47.0554 15.56C46.1914 16.586 44.8414 17.126 43.1854 17.126C39.9634 17.126 37.8754 15.056 37.8754 12.194C37.8754 9.332 39.9814 7.28 42.8434 7.28C45.6514 7.28 47.7034 9.242 47.7034 12.248ZM42.8434 9.08C41.3854 9.08 40.3234 10.016 40.1074 11.42H45.5614C45.3814 10.034 44.3194 9.08 42.8434 9.08ZM52.8347 17.126C51.2327 17.126 49.6307 16.658 48.7667 16.046L49.6307 14.336C50.4767 14.894 51.7727 15.29 52.9787 15.29C54.4007 15.29 54.9947 14.894 54.9947 14.228C54.9947 12.392 49.0547 14.12 49.0547 10.286C49.0547 8.468 50.6927 7.28 53.2847 7.28C54.5627 7.28 56.0207 7.586 56.8847 8.108L56.0207 9.818C55.1027 9.278 54.1847 9.098 53.2667 9.098C51.8987 9.098 51.2507 9.548 51.2507 10.178C51.2507 12.122 57.1907 10.394 57.1907 14.156C57.1907 15.956 55.5347 17.126 52.8347 17.126ZM62.0983 17.126C60.4963 17.126 58.8943 16.658 58.0303 16.046L58.8943 14.336C59.7403 14.894 61.0363 15.29 62.2423 15.29C63.6643 15.29 64.2583 14.894 64.2583 14.228C64.2583 12.392 58.3183 14.12 58.3183 10.286C58.3183 8.468 59.9563 7.28 62.5483 7.28C63.8263 7.28 65.2843 7.586 66.1483 8.108L65.2843 9.818C64.3663 9.278 63.4483 9.098 62.5303 9.098C61.1623 9.098 60.5143 9.548 60.5143 10.178C60.5143 12.122 66.4543 10.394 66.4543 14.156C66.4543 15.956 64.7983 17.126 62.0983 17.126ZM72.064 7.28C74.836 7.28 76.438 8.594 76.438 11.366V17H74.314V15.83C73.774 16.658 72.73 17.126 71.29 17.126C69.094 17.126 67.708 15.92 67.708 14.246C67.708 12.644 68.788 11.384 71.704 11.384H74.188V11.24C74.188 9.926 73.396 9.152 71.794 9.152C70.714 9.152 69.598 9.512 68.878 10.106L67.996 8.468C69.022 7.676 70.516 7.28 72.064 7.28ZM71.758 15.488C72.856 15.488 73.81 14.984 74.188 13.994V12.878H71.866C70.336 12.878 69.922 13.454 69.922 14.156C69.922 14.966 70.606 15.488 71.758 15.488ZM86.8115 7.388H88.9535V15.542C88.9535 19.034 87.1355 20.618 83.7695 20.618C81.9695 20.618 80.1875 20.15 79.0895 19.25L80.0975 17.558C80.9435 18.26 82.3115 18.71 83.6435 18.71C85.7675 18.71 86.7035 17.738 86.7035 15.794V15.29C85.9115 16.154 84.7775 16.568 83.4815 16.568C80.7275 16.568 78.6215 14.696 78.6215 11.906C78.6215 9.116 80.7275 7.28 83.4815 7.28C84.8315 7.28 86.0195 7.712 86.8115 8.666V7.388ZM83.8235 14.66C85.5155 14.66 86.7395 13.544 86.7395 11.906C86.7395 10.286 85.5155 9.188 83.8235 9.188C82.1135 9.188 80.8895 10.286 80.8895 11.906C80.8895 13.544 82.1135 14.66 83.8235 14.66ZM100.948 12.248C100.948 12.428 100.93 12.698 100.912 12.914H93.3695C93.6395 14.318 94.8095 15.218 96.4835 15.218C97.5635 15.218 98.4095 14.876 99.0935 14.174L100.3 15.56C99.4355 16.586 98.0855 17.126 96.4295 17.126C93.2075 17.126 91.1195 15.056 91.1195 12.194C91.1195 9.332 93.2255 7.28 96.0875 7.28C98.8955 7.28 100.948 9.242 100.948 12.248ZM96.0875 9.08C94.6295 9.08 93.5675 10.016 93.3515 11.42H98.8055C98.6255 10.034 97.5635 9.08 96.0875 9.08Z" fill="#C6960C"/>
<path d="M0 10.8998V10.2006C0.00681846 10.1567 0.00681846 10.112 0 10.0681C0.0555587 9.44481 0.210795 8.83441 0.459819 8.25998C1.15021 6.70193 2.40252 5.45873 3.96895 4.77638C5.60549 4.00476 7.45419 3.80107 9.22046 4.19778C10.978 4.53136 12.5576 5.48061 13.6734 6.87375C14.4806 7.85243 14.9438 9.0675 14.9923 10.3332C15.0327 11.1144 14.913 11.8956 14.6405 12.6292C14.368 13.3628 13.9484 14.0335 13.4073 14.6003C12.6904 15.3912 11.8174 16.0263 10.843 16.466C9.86868 16.9057 8.81381 17.1404 7.74425 17.1557C6.73346 17.1988 5.72363 17.0516 4.76761 16.7218C4.7094 16.6984 4.64429 16.6984 4.58608 16.7218C4.38037 16.8665 4.19888 17.0352 3.99317 17.1799C3.20222 17.7094 2.27185 17.9945 1.3189 17.9995C1.2146 18.0044 1.11215 17.9718 1.02998 17.9076C0.947802 17.8434 0.891377 17.752 0.871189 17.65C0.856328 17.5614 0.866674 17.4705 0.900879 17.3875C0.935084 17.3044 0.991832 17.2325 1.06484 17.1799C1.34742 16.8716 1.55374 16.5017 1.66719 16.0999C1.78065 15.698 1.79815 15.2753 1.7183 14.8655C1.69683 14.7867 1.65985 14.7129 1.60944 14.6485C0.745003 13.7081 0.191565 12.5256 0.0242243 11.2614C0.0363247 11.177 0.0242007 11.0444 0 10.8998ZM2.71047 10.5864C2.70395 10.9328 2.83508 11.2678 3.07531 11.5184C3.31553 11.769 3.64547 11.9149 3.99317 11.9243C4.34325 11.9277 4.68079 11.7948 4.93393 11.5539C5.18707 11.313 5.33581 10.9831 5.3484 10.6346C5.35161 10.461 5.32018 10.2886 5.25609 10.1271C5.192 9.96574 5.09651 9.81859 4.975 9.69418C4.85348 9.56977 4.70848 9.4706 4.54826 9.40236C4.38805 9.33412 4.21571 9.29816 4.04147 9.2966C3.69373 9.29336 3.35885 9.42707 3.10958 9.66861C2.8603 9.91016 2.71683 10.24 2.71047 10.5864ZM7.5506 11.9243C7.8986 11.9246 8.23314 11.7902 8.48368 11.5496C8.73422 11.3091 8.88118 10.981 8.89372 10.6346C8.89693 10.462 8.86607 10.2905 8.80273 10.1299C8.7394 9.96927 8.64483 9.82266 8.5246 9.69841C8.40436 9.57416 8.26082 9.47472 8.102 9.40578C7.94318 9.33684 7.77227 9.29974 7.59905 9.2966C7.42584 9.29341 7.25366 9.32422 7.09241 9.38731C6.93116 9.45041 6.78405 9.54454 6.65933 9.66431C6.5346 9.78408 6.43474 9.92715 6.36553 10.0854C6.29632 10.2436 6.25908 10.4138 6.25593 10.5864C6.25244 10.9299 6.38288 11.2614 6.61989 11.511C6.85689 11.7606 7.18185 11.9087 7.52638 11.9243H7.5506ZM11.0961 9.2966C10.7493 9.29968 10.4174 9.43747 10.1711 9.68061C9.92478 9.92374 9.78346 10.253 9.77717 10.5984C9.77711 10.9459 9.914 11.2796 10.1584 11.5276C10.4028 11.7756 10.7352 11.918 11.084 11.9243C11.4349 11.9244 11.7716 11.7863 12.0209 11.5403C12.2701 11.2942 12.4118 10.96 12.415 10.6105C12.4086 10.2598 12.2644 9.92567 12.0132 9.67994C11.762 9.43421 11.4239 9.29654 11.0718 9.2966H11.0961Z" fill="#C6960C"/>
</svg>
