<svg width="135" height="17" viewBox="0 0 135 17" fill="none" xmlns="http://www.w3.org/2000/svg">
<path d="M1.51753 8.23768C1.55418 8.02697 1.57453 7.87095 1.60304 7.71502C1.77524 6.73563 2.14972 5.80623 2.70076 4.99023C3.25181 4.17423 3.96639 3.49096 4.79599 2.98687C5.89866 2.29559 7.1731 1.95417 8.46144 2.00494C9.97693 2.05826 11.4313 2.63674 12.5908 3.6478C13.7504 4.65886 14.548 6.04387 14.8557 7.58025C15.1857 9.19882 14.9454 10.8861 14.1784 12.3374C13.4113 13.7888 12.1681 14.9085 10.673 15.4943C8.20493 16.4636 5.91189 16.0253 3.85516 14.3017C3.72484 14.1921 3.60269 14.07 3.48051 13.9478C3.42159 13.8917 3.37409 13.8241 3.34071 13.7488C3.30732 13.6735 3.28867 13.592 3.28602 13.5093C3.28336 13.4265 3.29671 13.3441 3.32519 13.2667C3.35368 13.1893 3.39687 13.1186 3.45207 13.0586C3.50603 12.9959 3.57165 12.9451 3.64516 12.9095C3.71868 12.8738 3.79848 12.854 3.87962 12.8512C3.96077 12.8485 4.04165 12.8628 4.11727 12.8934C4.19288 12.924 4.26168 12.97 4.31951 13.029C4.68645 13.3972 5.09699 13.7158 5.54133 13.9772C6.18231 14.3493 6.88863 14.5856 7.61885 14.6721C8.34907 14.7585 9.08855 14.6936 9.79422 14.4809C10.4999 14.2683 11.1574 13.9122 11.7286 13.4335C12.2997 12.9549 12.773 12.3632 13.1206 11.6932C13.5174 10.9264 13.7401 10.076 13.7717 9.20685C13.8033 8.33767 13.643 7.47259 13.303 6.67713C12.9629 5.88166 12.4522 5.17673 11.8095 4.61615C11.1668 4.05556 10.409 3.65395 9.59376 3.44182C8.85086 3.25027 8.07766 3.22032 7.32294 3.35355C6.56823 3.48678 5.84832 3.78034 5.20883 4.21593C4.56933 4.65152 4.02402 5.21967 3.60738 5.8843C3.19074 6.54893 2.91191 7.29558 2.78826 8.07738C2.78826 8.1111 2.78826 8.14905 2.78826 8.20805C2.82277 8.18398 2.85535 8.15724 2.8859 8.128C3.03252 7.98051 3.17092 7.82456 3.32161 7.68128C3.43877 7.57004 3.59341 7.5105 3.75235 7.51522C3.91129 7.51994 4.06215 7.58858 4.17295 7.70659C4.28167 7.82223 4.34238 7.97716 4.34238 8.1385C4.34238 8.29983 4.28167 8.45497 4.17295 8.57061C3.65164 9.12688 3.12213 9.67046 2.5886 10.2141C2.5337 10.2714 2.4683 10.3168 2.3963 10.3478C2.3243 10.3789 2.24721 10.395 2.1692 10.395C2.09119 10.395 2.0139 10.3789 1.9419 10.3478C1.8699 10.3168 1.80451 10.2714 1.7496 10.2141C1.20657 9.67748 0.682602 9.13512 0.177585 8.58728C0.121311 8.52967 0.0766256 8.46122 0.0461363 8.38562C0.015647 8.31003 0 8.22884 0 8.14693C0 8.06502 0.015647 7.98404 0.0461363 7.90845C0.0766256 7.83286 0.121311 7.7642 0.177585 7.70659C0.291092 7.59103 0.443916 7.52633 0.603152 7.52633C0.762389 7.52633 0.915213 7.59103 1.02872 7.70659C1.19163 7.8583 1.33425 8.0354 1.51753 8.23768Z" fill="white"/>
<path d="M7.61424 7.89631C7.61424 7.20098 7.61424 6.50565 7.61424 5.78924C7.61612 5.63835 7.6708 5.49315 7.76816 5.38079C7.86552 5.26843 7.99905 5.19645 8.14381 5.17811C8.28231 5.15914 8.42288 5.19086 8.54114 5.26783C8.6594 5.34479 8.74785 5.46214 8.79131 5.59952C8.82268 5.70168 8.83775 5.80842 8.83606 5.91559C8.83606 7.13347 8.83606 8.34721 8.83606 9.5651C8.83358 9.61307 8.84152 9.66098 8.85912 9.70543C8.87673 9.74989 8.90357 9.78973 8.93787 9.8221C9.36551 10.2435 9.7932 10.6987 10.2168 11.1454C10.3101 11.2362 10.3731 11.3554 10.3965 11.4857C10.42 11.6161 10.4026 11.7507 10.347 11.8701C10.2989 11.9849 10.2173 12.0812 10.1136 12.1454C10.0098 12.2097 9.88921 12.2387 9.76873 12.2284C9.61904 12.2094 9.47772 12.1467 9.36145 12.0473C8.82385 11.5121 8.29851 10.9599 7.77313 10.412C7.71443 10.3483 7.66891 10.2728 7.6395 10.1902C7.61008 10.1076 7.59741 10.0197 7.60211 9.93178C7.60211 9.2533 7.60211 8.57047 7.60211 7.89199L7.61424 7.89631Z" fill="white"/>
<path d="M29.422 14H28.288L26.048 10.85C25.796 10.878 25.544 10.892 25.264 10.892H22.632V14H21.596V4.2H25.264C27.756 4.2 29.268 5.46 29.268 7.56C29.268 9.1 28.456 10.178 27.028 10.64L29.422 14ZM25.236 10.01C27.196 10.01 28.232 9.1 28.232 7.56C28.232 5.992 27.196 5.096 25.236 5.096H22.632V10.01H25.236ZM37.9292 10.318C37.9292 10.402 37.9152 10.514 37.9152 10.626H31.7552C31.8672 12.166 33.0432 13.188 34.6532 13.188C35.5492 13.188 36.3472 12.866 36.9072 12.222L37.4672 12.866C36.8092 13.65 35.7872 14.07 34.6252 14.07C32.3292 14.07 30.7612 12.502 30.7612 10.318C30.7612 8.134 32.2872 6.58 34.3592 6.58C36.4312 6.58 37.9292 8.106 37.9292 10.318ZM34.3592 7.434C32.9312 7.434 31.8812 8.442 31.7552 9.884H36.9772C36.8512 8.442 35.8012 7.434 34.3592 7.434ZM43.0044 14.07C40.8064 14.07 39.2104 12.516 39.2104 10.318C39.2104 8.12 40.8064 6.58 43.0044 6.58C44.2504 6.58 45.3004 7.07 45.8884 8.036L45.1464 8.54C44.6424 7.798 43.8584 7.448 43.0044 7.448C41.3944 7.448 40.2184 8.596 40.2184 10.318C40.2184 12.054 41.3944 13.188 43.0044 13.188C43.8584 13.188 44.6424 12.852 45.1464 12.11L45.8884 12.614C45.3004 13.566 44.2504 14.07 43.0044 14.07ZM54.144 10.318C54.144 10.402 54.13 10.514 54.13 10.626H47.97C48.082 12.166 49.258 13.188 50.868 13.188C51.764 13.188 52.562 12.866 53.122 12.222L53.682 12.866C53.024 13.65 52.002 14.07 50.84 14.07C48.544 14.07 46.976 12.502 46.976 10.318C46.976 8.134 48.502 6.58 50.574 6.58C52.646 6.58 54.144 8.106 54.144 10.318ZM50.574 7.434C49.146 7.434 48.096 8.442 47.97 9.884H53.192C53.066 8.442 52.016 7.434 50.574 7.434ZM59.9193 6.58C61.7113 6.58 62.9433 7.616 62.9433 9.73V14H61.9493V9.828C61.9493 8.274 61.1373 7.476 59.7373 7.476C58.1553 7.476 57.1613 8.456 57.1613 10.136V14H56.1673V6.636H57.1193V7.994C57.6513 7.098 58.6453 6.58 59.9193 6.58ZM69.1699 12.838L69.5199 13.552C69.1279 13.902 68.5399 14.07 67.9659 14.07C66.5799 14.07 65.8099 13.286 65.8099 11.928V7.476H64.4939V6.636H65.8099V5.026H66.8039V6.636H69.0439V7.476H66.8039V11.872C66.8039 12.74 67.2519 13.216 68.0779 13.216C68.4839 13.216 68.8899 13.09 69.1699 12.838ZM77.9054 14.084C76.4354 14.084 74.9934 13.566 74.2654 12.81L74.6714 12.012C75.3714 12.698 76.6174 13.202 77.9054 13.202C79.7394 13.202 80.5374 12.432 80.5374 11.466C80.5374 8.778 74.5034 10.43 74.5034 6.804C74.5034 5.362 75.6234 4.116 78.1154 4.116C79.2214 4.116 80.3694 4.438 81.1534 4.984L80.8034 5.81C79.9634 5.264 78.9834 4.998 78.1154 4.998C76.3234 4.998 75.5254 5.796 75.5254 6.776C75.5254 9.464 81.5594 7.84 81.5594 11.41C81.5594 12.852 80.4114 14.084 77.9054 14.084ZM90.0327 10.318C90.0327 10.402 90.0187 10.514 90.0187 10.626H83.8587C83.9707 12.166 85.1467 13.188 86.7567 13.188C87.6527 13.188 88.4507 12.866 89.0107 12.222L89.5707 12.866C88.9127 13.65 87.8907 14.07 86.7287 14.07C84.4327 14.07 82.8647 12.502 82.8647 10.318C82.8647 8.134 84.3907 6.58 86.4627 6.58C88.5347 6.58 90.0327 8.106 90.0327 10.318ZM86.4627 7.434C85.0347 7.434 83.9847 8.442 83.8587 9.884H89.0807C88.9547 8.442 87.9047 7.434 86.4627 7.434ZM94.4268 6.58C96.3308 6.58 97.4088 7.532 97.4088 9.436V14H96.4568V12.852C96.0088 13.608 95.1408 14.07 93.9228 14.07C92.2568 14.07 91.2348 13.202 91.2348 11.928C91.2348 10.794 91.9628 9.842 94.0768 9.842H96.4148V9.394C96.4148 8.134 95.7008 7.448 94.3288 7.448C93.3768 7.448 92.4808 7.784 91.8788 8.316L91.4308 7.574C92.1728 6.944 93.2648 6.58 94.4268 6.58ZM94.0768 13.286C95.1968 13.286 96.0228 12.754 96.4148 11.788V10.584H94.1048C92.6768 10.584 92.2148 11.144 92.2148 11.9C92.2148 12.754 92.9008 13.286 94.0768 13.286ZM101.061 8.078C101.523 7.098 102.461 6.58 103.819 6.58V7.546C103.735 7.546 103.651 7.532 103.581 7.532C102.041 7.532 101.103 8.512 101.103 10.248V14H100.109V6.636H101.061V8.078ZM108.602 14.07C106.404 14.07 104.808 12.516 104.808 10.318C104.808 8.12 106.404 6.58 108.602 6.58C109.848 6.58 110.898 7.07 111.486 8.036L110.744 8.54C110.24 7.798 109.456 7.448 108.602 7.448C106.992 7.448 105.816 8.596 105.816 10.318C105.816 12.054 106.992 13.188 108.602 13.188C109.456 13.188 110.24 12.852 110.744 12.11L111.486 12.614C110.898 13.566 109.848 14.07 108.602 14.07ZM117.081 6.58C118.873 6.58 120.105 7.616 120.105 9.73V14H119.111V9.828C119.111 8.274 118.299 7.476 116.899 7.476C115.317 7.476 114.323 8.456 114.323 10.136V14H113.329V3.612H114.323V7.924C114.869 7.07 115.835 6.58 117.081 6.58ZM124.778 14.07C123.56 14.07 122.384 13.678 121.782 13.16L122.23 12.376C122.818 12.838 123.812 13.202 124.848 13.202C126.248 13.202 126.822 12.726 126.822 11.998C126.822 10.08 122.048 11.592 122.048 8.68C122.048 7.476 123.084 6.58 124.96 6.58C125.912 6.58 126.948 6.846 127.564 7.266L127.13 8.064C126.486 7.616 125.716 7.434 124.96 7.434C123.63 7.434 123.042 7.952 123.042 8.652C123.042 10.64 127.816 9.142 127.816 11.97C127.816 13.244 126.696 14.07 124.778 14.07ZM133.416 8.106C133.01 8.106 132.674 7.77 132.674 7.336C132.674 6.902 133.01 6.58 133.416 6.58C133.822 6.58 134.172 6.902 134.172 7.336C134.172 7.77 133.822 8.106 133.416 8.106ZM133.416 14.07C133.01 14.07 132.674 13.734 132.674 13.3C132.674 12.866 133.01 12.544 133.416 12.544C133.822 12.544 134.172 12.866 134.172 13.3C134.172 13.734 133.822 14.07 133.416 14.07Z" fill="white"/>
</svg>
