<svg width="88" height="22" viewBox="0 0 88 22" fill="none" xmlns="http://www.w3.org/2000/svg">
<path d="M29.598 17.18C28.626 17.18 27.684 17.042 26.772 16.766C25.872 16.49 25.158 16.124 24.63 15.668L25.44 13.85C25.956 14.258 26.586 14.594 27.33 14.858C28.086 15.11 28.842 15.236 29.598 15.236C30.534 15.236 31.23 15.086 31.686 14.786C32.154 14.486 32.388 14.09 32.388 13.598C32.388 13.238 32.256 12.944 31.992 12.716C31.74 12.476 31.416 12.29 31.02 12.158C30.624 12.026 30.084 11.876 29.4 11.708C28.44 11.48 27.66 11.252 27.06 11.024C26.472 10.796 25.962 10.442 25.53 9.962C25.11 9.47 24.9 8.81 24.9 7.982C24.9 7.286 25.086 6.656 25.458 6.092C25.842 5.516 26.412 5.06 27.168 4.724C27.936 4.388 28.872 4.22 29.976 4.22C30.744 4.22 31.5 4.316 32.244 4.508C32.988 4.7 33.63 4.976 34.17 5.336L33.432 7.154C32.88 6.83 32.304 6.584 31.704 6.416C31.104 6.248 30.522 6.164 29.958 6.164C29.034 6.164 28.344 6.32 27.888 6.632C27.444 6.944 27.222 7.358 27.222 7.874C27.222 8.234 27.348 8.528 27.6 8.756C27.864 8.984 28.194 9.164 28.59 9.296C28.986 9.428 29.526 9.578 30.21 9.746C31.146 9.962 31.914 10.19 32.514 10.43C33.114 10.658 33.624 11.012 34.044 11.492C34.476 11.972 34.692 12.62 34.692 13.436C34.692 14.132 34.5 14.762 34.116 15.326C33.744 15.89 33.174 16.34 32.406 16.676C31.638 17.012 30.702 17.18 29.598 17.18ZM45.8323 12.248C45.8323 12.404 45.8203 12.626 45.7963 12.914H38.2543C38.3863 13.622 38.7283 14.186 39.2803 14.606C39.8443 15.014 40.5403 15.218 41.3683 15.218C42.4243 15.218 43.2943 14.87 43.9783 14.174L45.1843 15.56C44.7523 16.076 44.2063 16.466 43.5463 16.73C42.8863 16.994 42.1423 17.126 41.3143 17.126C40.2583 17.126 39.3283 16.916 38.5243 16.496C37.7203 16.076 37.0963 15.494 36.6523 14.75C36.2203 13.994 36.0043 13.142 36.0043 12.194C36.0043 11.258 36.2143 10.418 36.6343 9.674C37.0663 8.918 37.6603 8.33 38.4163 7.91C39.1723 7.49 40.0243 7.28 40.9723 7.28C41.9083 7.28 42.7423 7.49 43.4743 7.91C44.2183 8.318 44.7943 8.9 45.2023 9.656C45.6223 10.4 45.8323 11.264 45.8323 12.248ZM40.9723 9.08C40.2523 9.08 39.6403 9.296 39.1363 9.728C38.6443 10.148 38.3443 10.712 38.2363 11.42H43.6903C43.5943 10.724 43.3003 10.16 42.8083 9.728C42.3163 9.296 41.7043 9.08 40.9723 9.08ZM51.4019 7.28C52.8179 7.28 53.8979 7.622 54.6419 8.306C55.3979 8.978 55.7759 9.998 55.7759 11.366V17H53.6519V15.83C53.3759 16.25 52.9799 16.574 52.4639 16.802C51.9599 17.018 51.3479 17.126 50.6279 17.126C49.9079 17.126 49.2779 17.006 48.7379 16.766C48.1979 16.514 47.7779 16.172 47.4779 15.74C47.1899 15.296 47.0459 14.798 47.0459 14.246C47.0459 13.382 47.3639 12.692 47.9999 12.176C48.6479 11.648 49.6619 11.384 51.0419 11.384H53.5259V11.24C53.5259 10.568 53.3219 10.052 52.9139 9.692C52.5179 9.332 51.9239 9.152 51.1319 9.152C50.5919 9.152 50.0579 9.236 49.5299 9.404C49.0139 9.572 48.5759 9.806 48.2159 10.106L47.3339 8.468C47.8379 8.084 48.4439 7.79 49.1519 7.586C49.8599 7.382 50.6099 7.28 51.4019 7.28ZM51.0959 15.488C51.6599 15.488 52.1579 15.362 52.5899 15.11C53.0339 14.846 53.3459 14.474 53.5259 13.994V12.878H51.2039C49.9079 12.878 49.2599 13.304 49.2599 14.156C49.2599 14.564 49.4219 14.888 49.7459 15.128C50.0699 15.368 50.5199 15.488 51.0959 15.488ZM60.8055 8.792C61.4535 7.784 62.5935 7.28 64.2255 7.28V9.422C64.0335 9.386 63.8595 9.368 63.7035 9.368C62.8275 9.368 62.1435 9.626 61.6515 10.142C61.1595 10.646 60.9135 11.378 60.9135 12.338V17H58.6635V7.388H60.8055V8.792ZM70.4563 17.126C69.4603 17.126 68.5663 16.916 67.7743 16.496C66.9823 16.076 66.3643 15.494 65.9203 14.75C65.4763 13.994 65.2543 13.142 65.2543 12.194C65.2543 11.246 65.4763 10.4 65.9203 9.656C66.3643 8.912 66.9763 8.33 67.7563 7.91C68.5483 7.49 69.4483 7.28 70.4563 7.28C71.4043 7.28 72.2323 7.472 72.9403 7.856C73.6603 8.24 74.2003 8.792 74.5603 9.512L72.8323 10.52C72.5563 10.076 72.2083 9.746 71.7883 9.53C71.3803 9.302 70.9303 9.188 70.4383 9.188C69.5983 9.188 68.9023 9.464 68.3503 10.016C67.7983 10.556 67.5223 11.282 67.5223 12.194C67.5223 13.106 67.7923 13.838 68.3323 14.39C68.8843 14.93 69.5863 15.2 70.4383 15.2C70.9303 15.2 71.3803 15.092 71.7883 14.876C72.2083 14.648 72.5563 14.312 72.8323 13.868L74.5603 14.876C74.1883 15.596 73.6423 16.154 72.9223 16.55C72.2143 16.934 71.3923 17.126 70.4563 17.126ZM81.8714 7.28C83.0834 7.28 84.0554 7.634 84.7874 8.342C85.5194 9.05 85.8854 10.1 85.8854 11.492V17H83.6354V11.78C83.6354 10.94 83.4374 10.31 83.0414 9.89C82.6454 9.458 82.0814 9.242 81.3494 9.242C80.5214 9.242 79.8674 9.494 79.3874 9.998C78.9074 10.49 78.6674 11.204 78.6674 12.14V17H76.4174V3.644H78.6674V8.504C79.0394 8.108 79.4954 7.808 80.0354 7.604C80.5874 7.388 81.1994 7.28 81.8714 7.28Z" fill="white"/>
<path d="M12.7625 14.6887C12.8291 14.7274 12.8916 14.7726 12.9491 14.8237C13.8736 15.7427 14.7961 16.6636 15.7167 17.5865C15.8789 17.724 15.9798 17.9203 15.9973 18.1322C16.0148 18.3441 15.9474 18.5543 15.81 18.7166C15.6725 18.8788 15.4763 18.9798 15.2645 18.9973C15.0526 19.0148 14.8424 18.9474 14.6802 18.8099C14.6286 18.7668 14.5798 18.7151 14.531 18.6663L11.7921 15.9294L11.6515 15.7944C9.78253 17.2103 7.70685 17.6985 5.42449 17.1385C3.707 16.7246 2.20962 15.676 1.23299 14.2034C0.48824 13.1024 0.0636954 11.8162 0.00662331 10.4881C-0.0504488 9.15992 0.262214 7.84201 0.90977 6.68115C1.55733 5.52029 2.51432 4.56207 3.6742 3.91324C4.83407 3.26441 6.15124 2.95046 7.47897 3.00635C8.80671 3.06224 10.0929 3.48579 11.1941 4.2298C12.2954 4.97382 13.1686 6.00908 13.7164 7.22026C14.2641 8.43144 14.465 9.77097 14.2966 11.0896C14.1282 12.4083 13.5971 13.6542 12.7625 14.6887ZM12.7625 10.1828C12.7642 9.07698 12.4381 7.99551 11.8255 7.0751C11.2128 6.1547 10.3411 5.43667 9.32056 5.0118C8.30001 4.58693 7.17642 4.4743 6.09189 4.68815C5.00736 4.902 4.01055 5.43272 3.22751 6.21322C2.44447 6.99372 1.91035 7.98895 1.69268 9.07308C1.47501 10.1572 1.58356 11.2816 2.00461 12.304C2.42566 13.3264 3.1403 14.201 4.05819 14.8172C4.97607 15.4333 6.056 15.7634 7.16139 15.7657C7.89631 15.7695 8.62473 15.6278 9.30468 15.3488C9.98464 15.0699 10.6027 14.6591 11.1233 14.1402C11.6439 13.6213 12.0568 13.0044 12.3381 12.3253C12.6194 11.6461 12.7637 10.9179 12.7625 10.1828Z" fill="white"/>
</svg>
