<svg width="170" height="34" viewBox="0 0 170 34" fill="none" xmlns="http://www.w3.org/2000/svg">
<path d="M49.198 10.388V11.592H47.336V14H45.978V11.592H40.532V10.612L45.544 4.2H47.056L42.254 10.388H46.02V8.26H47.336V10.388H49.198ZM54.0412 14.112C51.7452 14.112 50.0372 12.292 50.0372 9.1C50.0372 5.908 51.7452 4.088 54.0412 4.088C56.3232 4.088 58.0312 5.908 58.0312 9.1C58.0312 12.292 56.3232 14.112 54.0412 14.112ZM54.0412 12.866C55.5672 12.866 56.6312 11.606 56.6312 9.1C56.6312 6.594 55.5672 5.334 54.0412 5.334C52.5012 5.334 51.4372 6.594 51.4372 9.1C51.4372 11.606 52.5012 12.866 54.0412 12.866ZM63.3791 14.112C61.0831 14.112 59.3751 12.292 59.3751 9.1C59.3751 5.908 61.0831 4.088 63.3791 4.088C65.6611 4.088 67.3691 5.908 67.3691 9.1C67.3691 12.292 65.6611 14.112 63.3791 14.112ZM63.3791 12.866C64.9051 12.866 65.9691 11.606 65.9691 9.1C65.9691 6.594 64.9051 5.334 63.3791 5.334C61.8391 5.334 60.7751 6.594 60.7751 9.1C60.7751 11.606 61.8391 12.866 63.3791 12.866ZM75.3467 8.554V9.66H72.7987V12.166H71.6227V9.66H69.0747V8.554H71.6227V6.034H72.7987V8.554H75.3467ZM89.5929 14H88.0669L85.9529 10.99C85.7569 11.004 85.5469 11.018 85.3369 11.018H82.9149V14H81.5149V4.2H85.3369C87.8849 4.2 89.4249 5.488 89.4249 7.616C89.4249 9.128 88.6409 10.22 87.2689 10.71L89.5929 14ZM85.2949 9.828C87.0869 9.828 88.0249 9.016 88.0249 7.616C88.0249 6.216 87.0869 5.418 85.2949 5.418H82.9149V9.828H85.2949ZM98.1968 10.332C98.1968 10.444 98.1828 10.612 98.1688 10.738H92.1488C92.3168 12.04 93.3668 12.908 94.8368 12.908C95.7048 12.908 96.4328 12.614 96.9788 12.012L97.7208 12.88C97.0488 13.664 96.0268 14.084 94.7948 14.084C92.4008 14.084 90.8048 12.502 90.8048 10.29C90.8048 8.092 92.3868 6.51 94.5288 6.51C96.6708 6.51 98.1968 8.05 98.1968 10.332ZM94.5288 7.644C93.2408 7.644 92.2888 8.512 92.1488 9.772H96.9088C96.7688 8.526 95.8308 7.644 94.5288 7.644ZM105.887 6.58H107.161V12.992C107.161 15.61 105.831 16.8 103.311 16.8C101.953 16.8 100.581 16.422 99.7691 15.694L100.413 14.658C101.099 15.246 102.177 15.624 103.269 15.624C105.019 15.624 105.817 14.812 105.817 13.132V12.544C105.173 13.314 104.207 13.692 103.143 13.692C101.001 13.692 99.3771 12.236 99.3771 10.094C99.3771 7.952 101.001 6.51 103.143 6.51C104.249 6.51 105.257 6.916 105.887 7.728V6.58ZM103.297 12.516C104.781 12.516 105.845 11.522 105.845 10.094C105.845 8.652 104.781 7.686 103.297 7.686C101.799 7.686 100.735 8.652 100.735 10.094C100.735 11.522 101.799 12.516 103.297 12.516ZM110.401 5.152C109.883 5.152 109.491 4.774 109.491 4.284C109.491 3.794 109.883 3.402 110.401 3.402C110.919 3.402 111.311 3.78 111.311 4.256C111.311 4.76 110.933 5.152 110.401 5.152ZM109.729 14V6.58H111.073V14H109.729ZM115.767 14.084C114.535 14.084 113.317 13.706 112.701 13.216L113.261 12.152C113.891 12.6 114.899 12.922 115.865 12.922C117.111 12.922 117.629 12.544 117.629 11.914C117.629 10.248 112.939 11.69 112.939 8.736C112.939 7.406 114.129 6.51 116.033 6.51C116.999 6.51 118.091 6.762 118.735 7.182L118.161 8.246C117.489 7.812 116.747 7.658 116.019 7.658C114.843 7.658 114.269 8.092 114.269 8.68C114.269 10.43 118.973 9.002 118.973 11.886C118.973 13.23 117.741 14.084 115.767 14.084ZM124.405 12.6L124.825 13.566C124.419 13.916 123.803 14.084 123.201 14.084C121.703 14.084 120.849 13.258 120.849 11.76V7.686H119.589V6.58H120.849V4.956H122.193V6.58H124.321V7.686H122.193V11.704C122.193 12.502 122.613 12.95 123.355 12.95C123.747 12.95 124.125 12.824 124.405 12.6ZM132.91 10.332C132.91 10.444 132.896 10.612 132.882 10.738H126.862C127.03 12.04 128.08 12.908 129.55 12.908C130.418 12.908 131.146 12.614 131.692 12.012L132.434 12.88C131.762 13.664 130.74 14.084 129.508 14.084C127.114 14.084 125.518 12.502 125.518 10.29C125.518 8.092 127.1 6.51 129.242 6.51C131.384 6.51 132.91 8.05 132.91 10.332ZM129.242 7.644C127.954 7.644 127.002 8.512 126.862 9.772H131.622C131.482 8.526 130.544 7.644 129.242 7.644ZM136.064 7.826C136.54 6.958 137.464 6.51 138.766 6.51V7.812C138.654 7.798 138.556 7.798 138.458 7.798C137.016 7.798 136.12 8.68 136.12 10.304V14H134.776V6.58H136.064V7.826ZM147.06 10.332C147.06 10.444 147.046 10.612 147.032 10.738H141.012C141.18 12.04 142.23 12.908 143.7 12.908C144.568 12.908 145.296 12.614 145.842 12.012L146.584 12.88C145.912 13.664 144.89 14.084 143.658 14.084C141.264 14.084 139.668 12.502 139.668 10.29C139.668 8.092 141.25 6.51 143.392 6.51C145.534 6.51 147.06 8.05 147.06 10.332ZM143.392 7.644C142.104 7.644 141.152 8.512 141.012 9.772H145.772C145.632 8.526 144.694 7.644 143.392 7.644ZM154.582 3.612H155.926V14H154.638V12.824C154.036 13.664 153.084 14.084 151.992 14.084C149.822 14.084 148.24 12.558 148.24 10.29C148.24 8.022 149.822 6.51 151.992 6.51C153.042 6.51 153.966 6.902 154.582 7.7V3.612ZM152.104 12.908C153.518 12.908 154.596 11.872 154.596 10.29C154.596 8.708 153.518 7.686 152.104 7.686C150.676 7.686 149.598 8.708 149.598 10.29C149.598 11.872 150.676 12.908 152.104 12.908ZM43.416 31V22.418H40.056V21.2H48.162V22.418H44.802V31H43.416ZM50.6011 24.826C51.0771 23.958 52.0011 23.51 53.3031 23.51V24.812C53.1911 24.798 53.0931 24.798 52.9951 24.798C51.5531 24.798 50.6571 25.68 50.6571 27.304V31H49.3131V23.58H50.6011V24.826ZM57.6479 23.51C59.6779 23.51 60.8259 24.49 60.8259 26.52V31H59.5519V30.02C59.1039 30.692 58.2779 31.084 57.1159 31.084C55.4359 31.084 54.3719 30.188 54.3719 28.9C54.3719 27.71 55.1419 26.73 57.3539 26.73H59.4819V26.464C59.4819 25.33 58.8239 24.672 57.4939 24.672C56.6119 24.672 55.7159 24.98 55.1419 25.47L54.5819 24.462C55.3519 23.846 56.4579 23.51 57.6479 23.51ZM57.3399 30.048C58.3479 30.048 59.1459 29.586 59.4819 28.732V27.696H57.4099C56.0799 27.696 55.7019 28.214 55.7019 28.844C55.7019 29.586 56.3179 30.048 57.3399 30.048ZM63.9851 22.152C63.4671 22.152 63.0751 21.774 63.0751 21.284C63.0751 20.794 63.4671 20.402 63.9851 20.402C64.5031 20.402 64.8951 20.78 64.8951 21.256C64.8951 21.76 64.5171 22.152 63.9851 22.152ZM63.3131 31V23.58H64.6571V31H63.3131ZM71.1852 23.51C72.9912 23.51 74.2652 24.546 74.2652 26.73V31H72.9212V26.884C72.9212 25.428 72.1932 24.714 70.9192 24.714C69.4912 24.714 68.5672 25.568 68.5672 27.178V31H67.2232V23.58H68.5112V24.7C69.0572 23.944 70.0092 23.51 71.1852 23.51ZM77.4245 22.152C76.9065 22.152 76.5145 21.774 76.5145 21.284C76.5145 20.794 76.9065 20.402 77.4245 20.402C77.9425 20.402 78.3345 20.78 78.3345 21.256C78.3345 21.76 77.9565 22.152 77.4245 22.152ZM76.7525 31V23.58H78.0965V31H76.7525ZM84.6247 23.51C86.4307 23.51 87.7047 24.546 87.7047 26.73V31H86.3607V26.884C86.3607 25.428 85.6327 24.714 84.3587 24.714C82.9307 24.714 82.0067 25.568 82.0067 27.178V31H80.6627V23.58H81.9507V24.7C82.4967 23.944 83.4487 23.51 84.6247 23.51ZM96.057 23.58H97.331V29.992C97.331 32.61 96.001 33.8 93.481 33.8C92.123 33.8 90.751 33.422 89.939 32.694L90.583 31.658C91.269 32.246 92.347 32.624 93.439 32.624C95.189 32.624 95.987 31.812 95.987 30.132V29.544C95.343 30.314 94.377 30.692 93.313 30.692C91.171 30.692 89.547 29.236 89.547 27.094C89.547 24.952 91.171 23.51 93.313 23.51C94.419 23.51 95.427 23.916 96.057 24.728V23.58ZM93.467 29.516C94.951 29.516 96.015 28.522 96.015 27.094C96.015 25.652 94.951 24.686 93.467 24.686C91.969 24.686 90.905 25.652 90.905 27.094C90.905 28.522 91.969 29.516 93.467 29.516ZM103.855 31V21.2H105.255V31H103.855ZM111.955 23.51C113.761 23.51 115.035 24.546 115.035 26.73V31H113.691V26.884C113.691 25.428 112.963 24.714 111.689 24.714C110.261 24.714 109.337 25.568 109.337 27.178V31H107.993V23.58H109.281V24.7C109.827 23.944 110.779 23.51 111.955 23.51ZM119.65 31.084C118.418 31.084 117.2 30.706 116.584 30.216L117.144 29.152C117.774 29.6 118.782 29.922 119.748 29.922C120.994 29.922 121.512 29.544 121.512 28.914C121.512 27.248 116.822 28.69 116.822 25.736C116.822 24.406 118.012 23.51 119.916 23.51C120.882 23.51 121.974 23.762 122.618 24.182L122.044 25.246C121.372 24.812 120.63 24.658 119.902 24.658C118.726 24.658 118.152 25.092 118.152 25.68C118.152 27.43 122.856 26.002 122.856 28.886C122.856 30.23 121.624 31.084 119.65 31.084ZM128.288 29.6L128.708 30.566C128.302 30.916 127.686 31.084 127.084 31.084C125.586 31.084 124.732 30.258 124.732 28.76V24.686H123.472V23.58H124.732V21.956H126.076V23.58H128.204V24.686H126.076V28.704C126.076 29.502 126.496 29.95 127.238 29.95C127.63 29.95 128.008 29.824 128.288 29.6ZM131.005 22.152C130.487 22.152 130.095 21.774 130.095 21.284C130.095 20.794 130.487 20.402 131.005 20.402C131.523 20.402 131.915 20.78 131.915 21.256C131.915 21.76 131.537 22.152 131.005 22.152ZM130.333 31V23.58H131.677V31H130.333ZM137.995 29.6L138.415 30.566C138.009 30.916 137.393 31.084 136.791 31.084C135.293 31.084 134.439 30.258 134.439 28.76V24.686H133.179V23.58H134.439V21.956H135.783V23.58H137.911V24.686H135.783V28.704C135.783 29.502 136.203 29.95 136.945 29.95C137.337 29.95 137.715 29.824 137.995 29.6ZM145.612 23.58H146.956V31H145.682V29.88C145.136 30.65 144.212 31.084 143.162 31.084C141.244 31.084 139.97 30.034 139.97 27.85V23.58H141.314V27.696C141.314 29.152 142.042 29.88 143.316 29.88C144.716 29.88 145.612 29.012 145.612 27.416V23.58ZM153.266 29.6L153.686 30.566C153.28 30.916 152.664 31.084 152.062 31.084C150.564 31.084 149.71 30.258 149.71 28.76V24.686H148.45V23.58H149.71V21.956H151.054V23.58H153.182V24.686H151.054V28.704C151.054 29.502 151.474 29.95 152.216 29.95C152.608 29.95 152.986 29.824 153.266 29.6ZM161.771 27.332C161.771 27.444 161.757 27.612 161.743 27.738H155.723C155.891 29.04 156.941 29.908 158.411 29.908C159.279 29.908 160.007 29.614 160.553 29.012L161.295 29.88C160.623 30.664 159.601 31.084 158.369 31.084C155.975 31.084 154.379 29.502 154.379 27.29C154.379 25.092 155.961 23.51 158.103 23.51C160.245 23.51 161.771 25.05 161.771 27.332ZM158.103 24.644C156.815 24.644 155.863 25.512 155.723 26.772H160.483C160.343 25.526 159.405 24.644 158.103 24.644ZM165.765 31.084C164.533 31.084 163.315 30.706 162.699 30.216L163.259 29.152C163.889 29.6 164.897 29.922 165.863 29.922C167.109 29.922 167.627 29.544 167.627 28.914C167.627 27.248 162.937 28.69 162.937 25.736C162.937 24.406 164.127 23.51 166.031 23.51C166.997 23.51 168.089 23.762 168.733 24.182L168.159 25.246C167.487 24.812 166.745 24.658 166.017 24.658C164.841 24.658 164.267 25.092 164.267 25.68C164.267 27.43 168.971 26.002 168.971 28.886C168.971 30.23 167.739 31.084 165.765 31.084Z" fill="white"/>
<path d="M29.9772 29.788C29.9772 29.2783 29.7054 29.0158 29.1961 29.0063C28.9719 29.0063 28.7495 29.0063 28.4759 29.0063V28.6259C28.4759 23.3308 28.4759 18.0357 28.4759 12.7405C28.484 12.526 28.47 12.3112 28.4341 12.0996C28.2972 11.4453 27.8639 11.1144 26.9859 10.9812C26.9859 10.7206 26.9859 10.4525 26.9859 10.1843C26.9908 9.83296 26.9737 9.48162 26.9346 9.13244C26.896 8.8432 26.7595 8.57601 26.5479 8.37527C26.3362 8.17453 26.0622 8.05242 25.7716 8.02933C25.3364 7.98368 24.8955 7.9951 24.4565 7.9932C23.6279 7.9932 22.7974 7.9932 21.9688 7.9932C21.8364 7.99471 21.7071 7.95333 21.6002 7.87526C19.4463 5.97327 17.3008 4.0662 15.1634 2.15407C15.119 2.10687 15.0795 2.05524 15.0456 2H14.9278C14.8692 2.07218 14.8057 2.14024 14.7377 2.20357C12.4078 4.07132 10.0747 5.93584 7.7385 7.79725C7.58029 7.91612 7.38896 7.98261 7.19118 7.98744C6.33219 8.00837 5.48081 7.98746 4.61421 7.99887C3.54428 7.99887 2.99696 8.56002 2.99316 9.63274C2.99316 10.0797 2.99316 10.5266 2.99316 10.9869L2.7119 11.0268C2.3989 11.0647 2.10877 11.2103 1.89109 11.4386C1.67341 11.6669 1.54169 11.9636 1.51843 12.2783C1.50323 12.4533 1.50323 12.6283 1.50323 12.8052C1.50323 18.0699 1.50323 23.3353 1.50323 28.6012V28.9987C0.946409 29.0748 0.279361 28.8085 0 29.5503V31.4675C0.190042 31.8783 0.505511 32 0.950209 32C10.3256 31.9924 19.6959 31.9924 29.0612 32C29.7624 32 30 31.7661 30 31.0757C29.9791 30.6477 29.9848 30.2179 29.9772 29.788ZM14.5515 4.9842C15.4485 4.99561 16.0471 5.61572 16.0357 6.51916C16.0433 6.71842 16.0086 6.91699 15.9341 7.10193C15.8596 7.28686 15.7469 7.454 15.6033 7.59228C15.4598 7.73056 15.2887 7.83687 15.1012 7.90433C14.9137 7.97178 14.7141 7.99879 14.5154 7.98364C14.318 7.98294 14.1227 7.94286 13.941 7.8656C13.7593 7.78834 13.5948 7.67551 13.4573 7.53377C13.3197 7.39204 13.2118 7.2242 13.14 7.04017C13.0681 6.85614 13.0337 6.65957 13.0388 6.46205C13.0297 6.26246 13.0629 6.06326 13.1362 5.87743C13.2096 5.6916 13.3213 5.52338 13.4642 5.38382C13.607 5.24427 13.7777 5.13656 13.9651 5.06769C14.1525 4.99883 14.3524 4.97032 14.5515 4.9842ZM12.0106 14.0168H17.959V18.4846H12.0106V14.0168ZM8.77993 25.9993C7.39453 25.9993 6.01102 25.9993 4.62562 25.9993C4.58423 25.9949 4.54344 25.9859 4.50399 25.9726V21.5182H8.96807C8.96807 21.6 8.98708 21.6666 8.98708 21.7312C8.98708 23.0626 8.98708 24.4073 8.98708 25.7444C8.99088 25.8947 8.98898 26.0068 8.78183 26.0049L8.77993 25.9993ZM8.68871 18.4997C7.38312 18.4864 6.07564 18.4997 4.76815 18.4997H4.51349V14.0092H8.97187C8.97187 14.1043 8.98708 14.1994 8.98708 14.2906C8.98708 15.5878 8.98708 16.8869 8.98708 18.1859C8.99658 18.4199 8.94337 18.5074 8.69061 18.5055L8.68871 18.4997ZM17.9761 28.8142C17.9738 28.8689 17.9687 28.9236 17.9608 28.9778H11.984V27.7034C11.984 26.6193 11.9726 25.5352 11.984 24.453C11.9914 23.7328 12.258 23.0395 12.7348 22.5001C13.2116 21.9607 13.8667 21.6115 14.58 21.5163C15.2688 21.4235 15.9684 21.574 16.5581 21.942C17.1479 22.3101 17.5909 22.8725 17.8107 23.5324C17.908 23.8186 17.96 24.1184 17.9647 24.4207C17.9856 25.8909 17.978 27.3554 17.978 28.8199L17.9761 28.8142ZM25.4637 25.9974H25.1767C23.8788 25.9974 22.5808 25.9974 21.2847 25.9974C21.0433 25.9974 20.9692 25.9346 20.9711 25.6873C20.9825 24.3883 20.9711 23.0892 20.9711 21.7921V21.5106H25.458L25.4637 25.9974ZM25.4637 18.4941H25.1767C23.8788 18.4941 22.5808 18.4941 21.2828 18.4941C21.0414 18.4941 20.9692 18.4294 20.9711 18.1841C20.9825 16.8869 20.9711 15.5878 20.9711 14.2888V14.0092H25.458L25.4637 18.4941Z" fill="white"/>
</svg>
