<svg width="15" height="15" viewBox="0 0 15 15" fill="none" xmlns="http://www.w3.org/2000/svg">
<path d="M0 5.92873V5.69532C0.0671073 5.40115 0.150197 5.32441 0.444191 5.27644C1.38369 5.12616 2.32638 4.98547 3.26908 4.84159L4.79978 4.60816C4.85257 4.60241 4.90271 4.58201 4.9445 4.54924C4.98629 4.51646 5.01807 4.47263 5.03625 4.42271C5.40374 3.62653 5.78082 2.82396 6.15151 2.04057C6.42633 1.45222 6.70433 0.867076 6.97595 0.278734C7.00602 0.195715 7.06137 0.124227 7.13417 0.0743233C7.20698 0.0244197 7.29357 -0.00138455 7.3818 0.000552583H7.59272C7.68101 -0.0040238 7.76845 0.0199201 7.8421 0.0688588C7.91575 0.117797 7.97173 0.18913 8.00177 0.272333L9.03074 2.46904L9.52927 3.52742C9.66668 3.82478 9.81365 4.11575 9.94147 4.41631C9.96011 4.46922 9.99346 4.51569 10.0376 4.55025C10.0818 4.58481 10.1349 4.60601 10.1907 4.61136C11.3827 4.79042 12.5746 4.96948 13.7666 5.15814L14.5751 5.27964C14.6912 5.28704 14.8 5.3391 14.8786 5.42492C14.9572 5.51075 14.9996 5.62369 14.9969 5.74009C15.0066 5.84127 14.9933 5.94334 14.9579 6.0386C14.9224 6.13387 14.8659 6.21985 14.7924 6.29005C14.2939 6.79206 13.7986 7.29406 13.3096 7.80567C12.9357 8.19576 12.5459 8.56987 12.1752 8.96636C12.0058 9.14542 11.8556 9.33409 11.6607 9.50356C11.6295 9.53478 11.6072 9.57373 11.5959 9.61642C11.5847 9.65912 11.585 9.70401 11.5968 9.74656C11.7086 10.4084 11.8141 11.0735 11.9164 11.7354C12.0602 12.5955 12.1912 13.4557 12.3382 14.3126C12.3637 14.4285 12.3637 14.5485 12.3382 14.6643C12.301 14.7733 12.2262 14.8654 12.1272 14.924C12.0281 14.9827 11.9115 15.004 11.7981 14.9841C11.6235 14.9651 11.4553 14.9072 11.306 14.8146C10.7148 14.4949 10.114 14.1527 9.51967 13.8202C8.92529 13.4877 8.27977 13.1423 7.66621 12.7938C7.61877 12.7626 7.56322 12.7459 7.50643 12.7459C7.44965 12.7459 7.3941 12.7626 7.34665 12.7938C6.64682 13.1807 5.9502 13.5708 5.24717 13.9545C4.67196 14.2742 4.09995 14.594 3.52154 14.9137C3.33215 15.0088 3.11309 15.026 2.91118 14.9617C2.83368 14.9309 2.7668 14.8782 2.71859 14.8101C2.67038 14.742 2.64292 14.6614 2.63956 14.578C2.63465 14.3692 2.6572 14.1606 2.70665 13.9577C2.86004 13.024 3.00706 12.0935 3.16364 11.1599C3.24033 10.7058 3.30423 10.2454 3.38732 9.79133C3.40232 9.73436 3.40131 9.67437 3.38439 9.61794C3.36747 9.56152 3.33534 9.51086 3.29147 9.47157C2.82492 8.98555 2.33278 8.51232 1.88221 8.02629C1.48915 7.61382 1.07373 7.22054 0.687059 6.80486C0.504911 6.60662 0.322765 6.41157 0.13103 6.22291C0.038358 6.13658 0.0351515 6.02785 0 5.92873Z" fill="#FFC107"/>
</svg>
