<svg width="30" height="30" viewBox="0 0 30 30" fill="none" xmlns="http://www.w3.org/2000/svg">
<path d="M30 14.1481V15.9094C29.9815 16.0044 29.963 16.0971 29.9492 16.1921C29.8359 16.9337 29.7851 17.6939 29.6003 18.4193C28.2139 23.8771 24.831 27.5156 19.5303 29.3441C18.6707 29.6408 17.7603 29.7822 16.8522 30V18.1551H20.4384C20.621 16.7484 20.7966 15.374 20.9791 13.9603H16.8291C16.8291 12.9151 16.813 11.9093 16.8291 10.9012C16.8425 10.6087 16.9164 10.3222 17.0463 10.0599C17.3167 9.49447 17.8504 9.30907 18.4327 9.27894C19.2114 9.23954 19.9924 9.2488 20.7734 9.23721C20.8751 9.23721 20.9791 9.23722 21.0993 9.221C21.0993 8.01357 21.0993 6.83858 21.0993 5.66591C21.0851 5.61857 21.0589 5.57571 21.0233 5.54158C20.9876 5.50745 20.9437 5.4832 20.8959 5.47122C19.7175 5.41792 18.5367 5.32756 17.3606 5.35305C16.2259 5.36458 15.1311 5.7746 14.2666 6.51182C13.1113 7.49213 12.6145 8.79457 12.5382 10.2616C12.4781 11.374 12.5058 12.4934 12.4943 13.6081C12.4943 13.7217 12.4943 13.8399 12.4943 13.9835H8.9058V18.1852H12.4781V29.8285C12.4154 29.8249 12.3529 29.8179 12.291 29.8076C9.93197 29.3744 7.71232 28.3758 5.82105 26.8968C3.55539 25.1641 1.84327 22.8057 0.894699 20.1111C-0.370537 16.6369 -0.291397 12.8133 1.11651 9.39481C2.20484 6.70902 4.04277 4.39526 6.40975 2.7312C8.77673 1.06714 11.5722 0.123474 14.4607 0.0134492C17.1169 -0.100875 19.7537 0.515394 22.0859 1.79562C26.2937 4.13864 28.8678 7.69605 29.7643 12.4563C29.8614 13.0032 29.9122 13.578 30 14.1481Z" fill="white"/>
</svg>
