<svg width="30" height="30" viewBox="0 0 30 30" fill="none" xmlns="http://www.w3.org/2000/svg">
<path d="M14.0654 0H15.9413C16.1332 0.0231206 16.3252 0.0485363 16.5195 0.0693449C19.6791 0.413842 22.494 1.58143 24.8602 3.70621C28.8178 7.25985 30.5178 11.7268 29.8633 17.0006C29.3567 21.0721 27.3837 24.3992 24.1339 26.8893C20.8495 29.4163 17.1093 30.3828 13.006 29.8649C10.2552 29.5272 7.66034 28.4033 5.53273 26.628C2.72395 24.3697 0.838366 21.1626 0.231301 17.611C0.129529 17.0561 0.0740163 16.4919 0 15.9324V14.0619C0.0231301 13.87 0.0485845 13.6781 0.0694016 13.4862C0.374168 10.3737 1.65947 7.43826 3.74015 5.10271C5.98545 2.51095 9.06702 0.785961 12.4509 0.226577C12.9853 0.131783 13.5265 0.073986 14.0654 0ZM15.0045 23.6593C16.427 23.6061 17.868 23.6131 19.2951 23.4813C21.0044 23.3217 22.3021 22.4709 23.063 20.8825C23.388 20.1802 23.5569 19.4159 23.558 18.6422C23.5873 16.6307 23.6043 14.6191 23.6089 12.6076C23.6089 11.9741 23.5626 11.3383 23.5002 10.7095C23.2689 8.51762 21.7955 6.8853 19.6351 6.57549C18.5405 6.43823 17.4375 6.37951 16.3345 6.39977C14.4609 6.39977 12.5805 6.39978 10.7139 6.52463C9.9057 6.55926 9.12355 6.82045 8.45685 7.27836C7.79016 7.73628 7.26579 8.37242 6.94366 9.11413C6.62225 9.80771 6.45421 10.5624 6.45099 11.3268C6.42015 13.3568 6.40319 15.3875 6.40011 17.4191C6.40011 18.0341 6.44404 18.6491 6.50418 19.2687C6.73548 21.6108 8.39624 23.301 10.7463 23.4975C12.1572 23.6061 13.5658 23.6061 15.0045 23.6593Z" fill="white"/>
<path d="M7.9128 15.0007C7.9498 13.6944 7.95441 12.3857 8.03305 11.0702C8.14176 9.2714 9.2844 8.08068 11.0862 8.03213C13.6907 7.96277 16.2959 7.96277 18.9019 8.03213C20.7315 8.08068 21.9088 9.26213 21.9666 11.0794C22.036 13.6828 22.036 16.2877 21.9666 18.8942C21.918 20.7115 20.7268 21.8583 18.9065 21.96C16.2934 22.1103 13.6739 22.1103 11.0608 21.96C9.92742 21.8929 8.97909 21.4236 8.42628 20.3739C8.10935 19.7207 7.95689 19 7.98217 18.2745C7.96366 17.1809 7.98217 16.0874 7.98217 14.9961L7.9128 15.0007ZM19.4246 15.0007C19.4252 14.4214 19.3117 13.8476 19.0905 13.3121C18.8692 12.7767 18.5447 12.29 18.1353 11.88C17.7259 11.4699 17.2397 11.1445 16.7045 10.9222C16.1693 10.7 15.5956 10.5852 15.016 10.5846C14.4338 10.5822 13.8569 10.6949 13.3185 10.9162C12.78 11.1375 12.2906 11.463 11.8785 11.8741C11.4664 12.2852 11.1397 12.7737 10.9172 13.3114C10.6947 13.8492 10.5808 14.4256 10.582 15.0076C10.5814 16.1778 11.0457 17.3003 11.8728 18.1284C12.6999 18.9565 13.8222 19.4224 14.9929 19.4236C15.5762 19.4261 16.1541 19.313 16.6934 19.0908C17.2326 18.8686 17.7224 18.5417 18.1345 18.1292C18.5466 17.7166 18.8728 17.2265 19.0943 16.6871C19.3157 16.1477 19.428 15.5698 19.4246 14.9868V15.0007ZM20.6343 10.4182C20.6381 10.1475 20.5347 9.88627 20.3467 9.69141C20.1587 9.49655 19.9012 9.38381 19.6305 9.37774C19.494 9.3731 19.358 9.39587 19.2306 9.44474C19.1031 9.49361 18.9867 9.56758 18.8883 9.66223C18.79 9.75689 18.7116 9.87032 18.6579 9.9958C18.6042 10.1213 18.5763 10.2563 18.5758 10.3927C18.573 10.5269 18.5967 10.6604 18.6456 10.7854C18.6944 10.9105 18.7674 11.0247 18.8604 11.1215C18.9534 11.2183 19.0646 11.2959 19.1876 11.3498C19.3106 11.4037 19.443 11.4328 19.5773 11.4355C19.7144 11.4398 19.8509 11.4166 19.9788 11.3672C20.1067 11.3178 20.2235 11.2433 20.322 11.148C20.4206 11.0527 20.499 10.9386 20.5527 10.8124C20.6063 10.6863 20.6341 10.5506 20.6343 10.4135V10.4182Z" fill="white"/>
<path d="M14.986 17.8699C14.2257 17.8638 13.4987 17.5571 12.9638 17.0169C12.429 16.4767 12.1299 15.7468 12.1317 14.9868C12.1341 14.6082 12.2113 14.2338 12.3587 13.885C12.5061 13.5362 12.7208 13.22 12.9907 12.9543C13.2606 12.6886 13.5802 12.4788 13.9313 12.3368C14.2824 12.1948 14.6581 12.1234 15.0369 12.1267C15.797 12.1365 16.5223 12.4468 17.0541 12.9897C17.586 13.5326 17.8811 14.2639 17.8749 15.0238C17.8676 15.7836 17.5595 16.5095 17.0182 17.0429C16.4768 17.5763 15.7461 17.8736 14.986 17.8699Z" fill="white"/>
</svg>
