<svg width="30" height="30" viewBox="0 0 30 30" fill="none" xmlns="http://www.w3.org/2000/svg">
<path d="M14.0531 0H15.9258C16.0021 0.0208511 16.0796 0.037148 16.1578 0.0487653C18.4015 0.219625 20.5774 0.895718 22.523 2.02647C27.7233 5.00462 30.7075 11.0793 29.8559 17.0008C29.2665 21.107 27.3242 24.452 24.0221 26.9589C20.72 29.4658 17.035 30.385 12.9694 29.8558C10.0238 29.4868 7.26336 28.2192 5.06338 26.2254C2.51183 23.9952 0.80578 20.9541 0.232053 17.6136C0.13227 17.0588 0.0765774 16.4947 0 15.9377V14.0551C0.0232053 13.8625 0.0487141 13.6698 0.0695988 13.4771C0.375161 10.3659 1.65973 7.43193 3.73837 5.09747C5.98116 2.5062 9.05973 0.781676 12.4403 0.222858C12.9717 0.127688 13.5124 0.0742797 14.0531 0ZM15.3804 6.45074V6.85463C15.3804 10.5686 15.3804 14.278 15.3804 17.9827C15.3804 18.1498 15.3804 18.3146 15.3619 18.4794C15.3102 19.1045 15.0283 19.6881 14.5708 20.117C14.1133 20.5459 13.5128 20.7896 12.8859 20.8007C12.2619 20.8058 11.6577 20.5822 11.1874 20.172C10.7171 19.7619 10.4132 19.1936 10.3333 18.5746C10.2541 17.9525 10.4122 17.3235 10.7761 16.8128C11.1399 16.3021 11.6828 15.9474 12.2965 15.8193C12.7235 15.7311 13.1829 15.8054 13.6331 15.8054V12.9502C13.0334 12.9596 12.4345 13.0014 11.8393 13.0756C11.1454 13.2005 10.4834 13.463 9.89235 13.8476C9.30131 14.2322 8.79311 14.7311 8.39767 15.3151C8.00222 15.899 7.7275 16.5562 7.58967 17.2479C7.45184 17.9396 7.45368 18.6519 7.59508 19.3429C7.74858 20.0457 8.04178 20.7103 8.45726 21.2974C8.87275 21.8845 9.40203 22.382 10.0136 22.7603C10.6252 23.1386 11.3066 23.3901 12.0173 23.4997C12.728 23.6092 13.4535 23.5747 14.1506 23.3981C15.3231 23.1149 16.364 22.4404 17.1018 21.4859C17.8396 20.5314 18.2302 19.3538 18.2092 18.1475C18.2092 16.2348 18.2092 14.3198 18.1906 12.4071V12.0357C19.429 12.9795 20.9429 13.4908 22.4998 13.4911V10.7334C21.364 10.7131 20.2795 10.2567 19.4708 9.45858C18.6622 8.66048 18.1914 7.58188 18.1558 6.44609L15.3804 6.45074Z" fill="white"/>
</svg>
