<svg width="30" height="30" viewBox="0 0 30 30" fill="none" xmlns="http://www.w3.org/2000/svg">
<path d="M14.0389 0H15.9131C15.9909 0.0206655 16.07 0.0364522 16.1497 0.0472914C18.4571 0.200287 20.6927 0.911304 22.6643 2.11916C26.538 4.50086 28.9233 7.93033 29.7634 12.4123C29.8651 12.9563 29.9195 13.5097 30 14.0679V15.9411C29.955 16.2982 29.9196 16.6506 29.8675 17.0125C29.2735 21.0332 27.3994 24.3444 24.1882 26.842C20.8919 29.4059 17.127 30.3897 12.9954 29.8623C9.54535 29.4448 6.36221 27.7961 4.03163 25.2196C0.841779 21.7546 -0.447875 17.6511 0.136615 12.9776C0.498014 10.0394 1.76022 7.28489 3.75004 5.09214C5.99427 2.51233 9.06759 0.794574 12.4417 0.234147C12.9575 0.132446 13.4994 0.0733195 14.0389 0ZM11.8406 18.9732C10.4253 20.0612 8.64804 20.5687 6.87125 20.3923C6.87125 20.4207 6.87127 20.4443 6.89257 20.4538C6.93824 20.4896 6.98648 20.522 7.03691 20.5507C10.1132 22.2726 13.2959 22.4713 16.4313 20.8984C19.9951 19.108 21.6728 16.0262 21.8148 12.0835C21.8067 11.9568 21.8311 11.83 21.8858 11.7154C21.9404 11.6007 22.0235 11.5019 22.1272 11.4284C22.6544 11.0226 23.1102 10.5318 23.476 9.97617L21.7083 10.4492L21.6728 10.3688C22.2996 9.95599 22.7741 9.34965 23.024 8.64223C22.3945 8.86455 21.7651 9.08216 21.1309 9.31158C21.0552 9.34158 20.9719 9.34698 20.8929 9.32703C20.8139 9.30707 20.7432 9.26276 20.6908 9.2004C19.6614 8.28272 18.4688 8.01782 17.1791 8.49085C16.5705 8.69369 16.0349 9.07088 15.639 9.57549C15.2431 10.0801 15.0043 10.6899 14.9524 11.329C14.9286 11.7189 14.9286 12.1099 14.9524 12.4998C12.1127 12.3011 9.78189 11.0973 7.8959 8.89531C7.07004 10.7117 7.42263 12.2065 8.89686 13.4813L8.85426 13.5428L7.43444 13.1431C7.33506 14.548 8.26267 15.7448 10.0374 16.5489H8.61762C9.21394 18.0366 10.248 18.8147 11.8406 18.9732Z" fill="white"/>
</svg>
