<svg width="30" height="30" viewBox="0 0 30 30" fill="none" xmlns="http://www.w3.org/2000/svg">
<path d="M30 14.0731V15.9477C29.9751 16.1401 29.9479 16.3303 29.9275 16.5227C29.6432 19.4354 28.4979 22.1976 26.6374 24.4579C24.3781 27.2731 21.1651 29.1641 17.6054 29.7736C17.0525 29.8755 16.4906 29.9298 15.9309 30H14.0547C13.8621 29.9751 13.6718 29.9479 13.4792 29.9276C10.3318 29.5812 7.52662 28.4198 5.15873 26.3052C1.32933 22.8912 -0.376929 18.5919 0.0694571 13.489C0.331149 10.3577 1.62447 7.40151 3.74704 5.08295C6.67461 1.81607 10.3522 0.115864 14.7413 0.00719471C17.543 -0.0818232 20.3088 0.656863 22.6924 2.13078C26.5581 4.50793 28.9373 7.93779 29.7689 12.4114C29.8708 12.9683 29.9252 13.523 30 14.0731ZM15.0313 21.6347V21.5691C15.2579 21.5691 15.4619 21.5691 15.6771 21.5691C17.7346 21.474 19.792 21.4083 21.8472 21.2657C23.0391 21.1842 23.8231 20.462 24.0225 19.2825C24.1838 18.262 24.2874 17.2333 24.3329 16.2012C24.4424 14.4364 24.355 12.6649 24.0724 10.9194C23.8458 9.62671 23.0912 8.89773 21.7838 8.75283C20.891 8.65322 19.9937 8.58076 19.0987 8.54228C15.5755 8.36978 12.0449 8.42046 8.52815 8.69397C6.86044 8.8366 6.08775 9.56786 5.85663 11.216C5.6227 12.8303 5.54681 14.4635 5.63003 16.0925C5.68302 17.1929 5.79649 18.2896 5.96992 19.3775C6.13987 20.3737 6.81283 20.9782 7.80078 21.2046C8.09832 21.2751 8.40171 21.3183 8.70714 21.3336C10.819 21.44 12.924 21.5351 15.0313 21.6347Z" fill="white"/>
<path d="M18.0065 15.0103L13.1461 17.8063V12.2121L18.0065 15.0103Z" fill="white"/>
</svg>
