<svg width="350" height="80" viewBox="0 0 350 80" fill="none" xmlns="http://www.w3.org/2000/svg">
<rect width="350" height="80" rx="10" fill="url(#paint0_linear_1_997)"/>
<mask id="mask0_1_997" style="mask-type:alpha" maskUnits="userSpaceOnUse" x="0" y="0" width="350" height="80">
<rect width="350" height="80" rx="10" fill="url(#paint1_linear_1_997)"/>
</mask>
<g mask="url(#mask0_1_997)">
<path d="M261 -3.99999C265.062 9.67909 275.3 11.1184 291.376 14.8663C313.089 19.931 322.455 41.0342 305.425 59.183C296.034 69.1943 294.782 77.5301 295.582 83L350 83L350 -4L261 -3.99999Z" fill="url(#paint2_linear_1_997)"/>
<path d="M30.1218 18.7301C11.7688 38.34 21.8629 61.1422 45.2629 66.6148C62.5881 70.6644 73.6228 72.2241 78 87L7.62939e-06 87L3.52052e-06 -7L40.7298 -7C41.574 -1.09422 40.2434 7.91725 30.1218 18.7301Z" fill="url(#paint3_linear_1_997)"/>
</g>
<path opacity="0.3" d="M252.145 45.3504L263.805 38.5781L274.033 44.5172L262.373 51.2894L252.145 45.3504Z" fill="black"/>
<path d="M263.414 38.8042L264.05 39.1777L263.226 33.2633L262.729 31.2891L262.423 30.9648L261.855 30.9772L263.414 38.8042Z" fill="#362C29"/>
<path d="M252.145 45.3528L253.736 35.5145L254.029 34.8086L254.911 34.9933L254.531 35.8922L254.499 35.8757L252.781 45.7222L252.145 45.3528Z" fill="#362C29"/>
<path d="M254.031 34.8039L254.668 35.1774L255.557 34.5864L254.533 34.2539L254.031 34.8039Z" fill="#685750"/>
<path d="M261.42 30.2594L261.975 30.8381L262.558 30.596L261.918 30.2266L261.42 30.2594Z" fill="#211A1A"/>
<path d="M254.533 34.2555L255.17 34.629L258.89 32.7615L262.06 30.6272L261.42 30.2578L254.533 34.2555Z" fill="#574943"/>
<path d="M261.975 31.115L255.248 35.0224L254.925 35.3754L254.725 35.8556L253.171 45.4927L252.779 45.7184L254.374 35.8884L254.664 35.1784L255.166 34.6284L262.057 30.6266L262.554 30.5938L262.844 30.9672L264.439 38.9503L264.048 39.176L262.489 31.3449L262.293 31.0945L261.975 31.115Z" fill="#0A0808"/>
<path d="M262.793 38.7617L264.486 39.1311L264.119 40.7606H263.499L262.793 38.7617Z" fill="#211A1A"/>
<path d="M255.129 34.9492L263.501 38.8197V40.7487L255.129 35.885V34.9492Z" fill="#362C29"/>
<path d="M264.121 38.5391L269.821 36.5156V37.4514L264.121 40.7596V38.5391Z" fill="#0A0808"/>
<path d="M260.828 31.293H261.444L269.82 36.1567V36.5138L264.121 39.826H263.501L255.129 34.9582V34.6052L260.828 31.293Z" fill="#362C29"/>
<path d="M262.793 38.2031L264.486 38.5725L264.119 39.8244H263.499L262.793 38.2031Z" fill="#544540"/>
<path d="M255.129 34.4023L263.501 38.2687V39.8242L255.129 34.9564V34.4023Z" fill="#685750"/>
<path d="M264.121 37.9764L269.821 35.957V36.5111L264.121 39.8234V37.9764Z" fill="#403531"/>
<path d="M260.828 30.7383H261.444L269.82 35.602V35.9591L264.121 39.2713H263.501L255.129 34.4035V34.0464L260.828 30.7383Z" fill="#836E69"/>
<path d="M273 44.3708L273.64 44.7402L272.812 38.8258L272.314 36.8557L272.008 36.5273L271.441 36.5438L273 44.3708Z" fill="#0A0808"/>
<path d="M261.734 50.9188L263.33 41.0888L263.615 40.3828L264.5 40.5593L264.121 41.4623L264.088 41.4459L262.375 51.2923L261.734 50.9188Z" fill="#362C29"/>
<path d="M263.613 40.3822L264.254 40.7475L265.143 40.1606L264.119 39.8281L263.613 40.3822Z" fill="#685750"/>
<path d="M271.004 35.8297L271.559 36.4043L272.142 36.1663L271.506 35.7969L271.004 35.8297Z" fill="#211A1A"/>
<path d="M264.121 39.8219L264.762 40.1913L268.478 38.3238L271.648 36.1977L271.008 35.8242L264.121 39.8219Z" fill="#574943"/>
<path d="M271.567 36.6812L264.843 40.5927L264.517 40.9457L264.321 41.4218L262.763 51.063L262.375 51.2887L263.97 41.4587L264.256 40.7446L264.762 40.1946L271.648 36.201L272.146 36.1641L272.44 36.5376L274.035 44.5165L273.643 44.7422L272.085 36.9193L271.889 36.6648L271.567 36.6812Z" fill="#0A0808"/>
<path d="M261.826 30.7641L261.189 30.3947L261.736 27.0742L262.605 27.3164L261.826 30.7641Z" fill="#362C29"/>
<path d="M262.375 27.4423L262.607 27.311L261.967 26.9375L261.738 27.0688L262.375 27.4423Z" fill="#574943"/>
<path d="M261.826 30.7602L262.059 30.6247L262.605 27.3125L262.373 27.4438L261.826 30.7602Z" fill="#0A0808"/>
<path d="M262.375 27.4464L262.093 27.6188L261.738 27.0729V19.0078L262.607 19.2459L262.375 27.4464Z" fill="#362C29"/>
<path d="M262.375 19.3837L262.607 19.2483L261.967 18.8789L261.738 19.0102L262.375 19.3837Z" fill="#574943"/>
<path d="M262.375 27.4467L262.518 27.5205L262.608 27.3153V19.2461L262.375 19.3815V27.4467Z" fill="#0A0808"/>
<path d="M269.484 24.2478L270.647 25.5407L271.545 24.5926L271.235 24.0508L269.484 24.2478Z" fill="#0A0808"/>
<path d="M262.385 19.4627L269.9 24.8271L271.238 24.0473L262.862 19.1836L262.385 19.4627Z" fill="#574943"/>
<path d="M269.955 25.5131L271.069 29.1701L271.546 28.891V24.5938L269.955 25.5131Z" fill="#211A1A"/>
<path d="M262.074 23.9388L262.384 24.4806L270.76 29.3443L271.07 29.1637V24.8664L270.76 24.3246L262.384 19.4609L262.074 19.6415V23.9388Z" fill="#362C29"/>
<path d="M269.076 24.48L270.243 25.7729L271.067 24.8699L270.757 24.3281L269.076 24.48Z" fill="#544540"/>
<path d="M261.979 19.6949L269.494 25.0593L270.758 24.3246L262.382 19.4609L261.979 19.6949Z" fill="#836E69"/>
<path d="M269.551 25.7453L270.66 29.4064L271.068 29.1725V24.8711L269.551 25.7453Z" fill="#403531"/>
<path d="M261.668 24.1812L261.978 24.7189L270.35 29.5826L270.66 29.4061V25.1047L270.35 24.5629L261.978 19.6992L261.668 19.8798V24.1812Z" fill="#685750"/>
<path d="M271.41 36.3344L270.773 35.965L271.324 32.6445L272.197 32.8867L271.41 36.3344Z" fill="#362C29"/>
<path d="M271.967 33.0166L272.199 32.8852L271.555 32.5117L271.326 32.6431L271.967 33.0166Z" fill="#574943"/>
<path d="M271.41 36.3344L271.647 36.2031L272.197 32.8867L271.965 33.0181L271.41 36.3344Z" fill="#0A0808"/>
<path d="M271.967 33.0209L271.681 33.1973L271.326 32.6474V24.5781L272.199 24.8203L271.967 33.0209Z" fill="#362C29"/>
<path d="M271.967 24.9502L272.199 24.8147L271.555 24.4453L271.326 24.5725L271.967 24.9502Z" fill="#574943"/>
<path d="M271.963 33.017L272.102 33.0909L272.195 32.8856V24.8164L271.963 24.9519V33.017Z" fill="#0A0808"/>
<path d="M249.769 21.9265L251.581 19.4557L252.197 10.9062L250.606 11.8749L247.477 20.0016L249.769 21.9265Z" fill="#211A1A"/>
<path d="M254.014 46.4219L252.786 47.6573L251.011 49.4879V49.6931L251.791 50.6125H252.647L254.944 48.6177L256.523 47.9692L256.972 47.3207V47.1155L254.014 46.4219Z" fill="#0A0808"/>
<path d="M259.297 49.4688L256.156 51.2624L255.062 52.3459V52.5511L255.805 53.0601L257.808 52.8467L260.476 50.1213V49.9161L259.297 49.4688Z" fill="#0A0808"/>
<path d="M254.014 46.2153L252.786 47.4466L251.248 48.723L251.011 49.4865L251.791 50.4058H252.647L254.944 48.407L256.523 47.7626L256.972 47.1141L256.776 45.8828L254.014 46.2153Z" fill="#6B4414"/>
<path d="M257.519 48.5832L256.621 50.1142L255.16 51.444L255.062 52.3469L255.805 52.8518L257.808 52.6425L260.476 49.9171V48.5586L257.519 48.5832Z" fill="#6B4414"/>
<path d="M256.93 33.7338L257.224 37.5016L257.077 39.443V46.1414L255.437 46.7652L253.548 46.2973L253.242 40.3213L252.577 37.5878L251.406 27.4541L251.696 24.9258L256.832 27.922L256.93 33.7338Z" fill="#0A0808"/>
<path d="M253.24 27.6204L255.949 30.3867L256.663 40.1716L257.153 42.1704L257.52 48.5815L257.948 49.4844L260.225 49.0247L260.812 47.9412L260.886 41.1402L260.466 39.0264L261.355 31.1255L258.271 25.6831L253.24 24.7227V27.6204Z" fill="#211A1A"/>
<path d="M256.458 26.513L254.267 26.0739L252.574 24.9985V23.7344L256.267 25.2366L256.458 26.513Z" fill="#693121"/>
<path d="M253.224 13.4268L252.008 17.2151L252.395 23.6877L254.37 25.1448L257.222 25.7851L258.025 14.4118L255.786 12.2734H254.252L253.224 13.4268Z" fill="white"/>
<path d="M253.79 13.1868L253.549 13.4946L252.525 17.2994L252.68 23.7843L252.615 30.22L250.689 28.2869L250.877 22.4504L250.604 16.7494L251.656 12.8626L253.239 10.7734L253.79 13.1868Z" fill="#362C29"/>
<path d="M257.954 12.2734L260.091 13.985L260.393 14.5883L261.079 16.501L261.099 19.1934L260.981 23.3881L261.719 26.3063V30.616L260.777 31.9499L257.648 32.6353L255.355 31.8185L255.457 25.6866L254.82 20.0184L254.926 15.6555L255.322 14.7525L256.987 13.5827L257.954 12.2734Z" fill="#362C29"/>
<path d="M257.214 10.9062L257.397 11.5958L257.348 12.3017L255.684 14.3416L255.084 14.2267L254.517 14.83H254.052L253.705 14.4114L253.521 13.1678L255.304 11.0704L257.214 10.9062Z" fill="#C7A495"/>
<path d="M253.026 13.4307L252.59 14.0546L253.312 13.6852L253.353 13.3281L253.026 13.4307Z" fill="#D1D1D1"/>
<path d="M253.684 12.5352L253.027 13.4258L253.684 14.3411L253.811 14.731L253.684 12.5352Z" fill="white"/>
<path d="M254.033 15.3333L253.519 19.2981L254.058 29.871L253.242 30.8684L252.426 28.9188L252.813 18.8713L253.744 15.1609L253.956 14.9023L254.033 15.3333Z" fill="#C84030"/>
<path d="M254.518 14.8322L253.686 14.3438L253.743 15.1646L254.032 15.337L254.518 14.8322Z" fill="#FA5C52"/>
<path d="M254.852 13.9883L254.518 14.8338L255.521 14.3413L255.481 14.1155L254.852 13.9883Z" fill="#D1D1D1"/>
<path d="M257.395 11.5938L256.498 13.0221L254.85 13.9825L255.368 15.0743L257.167 13.7362L257.963 12.2463L257.395 11.5938Z" fill="white"/>
<path d="M251.949 7.11654L252.076 8.04823L251.811 9.3288L252.076 9.80081L251.941 10.1127L252.496 13.3839L253.622 13.9914L256.156 12.247L256.331 11.5411L256.739 11.2866L257.212 10.9049L257.828 9.91573L257.204 8.40531L253.72 6.64453L251.949 7.11654Z" fill="#F0C6B4"/>
<path d="M252.076 7.60629L252.92 8.87865L254.821 9.84728L255.727 10.0525V10.9062L256.135 10.6682L256.633 9.78982L257.245 9.64206L257.518 10.1715L257.212 10.9062L257.918 10.2618L258.355 8.26299L257.518 6.14512L255.462 5L254.001 5.26268L253.479 5.29552L251.811 7.00705L252.076 8.04956V7.60629Z" fill="#AC8854"/>
<path d="M252.318 7.09522L253.685 5.52734H254.052L252.318 7.09522Z" fill="#A16739"/>
<path opacity="0.3" d="M229.371 35H228.18L213.762 43.373V44.0666L235.792 56.8477H232.892L228.481 59.4088V63.0289L232.892 65.59H239.126L243.532 63.0289V61.3379L246.787 63.2259H247.983L262.401 54.8529V54.1593L229.371 35Z" fill="black"/>
<path d="M214.527 44.4957L215.294 44.9389L218.065 35.0145L215.747 28.7759L214.527 28.6445V44.4957Z" fill="white"/>
<path d="M215.291 44.9373L230.9 35.8666V20.0195L215.291 29.0861V44.9373Z" fill="#D1D1D1"/>
<path d="M226.558 42.3501L233.51 38.3073V30.8086L226.558 34.8432L225.51 37.3264L226.558 42.3501Z" fill="#D1D1D1"/>
<path d="M216.086 28.7656L226.559 34.8442V42.3511L226.118 42.6015L216.531 37.0401L216.086 36.2643V28.7656Z" fill="white"/>
<path d="M227.637 41.5623L250.52 54.8729V48.3181L227.637 35.0117V41.5623Z" fill="white"/>
<path d="M245.252 62.324L246.019 62.7673L248.789 52.8429L246.472 46.6042L245.252 46.4688V62.324Z" fill="white"/>
<path d="M246.02 62.7617L261.629 53.691L261.633 37.8398L246.02 46.9064V62.7617Z" fill="#D1D1D1"/>
<path d="M228.18 18.625H229.371L262.401 37.7884V38.482L247.983 46.855H246.787L213.762 27.6957V27.0021L228.18 18.625Z" fill="#D7B37F"/>
<path d="M247.98 46.8594H246.785V47.3601H247.98V46.8594Z" fill="#A87C49"/>
<path d="M213.762 28.196L246.787 47.3594V46.8546L213.762 27.6953V28.196Z" fill="#B88F5A"/>
<path d="M247.98 47.3622L262.398 38.9851V38.4844L247.98 46.8573V47.3622Z" fill="#A16739"/>
<path opacity="0.3" d="M219.195 26.5L218.6 26.8489V27.3373L219.195 27.6862H220.04L220.635 27.3373V26.8489L220.04 26.5H219.195Z" fill="black"/>
<path d="M219.945 24.8239L220.039 24.8773L220.231 24.9265L220.423 24.7213L220.325 24.668L219.945 24.8239Z" fill="#FA5C52"/>
<path d="M219.797 25.6902L219.895 25.7436L220.054 25.3824L220.038 24.8776L219.944 24.8242L219.797 25.6902Z" fill="#BF261B"/>
<path d="M220.262 26.6237L220.356 26.6771L220.192 25.9177L220.033 25.733L219.939 25.6797L220.262 26.6237Z" fill="#991F16"/>
<path d="M220.421 24.7188L220.037 24.8747L219.895 25.7407L220.033 25.7325L220.356 26.6765L220.58 25.1456L220.421 24.7188Z" fill="#C84030"/>
<path d="M219.245 24.8274L219.151 24.8849L218.96 24.9383L218.764 24.7371L218.862 24.6797L219.245 24.8274Z" fill="#FA5C52"/>
<path d="M219.41 25.6941L219.316 25.7516L219.145 25.3945L219.153 24.8856L219.247 24.8281L219.41 25.6941Z" fill="#BF261B"/>
<path d="M218.965 26.6438L218.871 26.6972L219.018 25.9338L219.173 25.745L219.267 25.6875L218.965 26.6438Z" fill="#991F16"/>
<path d="M218.766 24.7383L219.154 24.886L219.317 25.7521L219.174 25.7439L218.872 26.6961L218.615 25.1692L218.766 24.7383Z" fill="#C84030"/>
<path d="M219.844 25.2872L220.191 25.082V24.7947L219.84 24.5977H219.347L219 24.8029V25.0902L219.351 25.2872H219.844Z" fill="#B5A794"/>
<path d="M219.351 25.2869L219 25.0898L219.249 26.12L219.461 26.2391L219.449 25.4305L219.351 25.2869Z" fill="#A39685"/>
<path d="M219.843 25.2852L219.35 25.2893L219.46 26.2415L219.754 26.2374L219.884 25.3139L219.843 25.2852Z" fill="#736656"/>
<path d="M220.185 25.0742L219.838 25.2835L219.748 26.2358L219.956 26.1126L220.185 25.0742Z" fill="#5E4439"/>
<path d="M219.793 22.302L220.132 22.1009V21.8218L219.793 21.6289H219.295L218.957 21.83V22.1091L219.3 22.3061L219.793 22.302Z" fill="#B5A794"/>
<path d="M220.125 21.8203L220.382 22.8792L220.386 23.2733L220.162 23.3102L219.889 21.9681L220.125 21.8203Z" fill="#A39C95"/>
<path d="M218.969 21.8359L218.74 22.899L218.748 23.293L218.973 23.3258L219.209 21.9755L218.969 21.8359Z" fill="#F4EFE9"/>
<path d="M219.666 22.1717L219.646 22.6191L219.78 23.1034L219.609 23.5549L219.662 24.2116L219.678 24.4538L219.801 24.7288L219.813 25.0612L219.842 25.2788L220.188 25.0694L220.397 23.9243L220.388 23.2676L220.131 22.0938L219.793 22.184L219.666 22.1717Z" fill="#D1D1D1"/>
<path d="M219.911 23.5533L219.919 24.21L219.841 25.2813L219.348 25.2854L219.201 24.9078L219.168 24.5055L219.132 24.3003L219.168 23.9309L219.123 23.5L219.132 23.0362L219.07 22.6832L219.193 22.125L219.311 22.1455L219.792 22.2974L219.911 23.5533Z" fill="#E6E1DD"/>
<path d="M219.239 24.2218L219.35 25.2889L218.999 25.0919L218.754 23.9468L219.031 23.8359L219.239 24.2218Z" fill="#F4EFE9"/>
<path d="M218.754 23.9479L218.75 23.2912L218.974 22.1133L219.301 22.1502L219.317 22.3062L219.231 23.5662L219.24 24.2229L218.754 23.9479Z" fill="white"/>
<path d="M219.24 24.2247L218.754 23.9497L218.75 23.293L219.231 23.568L219.366 23.7896L219.24 24.2247Z" fill="#4290B8"/>
<path d="M219.239 24.2235L219.92 24.2153L220.059 23.8008L219.912 23.5586L219.231 23.5668L219.239 24.2235Z" fill="#29617D"/>
<path d="M219.92 24.2133L220.397 23.9301L220.389 23.2734L219.912 23.5566L219.92 24.2133Z" fill="#17435C"/>
<path d="M219.539 20.7578L219.258 21.7018L219.315 22.3011L219.792 22.297L219.788 21.6238L219.539 20.7578Z" fill="#C84030"/>
<path d="M219.539 20.7578L219.796 21.6526L220.131 22.0958L220.127 21.8167L219.539 20.7578Z" fill="#701C1D"/>
<path d="M219.539 20.7578L219.792 22.297L220.131 22.0958L219.539 20.7578Z" fill="#991F16"/>
<path d="M219.542 20.7578L219.211 21.7018L218.975 22.1082L218.971 21.8291L219.542 20.7578Z" fill="#C84030"/>
<path d="M219.542 20.7578L219.317 22.3011L218.975 22.1082L219.542 20.7578Z" fill="#FA5C52"/>
<path d="M218.826 23.5078L218.989 23.5858L219.075 23.7294L219.128 23.8403V24.0085L219.026 24.1029L218.814 23.9921L218.688 23.7541L218.692 23.5735L218.826 23.5078Z" fill="#17435C"/>
<path d="M218.965 24.0647L218.822 23.9785L218.9 23.9375L219.063 24.0319L218.994 24.0688L218.965 24.0647Z" fill="#FBE979"/>
<path d="M218.774 23.8987L218.721 23.7756L218.794 23.7305L218.9 23.9316L218.835 23.9685L218.774 23.8987Z" fill="#FFC654"/>
<path d="M218.722 23.7791L218.693 23.5575L218.792 23.5L218.796 23.7339L218.722 23.7791Z" fill="#CC934C"/>
<path opacity="0.5" d="M219.018 24.0507L219.046 24.0343L218.887 23.944L218.773 23.7511L218.769 23.5664L218.74 23.5828L218.744 23.7675L218.859 23.9604L219.018 24.0507Z" fill="#5C74AD"/>
<path opacity="0.5" d="M219.128 24.0172L219.018 24.05L218.859 23.9597L218.744 23.7668L218.74 23.5821L218.826 23.5L219.009 23.6067L219.124 23.7996L219.128 24.0172Z" fill="#685750"/>
<path d="M219.009 23.572L218.805 23.457L218.662 23.5432V23.7731L218.805 24.0193L219.009 24.1343L219.152 24.0522V23.8182L219.009 23.572ZM219.103 23.9824L218.993 24.0481L218.833 23.9578L218.719 23.7649V23.5966L218.829 23.5309L218.989 23.6212L219.103 23.8141V23.9824Z" fill="#E3BD5E"/>
<path d="M219.011 23.5661L218.807 23.4553L218.88 23.4102L219.084 23.5251L219.035 23.5702L219.011 23.5661Z" fill="#FBE979"/>
<path d="M219.153 23.8227L219.01 23.5723L219.083 23.5312L219.226 23.7734L219.181 23.835L219.153 23.8227Z" fill="#FFC654"/>
<path d="M219.158 24.0525L219.154 23.8227L219.228 23.7734L219.232 24.0115L219.158 24.0525Z" fill="#CC934C"/>
<path d="M220.373 27.4395L220.279 27.497L220.324 26.1877L220.598 26.1836L220.373 27.4395Z" fill="#991F16"/>
<path d="M220.598 26.1856L220.505 26.243L220.26 25.6356L220.439 25.5781L220.598 26.1856Z" fill="#BF261B"/>
<path d="M220.44 25.5725L220.347 25.6299L220.102 25.5971L219.959 25.3385L220.053 25.2852L220.44 25.5725Z" fill="#FA5C52"/>
<path d="M220.342 25.6313L219.954 25.3398L219.885 26.1115L219.95 26.1853L220.276 27.4946L220.501 26.2387L220.342 25.6313Z" fill="#C84030"/>
<path d="M218.872 27.4511L218.966 27.5044L218.892 26.1992H218.619L218.872 27.4511Z" fill="#991F16"/>
<path d="M218.619 26.2053L218.713 26.2587L218.945 25.6471L218.77 25.5938L218.619 26.2053Z" fill="#BF261B"/>
<path d="M218.768 25.5885L218.861 25.6418L219.106 25.6049L219.241 25.3463L219.147 25.293L218.768 25.5885Z" fill="#FA5C52"/>
<path d="M218.864 25.6432L219.243 25.3477L219.329 26.1193L219.264 26.1932L218.966 27.5066L218.713 26.2547L218.864 25.6432Z" fill="#C84030"/>
<path opacity="0.3" d="M246.605 34.5586L235.643 28.1968L239.453 25.9805L250.411 32.3505L246.605 34.5586Z" fill="black"/>
<path d="M246.597 34.5175L246.246 33.8485L250.367 32.0508V32.3299L246.597 34.5175Z" fill="#0A0808"/>
<path d="M246.597 34.5172L235.733 28.2088V27.9297L236.557 28.1267L245.903 33.565L246.597 34.2381V34.5172Z" fill="#362C29"/>
<path d="M246.597 34.2387L235.733 27.9302L239.506 25.7344L250.367 32.051L246.597 34.2387Z" fill="#574943"/>
<path d="M245.378 33.3376L244.941 33.0872L245.125 32.9805L245.557 33.2308L245.378 33.3376Z" fill="#F4EFE9"/>
<path d="M245.858 33.6188L245.422 33.3684L245.61 33.2617L246.042 33.5121L245.858 33.6188Z" fill="#F4EFE9"/>
<path d="M246.341 33.9003L245.908 33.6458L246.092 33.5391L246.524 33.7894L246.341 33.9003Z" fill="#F4EFE9"/>
<path d="M245.353 33.2431L245.096 33.0953L245.149 33.0625L245.406 33.2144L245.353 33.2431Z" fill="#DDE65C"/>
<path d="M245.833 33.5281L245.576 33.3803L245.629 33.3516L245.886 33.4993L245.833 33.5281Z" fill="#DDE65C"/>
<path d="M246.315 33.8095L246.062 33.6576L246.116 33.6289L246.368 33.7767L246.315 33.8095Z" fill="#DDE65C"/>
<path d="M248.25 31.1659L248.042 31.0469L247.834 31.1659H247.609V31.2972L248.042 31.5476L248.474 31.2972V31.1659H248.25Z" fill="#403531"/>
<path d="M248.042 30.9141L247.609 31.1644L248.042 31.4148L248.474 31.1644L248.042 30.9141Z" fill="#836E69"/>
<path d="M247.791 31.4315L247.583 31.3125L247.375 31.4315H247.15V31.5629L247.583 31.8132L248.015 31.5629V31.4315H247.791Z" fill="#403531"/>
<path d="M247.583 31.1836L247.15 31.434L247.583 31.6884L248.015 31.434L247.583 31.1836Z" fill="#836E69"/>
<path d="M247.308 31.7091L247.1 31.5859L246.892 31.7091H246.668V31.8404L247.1 32.0908L247.533 31.8404V31.7091H247.308Z" fill="#403531"/>
<path d="M247.1 31.4609L246.668 31.7113L247.1 31.9617L247.533 31.7113L247.1 31.4609Z" fill="#836E69"/>
<path d="M246.838 31.9862L246.634 31.8672L246.426 31.9862H246.197V32.1176L246.634 32.372L247.066 32.1176V31.9862H246.838Z" fill="#403531"/>
<path d="M246.634 31.7383L246.197 31.9886L246.634 32.2431L247.066 31.9886L246.634 31.7383Z" fill="#836E69"/>
<path d="M246.365 32.2597L246.157 32.1406L245.953 32.2597H245.725V32.3951L246.157 32.6414L246.594 32.3951V32.2597H246.365Z" fill="#403531"/>
<path d="M246.157 32.0078L245.725 32.2582L246.157 32.5085L246.594 32.2582L246.157 32.0078Z" fill="#836E69"/>
<path d="M248.732 31.4432L248.524 31.3242L248.32 31.4432H248.092V31.5746L248.524 31.8291L248.961 31.5746V31.4432H248.732Z" fill="#403531"/>
<path d="M248.524 31.1953L248.092 31.4457L248.524 31.696L248.961 31.4457L248.524 31.1953Z" fill="#836E69"/>
<path d="M248.266 31.7167L248.062 31.5977L247.858 31.7167H247.625V31.848L248.062 32.0984L248.494 31.848V31.7167H248.266Z" fill="#403531"/>
<path d="M248.062 31.4609L247.625 31.7154L248.062 31.9658L248.494 31.7154L248.062 31.4609Z" fill="#836E69"/>
<path d="M247.795 31.986L247.591 31.8711L247.383 31.986H247.154V32.1215L247.591 32.3718L248.023 32.1215V31.986H247.795Z" fill="#403531"/>
<path d="M247.591 31.7383L247.154 31.9845L247.591 32.2431L248.023 31.9845L247.591 31.7383Z" fill="#836E69"/>
<path d="M247.314 32.2716L247.11 32.1484L246.902 32.2716H246.678V32.4029L247.11 32.6533L247.543 32.4029V32.2716H247.314Z" fill="#403531"/>
<path d="M247.11 32.0156L246.678 32.2701L247.11 32.5205L247.543 32.2701L247.11 32.0156Z" fill="#836E69"/>
<path d="M246.851 32.537L246.643 32.418L246.439 32.537H246.211V32.6724L246.643 32.9228L247.08 32.6724V32.537H246.851Z" fill="#403531"/>
<path d="M246.643 32.2852L246.211 32.5355L246.643 32.7859L247.08 32.5355L246.643 32.2852Z" fill="#836E69"/>
<path d="M246.269 32.7305L245.706 32.4062L245.441 32.5581L245.273 32.5253V32.6566L246.191 33.1861L246.624 32.9357V32.8044L246.269 32.7305Z" fill="#403531"/>
<path d="M245.706 32.2695L245.273 32.524L246.191 33.0535L246.624 32.8031L245.706 32.2695Z" fill="#836E69"/>
<path d="M249.209 31.7245L249.001 31.6055L248.797 31.7245H248.568V31.8558L249.001 32.1062L249.433 31.8558V31.7245H249.209Z" fill="#403531"/>
<path d="M249.001 31.4727L248.568 31.7271L249.001 31.9775L249.433 31.7271L249.001 31.4727Z" fill="#836E69"/>
<path d="M248.754 31.994L248.55 31.875L248.342 31.994H248.113V32.1254L248.55 32.3757L248.982 32.1254V31.994H248.754Z" fill="#403531"/>
<path d="M248.55 31.7461L248.113 31.9965L248.55 32.2509L248.982 31.9965L248.55 31.7461Z" fill="#836E69"/>
<path d="M248.275 32.2714L248.071 32.1523L247.863 32.2714H247.639V32.4068L248.071 32.6572L248.504 32.4068V32.2714H248.275Z" fill="#403531"/>
<path d="M248.071 32.0195L247.639 32.2699L248.071 32.5244L248.504 32.2699L248.071 32.0195Z" fill="#836E69"/>
<path d="M247.803 32.5448L247.595 32.4258L247.386 32.5448H247.162V32.6803L247.595 32.9306L248.027 32.6803V32.5448H247.803Z" fill="#403531"/>
<path d="M247.595 32.293L247.162 32.5433L247.595 32.7978L248.027 32.5433L247.595 32.293Z" fill="#836E69"/>
<path d="M247.332 32.8143L247.128 32.6953L246.92 32.8143H246.691V32.9498L247.128 33.2002L247.56 32.9498V32.8143H247.332Z" fill="#403531"/>
<path d="M247.128 32.5664L246.691 32.8127L247.128 33.0671L247.56 32.8127L247.128 32.5664Z" fill="#836E69"/>
<path d="M246.877 33.0839L246.673 32.9648L246.465 33.0839H246.24V33.2193L246.673 33.4697L247.105 33.2193V33.0839H246.877Z" fill="#403531"/>
<path d="M246.673 32.832L246.24 33.0824L246.673 33.3369L247.105 33.0824L246.673 32.832Z" fill="#836E69"/>
<path d="M247.873 33.1323L247.608 32.9805L247.061 33.2965L246.719 33.3663V33.4935L247.151 33.748L248.041 33.2308V33.0995L247.873 33.1323Z" fill="#403531"/>
<path d="M249.697 32.0057L249.489 31.8867L249.281 32.0057H249.057V32.1371L249.489 32.3916L249.921 32.1371V32.0057H249.697Z" fill="#403531"/>
<path d="M249.489 31.7578L249.057 32.0082L249.489 32.2585L249.921 32.0082L249.489 31.7578Z" fill="#836E69"/>
<path d="M249.232 32.2753L249.028 32.1562L248.82 32.2753H248.596V32.4066L249.028 32.6611L249.461 32.4066V32.2753H249.232Z" fill="#403531"/>
<path d="M249.028 32.0234L248.596 32.2738L249.028 32.5283L249.461 32.2738L249.028 32.0234Z" fill="#836E69"/>
<path d="M248.76 32.5528L248.552 32.4297L248.348 32.5528H248.119V32.6842L248.552 32.9345L248.984 32.6842V32.5528H248.76Z" fill="#403531"/>
<path d="M248.552 32.2969L248.119 32.5513L248.552 32.8017L248.984 32.5513L248.552 32.2969Z" fill="#836E69"/>
<path d="M248.283 32.8261L248.075 32.707L247.871 32.8261H247.643V32.9574L248.075 33.2078L248.507 32.9574V32.8261H248.283Z" fill="#403531"/>
<path d="M248.075 32.5781L247.643 32.8285L248.075 33.0789L248.507 32.8285L248.075 32.5781Z" fill="#836E69"/>
<path d="M246.719 33.3687L247.151 33.6191L248.041 33.1019L247.608 32.8516L246.719 33.3687Z" fill="#836E69"/>
<path d="M245.252 31.0448L245.044 30.9258L244.836 31.0448H244.611V31.1803L245.044 31.4265L245.476 31.1803V31.0448H245.252Z" fill="#403531"/>
<path d="M245.044 30.8008L244.611 31.0511L245.044 31.3056L245.476 31.0511L245.044 30.8008Z" fill="#836E69"/>
<path d="M244.787 31.3182L244.583 31.1992L244.371 31.3182H244.147V31.4496L244.583 31.7L245.016 31.4496V31.3182H244.787Z" fill="#403531"/>
<path d="M244.583 31.0664L244.147 31.3168L244.583 31.5671L245.016 31.3168L244.583 31.0664Z" fill="#836E69"/>
<path d="M244.31 31.5917L244.106 31.4727L243.898 31.5917H243.674V31.723L244.106 31.9775L244.539 31.723V31.5917H244.31Z" fill="#403531"/>
<path d="M244.106 31.3359L243.674 31.5904L244.106 31.8408L244.539 31.5904L244.106 31.3359Z" fill="#836E69"/>
<path d="M245.726 31.3222L245.522 31.2031L245.314 31.3222H245.09V31.4576L245.522 31.708L245.955 31.4576V31.3222H245.726Z" fill="#403531"/>
<path d="M245.522 31.082L245.09 31.3283L245.522 31.5828L245.955 31.3283L245.522 31.082Z" fill="#836E69"/>
<path d="M245.265 31.5956L245.061 31.4766L244.853 31.5956H244.629V31.7269L245.061 31.9814L245.494 31.7269V31.5956H245.265Z" fill="#403531"/>
<path d="M245.061 31.3477L244.629 31.598L245.061 31.8484L245.494 31.598L245.061 31.3477Z" fill="#836E69"/>
<path d="M244.791 31.8768L244.587 31.7578L244.379 31.8768H244.154V32.0082L244.587 32.2585L245.023 32.0082V31.8768H244.791Z" fill="#403531"/>
<path d="M244.587 31.6211L244.154 31.8756L244.587 32.1259L245.023 31.8756L244.587 31.6211Z" fill="#836E69"/>
<path d="M246.215 31.6112L246.007 31.4922L245.799 31.6112H245.574V31.7426L246.007 31.9929L246.439 31.7426V31.6112H246.215Z" fill="#403531"/>
<path d="M246.007 31.3594L245.574 31.6097L246.007 31.8601L246.439 31.6097L246.007 31.3594Z" fill="#836E69"/>
<path d="M245.754 31.8768L245.546 31.7578L245.338 31.8768H245.113V32.0123L245.546 32.2627L245.978 32.0123V31.8768H245.754Z" fill="#403531"/>
<path d="M245.546 31.625L245.113 31.8754L245.546 32.1298L245.978 31.8754L245.546 31.625Z" fill="#836E69"/>
<path d="M245.275 32.1544L245.067 32.0312L244.859 32.1544H244.635V32.2857L245.067 32.5361L245.504 32.2857V32.1544H245.275Z" fill="#403531"/>
<path d="M245.067 31.8984L244.635 32.1529L245.067 32.4033L245.504 32.1529L245.067 31.8984Z" fill="#836E69"/>
<path d="M246.646 30.2362L246.438 30.1172L246.234 30.2362H246.006V30.3717L246.438 30.622L246.875 30.3717V30.2362H246.646Z" fill="#403531"/>
<path d="M246.438 29.9844L246.006 30.2347L246.438 30.4892L246.875 30.2347L246.438 29.9844Z" fill="#836E69"/>
<path d="M247.129 30.5134L246.921 30.3984L246.717 30.5134H246.488V30.6488L246.921 30.8992L247.357 30.6488V30.5134H247.129Z" fill="#403531"/>
<path d="M246.921 30.2656L246.488 30.5119L246.921 30.7664L247.357 30.5119L246.921 30.2656Z" fill="#836E69"/>
<path d="M247.609 30.7948L247.405 30.6758L247.197 30.7948H246.973V30.9261L247.405 31.1806L247.838 30.9261V30.7948H247.609Z" fill="#403531"/>
<path d="M247.405 30.543L246.973 30.7933L247.405 31.0437L247.838 30.7933L247.405 30.543Z" fill="#836E69"/>
<path d="M246.646 30.7948L246.438 30.6758L246.234 30.7948H246.006V30.9261L246.438 31.1806L246.875 30.9261V30.7948H246.646Z" fill="#403531"/>
<path d="M246.438 30.543L246.006 30.7933L246.438 31.0478L246.875 30.7933L246.438 30.543Z" fill="#836E69"/>
<path d="M236.796 28.1452V28.0098L235.936 27.7266V27.8579L236.613 28.2519L236.796 28.1452Z" fill="#403531"/>
<path d="M236.796 28.0071L236.123 27.6172L235.936 27.7239L236.613 28.1179L236.796 28.0071Z" fill="#836E69"/>
<path d="M237.097 28.5343L237.28 28.4275V28.2962L236.664 28.1484V28.2798L237.097 28.5343Z" fill="#403531"/>
<path d="M237.097 28.4002L237.28 28.2935L236.848 28.0391L236.664 28.1458L237.097 28.4002Z" fill="#836E69"/>
<path d="M237.579 28.8114L237.763 28.7047V28.5733L237.146 28.4297V28.561L237.579 28.8114Z" fill="#403531"/>
<path d="M237.579 28.6774L237.763 28.5707L237.33 28.3203L237.146 28.427L237.579 28.6774Z" fill="#836E69"/>
<path d="M238.063 29.0887L238.243 28.982V28.8507L237.627 28.707V28.8384L238.063 29.0887Z" fill="#403531"/>
<path d="M238.063 28.9588L238.243 28.848L237.811 28.5977L237.627 28.7044L238.063 28.9588Z" fill="#836E69"/>
<path d="M238.542 29.3661L238.726 29.2635V29.128L238.105 28.9844V29.1157L238.542 29.3661Z" fill="#403531"/>
<path d="M238.542 29.2397L238.726 29.133L238.289 28.8867L238.105 28.9893L238.542 29.2397Z" fill="#836E69"/>
<path d="M239.024 29.6471L239.208 29.5445V29.4132L238.592 29.2695V29.4009L239.024 29.6471Z" fill="#403531"/>
<path d="M239.024 29.5213L239.208 29.4146L238.771 29.1602L238.592 29.271L239.024 29.5213Z" fill="#836E69"/>
<path d="M239.509 29.9366L239.692 29.8258V29.6944L239.076 29.5508V29.6821L239.509 29.9366Z" fill="#403531"/>
<path d="M239.509 29.7985L239.692 29.6918L239.26 29.4414L239.076 29.5481L239.509 29.7985Z" fill="#836E69"/>
<path d="M239.991 30.2139L240.175 30.1031V29.9718L239.559 29.8281V29.9595L239.991 30.2139Z" fill="#403531"/>
<path d="M239.991 30.0758L240.175 29.9691L239.742 29.7188L239.559 29.8255L239.991 30.0758Z" fill="#836E69"/>
<path d="M240.475 30.4913L240.659 30.3846V30.2491L240.043 30.1055V30.2368L240.475 30.4913Z" fill="#403531"/>
<path d="M240.475 30.3612L240.659 30.2504L240.227 30L240.043 30.1067L240.475 30.3612Z" fill="#836E69"/>
<path d="M240.954 30.7723L241.138 30.6656V30.5343L240.521 30.3906V30.5179L240.954 30.7723Z" fill="#403531"/>
<path d="M240.954 30.6422L241.138 30.5355L240.705 30.2852L240.521 30.3919L240.954 30.6422Z" fill="#836E69"/>
<path d="M241.438 31.0497L241.626 30.943V30.8116L241.006 30.668V30.7993L241.438 31.0497Z" fill="#403531"/>
<path d="M241.438 30.9196L241.626 30.8129L241.189 30.5625L241.006 30.6692L241.438 30.9196Z" fill="#836E69"/>
<path d="M241.921 31.3309L242.104 31.2242V31.0929L241.488 30.9492V31.0765L241.921 31.3309Z" fill="#403531"/>
<path d="M241.921 31.2049L242.104 31.0982L241.672 30.8438L241.488 30.9546L241.921 31.2049Z" fill="#836E69"/>
<path d="M242.403 31.6083L242.587 31.5016V31.3702L241.971 31.2266V31.3579L242.403 31.6083Z" fill="#403531"/>
<path d="M242.403 31.4782L242.587 31.3715L242.154 31.1211L241.971 31.2278L242.403 31.4782Z" fill="#836E69"/>
<path d="M242.886 31.8975L243.069 31.7908V31.6595L242.453 31.5117V31.6431L242.886 31.8975Z" fill="#403531"/>
<path d="M242.886 31.7674L243.069 31.6607L242.633 31.4062L242.453 31.513L242.886 31.7674Z" fill="#836E69"/>
<path d="M238.836 26.0742V26.2056L239.509 26.5955L239.946 26.3451V26.2138L238.836 26.0742Z" fill="#403531"/>
<path d="M239.268 25.8242L238.836 26.0746L239.509 26.4604L239.946 26.2141L239.268 25.8242Z" fill="#836E69"/>
<path d="M239.564 26.4922V26.6276L240.107 26.9437L240.544 26.6892V26.562L239.564 26.4922Z" fill="#403531"/>
<path d="M239.997 26.2422L239.564 26.4926L240.107 26.8127L240.544 26.5623L239.997 26.2422Z" fill="#836E69"/>
<path d="M240.154 26.8359V26.9714L240.832 27.3613L241.264 27.1109V26.9796L240.154 26.8359Z" fill="#403531"/>
<path d="M240.591 26.5898L240.154 26.8402L240.832 27.2342L241.264 26.9839L240.591 26.5898Z" fill="#836E69"/>
<path d="M240.883 27.2578V27.3892L243.73 29.0432L244.163 28.7929V28.6615L240.883 27.2578Z" fill="#403531"/>
<path d="M241.315 27.0078L240.883 27.2582L243.73 28.9122L244.163 28.6619L241.315 27.0078Z" fill="#836E69"/>
<path d="M243.779 28.9336V29.069L244.408 29.4302L244.844 29.1799V29.0485L243.779 28.9336Z" fill="#403531"/>
<path d="M244.212 28.6875L243.779 28.9379L244.408 29.3032L244.844 29.0528L244.212 28.6875Z" fill="#836E69"/>
<path d="M244.461 29.3398V29.4712L245.016 29.7913L245.448 29.541V29.4096L244.461 29.3398Z" fill="#403531"/>
<path d="M244.898 29.0859L244.461 29.3404L245.016 29.6606L245.448 29.4102L244.898 29.0859Z" fill="#836E69"/>
<path d="M245.059 29.6875V29.8188L245.768 30.2293L246.201 29.9789V29.8435L245.059 29.6875Z" fill="#403531"/>
<path d="M245.491 29.4375L245.059 29.692L245.768 30.0983L246.201 29.8479L245.491 29.4375Z" fill="#836E69"/>
<path d="M239.461 26.6029V26.4716L238.352 26.332V26.4634L239.029 26.8574L239.461 26.6029Z" fill="#403531"/>
<path d="M239.461 26.4721L238.784 26.0781L238.352 26.3326L239.029 26.7225L239.461 26.4721Z" fill="#836E69"/>
<path d="M239.717 26.752L239.509 26.6289L239.305 26.752H239.076V26.8793L239.509 27.1337L239.945 26.8793V26.752H239.717Z" fill="#403531"/>
<path d="M239.509 26.5L239.076 26.7545L239.509 27.0048L239.945 26.7545L239.509 26.5Z" fill="#836E69"/>
<path d="M240.195 27.037L239.991 26.918L239.783 27.037H239.555V27.1642L239.991 27.4187L240.424 27.1642V27.037H240.195Z" fill="#403531"/>
<path d="M239.991 26.7852L239.555 27.0355L239.991 27.29L240.424 27.0355L239.991 26.7852Z" fill="#836E69"/>
<path d="M240.682 27.3143L240.474 27.1953L240.266 27.3143H240.037V27.4457L240.474 27.7002L240.91 27.4457V27.3143H240.682Z" fill="#403531"/>
<path d="M240.474 27.0625L240.037 27.3129L240.474 27.5673L240.91 27.3129L240.474 27.0625Z" fill="#836E69"/>
<path d="M241.162 27.5958L240.954 27.4727L240.746 27.5958H240.521V27.7271L240.954 27.9775L241.39 27.7271V27.5958H241.162Z" fill="#403531"/>
<path d="M240.954 27.3438L240.521 27.5941L240.954 27.8404L241.39 27.5941L240.954 27.3438Z" fill="#836E69"/>
<path d="M241.646 27.8731L241.438 27.75L241.234 27.8731H241.006V28.0045L241.438 28.2548L241.875 28.0045V27.8731H241.646Z" fill="#403531"/>
<path d="M241.438 27.6172L241.006 27.8717L241.438 28.122L241.875 27.8717L241.438 27.6172Z" fill="#836E69"/>
<path d="M242.125 28.1503L241.921 28.0312L241.713 28.1503H241.488V28.2816L241.921 28.5361L242.353 28.2816V28.1503H242.125Z" fill="#403531"/>
<path d="M241.921 27.9062L241.488 28.1566L241.921 28.407L242.353 28.1566L241.921 27.9062Z" fill="#836E69"/>
<path d="M242.611 28.4356L242.403 28.3125L242.195 28.4356H241.971V28.5629L242.403 28.8173L242.836 28.5629V28.4356H242.611Z" fill="#403531"/>
<path d="M242.403 28.1836L241.971 28.4381L242.403 28.6884L242.836 28.4381L242.403 28.1836Z" fill="#836E69"/>
<path d="M243.09 28.7128L242.886 28.5938L242.674 28.7128H242.449V28.84L242.886 29.0945L243.314 28.84V28.7128H243.09Z" fill="#403531"/>
<path d="M242.886 28.4648L242.449 28.7152L242.886 28.9697L243.314 28.7152L242.886 28.4648Z" fill="#836E69"/>
<path d="M243.574 28.994L243.366 28.875L243.162 28.994H242.938V29.1254L243.366 29.3798L243.802 29.1254V28.994H243.574Z" fill="#403531"/>
<path d="M243.366 28.7383L242.938 28.9928L243.366 29.2472L243.802 28.9928L243.366 28.7383Z" fill="#836E69"/>
<path d="M244.054 29.2792L243.85 29.1602L243.642 29.2792H243.418V29.4146L243.85 29.665L244.283 29.4146V29.2792H244.054Z" fill="#403531"/>
<path d="M243.85 29.0234L243.418 29.2738L243.85 29.5283L244.283 29.2738L243.85 29.0234Z" fill="#836E69"/>
<path d="M244.547 29.5606L244.335 29.4375L244.127 29.5606H243.902V29.692L244.335 29.9423L244.767 29.692V29.5606H244.547Z" fill="#403531"/>
<path d="M244.335 29.3047L243.902 29.5551L244.335 29.8054L244.767 29.5551L244.335 29.3047Z" fill="#836E69"/>
<path d="M245.023 29.8339L244.819 29.7148L244.611 29.8339H244.383V29.9652L244.819 30.2197L245.252 29.9652V29.8339H245.023Z" fill="#403531"/>
<path d="M244.819 29.582L244.383 29.8324L244.819 30.0828L245.252 29.8324L244.819 29.582Z" fill="#836E69"/>
<path d="M245.506 30.1149L245.302 30L245.094 30.1149H244.869V30.2463L245.302 30.5007L245.734 30.2463V30.1149H245.506Z" fill="#403531"/>
<path d="M245.302 29.8633L244.869 30.1136L245.302 30.3681L245.734 30.1136L245.302 29.8633Z" fill="#836E69"/>
<path d="M238.529 26.6034L238.325 26.4844L238.113 26.6034H237.889V26.7347L238.325 26.9851L238.754 26.7347V26.6034H238.529Z" fill="#403531"/>
<path d="M238.325 26.3516L237.889 26.6019L238.325 26.8564L238.754 26.6019L238.325 26.3516Z" fill="#836E69"/>
<path d="M239.013 26.8807L238.805 26.7617L238.601 26.8807H238.373V27.0121L238.805 27.2666L239.238 27.0121V26.8807H239.013Z" fill="#403531"/>
<path d="M238.805 26.6289L238.373 26.8793L238.805 27.1337L239.238 26.8793L238.805 26.6289Z" fill="#836E69"/>
<path d="M239.492 27.1581L239.288 27.0391L239.08 27.1581H238.852V27.2935L239.288 27.5439L239.721 27.2935V27.1581H239.492Z" fill="#403531"/>
<path d="M239.288 26.918L238.852 27.1642L239.288 27.4187L239.721 27.1642L239.288 26.918Z" fill="#836E69"/>
<path d="M239.98 27.4393L239.772 27.3203L239.564 27.4393H239.34V27.5707L239.772 27.821L240.205 27.5707V27.4393H239.98Z" fill="#403531"/>
<path d="M239.772 27.1914L239.34 27.4459L239.772 27.6962L240.205 27.4459L239.772 27.1914Z" fill="#836E69"/>
<path d="M240.459 27.7206L240.251 27.6016L240.043 27.7206H239.818V27.8519L240.251 28.1064L240.687 27.8519V27.7206H240.459Z" fill="#403531"/>
<path d="M240.251 27.4727L239.818 27.723L240.251 27.9734L240.687 27.723L240.251 27.4727Z" fill="#836E69"/>
<path d="M240.941 28.0059L240.737 27.8828L240.529 28.0059H240.305V28.1332L240.737 28.3877L241.17 28.1332V28.0059H240.941Z" fill="#403531"/>
<path d="M240.737 27.75L240.305 28.0045L240.737 28.2548L241.17 28.0045L240.737 27.75Z" fill="#836E69"/>
<path d="M241.426 28.2833L241.222 28.1602L241.013 28.2833H240.789V28.4146L241.222 28.665L241.654 28.4146V28.2833H241.426Z" fill="#403531"/>
<path d="M241.222 28.0273L240.789 28.2818L241.222 28.5322L241.654 28.2818L241.222 28.0273Z" fill="#836E69"/>
<path d="M241.91 28.5682L241.702 28.4492L241.494 28.5682H241.269V28.6996L241.702 28.9541L242.138 28.6996V28.5682H241.91Z" fill="#403531"/>
<path d="M241.702 28.3125L241.269 28.5629L241.702 28.8132L242.138 28.5629L241.702 28.3125Z" fill="#836E69"/>
<path d="M242.392 28.8456L242.188 28.7266L241.98 28.8456H241.752V28.9769L242.188 29.2273L242.621 28.9769V28.8456H242.392Z" fill="#403531"/>
<path d="M242.188 28.5898L241.752 28.8402L242.188 29.0906L242.621 28.8402L242.188 28.5898Z" fill="#836E69"/>
<path d="M242.873 29.127L242.669 29.0039L242.465 29.127H242.236V29.2584L242.669 29.5087L243.101 29.2584V29.127H242.873Z" fill="#403531"/>
<path d="M242.669 28.8711L242.236 29.1256L242.669 29.3759L243.101 29.1256L242.669 28.8711Z" fill="#836E69"/>
<path d="M243.359 29.4042L243.151 29.2852L242.943 29.4042H242.719V29.5355L243.151 29.79L243.584 29.5355V29.4042H243.359Z" fill="#403531"/>
<path d="M243.151 29.1602L242.719 29.4105L243.151 29.665L243.584 29.4105L243.151 29.1602Z" fill="#836E69"/>
<path d="M243.84 29.6856L243.636 29.5625L243.428 29.6856H243.199V29.817L243.636 30.0673L244.068 29.817V29.6856H243.84Z" fill="#403531"/>
<path d="M243.636 29.4375L243.199 29.692L243.636 29.9423L244.068 29.692L243.636 29.4375Z" fill="#836E69"/>
<path d="M244.32 29.9708L244.116 29.8477L243.908 29.9708H243.684V30.1021L244.116 30.3525L244.549 30.1021V29.9708H244.32Z" fill="#403531"/>
<path d="M244.116 29.7148L243.684 29.9693L244.116 30.2197L244.549 29.9693L244.116 29.7148Z" fill="#836E69"/>
<path d="M245.272 30.5131V30.3817L244.166 30.2422V30.3735L244.839 30.7634L245.272 30.5131Z" fill="#403531"/>
<path d="M245.272 30.3821L244.603 29.9922L244.166 30.2426L244.839 30.6325L245.272 30.3821Z" fill="#836E69"/>
<path d="M238.509 27.1492V27.0179L237.424 26.8906V27.022L238.077 27.3996L238.509 27.1492Z" fill="#403531"/>
<path d="M238.509 27.0106L237.856 26.6289L237.424 26.8834L238.077 27.2651L238.509 27.0106Z" fill="#836E69"/>
<path d="M238.774 27.295L238.565 27.1719L238.357 27.295H238.129V27.4263L238.565 27.6726L238.998 27.4263V27.295H238.774Z" fill="#403531"/>
<path d="M238.565 27.0391L238.129 27.2935L238.565 27.5439L238.998 27.2935L238.565 27.0391Z" fill="#836E69"/>
<path d="M239.256 27.5724L239.048 27.4492L238.844 27.5724H238.615V27.7037L239.048 27.9541L239.48 27.7037V27.5724H239.256Z" fill="#403531"/>
<path d="M239.048 27.3203L238.615 27.5707L239.048 27.821L239.48 27.5707L239.048 27.3203Z" fill="#836E69"/>
<path d="M239.736 27.8573L239.528 27.7383L239.324 27.8573H239.096V27.9886L239.528 28.239L239.961 27.9886V27.8573H239.736Z" fill="#403531"/>
<path d="M239.528 27.6016L239.096 27.8519L239.528 28.1064L239.961 27.8519L239.528 27.6016Z" fill="#836E69"/>
<path d="M240.219 28.1347L240.015 28.0156L239.807 28.1347H239.578V28.266L240.015 28.5205L240.447 28.266V28.1347H240.219Z" fill="#403531"/>
<path d="M240.015 27.8828L239.578 28.1332L240.015 28.3877L240.447 28.1332L240.015 27.8828Z" fill="#836E69"/>
<path d="M240.703 28.4159L240.495 28.2969L240.287 28.4159H240.062V28.5431L240.495 28.7976L240.927 28.5431V28.4159H240.703Z" fill="#403531"/>
<path d="M240.495 28.1602L240.062 28.4146L240.495 28.665L240.927 28.4146L240.495 28.1602Z" fill="#836E69"/>
<path d="M241.183 28.6932L240.975 28.5742L240.767 28.6932H240.543V28.8246L240.975 29.075L241.408 28.8246V28.6932H241.183Z" fill="#403531"/>
<path d="M240.975 28.4492L240.543 28.6996L240.975 28.95L241.408 28.6996L240.975 28.4492Z" fill="#836E69"/>
<path d="M241.666 28.9784L241.462 28.8594L241.254 28.9784H241.029V29.1097L241.462 29.3642L241.894 29.1097V28.9784H241.666Z" fill="#403531"/>
<path d="M241.462 28.7266L241.029 28.9769L241.462 29.2273L241.894 28.9769L241.462 28.7266Z" fill="#836E69"/>
<path d="M242.144 29.2557L241.94 29.1367L241.732 29.2557H241.508V29.3871L241.94 29.6416L242.373 29.3871V29.2557H242.144Z" fill="#403531"/>
<path d="M241.94 29.0039L241.508 29.2543L241.94 29.5046L242.373 29.2543L241.94 29.0039Z" fill="#836E69"/>
<path d="M242.633 29.537L242.425 29.418L242.221 29.537H241.992V29.6683L242.425 29.9228L242.861 29.6683V29.537H242.633Z" fill="#403531"/>
<path d="M242.425 29.2852L241.992 29.5355L242.425 29.79L242.861 29.5355L242.425 29.2852Z" fill="#836E69"/>
<path d="M243.113 29.8143L242.909 29.6953L242.701 29.8143H242.473V29.9457L242.909 30.2002L243.338 29.9457V29.8143H243.113Z" fill="#403531"/>
<path d="M242.909 29.5625L242.473 29.8129L242.909 30.0673L243.338 29.8129L242.909 29.5625Z" fill="#836E69"/>
<path d="M243.598 30.0958L243.389 29.9727L243.181 30.0958H242.957V30.223L243.389 30.4775L243.822 30.223V30.0958H243.598Z" fill="#403531"/>
<path d="M243.389 29.8477L242.957 30.1021L243.389 30.3525L243.822 30.1021L243.389 29.8477Z" fill="#836E69"/>
<path d="M244.08 30.3768L243.872 30.2578L243.668 30.3768H243.439V30.5082L243.872 30.7585L244.304 30.5082V30.3768H244.08Z" fill="#403531"/>
<path d="M243.872 30.125L243.439 30.3795L243.872 30.6298L244.304 30.3795L243.872 30.125Z" fill="#836E69"/>
<path d="M238.177 27.4928V27.3615L236.957 27.1562V27.2876L237.744 27.7432L238.177 27.4928Z" fill="#403531"/>
<path d="M238.177 27.3618L237.389 26.9062L236.957 27.1566L237.744 27.6163L238.177 27.3618Z" fill="#836E69"/>
<path d="M238.435 27.6425L238.227 27.5234L238.019 27.6425H237.795V27.7738L238.227 28.0283L238.66 27.7738V27.6425H238.435Z" fill="#403531"/>
<path d="M238.227 27.3906L237.795 27.641L238.227 27.8914L238.66 27.641L238.227 27.3906Z" fill="#836E69"/>
<path d="M238.916 27.9198L238.712 27.8008L238.5 27.9198H238.275V28.0553L238.712 28.3056L239.144 28.0553V27.9198H238.916Z" fill="#403531"/>
<path d="M238.712 27.668L238.275 27.9183L238.712 28.1728L239.144 27.9183L238.712 27.668Z" fill="#836E69"/>
<path d="M239.402 28.2011L239.194 28.082L238.986 28.2011H238.758V28.3324L239.194 28.5869L239.623 28.3324V28.2011H239.402Z" fill="#403531"/>
<path d="M239.194 27.9492L238.758 28.1996L239.194 28.45L239.623 28.1996L239.194 27.9492Z" fill="#836E69"/>
<path d="M239.883 28.4786L239.675 28.3555L239.467 28.4786H239.242V28.6099L239.675 28.8644L240.107 28.6099V28.4786H239.883Z" fill="#403531"/>
<path d="M239.675 28.2344L239.242 28.4847L239.675 28.7351L240.107 28.4847L239.675 28.2344Z" fill="#836E69"/>
<path d="M240.363 28.7636L240.155 28.6445L239.951 28.7636H239.723V28.8908L240.155 29.1453L240.592 28.8908V28.7636H240.363Z" fill="#403531"/>
<path d="M240.155 28.5117L239.723 28.7662L240.155 29.0166L240.592 28.7662L240.155 28.5117Z" fill="#836E69"/>
<path d="M240.845 29.0411L240.641 28.918L240.433 29.0411H240.209V29.1724L240.641 29.4228L241.07 29.1724V29.0411H240.845Z" fill="#403531"/>
<path d="M240.641 28.793L240.209 29.0433L240.641 29.2937L241.07 29.0433L240.641 28.793Z" fill="#836E69"/>
<path d="M241.328 29.3222L241.12 29.2031L240.912 29.3222H240.688V29.4535L241.12 29.708L241.552 29.4535V29.3222H241.328Z" fill="#403531"/>
<path d="M241.12 29.0703L240.688 29.3207L241.12 29.571L241.552 29.3207L241.12 29.0703Z" fill="#836E69"/>
<path d="M241.812 29.5997L241.604 29.4766L241.4 29.5997H241.172V29.731L241.604 29.9814L242.037 29.731V29.5997H241.812Z" fill="#403531"/>
<path d="M241.604 29.3516L241.172 29.606L241.604 29.8523L242.037 29.606L241.604 29.3516Z" fill="#836E69"/>
<path d="M242.293 29.8847L242.085 29.7656L241.881 29.8847H241.652V30.016L242.085 30.2664L242.517 30.016V29.8847H242.293Z" fill="#403531"/>
<path d="M242.085 29.6289L241.652 29.8834L242.085 30.1337L242.517 29.8834L242.085 29.6289Z" fill="#836E69"/>
<path d="M242.773 30.1659L242.569 30.0469L242.361 30.1659H242.137V30.2972L242.569 30.5476L243.002 30.2972V30.1659H242.773Z" fill="#403531"/>
<path d="M242.569 29.9102L242.137 30.1605L242.569 30.415L243.002 30.1605L242.569 29.9102Z" fill="#836E69"/>
<path d="M243.26 30.4432L243.052 30.3242L242.844 30.4432H242.619V30.5746L243.052 30.8291L243.484 30.5746V30.4432H243.26Z" fill="#403531"/>
<path d="M243.052 30.1914L242.619 30.4418L243.052 30.6962L243.484 30.4418L243.052 30.1914Z" fill="#836E69"/>
<path d="M244.789 30.7917V30.6562L243.887 30.8081L243.1 30.726V30.8574L243.887 31.313L244.789 30.7917Z" fill="#403531"/>
<path d="M244.789 30.6566L244.352 30.4062L243.887 30.6771L243.532 30.4719L243.1 30.7264L243.887 31.182L244.789 30.6566Z" fill="#836E69"/>
<path d="M237.469 27.6187V27.4873L236.494 27.4258V27.5571L237.037 27.8732L237.469 27.6187Z" fill="#403531"/>
<path d="M237.469 27.4879L236.931 27.1719L236.494 27.4263L237.037 27.7424L237.469 27.4879Z" fill="#836E69"/>
<path d="M237.728 27.7675L237.52 27.6484L237.312 27.7675H237.088V27.8988L237.52 28.1492L237.953 27.8988V27.7675H237.728Z" fill="#403531"/>
<path d="M237.52 27.5234L237.088 27.7738L237.52 28.0242L237.953 27.7738L237.52 27.5234Z" fill="#836E69"/>
<path d="M238.207 28.0487L237.999 27.9297L237.791 28.0487H237.566V28.1801L237.999 28.4345L238.431 28.1801V28.0487H238.207Z" fill="#403531"/>
<path d="M237.999 27.8008L237.566 28.0511L237.999 28.3056L238.431 28.0511L237.999 27.8008Z" fill="#836E69"/>
<path d="M238.693 28.3298L238.485 28.2148L238.277 28.3298H238.053V28.4652L238.485 28.7156L238.917 28.4652V28.3298H238.693Z" fill="#403531"/>
<path d="M238.485 28.0781L238.053 28.3285L238.485 28.583L238.917 28.3285L238.485 28.0781Z" fill="#836E69"/>
<path d="M239.176 28.6153L238.968 28.4922L238.76 28.6153H238.535V28.7426L238.968 28.997L239.4 28.7426V28.6153H239.176Z" fill="#403531"/>
<path d="M238.968 28.3555L238.535 28.6099L238.968 28.8603L239.4 28.6099L238.968 28.3555Z" fill="#836E69"/>
<path d="M239.656 28.8964L239.448 28.7773L239.244 28.8964H239.016V29.0277L239.448 29.2781L239.88 29.0277V28.8964H239.656Z" fill="#403531"/>
<path d="M239.448 28.6406L239.016 28.891L239.448 29.1455L239.88 28.891L239.448 28.6406Z" fill="#836E69"/>
<path d="M240.139 29.1778L239.935 29.0547L239.727 29.1778H239.498V29.3092L239.935 29.5595L240.367 29.3092V29.1778H240.139Z" fill="#403531"/>
<path d="M239.935 28.918L239.498 29.1724L239.935 29.4228L240.367 29.1724L239.935 28.918Z" fill="#836E69"/>
<path d="M240.619 29.4511L240.415 29.332L240.207 29.4511H239.982V29.5783L240.415 29.8328L240.847 29.5783V29.4511H240.619Z" fill="#403531"/>
<path d="M240.415 29.2031L239.982 29.4576L240.415 29.708L240.847 29.4576L240.415 29.2031Z" fill="#836E69"/>
<path d="M241.107 29.7323L240.899 29.6133L240.695 29.7323H240.467V29.8636L240.899 30.114L241.332 29.8636V29.7323H241.107Z" fill="#403531"/>
<path d="M240.899 29.4766L240.467 29.7269L240.899 29.9814L241.332 29.7269L240.899 29.4766Z" fill="#836E69"/>
<path d="M241.592 30.0138L241.384 29.8906L241.176 30.0138H240.947V30.1451L241.384 30.3955L241.816 30.1451V30.0138H241.592Z" fill="#403531"/>
<path d="M241.384 29.7539L240.947 30.0084L241.384 30.2587L241.816 30.0084L241.384 29.7539Z" fill="#836E69"/>
<path d="M242.074 30.2989L241.866 30.1758L241.662 30.2989H241.434V30.4303L241.866 30.6806L242.299 30.4303V30.2989H242.074Z" fill="#403531"/>
<path d="M241.866 30.0469L241.434 30.2972L241.866 30.5476L242.299 30.2972L241.866 30.0469Z" fill="#836E69"/>
<path d="M242.553 30.5761L242.345 30.457L242.141 30.5761H241.912V30.7115L242.345 30.9619L242.781 30.7115V30.5761H242.553Z" fill="#403531"/>
<path d="M242.345 30.3242L241.912 30.5746L242.345 30.825L242.781 30.5746L242.345 30.3242Z" fill="#836E69"/>
<path d="M243.857 31.3314V31.2L242.396 30.8594V30.9866L243.425 31.5859L243.857 31.3314Z" fill="#403531"/>
<path d="M243.857 31.1967L242.829 30.6016L242.396 30.856L243.425 31.4471L243.857 31.1967Z" fill="#836E69"/>
<path opacity="0.3" d="M237.874 39.2635L223.514 30.9234L225.798 29.5977L240.159 37.9378L237.874 39.2635Z" fill="black"/>
<path d="M233.247 37.7084L233.035 37.1707L236.45 35.4961V35.845L233.247 37.7084Z" fill="#0A0808"/>
<path d="M233.25 37.7122L225.723 33.3411V32.9922L229.909 34.4575L233.25 37.3634V37.7122Z" fill="#362C29"/>
<path d="M233.25 37.3674L225.723 32.9962L228.925 31.1328L236.452 35.504L233.25 37.3674Z" fill="#574943"/>
<path opacity="0.3" d="M226.705 32.4257L228.924 31.1328L236.452 35.504V35.8529L234.228 37.1457V36.7969L226.705 32.4257Z" fill="black"/>
<path d="M239.323 34.8751L238.694 35.2404L224.342 26.9044L224.97 26.5391L239.323 34.8751Z" fill="#F4EFE9"/>
<path d="M239.322 36.9481L238.694 37.3093L238.262 36.0862L238.694 35.2325L239.322 34.8672V36.9481Z" fill="#0A0808"/>
<path d="M238.694 35.2384L224.342 26.9023V28.9792L238.694 37.3152V35.2384Z" fill="#211A1A"/>
<path d="M239.323 25.5741L238.694 25.9435L224.342 17.6075L224.97 17.2422L239.323 25.5741Z" fill="#574943"/>
<path d="M239.323 34.8709L238.695 35.2361V25.9397L239.323 25.5703V34.8709Z" fill="#0A0808"/>
<path d="M238.694 25.9415L224.342 17.6055V26.9019L238.694 35.2379V25.9415Z" fill="#362C29"/>
<path d="M232.571 35.895L232.183 36.1207L229.029 26.6396L229.413 26.418L233.639 28.8724L232.571 35.895Z" fill="#0A0808"/>
<path d="M232.184 36.1257L227.957 33.6671L229.03 26.6445L233.257 29.1031L232.184 36.1257Z" fill="#362C29"/>
<path opacity="0.3" d="M215.481 61.3008L205 55.214L216.95 48.2734L227.431 54.3644L215.481 61.3008Z" fill="black"/>
<path d="M216.55 48.5044L217.203 48.882L216.354 43.969L215.849 41.9496L215.534 41.6172L214.955 41.6295L216.55 48.5044Z" fill="#362C29"/>
<path d="M205 55.2082L206.632 46.2812L206.93 45.5547L207.835 45.7435L207.444 46.6629L207.415 46.6506L205.653 55.5858L205 55.2082Z" fill="#362C29"/>
<path d="M206.93 45.5584L207.583 45.9401L208.496 45.3368L207.444 44.9961L206.93 45.5584Z" fill="#0A0808"/>
<path d="M214.502 40.8961L215.069 41.4871L215.673 41.2409L215.02 40.8633L214.502 40.8961Z" fill="#0A0808"/>
<path d="M207.443 44.9948L208.1 45.3765L211.911 43.4598L215.158 41.2762L214.501 40.8945L207.443 44.9948Z" fill="#574943"/>
<path d="M215.077 41.772L208.182 45.7738L207.851 46.135L207.651 46.6275L206.052 55.3535L205.652 55.5833L207.288 46.6604L207.582 45.9339L208.1 45.3716L215.158 41.2713L215.672 41.2344L215.97 41.6202L217.606 48.6469L217.202 48.8767L215.603 42.006L215.403 41.7474L215.077 41.772Z" fill="#0A0808"/>
<path d="M217.131 48.8945L218.865 49.2762L218.489 50.9426H217.857L217.131 48.8945Z" fill="#362C29"/>
<path d="M209.271 45.0117L217.855 48.9725V50.9508L209.271 45.968V45.0117Z" fill="#0A0808"/>
<path d="M218.488 48.6782L224.331 46.6055V47.5618L218.488 50.952V48.6782Z" fill="#362C29"/>
<path d="M215.114 41.2461H215.746L224.33 46.2288V46.5982L218.488 49.9925H217.855L209.271 45.0057V44.6363L215.114 41.2461Z" fill="#B5AFA7"/>
<path d="M217.131 48.332L218.865 48.7137L218.489 49.9984H217.857L217.131 48.332Z" fill="#D9BE93"/>
<path d="M209.271 44.4375L217.855 48.3982V49.9948L209.271 45.008V44.4375Z" fill="#C7AE87"/>
<path d="M218.488 48.1038L224.331 46.0352V46.6057L218.488 50V48.1038Z" fill="#EFCFA3"/>
<path d="M215.114 40.6797H215.746L224.33 45.6665V46.0318L218.488 49.422H217.855L209.271 44.4393V44.0699L215.114 40.6797Z" fill="#F7EDD4"/>
<path d="M226.376 54.2153L227.029 54.597L226.185 49.6799L225.675 47.6606L225.361 47.3281L224.777 47.3404L226.376 54.2153Z" fill="#362C29"/>
<path d="M214.828 60.9191L216.46 51.9962L216.758 51.2656L217.664 51.4503L217.272 52.3738L217.239 52.3615L215.481 61.2968L214.828 60.9191Z" fill="#362C29"/>
<path d="M216.758 51.2615L217.411 51.6391L218.324 51.0358L217.272 50.6992L216.758 51.2615Z" fill="#0A0808"/>
<path d="M224.328 46.6031L224.899 47.1942L225.499 46.9479L224.842 46.5703L224.328 46.6031Z" fill="#0A0808"/>
<path d="M217.272 50.7058L217.929 51.0834L221.739 49.1707L224.982 46.9872L224.33 46.6055L217.272 50.7058Z" fill="#574943"/>
<path d="M224.901 47.4789L218.01 51.4848L217.679 51.846L217.48 52.3344L215.88 61.0644L215.48 61.2943L217.116 52.3713L217.41 51.6407L217.928 51.0784L224.982 46.9823L225.5 46.9453L225.798 47.3311L227.43 54.3578L227.03 54.5918L225.435 47.7169L225.235 47.4584L224.901 47.4789Z" fill="#0A0808"/>
<path d="M208.102 45.3765L207.445 44.9948L206.67 42.0273L207.567 42.2736L208.102 45.3765Z" fill="#362C29"/>
<path d="M207.327 42.4076L207.567 42.2721L206.907 41.8945L206.67 42.0259L207.327 42.4076Z" fill="#574943"/>
<path d="M208.101 45.3725L208.338 45.2329L207.567 42.2695L207.326 42.405L208.101 45.3725Z" fill="#0A0808"/>
<path d="M207.327 42.4099L206.67 42.0282V33.7578L207.567 34.0082L207.327 42.4099Z" fill="#362C29"/>
<path d="M207.327 34.1422L207.567 34.0067L206.907 33.625L206.67 33.7563L207.327 34.1422Z" fill="#574943"/>
<path d="M207.326 42.4095L207.469 42.4834L207.567 42.2741V34.0078L207.326 34.1433V42.4095Z" fill="#0A0808"/>
<path d="M215.1 38.8425L216.295 40.1683L217.246 39.1791L216.931 38.625L215.1 38.8425Z" fill="#EFCFA3"/>
<path d="M207.824 33.9406L215.527 39.4364L216.934 38.6196L208.346 33.6328L207.824 33.9406Z" fill="#F7EDD4"/>
<path d="M215.586 40.1362L216.724 43.8835L217.246 43.5839V39.1758L215.586 40.1362Z" fill="#D9BE93"/>
<path d="M207.51 38.534L207.824 39.084L216.408 44.0708L216.726 43.8861V39.478L216.408 38.928L207.824 33.9453L207.51 34.1259V38.534Z" fill="#574943"/>
<path d="M214.609 39.1269L215.805 40.4485L216.723 39.4758L216.404 38.9258L214.609 39.1269Z" fill="#0A0808"/>
<path d="M207.332 34.2285L215.039 39.7284L216.41 38.928L207.826 33.9453L207.332 34.2285Z" fill="#574943"/>
<path d="M215.098 40.4247L216.236 44.172L216.725 43.8847V39.4766L215.098 40.4247Z" fill="#211A1A"/>
<path d="M207.016 38.8194L207.33 39.3694L215.914 44.3562L216.236 44.1715V39.7634L215.914 39.2134L207.33 34.2266L207.016 34.4113V38.8194Z" fill="#362C29"/>
<path d="M217.928 51.0794L217.271 50.7018L216.496 47.7344L217.39 47.9806L217.928 51.0794Z" fill="#362C29"/>
<path d="M217.157 48.1228L217.39 47.9833L216.733 47.6016L216.496 47.737L217.157 48.1228Z" fill="#574943"/>
<path d="M217.929 51.0832L218.166 50.9477L217.391 47.9844L217.158 48.1239L217.929 51.0832Z" fill="#0A0808"/>
<path d="M217.157 48.1208L216.496 47.735V39.4688L217.39 39.715L217.157 48.1208Z" fill="#362C29"/>
<path d="M217.157 39.8455L217.39 39.71L216.733 39.3242L216.496 39.4638L217.157 39.8455Z" fill="#574943"/>
<path d="M217.158 48.1245L217.297 48.1943L217.391 47.985V39.7188L217.158 39.8542V48.1245Z" fill="#0A0808"/>
<path d="M243.66 28.8982L244.615 29.124L245.19 28.184L244.925 26.9609L243.66 28.8982Z" fill="#C7A495"/>
<path d="M244.143 24.9805L242.78 26.7905L242.67 27.8166L243.066 28.7401L244.143 26.6879L244.865 26.1872L244.951 25.4361L244.143 24.9805Z" fill="#C7A495"/>
<path d="M232.87 59.418L233.323 60.1527V60.3702L232.05 61.5317L231.059 63.2638L230.124 63.4567L229.541 63.2351V62.3239L232.87 59.418Z" fill="#211A1A"/>
<path d="M239.331 60.1484L240.673 60.366L242.717 60.8133V61.0309L242.525 62.1473L240.538 62.8738L238.572 63.0913L236.43 63.5797L235.688 62.7752V62.5536L239.331 60.1484Z" fill="#211A1A"/>
<path d="M232.87 59.1992L233.323 59.4619V60.1555L232.05 61.3171L231.059 63.0491L230.124 63.2379L229.627 63.0491L229.541 62.3268L229.627 60.5783L232.87 59.1992Z" fill="#544540"/>
<path d="M239.331 59.9258L240.673 60.1392H242.464L242.717 60.8082L242.525 61.9205L240.538 62.647L238.572 62.8645L236.43 63.3529L235.688 62.5485L235.883 60.6317L239.331 59.9258Z" fill="#544540"/>
<path d="M232.843 21.6727L231.203 21.332L230.02 21.7178L229.224 22.9492L227.861 31.7654V33.2635L230.215 37.7291L231.541 34.5276L230.432 31.9131L231.219 28.7363L232.843 21.6727Z" fill="white"/>
<path d="M229.716 40.0781L230.083 49.4115L229.227 53.2491L229.459 60.8504L231.107 61.2445L232.976 59.89L233.237 51.3118L235.342 42.5243L229.716 40.0781Z" fill="#685750"/>
<path d="M230.434 35.3281L229.459 39.4202L229.949 40.672L234.057 43.2988L235.42 51.1711L235.028 54.0729L235.652 60.9272L237.753 61.2432L239.663 59.9873L239.136 50.8181L239.663 44.7067L239.136 36.777L230.434 35.3281Z" fill="#836E69"/>
<path d="M230.56 34.7422L230.434 35.3291L233.061 36.9503L238.201 37.3608L239.136 36.778V35.834L230.56 34.7422Z" fill="#362C29"/>
<path d="M234.78 19.8823L234.201 21.6308L234.552 22.5994L237.387 23.0714L238.069 22.3655L238.22 21.1013L238.493 20.3092L238.33 19.6484L235.931 19.1641L234.78 19.8823Z" fill="#F0C6B4"/>
<path d="M239.971 25.5112L238.066 23.3235L236.242 23.5862L234.578 22.9541L233.746 21.8829L233.897 21.4766L232.575 21.6325L231.347 22.359L230.355 23.9064L230.082 26.9231L230.82 32.6405L230.355 34.6024L233.236 36.5971L238.262 36.9501L239.429 35.9733L239.971 31.5036V25.5112Z" fill="#87511B"/>
<path d="M240.097 16.0234L240.264 17.698L239.999 18.1495L240.227 18.6215L239.517 21.1047H238.22L238 20.37L237.502 20.1483V16.3764L240.097 16.0234Z" fill="#F0C6B4"/>
<path d="M238.49 18.4294L238.813 18.7495V19.3118L239.135 19.1354V18.1954L240.012 17.0175L240.114 15.7698L240.42 15.741L239.429 14.5631L237.866 14.05L238.115 13.7422L235.891 14.3168L234.288 15.8436L234.08 17.9574L234.431 19.3118L235.018 20.2805L236.622 20.8099L237.997 20.3667L237.882 19.71L237.98 18.9137L238.49 18.4294Z" fill="#B57355"/>
<path d="M242.777 28.4498L242.961 27.2184V26.3935L242.777 25.6875H243.283L244.14 26.689V29.0367L243.255 29.2132L242.777 28.4498Z" fill="#F0C6B4"/>
<path d="M244.372 26.2461L245.155 26.6976V27.7729L244.143 29.0371L243.576 28.7416L243.678 26.7591L244.372 26.2461Z" fill="#F0C6B4"/>
<path d="M238.878 25.3164L238.066 26.2563V28.723L240.343 34.0505L241.396 34.3625L242.762 33.5662L244.141 29.035L243.672 28.4481H242.779L241.779 29.901L241.102 26.3712L239.972 25.5093L238.878 25.3164Z" fill="white"/>
<path d="M241.775 29.9023L242.363 32.0325L242.559 31.4866L241.775 29.9023Z" fill="#D1D1D1"/>
<path d="M234.198 21.0273L234.884 22.1478L236.446 22.587L238.217 22.2628L238.49 23.3792L236.197 23.7896L234.447 23.1575L233.529 21.8934L234.198 21.0273Z" fill="white"/>
<path d="M244.141 24.3685L245.026 25.6901H246.205L246.642 24.073L245.659 23.6133L244.141 24.3685Z" fill="#A39C95"/>
<path d="M244.422 25.9453V27.349L244.74 27.8374L245.075 27.7595L245.152 26.6923L244.422 25.9453Z" fill="#C7A495"/>
<path d="M244.479 26.1448L244.643 27.3802L244.961 27.7168L245.181 26.5429L245.483 25.7261L245.589 24.9258L244.141 24.9832L244.479 26.1448Z" fill="#F0C6B4"/>
<path d="M244.753 24.153L244.141 24.978L244.928 25.1052L245.483 25.7209L246.36 24.8713L245.895 23.7344L244.753 24.153Z" fill="white"/>
<path d="M247.474 19.9978L246.556 21.0239L244.141 24.3608L245.606 24.447L246.205 25.6824L249.767 21.9228L248.861 19.7188L247.474 19.9978Z" fill="#211A1A"/>
<path d="M255.677 32.6875L253.788 33.652L252.752 35.4005L253.242 36.2091L254.91 36.5908L255.918 35.2404L257.174 34.1815L257.391 33.5248L255.677 32.6875Z" fill="#F0C6B4"/>
<path d="M255.676 32.6856L256.063 30.9453L257.128 31.7539L258.197 31.8647L257.389 33.5229L256.271 33.3956L255.676 32.6856Z" fill="white"/>
<path d="M260.094 13.9883L259.143 14.9077L258.356 16.7013L257.316 25.5011L255.59 31.6823L256.524 32.3103L258.123 32.6838L260.074 27.9227L260.428 24.6433L262.268 17.1117L261.816 15.3386L260.094 13.9883Z" fill="#211A1A"/>
<path opacity="0.3" d="M223.739 75L213.254 68.9132L225.204 61.9727L235.689 68.0636L223.739 75Z" fill="black"/>
<path d="M224.804 62.2036L225.461 62.5812L224.612 57.6682L224.102 55.6489L223.792 55.3164L223.209 55.3287L224.804 62.2036Z" fill="#362C29"/>
<path d="M213.254 68.9113L214.89 59.9843L215.184 59.2578L216.093 59.4425L215.702 60.366L215.669 60.3537L213.911 69.2889L213.254 68.9113Z" fill="#362C29"/>
<path d="M215.184 59.2615L215.84 59.6432L216.754 59.0399L215.702 58.6992L215.184 59.2615Z" fill="#0A0808"/>
<path d="M222.76 54.5992L223.327 55.1903L223.931 54.944L223.278 54.5664L222.76 54.5992Z" fill="#0A0808"/>
<path d="M215.703 58.7018L216.356 59.0836L220.17 57.1668L223.418 54.9792L222.761 54.6016L215.703 58.7018Z" fill="#574943"/>
<path d="M223.33 55.4752L216.44 59.477L216.105 59.8381L215.905 60.3266L214.31 69.0566L213.91 69.2864L215.542 60.3635L215.84 59.637L216.354 59.0747L223.416 54.9703L223.93 54.9375L224.228 55.3233L225.86 62.35L225.46 62.5799L223.865 55.7091L223.661 55.4505L223.33 55.4752Z" fill="#0A0808"/>
<path d="M225.385 62.6055L227.127 62.9872L226.747 64.6536H226.115L225.385 62.6055Z" fill="#362C29"/>
<path d="M217.529 58.7109L226.113 62.6717V64.65L217.529 59.6673V58.7109Z" fill="#0A0808"/>
<path d="M226.744 62.3813L232.586 60.3086V61.2649L226.744 64.6551V62.3813Z" fill="#362C29"/>
<path d="M223.372 54.9531H224.004L232.588 59.94V60.3052L226.746 63.6996H226.113L217.529 58.7127V58.3434L223.372 54.9531Z" fill="#B5AFA7"/>
<path d="M225.385 62.0312L227.127 62.413L226.747 63.6976H226.115L225.385 62.0312Z" fill="#D9BE93"/>
<path d="M217.529 58.1445L226.113 62.1053V63.7019L217.529 58.715V58.1445Z" fill="#C7AE87"/>
<path d="M226.744 61.8069L232.586 59.7383V60.3088L226.744 63.7031V61.8069Z" fill="#EFCFA3"/>
<path d="M223.372 54.3789H224.004L232.588 59.3657V59.731L226.746 63.1254H226.113L217.529 58.1385V57.7732L223.372 54.3789Z" fill="#F7EDD4"/>
<path d="M234.634 67.9145L235.287 68.2921L234.439 63.3833L233.933 61.3598L233.619 61.0273L233.035 61.0397L234.634 67.9145Z" fill="#362C29"/>
<path d="M223.082 74.6223L224.718 65.6952L225.016 64.9688L225.917 65.1534L225.53 66.0769L225.497 66.0646L223.739 74.9999L223.082 74.6223Z" fill="#362C29"/>
<path d="M225.016 64.9725L225.668 65.3501L226.582 64.7508L225.53 64.4102L225.016 64.9725Z" fill="#0A0808"/>
<path d="M232.588 60.3026L233.155 60.8936L233.759 60.6473L233.102 60.2656L232.588 60.3026Z" fill="#0A0808"/>
<path d="M225.531 64.4089L226.184 64.7865L229.999 62.8738L233.246 60.6862L232.589 60.3086L225.531 64.4089Z" fill="#574943"/>
<path d="M233.158 61.182L226.268 65.1879L225.933 65.5491L225.737 66.0375L224.138 74.7675L223.738 74.9974L225.374 66.0744L225.668 65.3439L226.182 64.7816L233.244 60.6813L233.758 60.6484L234.052 61.0343L235.688 68.061L235.288 68.2908L233.689 61.4201L233.489 61.1615L233.158 61.182Z" fill="#0A0808"/>
<path d="M216.352 59.0755L215.699 58.6938L214.924 55.7305L215.817 55.9726L216.352 59.0755Z" fill="#362C29"/>
<path d="M215.581 56.1068L215.817 55.9714L215.156 55.5938L214.924 55.7292L215.581 56.1068Z" fill="#574943"/>
<path d="M216.353 59.0756L216.594 58.936L215.819 55.9727L215.582 56.1081L216.353 59.0756Z" fill="#0A0808"/>
<path d="M215.581 56.113L214.924 55.7354V47.4609L215.817 47.7113L215.581 56.113Z" fill="#362C29"/>
<path d="M215.581 47.8453L215.817 47.7098L215.156 47.3281L214.924 47.4595L215.581 47.8453Z" fill="#574943"/>
<path d="M215.582 56.1087L215.725 56.1867L215.819 55.9733V47.707L215.582 47.8425V56.1087Z" fill="#0A0808"/>
<path d="M223.359 52.5455L224.555 53.8671L225.505 52.882L225.187 52.332L223.359 52.5455Z" fill="#EFCFA3"/>
<path d="M216.078 47.6514L223.781 53.1472L225.184 52.3345L216.6 47.3477L216.078 47.6514Z" fill="#F7EDD4"/>
<path d="M223.846 53.8432L224.98 57.5905L225.506 57.2909V52.8828L223.846 53.8432Z" fill="#D9BE93"/>
<path d="M215.766 52.241L216.08 52.791L224.664 57.7779L224.978 57.5932V53.1851L224.664 52.6351L216.08 47.6523L215.766 47.8329V52.241Z" fill="#574943"/>
<path d="M222.865 52.8259L224.065 54.1516L224.979 53.1789L224.664 52.6289L222.865 52.8259Z" fill="#0A0808"/>
<path d="M215.586 47.9355L223.293 53.4354L224.663 52.6351L216.08 47.6523L215.586 47.9355Z" fill="#574943"/>
<path d="M223.35 54.1317L224.488 57.879L224.977 57.5917V53.1836L223.35 54.1317Z" fill="#211A1A"/>
<path d="M215.271 52.5264L215.586 53.0764L224.169 58.0591L224.488 57.8785V53.4704L224.169 52.9204L215.586 47.9336L215.271 48.1183V52.5264Z" fill="#362C29"/>
<path d="M226.182 64.7865L225.529 64.4089L224.754 61.4414L225.647 61.6918L226.182 64.7865Z" fill="#362C29"/>
<path d="M225.411 61.822L225.647 61.6866L224.986 61.3008L224.754 61.4362L225.411 61.822Z" fill="#574943"/>
<path d="M226.181 64.7822L226.422 64.6468L225.647 61.6875L225.41 61.8229L226.181 64.7822Z" fill="#0A0808"/>
<path d="M225.411 61.828L224.754 61.4422V53.1719L225.647 53.4222L225.411 61.828Z" fill="#362C29"/>
<path d="M225.411 53.5564L225.647 53.421L224.986 53.0352L224.754 53.1706L225.411 53.5564Z" fill="#574943"/>
<path d="M225.41 61.8238L225.553 61.8935L225.647 61.6883V53.418L225.41 53.5534V61.8238Z" fill="#0A0808"/>
<path opacity="0.3" d="M236.175 72.684L245.934 67.0159L243.845 65.7969L234.082 71.4691L236.175 72.684Z" fill="black"/>
<path d="M236.253 72.3622L245.547 66.969V62.0273L235.441 66.9321L236.253 72.3622Z" fill="#0A0808"/>
<path opacity="0.3" d="M236.254 69.8955L245.548 64.4941V62.0273L236.254 67.4246V69.8955Z" fill="black"/>
<path d="M236.41 65.3244L245.704 59.2582L245.092 58.1992L234.941 63.0999L236.41 65.3244Z" fill="#211A1A"/>
<path d="M236.41 69.5968L245.704 64.1954V59.2578L236.41 64.6551L236.047 66.6991L236.41 69.5968Z" fill="#0A0808"/>
<path d="M234.484 63.6154V71.3399L235.002 71.8283L235.737 72.2388L236.255 72.3496V64.6415L235.737 63.7386L235.002 63.3281L234.484 63.6154Z" fill="#362C29"/>
<path d="M236.255 69.5126L235.443 65.7448L234.941 64.0866L234.966 63.7706L234.484 63.6105L234.941 63.1016L235.802 63.5982L236.41 64.6571V69.5988L236.255 69.5126Z" fill="#362C29"/>
<path d="M235.802 63.5972L245.092 58.2L244.235 57.6992L234.941 63.1006L235.802 63.5972Z" fill="#574943"/>
<path d="M243.604 64.2285V65.5871L244.644 64.9837L244.648 63.6211L243.604 64.2285Z" fill="#BFA69D"/>
<path d="M243.455 64.1406V65.5033L243.603 65.5895V64.2309L243.455 64.1406Z" fill="#E2D5C5"/>
<path d="M243.455 64.1385L244.495 63.5352L244.646 63.6214L243.602 64.2288L243.455 64.1385Z" fill="#F7F2E8"/>
<path d="M243.779 64.6031L243.938 64.7754L243.975 64.6318L244.102 64.4717L243.889 64.4102L243.779 64.6031Z" fill="#E6E1DD"/>
<path d="M243.779 64.8273L243.918 64.9094L243.971 64.7739L243.918 64.6836L243.779 64.6016V64.8273Z" fill="#E2D5C5"/>
<path d="M243.918 64.6868V64.9126L244.032 64.9783L244.505 64.6992L244.62 64.5063V64.2805L244.505 64.2148L244.032 64.4898L243.918 64.6868Z" fill="#BFA69D"/>
<path d="M244.033 64.494L244.506 64.219L244.364 64.1328L243.89 64.4119L244.033 64.494Z" fill="#F7F2E8"/>
<path d="M237.752 67.627V68.9855L238.796 68.3822V67.0195L237.752 67.627Z" fill="#BFA69D"/>
<path d="M237.604 67.5391V68.8976L237.751 68.9838V67.6253L237.604 67.5391Z" fill="#E2D5C5"/>
<path d="M237.604 67.541L238.648 66.9336L238.795 67.0198L237.75 67.6272L237.604 67.541Z" fill="#F7F2E8"/>
<path d="M237.924 67.9978L238.087 68.1743L238.128 68.0306L238.25 67.8706L238.034 67.8008L237.924 67.9978Z" fill="#E6E1DD"/>
<path d="M237.924 68.2257L238.071 68.3078L238.124 68.1765L238.071 68.0821L237.924 68V68.2257Z" fill="#E2D5C5"/>
<path d="M238.062 68.0853V68.311L238.172 68.3767L238.646 68.0976L238.756 67.9047V67.679L238.646 67.6133L238.172 67.8883L238.062 68.0853Z" fill="#BFA69D"/>
<path d="M238.18 67.8883L238.653 67.6133L238.51 67.5312L238.033 67.8021L238.18 67.8883Z" fill="#F7F2E8"/>
<path d="M241.673 59.5743H241.901L242.064 59.4799V59.3444L241.901 59.25H241.673L241.514 59.3444V59.4799L241.673 59.5743Z" fill="#E6E1DD"/>
<path d="M241.903 59.5788L242.066 59.4844V59.6978L241.903 59.7922L241.891 59.5952L241.903 59.5788Z" fill="#A39C95"/>
<path d="M241.675 59.5703H241.903V59.7837H241.675L241.658 59.5826L241.675 59.5703Z" fill="#BFB8AF"/>
<path d="M241.514 59.4844L241.674 59.5788V59.7922L241.514 59.6978V59.4844Z" fill="#D8D1C7"/>
<path d="M241.717 58.4386H241.851L241.941 58.3852V58.3073L241.851 58.2539H241.717L241.627 58.3073V58.3852L241.717 58.4386Z" fill="#785B56"/>
<path d="M241.852 58.4362L241.942 58.3828V59.4335L241.852 59.4828L241.844 58.4444L241.852 58.4362Z" fill="#574943"/>
<path d="M241.721 58.4375H241.857V59.4841H241.721L241.713 58.4416L241.721 58.4375Z" fill="#362C29"/>
<path d="M241.627 58.3828L241.717 58.4362V59.4828L241.627 59.4335V58.3828Z" fill="#0A0808"/>
<path d="M238.107 61.6444H238.335L238.498 61.55V61.4186L238.335 61.3242H238.107L237.943 61.4186V61.55L238.107 61.6444Z" fill="#E6E1DD"/>
<path d="M238.337 61.6413L238.5 61.5469V61.7644L238.337 61.8588L238.324 61.6577L238.337 61.6413Z" fill="#A39C95"/>
<path d="M238.108 61.6445H238.337V61.8621H238.108L238.088 61.6568L238.108 61.6445Z" fill="#BFB8AF"/>
<path d="M237.943 61.5469L238.108 61.6413V61.8588L237.943 61.7644V61.5469Z" fill="#D8D1C7"/>
<path d="M238.152 60.5089H238.283L238.376 60.4515V60.3776L238.283 60.3242H238.152L238.062 60.3776V60.4515L238.152 60.5089Z" fill="#785B56"/>
<path d="M238.284 60.5106L238.378 60.4531V61.5038L238.284 61.5613L238.275 60.5188L238.284 60.5106Z" fill="#574943"/>
<path d="M238.155 60.5117H238.286V61.5624H238.155L238.146 60.5158L238.155 60.5117Z" fill="#362C29"/>
<path d="M238.062 60.4531L238.153 60.5106V61.5613L238.062 61.5038V60.4531Z" fill="#0A0808"/>
<path d="M241.959 58.0898L241.772 57.7614L241.502 57.6055L241.311 57.7163V58.0282L241.502 58.3566L241.772 58.5125L241.959 58.4017V58.0898Z" fill="#BFB8AF"/>
<path d="M241.769 57.7582L241.5 57.6023L241.802 57.4258L242.071 57.5817L241.802 57.7623L241.769 57.7582Z" fill="#E6E1DD"/>
<path d="M241.957 58.0869L241.77 57.7585L242.071 57.582L242.263 57.9104L241.99 58.1033L241.957 58.0869Z" fill="#D8D1C7"/>
<path d="M241.959 58.3986V58.0866L242.265 57.9102V58.2221L241.959 58.3986Z" fill="#A39C95"/>
<path d="M238.586 59.9895L238.452 59.7514L238.26 59.6406L238.121 59.7186V59.9443L238.26 60.1824L238.452 60.2932L238.586 60.2152V59.9895Z" fill="#785B56"/>
<path d="M238.452 59.7535L238.26 59.6427L241.536 57.7383L241.732 57.8491L238.476 59.7576L238.452 59.7535Z" fill="#836E69"/>
<path d="M238.588 59.9941L238.453 59.756L241.733 57.8516L241.868 58.0937L238.612 60.0064L238.588 59.9941Z" fill="#685750"/>
<path d="M238.586 60.2198V59.9941L241.866 58.0938V58.3154L238.586 60.2198Z" fill="#403531"/>
<path d="M238.395 60.164L238.203 59.8315L237.934 59.6797L237.746 59.7864V60.1024L237.934 60.4308L238.203 60.5868L238.395 60.4759V60.164Z" fill="#BFB8AF"/>
<path d="M238.203 59.8323L237.934 59.6804L238.244 59.5039L238.509 59.6558L238.24 59.8405L238.203 59.8323Z" fill="#E6E1DD"/>
<path d="M238.391 60.1613L238.199 59.8288L238.505 59.6523L238.697 59.9848L238.424 60.1777L238.391 60.1613Z" fill="#D8D1C7"/>
<path d="M238.393 60.4728V60.1609L238.699 59.9844V60.2963L238.393 60.4728Z" fill="#A39C95"/>
<path opacity="0.3" d="M257.662 67.9797L252.795 65.1518L266.572 57.1523L271.435 59.9762L257.662 67.9797Z" fill="black"/>
<path d="M271.505 53.1957L270.783 53.1875V55.1084L271.15 55.8471L271.505 55.6419V53.1957Z" fill="#231F20"/>
<path d="M271.15 53.4086L266.201 50.5273V52.9777L271.15 55.8507V53.4086Z" fill="#414042"/>
<path d="M265.894 50.3516V57.1402L270.488 59.8081L270.647 58.507V52.8388L265.894 50.3516Z" fill="#857F79"/>
<path d="M257.559 62.1774L257.608 67.3613L270.561 59.8379V54.6992L257.559 62.1774ZM270.141 58.935L269.831 59.4767L258.142 66.2818L257.832 66.1012V62.5879L258.142 62.042L269.831 55.2574L270.141 55.438V58.935Z" fill="#D8D1C7"/>
<path d="M253.404 58.3711V65.1639L257.668 67.6265L257.827 66.3295V60.6654L253.404 58.3711Z" fill="#D8D1C7"/>
<path d="M255.773 65.7427V65.9602L255.271 65.6647V60.2305L255.459 60.3372L255.557 65.3486L255.773 65.7427Z" fill="#A39C95"/>
<path d="M255.773 60.5245V65.7453L255.459 65.5606V60.3398L255.773 60.5245Z" fill="#E6E1DD"/>
<path d="M257.668 60.8451V67.6379L270.817 60.0037V53.2109L257.668 60.8451ZM270.397 59.1007L270.087 59.6425L258.402 66.4312L258.088 66.2506V64.3379L258.402 63.792L270.087 57.0034L270.397 57.184V59.1007Z" fill="#A39C95"/>
<path d="M252.697 52.7897L253.676 51.0781L254.456 51.6035L253.77 53.159L252.697 52.7897Z" fill="#6D6E71"/>
<path d="M270.525 45.9062L271.505 47.6178L270.84 47.9708L269.787 46.7066L270.525 45.9062Z" fill="#6D6E71"/>
<path d="M259.077 53.582H256.352V55.823H259.077V53.582Z" fill="#6D6E71"/>
<path d="M271.503 47.6174L270.524 47.0469L269.426 47.2644L258.627 53.9587L257.64 55.6661L256.697 58.2067L257.64 61.2481L271.503 53.1994V47.6174Z" fill="#231F20"/>
<path d="M258 61.0395L257.273 61.0312V62.9562L257.641 63.695L258 63.4898V61.0395Z" fill="#231F20"/>
<path d="M257.642 55.6664L256.667 53.959L253.676 52.2188L252.697 52.7934V60.8215L257.642 63.6987V55.6664Z" fill="#414042"/>
<path d="M254.727 59.8905L254.865 59.8125L255.449 60.1491L255.298 60.4733L254.727 59.8905Z" fill="#808285"/>
<path d="M255.299 60.2305L255.45 60.1484L255.858 60.8544L255.707 61.6096L255.299 60.2305Z" fill="#6D6E71"/>
<path d="M255.705 60.9458L255.857 60.8555V61.5327L255.705 61.6107V60.9458Z" fill="#231F20"/>
<path d="M255.302 61.8568L255.71 61.6065V60.9415L255.302 60.2274L254.731 59.8867L254.311 60.133V60.7979L254.731 61.508L255.302 61.8568Z" fill="#58595B"/>
<path d="M254.576 60.2118L254.743 60.1133L255.204 60.376L255.033 60.6715L254.576 60.2118Z" fill="#FA5C52"/>
<path d="M255.039 60.4778L255.206 60.3711L255.537 60.9457L255.37 61.586L255.039 60.4778Z" fill="#AB281F"/>
<path d="M255.369 61.0399L255.536 60.9414V61.475L255.369 61.5817V61.0399Z" fill="#8A1C14"/>
<path d="M255.039 61.7829L255.37 61.59V61.0482L255.039 60.4818L254.578 60.2109L254.256 60.3997V60.9415L254.578 61.512L255.039 61.7829Z" fill="#C84030"/>
<path d="M270.527 47.0412V45.9002L267.541 44.1641H265.578L253.678 51.0759V52.221L256.668 53.953H258.631L270.527 47.0412Z" fill="#58595B"/>
<path d="M269.232 46.1407V46.5101L267.983 46.6578L256.034 51.5667H254.969V51.1973L265.772 44.9258H267.143L269.232 46.1407Z" fill="#211A1A"/>
<path d="M269.232 46.5118V46.9345L258.432 53.206H257.058L254.969 51.9993V51.5684L265.772 45.2969H267.143L269.232 46.5118Z" fill="#E6E1DD"/>
<path d="M267.618 46.8579L257.789 52.5671L256.586 51.8694L266.418 46.1602L267.618 46.8579Z" fill="#6CB5C4"/>
<path opacity="0.3" d="M281.558 60.841L275.197 57.1471L281.558 53.4531L287.914 57.1471L281.558 60.841Z" fill="black"/>
<path d="M287.997 48.2895L287.051 48.2812V50.7931L287.532 51.7577L287.997 51.4909V48.2895Z" fill="#231F20"/>
<path d="M287.531 48.5526L281.061 44.793V47.9944L287.531 51.7499V48.5526Z" fill="#414042"/>
<path d="M280.662 44.5664V53.4401L286.663 56.9288L286.872 55.2255V47.813L280.662 44.5664Z" fill="#857F79"/>
<path d="M281.42 53.2829L281.481 60.0552L286.764 56.9851V50.2539L281.42 53.2829ZM286.218 55.8071L285.81 56.5172L282.179 58.6227L281.771 58.3888V53.796L282.179 53.0859L285.81 50.9804L286.218 51.2143V55.8071Z" fill="#D8D1C7"/>
<path d="M276.006 48.2891V57.1586L281.575 60.3929L281.779 58.6937V51.2853L276.006 48.2891Z" fill="#D8D1C7"/>
<path d="M279.087 57.918V58.2012L278.43 57.8195V50.7148L278.674 50.8626L278.805 57.4009L279.087 57.918Z" fill="#A39C95"/>
<path d="M279.082 51.0974V57.9148L278.67 57.6727V50.8594L279.082 51.0974Z" fill="#E6E1DD"/>
<path d="M281.561 51.5102V60.3839L287.101 57.1702V48.3047L281.561 51.5102ZM286.554 55.9881L286.146 56.6982L282.515 58.8037L282.107 58.5698V53.9728L282.515 53.2628L286.146 51.1531L286.554 51.3912V55.9881Z" fill="#A39C95"/>
<path d="M275.062 40.9945L276.344 38.7617L277.368 39.4472L276.466 41.4788L275.062 40.9945Z" fill="#6D6E71"/>
<path d="M286.719 38.7617L288 40.9945L287.123 41.4542L285.752 39.8042L286.719 38.7617Z" fill="#6D6E71"/>
<path d="M283.404 42.0273H279.838V44.9579H283.404V42.0273Z" fill="#6D6E71"/>
<path d="M287.999 40.9888L286.718 40.25L285.278 40.5332L282.818 42.5156L281.529 44.7484L280.896 49.1114L281.529 52.0419L287.999 48.2823V40.9888Z" fill="#231F20"/>
<path d="M281.995 51.7738L281.053 51.7656V54.2775L281.53 55.2461L281.995 54.9712V51.7738Z" fill="#231F20"/>
<path d="M281.529 44.7486L280.252 42.5158L276.344 40.2461L275.062 40.989V51.4839L281.529 55.2435V44.7486Z" fill="#414042"/>
<path d="M277.717 50.2667L277.9 50.1641L278.655 50.6032L278.463 51.0301L277.717 50.2667Z" fill="#808285"/>
<path d="M278.465 50.7081L278.657 50.6055L279.191 51.529L278.999 52.5099L278.465 50.7081Z" fill="#6D6E71"/>
<path d="M279 51.6423L279.192 51.5273V52.4139L279 52.5083V51.6423Z" fill="#231F20"/>
<path d="M278.466 52.8352L279 52.5027V51.6367L278.466 50.7009L277.719 50.2617L277.168 50.586V51.452L277.719 52.3837L278.466 52.8352Z" fill="#58595B"/>
<path d="M277.52 50.6821L277.74 50.5508L278.344 50.8997L278.119 51.2814L277.52 50.6821Z" fill="#FA5C52"/>
<path d="M278.123 51.0335L278.343 50.9062L278.776 51.6491L278.551 52.4864L278.123 51.0335Z" fill="#AB281F"/>
<path d="M278.549 51.7761L278.773 51.6406V52.3425L278.549 52.4779V51.7761Z" fill="#8A1C14"/>
<path d="M278.124 52.7358L278.552 52.4813V51.7795L278.124 51.0284L277.52 50.6836L277.1 50.934V51.6358L277.52 52.3787L278.124 52.7358Z" fill="#C84030"/>
<path d="M286.719 40.2518V38.7578L282.818 36.4922H280.252L276.344 38.7578V40.2518L280.252 42.5174H282.818L286.719 40.2518Z" fill="#58595B"/>
<path d="M45.504 24.8H47.584V36H45.504V24.8ZM61.2054 27.36C62.2827 27.36 63.136 27.6747 63.7654 28.304C64.3947 28.9227 64.7094 29.856 64.7094 31.104V36H62.7094V31.36C62.7094 30.6133 62.544 30.0533 62.2134 29.68C61.8827 29.296 61.408 29.104 60.7894 29.104C60.1174 29.104 59.5787 29.328 59.1734 29.776C58.768 30.2133 58.5654 30.8427 58.5654 31.664V36H56.5654V31.36C56.5654 30.6133 56.4 30.0533 56.0694 29.68C55.7387 29.296 55.264 29.104 54.6454 29.104C53.9627 29.104 53.4187 29.3227 53.0134 29.76C52.6187 30.1973 52.4214 30.832 52.4214 31.664V36H50.4214V27.456H52.3254V28.544C52.6454 28.16 53.0454 27.8667 53.5254 27.664C54.0054 27.4613 54.5387 27.36 55.1254 27.36C55.7654 27.36 56.3307 27.4827 56.8214 27.728C57.3227 27.9627 57.7174 28.3147 58.0054 28.784C58.3574 28.336 58.8107 27.9893 59.3654 27.744C59.92 27.488 60.5334 27.36 61.2054 27.36ZM78.0491 27.36C79.1265 27.36 79.9798 27.6747 80.6091 28.304C81.2385 28.9227 81.5531 29.856 81.5531 31.104V36H79.5531V31.36C79.5531 30.6133 79.3878 30.0533 79.0571 29.68C78.7265 29.296 78.2518 29.104 77.6331 29.104C76.9611 29.104 76.4225 29.328 76.0171 29.776C75.6118 30.2133 75.4091 30.8427 75.4091 31.664V36H73.4091V31.36C73.4091 30.6133 73.2438 30.0533 72.9131 29.68C72.5825 29.296 72.1078 29.104 71.4891 29.104C70.8065 29.104 70.2625 29.3227 69.8571 29.76C69.4625 30.1973 69.2651 30.832 69.2651 31.664V36H67.2651V27.456H69.1691V28.544C69.4891 28.16 69.8891 27.8667 70.3691 27.664C70.8491 27.4613 71.3825 27.36 71.9691 27.36C72.6091 27.36 73.1745 27.4827 73.6651 27.728C74.1665 27.9627 74.5611 28.3147 74.8491 28.784C75.2011 28.336 75.6545 27.9893 76.2091 27.744C76.7638 27.488 77.3771 27.36 78.0491 27.36ZM84.1089 27.456H86.1089V36H84.1089V27.456ZM85.1169 26.048C84.7542 26.048 84.4502 25.936 84.2049 25.712C83.9595 25.4773 83.8369 25.1893 83.8369 24.848C83.8369 24.5067 83.9595 24.224 84.2049 24C84.4502 23.7653 84.7542 23.648 85.1169 23.648C85.4795 23.648 85.7835 23.76 86.0289 23.984C86.2742 24.1973 86.3969 24.4693 86.3969 24.8C86.3969 25.152 86.2742 25.4507 86.0289 25.696C85.7942 25.9307 85.4902 26.048 85.1169 26.048ZM97.2139 27.456V34.704C97.2139 37.712 95.6779 39.216 92.6059 39.216C91.7845 39.216 91.0059 39.1093 90.2699 38.896C89.5339 38.6933 88.9259 38.3947 88.4459 38L89.3419 36.496C89.7152 36.8053 90.1845 37.0507 90.7499 37.232C91.3259 37.424 91.9072 37.52 92.4939 37.52C93.4325 37.52 94.1205 37.3067 94.5579 36.88C94.9952 36.4533 95.2139 35.8027 95.2139 34.928V34.48C94.8725 34.8533 94.4565 35.136 93.9659 35.328C93.4752 35.52 92.9365 35.616 92.3499 35.616C91.5392 35.616 90.8032 35.4453 90.1419 35.104C89.4912 34.752 88.9739 34.2613 88.5899 33.632C88.2165 33.0027 88.0299 32.2827 88.0299 31.472C88.0299 30.6613 88.2165 29.9467 88.5899 29.328C88.9739 28.6987 89.4912 28.2133 90.1419 27.872C90.8032 27.5307 91.5392 27.36 92.3499 27.36C92.9685 27.36 93.5285 27.4613 94.0299 27.664C94.5419 27.8667 94.9685 28.176 95.3099 28.592V27.456H97.2139ZM92.6539 33.92C93.4112 33.92 94.0299 33.696 94.5099 33.248C95.0005 32.7893 95.2459 32.1973 95.2459 31.472C95.2459 30.7573 95.0005 30.176 94.5099 29.728C94.0299 29.28 93.4112 29.056 92.6539 29.056C91.8859 29.056 91.2565 29.28 90.7659 29.728C90.2859 30.176 90.0459 30.7573 90.0459 31.472C90.0459 32.1973 90.2859 32.7893 90.7659 33.248C91.2565 33.696 91.8859 33.92 92.6539 33.92ZM101.747 28.704C102.323 27.808 103.337 27.36 104.787 27.36V29.264C104.617 29.232 104.462 29.216 104.323 29.216C103.545 29.216 102.937 29.4453 102.499 29.904C102.062 30.352 101.843 31.0027 101.843 31.856V36H99.8433V27.456H101.747V28.704ZM109.701 27.36C110.96 27.36 111.92 27.664 112.581 28.272C113.253 28.8693 113.589 29.776 113.589 30.992V36H111.701V34.96C111.456 35.3333 111.104 35.6213 110.645 35.824C110.197 36.016 109.653 36.112 109.013 36.112C108.373 36.112 107.813 36.0053 107.333 35.792C106.853 35.568 106.48 35.264 106.213 34.88C105.957 34.4853 105.829 34.0427 105.829 33.552C105.829 32.784 106.112 32.1707 106.677 31.712C107.253 31.2427 108.154 31.008 109.381 31.008H111.589V30.88C111.589 30.2827 111.408 29.824 111.045 29.504C110.693 29.184 110.165 29.024 109.461 29.024C108.981 29.024 108.506 29.0987 108.037 29.248C107.578 29.3973 107.189 29.6053 106.869 29.872L106.085 28.416C106.533 28.0747 107.072 27.8133 107.701 27.632C108.33 27.4507 108.997 27.36 109.701 27.36ZM109.429 34.656C109.93 34.656 110.373 34.544 110.757 34.32C111.152 34.0853 111.429 33.7547 111.589 33.328V32.336H109.525C108.373 32.336 107.797 32.7147 107.797 33.472C107.797 33.8347 107.941 34.1227 108.229 34.336C108.517 34.5493 108.917 34.656 109.429 34.656ZM121.292 35.536C121.057 35.728 120.769 35.872 120.428 35.968C120.097 36.064 119.745 36.112 119.372 36.112C118.433 36.112 117.708 35.8667 117.196 35.376C116.684 34.8853 116.428 34.1707 116.428 33.232V29.12H115.02V27.52H116.428V25.568H118.428V27.52H120.716V29.12H118.428V33.184C118.428 33.6 118.529 33.92 118.732 34.144C118.934 34.3573 119.228 34.464 119.612 34.464C120.06 34.464 120.433 34.3467 120.732 34.112L121.292 35.536ZM122.937 27.456H124.937V36H122.937V27.456ZM123.945 26.048C123.582 26.048 123.278 25.936 123.033 25.712C122.788 25.4773 122.665 25.1893 122.665 24.848C122.665 24.5067 122.788 24.224 123.033 24C123.278 23.7653 123.582 23.648 123.945 23.648C124.308 23.648 124.612 23.76 124.857 23.984C125.102 24.1973 125.225 24.4693 125.225 24.8C125.225 25.152 125.102 25.4507 124.857 25.696C124.622 25.9307 124.318 26.048 123.945 26.048ZM131.402 36.112C130.538 36.112 129.759 35.9253 129.066 35.552C128.373 35.1787 127.829 34.6613 127.434 34C127.05 33.328 126.858 32.5707 126.858 31.728C126.858 30.8853 127.05 30.1333 127.434 29.472C127.829 28.8107 128.373 28.2933 129.066 27.92C129.759 27.5467 130.538 27.36 131.402 27.36C132.277 27.36 133.061 27.5467 133.754 27.92C134.447 28.2933 134.986 28.8107 135.37 29.472C135.765 30.1333 135.962 30.8853 135.962 31.728C135.962 32.5707 135.765 33.328 135.37 34C134.986 34.6613 134.447 35.1787 133.754 35.552C133.061 35.9253 132.277 36.112 131.402 36.112ZM131.402 34.4C132.138 34.4 132.746 34.1547 133.226 33.664C133.706 33.1733 133.946 32.528 133.946 31.728C133.946 30.928 133.706 30.2827 133.226 29.792C132.746 29.3013 132.138 29.056 131.402 29.056C130.666 29.056 130.058 29.3013 129.578 29.792C129.109 30.2827 128.874 30.928 128.874 31.728C128.874 32.528 129.109 33.1733 129.578 33.664C130.058 34.1547 130.666 34.4 131.402 34.4ZM142.723 27.36C143.8 27.36 144.664 27.6747 145.315 28.304C145.965 28.9333 146.291 29.8667 146.291 31.104V36H144.291V31.36C144.291 30.6133 144.115 30.0533 143.763 29.68C143.411 29.296 142.909 29.104 142.259 29.104C141.523 29.104 140.941 29.328 140.515 29.776C140.088 30.2133 139.875 30.848 139.875 31.68V36H137.875V27.456H139.779V28.56C140.109 28.1653 140.525 27.8667 141.027 27.664C141.528 27.4613 142.093 27.36 142.723 27.36ZM50.688 56.16C49.5573 56.16 48.5333 55.9147 47.616 55.424C46.7093 54.9227 45.9947 54.2347 45.472 53.36C44.96 52.4853 44.704 51.4987 44.704 50.4C44.704 49.3013 44.9653 48.3147 45.488 47.44C46.0107 46.5653 46.7253 45.8827 47.632 45.392C48.5493 44.8907 49.5733 44.64 50.704 44.64C51.6213 44.64 52.4587 44.8 53.216 45.12C53.9733 45.44 54.6133 45.904 55.136 46.512L53.792 47.776C52.9813 46.9013 51.984 46.464 50.8 46.464C50.032 46.464 49.344 46.6347 48.736 46.976C48.128 47.3067 47.6533 47.7707 47.312 48.368C46.9707 48.9653 46.8 49.6427 46.8 50.4C46.8 51.1573 46.9707 51.8347 47.312 52.432C47.6533 53.0293 48.128 53.4987 48.736 53.84C49.344 54.1707 50.032 54.336 50.8 54.336C51.984 54.336 52.9813 53.8933 53.792 53.008L55.136 54.288C54.6133 54.896 53.968 55.36 53.2 55.68C52.4427 56 51.6053 56.16 50.688 56.16ZM60.4645 56.112C59.6005 56.112 58.8218 55.9253 58.1285 55.552C57.4352 55.1787 56.8912 54.6613 56.4965 54C56.1125 53.328 55.9205 52.5707 55.9205 51.728C55.9205 50.8853 56.1125 50.1333 56.4965 49.472C56.8912 48.8107 57.4352 48.2933 58.1285 47.92C58.8218 47.5467 59.6005 47.36 60.4645 47.36C61.3392 47.36 62.1232 47.5467 62.8165 47.92C63.5098 48.2933 64.0485 48.8107 64.4325 49.472C64.8272 50.1333 65.0245 50.8853 65.0245 51.728C65.0245 52.5707 64.8272 53.328 64.4325 54C64.0485 54.6613 63.5098 55.1787 62.8165 55.552C62.1232 55.9253 61.3392 56.112 60.4645 56.112ZM60.4645 54.4C61.2005 54.4 61.8085 54.1547 62.2885 53.664C62.7685 53.1733 63.0085 52.528 63.0085 51.728C63.0085 50.928 62.7685 50.2827 62.2885 49.792C61.8085 49.3013 61.2005 49.056 60.4645 49.056C59.7285 49.056 59.1205 49.3013 58.6405 49.792C58.1712 50.2827 57.9365 50.928 57.9365 51.728C57.9365 52.528 58.1712 53.1733 58.6405 53.664C59.1205 54.1547 59.7285 54.4 60.4645 54.4ZM71.785 47.36C72.8623 47.36 73.7263 47.6747 74.377 48.304C75.0277 48.9333 75.353 49.8667 75.353 51.104V56H73.353V51.36C73.353 50.6133 73.177 50.0533 72.825 49.68C72.473 49.296 71.9717 49.104 71.321 49.104C70.585 49.104 70.0037 49.328 69.577 49.776C69.1503 50.2133 68.937 50.848 68.937 51.68V56H66.937V47.456H68.841V48.56C69.1717 48.1653 69.5877 47.8667 70.089 47.664C70.5903 47.4613 71.1557 47.36 71.785 47.36ZM80.5301 56.112C79.8368 56.112 79.1595 56.0213 78.4981 55.84C77.8368 55.6587 77.3088 55.4293 76.9141 55.152L77.6821 53.632C78.0661 53.888 78.5248 54.096 79.0581 54.256C79.6021 54.4053 80.1355 54.48 80.6581 54.48C81.8528 54.48 82.4501 54.1653 82.4501 53.536C82.4501 53.2373 82.2955 53.0293 81.9861 52.912C81.6875 52.7947 81.2021 52.6827 80.5301 52.576C79.8261 52.4693 79.2501 52.3467 78.8021 52.208C78.3648 52.0693 77.9808 51.8293 77.6501 51.488C77.3301 51.136 77.1701 50.6507 77.1701 50.032C77.1701 49.2213 77.5061 48.576 78.1781 48.096C78.8608 47.6053 79.7781 47.36 80.9301 47.36C81.5168 47.36 82.1035 47.4293 82.6901 47.568C83.2768 47.696 83.7568 47.872 84.1301 48.096L83.3621 49.616C82.6368 49.1893 81.8208 48.976 80.9141 48.976C80.3275 48.976 79.8795 49.0667 79.5701 49.248C79.2715 49.4187 79.1221 49.648 79.1221 49.936C79.1221 50.256 79.2821 50.4853 79.6021 50.624C79.9328 50.752 80.4395 50.8747 81.1221 50.992C81.8048 51.0987 82.3648 51.2213 82.8021 51.36C83.2395 51.4987 83.6128 51.7333 83.9221 52.064C84.2421 52.3947 84.4021 52.864 84.4021 53.472C84.4021 54.272 84.0555 54.912 83.3621 55.392C82.6688 55.872 81.7248 56.112 80.5301 56.112ZM94.3965 47.456V56H92.4925V54.912C92.1725 55.296 91.7725 55.5947 91.2925 55.808C90.8125 56.0107 90.2952 56.112 89.7405 56.112C88.5992 56.112 87.6978 55.7973 87.0365 55.168C86.3858 54.528 86.0605 53.584 86.0605 52.336V47.456H88.0605V52.064C88.0605 52.832 88.2312 53.408 88.5725 53.792C88.9245 54.1653 89.4205 54.352 90.0605 54.352C90.7752 54.352 91.3405 54.1333 91.7565 53.696C92.1832 53.248 92.3965 52.608 92.3965 51.776V47.456H94.3965ZM97.0151 44.128H99.0151V56H97.0151V44.128ZM107.198 55.536C106.963 55.728 106.675 55.872 106.334 55.968C106.003 56.064 105.651 56.112 105.278 56.112C104.339 56.112 103.614 55.8667 103.102 55.376C102.59 54.8853 102.334 54.1707 102.334 53.232V49.12H100.926V47.52H102.334V45.568H104.334V47.52H106.622V49.12H104.334V53.184C104.334 53.6 104.435 53.92 104.638 54.144C104.841 54.3573 105.134 54.464 105.518 54.464C105.966 54.464 106.339 54.3467 106.638 54.112L107.198 55.536ZM112.107 47.36C113.366 47.36 114.326 47.664 114.987 48.272C115.659 48.8693 115.995 49.776 115.995 50.992V56H114.107V54.96C113.862 55.3333 113.51 55.6213 113.051 55.824C112.603 56.016 112.059 56.112 111.419 56.112C110.779 56.112 110.219 56.0053 109.739 55.792C109.259 55.568 108.886 55.264 108.619 54.88C108.363 54.4853 108.235 54.0427 108.235 53.552C108.235 52.784 108.518 52.1707 109.083 51.712C109.659 51.2427 110.561 51.008 111.787 51.008H113.995V50.88C113.995 50.2827 113.814 49.824 113.451 49.504C113.099 49.184 112.571 49.024 111.867 49.024C111.387 49.024 110.913 49.0987 110.443 49.248C109.985 49.3973 109.595 49.6053 109.275 49.872L108.491 48.416C108.939 48.0747 109.478 47.8133 110.107 47.632C110.737 47.4507 111.403 47.36 112.107 47.36ZM111.835 54.656C112.337 54.656 112.779 54.544 113.163 54.32C113.558 54.0853 113.835 53.7547 113.995 53.328V52.336H111.931C110.779 52.336 110.203 52.7147 110.203 53.472C110.203 53.8347 110.347 54.1227 110.635 54.336C110.923 54.5493 111.323 54.656 111.835 54.656ZM123.41 47.36C124.487 47.36 125.351 47.6747 126.002 48.304C126.653 48.9333 126.978 49.8667 126.978 51.104V56H124.978V51.36C124.978 50.6133 124.802 50.0533 124.45 49.68C124.098 49.296 123.597 49.104 122.946 49.104C122.21 49.104 121.629 49.328 121.202 49.776C120.775 50.2133 120.562 50.848 120.562 51.68V56H118.562V47.456H120.466V48.56C120.797 48.1653 121.213 47.8667 121.714 47.664C122.215 47.4613 122.781 47.36 123.41 47.36ZM134.651 55.536C134.416 55.728 134.128 55.872 133.787 55.968C133.456 56.064 133.104 56.112 132.731 56.112C131.792 56.112 131.067 55.8667 130.555 55.376C130.043 54.8853 129.787 54.1707 129.787 53.232V49.12H128.379V47.52H129.787V45.568H131.787V47.52H134.075V49.12H131.787V53.184C131.787 53.6 131.888 53.92 132.091 54.144C132.294 54.3573 132.587 54.464 132.971 54.464C133.419 54.464 133.792 54.3467 134.091 54.112L134.651 55.536ZM138.936 56.112C138.243 56.112 137.566 56.0213 136.904 55.84C136.243 55.6587 135.715 55.4293 135.32 55.152L136.088 53.632C136.472 53.888 136.931 54.096 137.464 54.256C138.008 54.4053 138.542 54.48 139.064 54.48C140.259 54.48 140.856 54.1653 140.856 53.536C140.856 53.2373 140.702 53.0293 140.392 52.912C140.094 52.7947 139.608 52.6827 138.936 52.576C138.232 52.4693 137.656 52.3467 137.208 52.208C136.771 52.0693 136.387 51.8293 136.056 51.488C135.736 51.136 135.576 50.6507 135.576 50.032C135.576 49.2213 135.912 48.576 136.584 48.096C137.267 47.6053 138.184 47.36 139.336 47.36C139.923 47.36 140.51 47.4293 141.096 47.568C141.683 47.696 142.163 47.872 142.536 48.096L141.768 49.616C141.043 49.1893 140.227 48.976 139.32 48.976C138.734 48.976 138.286 49.0667 137.976 49.248C137.678 49.4187 137.528 49.648 137.528 49.936C137.528 50.256 137.688 50.4853 138.008 50.624C138.339 50.752 138.846 50.8747 139.528 50.992C140.211 51.0987 140.771 51.2213 141.208 51.36C141.646 51.4987 142.019 51.7333 142.328 52.064C142.648 52.3947 142.808 52.864 142.808 53.472C142.808 54.272 142.462 54.912 141.768 55.392C141.075 55.872 140.131 56.112 138.936 56.112Z" fill="white"/>
<defs>
<linearGradient id="paint0_linear_1_997" x1="25.9618" y1="-24.6597" x2="34.5675" y2="118.265" gradientUnits="userSpaceOnUse">
<stop stop-color="#81FFFF"/>
<stop offset="1" stop-color="#436AFF"/>
</linearGradient>
<linearGradient id="paint1_linear_1_997" x1="25.9618" y1="-24.6597" x2="34.5675" y2="118.265" gradientUnits="userSpaceOnUse">
<stop stop-color="#81FFFF"/>
<stop offset="1" stop-color="#436AFF"/>
</linearGradient>
<linearGradient id="paint2_linear_1_997" x1="262.831" y1="55.2578" x2="373.609" y2="13.6264" gradientUnits="userSpaceOnUse">
<stop stop-color="#81FFFF"/>
<stop offset="1" stop-color="#436AFF"/>
</linearGradient>
<linearGradient id="paint3_linear_1_997" x1="109.172" y1="72.89" x2="-31.7655" y2="20.0625" gradientUnits="userSpaceOnUse">
<stop stop-color="#81FFFF"/>
<stop offset="0.14" stop-color="#7FFAFF"/>
<stop offset="0.31" stop-color="#79EBFF"/>
<stop offset="0.49" stop-color="#6FD3FF"/>
<stop offset="0.69" stop-color="#60B0FF"/>
<stop offset="0.89" stop-color="#4E85FF"/>
<stop offset="1" stop-color="#436AFF"/>
</linearGradient>
</defs>
</svg>
