<svg width="350" height="80" viewBox="0 0 350 80" fill="none" xmlns="http://www.w3.org/2000/svg">
<rect width="350" height="80" rx="10" fill="url(#paint0_linear_1_1605)"/>
<mask id="mask0_1_1605" style="mask-type:alpha" maskUnits="userSpaceOnUse" x="0" y="0" width="350" height="80">
<rect width="350" height="80" rx="10" fill="url(#paint1_linear_1_1605)"/>
</mask>
<g mask="url(#mask0_1_1605)">
<path d="M91 97C81.8838 78.406 56.3526 78.5819 39.5036 68.8213C18.9909 56.9356 12.7894 34.1151 15.6517 14.1471C16.6057 7.41977 15.3559 2.53243 13.2665 -1L-4.28372e-06 -1L0 97L91 97Z" fill="url(#paint2_linear_1_1605)"/>
<path d="M350 -12V89C338.004 87.4515 321.041 82.3802 310.286 66.7405C292.183 40.4163 298.39 16.1592 272.52 3.77132C253.058 -5.51959 237.702 -2.01227 226 -12H350Z" fill="url(#paint3_linear_1_1605)"/>
</g>
<path d="M97.51 34.101C97.5913 33.8735 97.6328 33.6338 97.6328 33.3924C97.6327 32.8428 97.4173 32.3148 97.0321 31.9197C96.6469 31.5246 96.122 31.2934 95.5682 31.2748C95.4397 30.7517 95.1379 30.2866 94.7111 29.954C94.2842 29.6215 93.7572 29.4406 93.2144 29.4406C93.1505 29.4406 93.0883 29.4406 93.0261 29.4406C92.8149 29.2674 92.5673 29.1432 92.3014 29.0771C92.2357 28.7537 92.0888 28.452 91.8742 28.1999C91.6597 27.9478 91.3845 27.7534 91.0741 27.6348C91.1012 27.4493 91.1147 27.262 91.1144 27.0746C91.1109 26.0279 90.6891 25.0254 89.9416 24.2865C89.1941 23.5477 88.1818 23.1328 87.1264 23.1328C86.1047 23.1328 85.1219 23.5218 84.381 24.2196C83.6401 24.9175 83.1977 25.8708 83.1451 26.8828C82.4353 26.9665 81.781 27.3055 81.3062 27.8356C80.8315 28.3657 80.5694 29.0501 80.5694 29.7591C80.5694 29.8241 80.5694 29.8875 80.5694 29.9508C80.1815 30.0003 79.825 30.1882 79.5666 30.4795C79.3082 30.7707 79.1656 31.1453 79.1656 31.5332C79.1655 31.8264 79.2469 32.1139 79.4009 32.3643C79.5548 32.6146 79.7753 32.818 80.0381 32.9522C80.0152 33.0619 80.004 33.1736 80.0045 33.2857C80.0044 33.5682 80.0805 33.8457 80.2248 34.0894H80.1911C79.8962 34.0902 79.6136 34.2068 79.4051 34.4136C79.1966 34.6204 79.079 34.9007 79.0781 35.1932C79.079 35.4857 79.1966 35.7659 79.4051 35.9727C79.6136 36.1795 79.8962 36.2961 80.1911 36.297H97.2982C97.5931 36.2961 97.8757 36.1795 98.0842 35.9727C98.2928 35.7659 98.4103 35.4857 98.4112 35.1932C98.4122 34.9357 98.3229 34.6859 98.1584 34.4866C97.994 34.2873 97.7647 34.151 97.51 34.101Z" fill="#DFF1FD"/>
<path d="M105.218 30.9915C105.156 30.8181 105.124 30.6354 105.124 30.4513C105.124 30.0324 105.288 29.63 105.582 29.3289C105.875 29.0278 106.275 28.8515 106.698 28.8372C106.797 28.4396 107.027 28.0863 107.352 27.8337C107.677 27.581 108.078 27.4436 108.491 27.4433C108.54 27.4433 108.587 27.4433 108.634 27.4433C108.796 27.3118 108.985 27.2173 109.188 27.1665C109.238 26.9204 109.35 26.6908 109.514 26.4988C109.677 26.3069 109.886 26.1586 110.122 26.0677C110.102 25.9263 110.092 25.7836 110.092 25.6408C110.094 24.8424 110.415 24.0774 110.985 23.5134C111.555 22.9495 112.327 22.6328 113.132 22.6328C113.911 22.6326 114.66 22.929 115.225 23.4608C115.79 23.9926 116.128 24.7193 116.168 25.4908C116.709 25.5548 117.207 25.8131 117.569 26.2168C117.93 26.6206 118.13 27.1417 118.13 27.6817C118.13 27.7317 118.13 27.7801 118.13 27.8285C118.426 27.8662 118.698 28.0096 118.895 28.2318C119.092 28.4541 119.2 28.7399 119.2 29.0357C119.199 29.2588 119.137 29.4777 119.02 29.6682C118.903 29.8588 118.735 30.0137 118.535 30.1161C118.552 30.1973 118.561 30.28 118.561 30.3629C118.561 30.5786 118.503 30.7904 118.393 30.9765H118.418C118.641 30.977 118.856 31.0647 119.015 31.2207C119.174 31.3767 119.264 31.5885 119.267 31.8102C119.266 32.0334 119.177 32.2473 119.018 32.4052C118.859 32.563 118.643 32.6518 118.418 32.6523H105.386C105.161 32.6518 104.945 32.563 104.786 32.4052C104.627 32.2473 104.538 32.0334 104.537 31.8102C104.539 31.6171 104.608 31.4304 104.732 31.2814C104.855 31.1324 105.027 31.0301 105.218 30.9915Z" fill="#DFF1FD"/>
<path d="M96.5063 18.971C96.4625 18.8466 96.4398 18.7159 96.4391 18.5842C96.4397 18.2849 96.5573 17.9976 96.767 17.7824C96.9767 17.5673 97.2623 17.4411 97.5638 17.4303C97.6339 17.1452 97.7983 16.8916 98.0309 16.7102C98.2635 16.5288 98.5508 16.4301 98.8467 16.4299C98.8808 16.4282 98.9151 16.4282 98.9492 16.4299C99.0667 16.3412 99.202 16.2787 99.346 16.2464C99.382 16.0696 99.4626 15.9048 99.5802 15.7671C99.6978 15.6295 99.8486 15.5237 100.019 15.4594C100.004 15.3584 99.9962 15.2564 99.9967 15.1543C99.9967 14.5829 100.226 14.035 100.633 13.631C101.04 13.227 101.593 13 102.169 13C102.725 13.0001 103.261 13.2121 103.664 13.5921C104.068 13.9722 104.309 14.4914 104.338 15.0426C104.725 15.0883 105.081 15.273 105.34 15.5619C105.599 15.8507 105.741 16.2236 105.742 16.6099C105.742 16.645 105.742 16.68 105.742 16.715C105.953 16.7421 106.147 16.8445 106.288 17.0031C106.429 17.1618 106.506 17.3657 106.507 17.577C106.507 17.7367 106.462 17.8933 106.378 18.0295C106.294 18.1657 106.174 18.2763 106.031 18.349C106.043 18.4072 106.049 18.4664 106.049 18.5258C106.05 18.6801 106.008 18.8317 105.928 18.9643H105.947C106.108 18.9643 106.262 19.0277 106.376 19.1406C106.49 19.2535 106.554 19.4066 106.554 19.5663C106.553 19.7256 106.489 19.8783 106.375 19.9908C106.262 20.1033 106.107 20.1665 105.947 20.1665H96.6223C96.4616 20.1665 96.3075 20.1033 96.1938 19.9908C96.08 19.8783 96.0158 19.7256 96.0154 19.5663C96.0147 19.4259 96.0633 19.2897 96.1529 19.181C96.2425 19.0724 96.3675 18.9981 96.5063 18.971Z" fill="#DFF1FD"/>
<path d="M110.286 45.0083C110.224 44.8348 110.192 44.652 110.193 44.468C110.193 44.0495 110.357 43.6472 110.65 43.3463C110.943 43.0455 111.343 42.8695 111.765 42.8556C111.864 42.4577 112.094 42.104 112.419 41.851C112.745 41.5981 113.146 41.4604 113.559 41.46C113.608 41.46 113.655 41.46 113.704 41.46C113.864 41.3283 114.053 41.2338 114.255 41.1832C114.306 40.9369 114.418 40.7072 114.582 40.5152C114.746 40.3233 114.955 40.1751 115.192 40.0844C115.171 39.9431 115.16 39.8004 115.16 39.6575C115.16 39.2617 115.238 38.8698 115.391 38.5041C115.544 38.1385 115.768 37.8062 116.05 37.5264C116.332 37.2466 116.667 37.0247 117.036 36.8734C117.405 36.7221 117.8 36.6443 118.199 36.6445C118.978 36.6444 119.727 36.9408 120.292 37.4727C120.857 38.0045 121.194 38.7311 121.234 39.5025C121.775 39.5662 122.273 39.8244 122.635 40.2282C122.997 40.632 123.196 41.1534 123.196 41.6934C123.196 41.7418 123.196 41.7918 123.196 41.8402C123.492 41.8778 123.764 42.021 123.961 42.2428C124.158 42.4646 124.267 42.7501 124.267 43.0457C124.267 43.2698 124.203 43.4894 124.085 43.6801C123.966 43.8708 123.796 44.0252 123.595 44.1262C123.612 44.2079 123.62 44.2912 123.62 44.3746C123.62 44.5898 123.562 44.801 123.452 44.9866H123.479C123.702 44.9892 123.916 45.079 124.073 45.2366C124.23 45.3942 124.319 45.6069 124.319 45.8286C124.317 46.0489 124.227 46.2595 124.07 46.4153C123.913 46.5711 123.701 46.6597 123.479 46.6623H110.44C110.218 46.6597 110.006 46.5711 109.849 46.4153C109.692 46.2595 109.602 46.0489 109.6 45.8286C109.602 45.6346 109.671 45.4471 109.796 45.2977C109.921 45.1484 110.094 45.0461 110.286 45.0083Z" fill="#DFF1FD"/>
<path d="M67.3137 50.7951C67.2519 50.6216 67.2206 50.4388 67.2213 50.2548C67.2214 49.8363 67.3854 49.4341 67.6786 49.133C67.9719 48.8319 68.3715 48.6555 68.7933 48.6408C68.8924 48.2431 69.1229 47.8898 69.448 47.6372C69.7731 47.3846 70.1742 47.2471 70.5872 47.2468C70.636 47.2468 70.683 47.2468 70.7318 47.2468C70.8926 47.1151 71.081 47.0206 71.2832 46.97C71.334 46.7238 71.4464 46.4941 71.6101 46.3021C71.7737 46.1101 71.9833 45.9619 72.2197 45.8712C72.1988 45.7299 72.1882 45.5872 72.1878 45.4444C72.1878 44.6448 72.508 43.878 73.0781 43.3127C73.6482 42.7473 74.4213 42.4297 75.2275 42.4297C76.0062 42.4299 76.7551 42.7265 77.3198 43.2583C77.8844 43.79 78.2218 44.5164 78.2623 45.2876C78.8046 45.3519 79.3042 45.6116 79.666 46.0175C80.0278 46.4233 80.2265 46.9469 80.2243 47.4886C80.2243 47.5364 80.2243 47.5848 80.2243 47.6337C80.5203 47.6714 80.7923 47.8147 80.9894 48.0369C81.1865 48.2591 81.2953 48.5449 81.2953 48.8409C81.2945 49.0649 81.2313 49.2845 81.1126 49.4751C80.9939 49.6658 80.8244 49.8202 80.6228 49.9214C80.6397 50.0025 80.6482 50.0852 80.648 50.1681C80.6478 50.3838 80.5898 50.5956 80.4799 50.7817H80.5068C80.7289 50.7843 80.9412 50.873 81.0983 51.0288C81.2554 51.1846 81.3448 51.3951 81.3474 51.6154C81.347 51.8372 81.2585 52.0499 81.1012 52.2075C80.9439 52.365 80.7303 52.4549 80.5068 52.4575H67.4735C67.2499 52.4549 67.0363 52.365 66.879 52.2075C66.7217 52.0499 66.6332 51.8372 66.6328 51.6154C66.634 51.4219 66.7023 51.2347 66.8263 51.0853C66.9503 50.9359 67.1225 50.8334 67.3137 50.7951Z" fill="#DFF1FD"/>
<path d="M99 67.9999C119.435 67.9999 136 65.3564 136 62.0956C136 58.8347 119.435 56.1913 99 56.1913C78.5655 56.1913 62 58.8347 62 62.0956C62 65.3564 78.5655 67.9999 99 67.9999Z" fill="#C6E6FD"/>
<path d="M123.32 33.3138C123.32 33.3138 122.202 29.287 122.408 27.5129C122.615 25.7387 123.597 26.304 123.784 27.6279C123.97 28.9518 125.07 28.2565 124.258 26.3273C123.446 24.3981 125.383 23.0809 125.754 24.2481C126.126 25.4153 124.5 29.5121 125.108 29.7305C125.717 29.9489 125.769 27.8397 126.425 27.918C127.081 27.9964 127.161 30.0573 125.932 31.5296C124.703 33.002 124.698 34.0841 124.194 34.3159C123.689 34.5477 123.32 33.3138 123.32 33.3138Z" fill="url(#paint4_linear_1_1605)"/>
<path d="M123.874 32.9378C123.874 32.9378 123.691 31.2488 123.978 30.5418C124.266 29.8348 124.641 28.4375 124.641 28.4375" stroke="#4089C1" stroke-width="1.85" stroke-miterlimit="10" stroke-linecap="round"/>
<path d="M123.907 30.7109C123.907 30.7109 123.317 29.6371 123.403 29.1719" stroke="#4089C1" stroke-width="1.85" stroke-miterlimit="10" stroke-linecap="round"/>
<path d="M123.801 31.3513C123.824 31.428 125.976 30.2942 126.133 29.6289" stroke="#4089C1" stroke-width="1.85" stroke-miterlimit="10" stroke-linecap="round"/>
<path d="M121.41 38.6452C121.41 38.6452 121.773 35.6005 123.529 33.5896C125.284 31.5787 126.395 31.3086 126.395 31.3086C126.395 31.3086 127.431 33.8397 125.299 36.5693C123.167 39.2988 120.332 41.4798 121.41 38.6452Z" fill="url(#paint5_linear_1_1605)"/>
<path d="M121.24 39.9037C121.24 39.9037 124.771 34.9615 125.862 32.0352" stroke="#B2C0CA" stroke-width="0.92" stroke-miterlimit="10" stroke-linecap="round"/>
<path d="M121.58 39.4217C121.58 39.4217 122.873 38.8948 123.075 38.6914" stroke="#B2C0CA" stroke-width="0.92" stroke-miterlimit="10" stroke-linecap="round"/>
<path d="M122.307 35.9414C122.063 36.48 122.514 38.049 122.514 38.049C122.514 38.049 123.89 38.024 124.075 37.8122" stroke="#B2C0CA" stroke-width="0.92" stroke-miterlimit="10" stroke-linecap="round"/>
<path d="M123.412 36.6447C123.904 36.6148 124.391 36.5388 124.868 36.418" stroke="#B2C0CA" stroke-width="0.92" stroke-miterlimit="10" stroke-linecap="round"/>
<path d="M124.138 35.3711C124.138 35.3711 125.613 35.4528 125.964 35.0977" stroke="#B2C0CA" stroke-width="0.92" stroke-miterlimit="10" stroke-linecap="round"/>
<path d="M123.776 36.0068C123.776 36.0068 123.257 34.3827 123.547 33.9492" stroke="#B2C0CA" stroke-width="0.92" stroke-miterlimit="10" stroke-linecap="round"/>
<path d="M124.836 34.2202C124.836 34.2202 126.03 34.2019 126.317 33.8867" stroke="#B2C0CA" stroke-width="0.92" stroke-miterlimit="10" stroke-linecap="round"/>
<path d="M125.179 33.5673C125.179 33.5673 124.856 32.872 124.972 32.6836" stroke="#B2C0CA" stroke-width="0.92" stroke-miterlimit="10" stroke-linecap="round"/>
<path d="M121.539 35.3174C121.539 35.3174 120.981 33.1498 121.64 31.3357C122.299 29.5215 122.985 29.043 122.985 29.043C122.985 29.043 124.357 30.4919 123.632 32.8964C122.908 35.3008 121.556 37.5251 121.539 35.3174Z" fill="url(#paint6_linear_1_1605)"/>
<path d="M121.758 36.2115C121.758 36.2115 122.847 31.9412 122.814 29.6719" stroke="#B2C0CA" stroke-width="0.92" stroke-miterlimit="10" stroke-linecap="round"/>
<path d="M121.857 35.7939C121.857 35.7939 122.594 35.1019 122.678 34.9102" stroke="#B2C0CA" stroke-width="0.92" stroke-miterlimit="10" stroke-linecap="round"/>
<path d="M121.426 33.2383C121.403 33.6668 122.122 34.6139 122.122 34.6139C122.122 34.6139 123.05 34.2404 123.121 34.0486" stroke="#B2C0CA" stroke-width="0.92" stroke-miterlimit="10" stroke-linecap="round"/>
<path d="M122.364 33.4421C122.689 33.2939 123 33.1158 123.292 32.9102" stroke="#B2C0CA" stroke-width="0.92" stroke-miterlimit="10" stroke-linecap="round"/>
<path d="M122.523 32.3779C122.523 32.3779 123.546 32.0444 123.69 31.7109" stroke="#B2C0CA" stroke-width="0.92" stroke-miterlimit="10" stroke-linecap="round"/>
<path d="M122.442 32.9003C122.442 32.9003 121.66 31.9332 121.742 31.5664" stroke="#B2C0CA" stroke-width="0.92" stroke-miterlimit="10" stroke-linecap="round"/>
<path d="M122.693 31.4278C122.693 31.4278 123.499 31.106 123.608 30.8125" stroke="#B2C0CA" stroke-width="0.92" stroke-miterlimit="10" stroke-linecap="round"/>
<path d="M122.751 30.8946C122.751 30.8946 122.348 30.5061 122.376 30.3477" stroke="#B2C0CA" stroke-width="0.92" stroke-miterlimit="10" stroke-linecap="round"/>
<path d="M120.438 50.4939C120.438 50.4939 117.155 43.5124 116.981 40.2226C116.808 36.9328 118.767 37.6598 119.517 40.0109C120.267 42.3619 122.052 40.7612 119.978 37.5098C117.903 34.2583 121.015 31.262 122.052 33.2712C123.09 35.2804 121.405 43.2273 122.578 43.4424C123.752 43.6575 123.192 39.8008 124.409 39.7424C125.627 39.6841 126.413 43.4107 124.636 46.4621C122.859 49.5134 123.185 51.4843 122.34 52.0612C121.494 52.6382 120.438 50.4939 120.438 50.4939Z" fill="url(#paint7_linear_1_1605)"/>
<path d="M121.317 49.6241C121.317 49.6241 120.461 46.6078 120.764 45.2372C121.067 43.8665 121.317 41.207 121.317 41.207" stroke="#4089C1" stroke-width="1.85" stroke-miterlimit="10" stroke-linecap="round"/>
<path d="M120.699 45.5764C120.699 45.5764 119.293 43.8056 119.293 42.9336" stroke="#4089C1" stroke-width="1.85" stroke-miterlimit="10" stroke-linecap="round"/>
<path d="M120.697 46.777C120.763 46.9104 124.324 44.1908 124.396 42.9336" stroke="#4089C1" stroke-width="1.85" stroke-miterlimit="10" stroke-linecap="round"/>
<path d="M122.365 56.9376C122.365 56.9376 120.516 52.5823 121.333 48.5655C122.15 44.5488 123.431 43.3516 123.431 43.3516C123.431 43.3516 126.755 45.9644 125.987 51.2267C125.219 56.4891 123.097 61.5597 122.365 56.9376Z" fill="url(#paint8_linear_1_1605)"/>
<path d="M123.107 58.7606C123.107 58.7606 124.059 49.4782 123.275 44.7344" stroke="#B2C0CA" stroke-width="1.85" stroke-miterlimit="10" stroke-linecap="round"/>
<path d="M123.189 57.8621C123.189 57.8621 124.518 56.183 124.634 55.7578" stroke="#B2C0CA" stroke-width="1.85" stroke-miterlimit="10" stroke-linecap="round"/>
<path d="M121.492 52.625C121.578 53.5304 123.382 55.2929 123.382 55.2929C123.382 55.2929 125.21 54.224 125.295 53.8005" stroke="#B2C0CA" stroke-width="1.85" stroke-miterlimit="10" stroke-linecap="round"/>
<path d="M123.516 52.7583C123.516 52.7583 124.746 51.9596 125.294 51.3594" stroke="#B2C0CA" stroke-width="1.85" stroke-miterlimit="10" stroke-linecap="round"/>
<path d="M123.516 50.4941C123.516 50.4941 125.555 49.4937 125.755 48.75" stroke="#B2C0CA" stroke-width="1.85" stroke-miterlimit="10" stroke-linecap="round"/>
<path d="M123.515 51.6386C123.515 51.6386 121.577 49.8511 121.634 49.0508" stroke="#B2C0CA" stroke-width="1.85" stroke-miterlimit="10" stroke-linecap="round"/>
<path d="M123.568 48.4474C123.568 48.4474 125.154 47.5236 125.293 46.875" stroke="#B2C0CA" stroke-width="1.85" stroke-miterlimit="10" stroke-linecap="round"/>
<path d="M123.531 47.3056C123.531 47.3056 122.566 46.6153 122.576 46.2734" stroke="#B2C0CA" stroke-width="1.85" stroke-miterlimit="10" stroke-linecap="round"/>
<path d="M125.279 55.7094C125.279 55.7094 124.733 51.0173 126.641 47.384C128.549 43.7507 130.121 42.957 130.121 42.957C130.121 42.957 132.581 46.3852 130.364 51.2257C128.146 56.0662 124.683 60.3514 125.279 55.7094Z" fill="url(#paint9_linear_1_1605)"/>
<path d="M125.482 57.6475C125.482 57.6475 129.013 48.997 129.591 44.2266" stroke="#B2C0CA" stroke-width="1.85" stroke-miterlimit="10" stroke-linecap="round"/>
<path d="M125.816 56.816C125.816 56.816 127.565 55.5721 127.795 55.1953" stroke="#B2C0CA" stroke-width="1.85" stroke-miterlimit="10" stroke-linecap="round"/>
<path d="M125.651 51.3359C125.482 52.228 126.716 54.4206 126.716 54.4206C126.716 54.4206 128.771 53.8987 128.974 53.5152" stroke="#B2C0CA" stroke-width="1.85" stroke-miterlimit="10" stroke-linecap="round"/>
<path d="M127.561 52.02C127.561 52.02 128.968 51.5932 129.662 51.168" stroke="#B2C0CA" stroke-width="1.85" stroke-miterlimit="10" stroke-linecap="round"/>
<path d="M128.197 49.8585C128.197 49.8585 130.437 49.4616 130.838 48.8047" stroke="#B2C0CA" stroke-width="1.85" stroke-miterlimit="10" stroke-linecap="round"/>
<path d="M127.879 50.9349C127.879 50.9349 126.52 48.6823 126.8 47.9336" stroke="#B2C0CA" stroke-width="1.85" stroke-miterlimit="10" stroke-linecap="round"/>
<path d="M128.83 47.8876C128.83 47.8876 130.612 47.4391 130.928 46.8555" stroke="#B2C0CA" stroke-width="1.85" stroke-miterlimit="10" stroke-linecap="round"/>
<path d="M129.104 46.7734C129.104 46.7734 128.371 45.8447 128.477 45.5195" stroke="#B2C0CA" stroke-width="1.85" stroke-miterlimit="10" stroke-linecap="round"/>
<path d="M91.0537 54.5304C91.0537 54.5304 84.1403 52.6279 80.1103 47.9275C76.0802 43.2271 75.8516 40.6009 75.8516 40.6009C75.8516 40.6009 82.0723 39.1403 87.6205 44.9528C93.1688 50.7654 97.2476 57.992 91.0537 54.5304Z" fill="url(#paint10_linear_1_1605)"/>
<path d="M93.9044 55.3434C93.9044 55.3434 83.7259 45.5657 77.3438 42.0508" stroke="#B2C0CA" stroke-width="1.85" stroke-miterlimit="10" stroke-linecap="round"/>
<path d="M92.9101 54.4223C92.9101 54.4223 92.1485 51.2975 91.75 50.7656" stroke="#B2C0CA" stroke-width="1.85" stroke-miterlimit="10" stroke-linecap="round"/>
<path d="M85.1016 51.5311C86.2616 52.2748 90.0479 51.8046 90.0479 51.8046C90.0479 51.8046 90.4783 48.6649 90.0479 48.168" stroke="#B2C0CA" stroke-width="1.85" stroke-miterlimit="10" stroke-linecap="round"/>
<path d="M87.1351 49.2687C87.1351 49.2687 87.33 47.0794 87.125 45.8789" stroke="#B2C0CA" stroke-width="1.85" stroke-miterlimit="10" stroke-linecap="round"/>
<path d="M84.4453 47.162C84.4453 47.162 85.1561 43.8372 84.4571 42.9102" stroke="#B2C0CA" stroke-width="1.85" stroke-miterlimit="10" stroke-linecap="round"/>
<path d="M85.7933 48.2218C85.7933 48.2218 81.8591 48.8204 80.9529 48.0117" stroke="#B2C0CA" stroke-width="1.85" stroke-miterlimit="10" stroke-linecap="round"/>
<path d="M82.047 45.1852C82.047 45.1852 82.4268 42.464 81.7832 41.6953" stroke="#B2C0CA" stroke-width="1.85" stroke-miterlimit="10" stroke-linecap="round"/>
<path d="M80.6419 44.1641C80.6419 44.1641 78.9185 44.6509 78.5234 44.3208" stroke="#B2C0CA" stroke-width="1.85" stroke-miterlimit="10" stroke-linecap="round"/>
<path d="M77.2208 46.3472C77.2208 46.3472 72.9637 45.18 70.4822 42.2804C68.0006 39.3808 67.8594 37.7684 67.8594 37.7684C67.8594 37.7684 71.6877 36.8697 75.1107 40.4496C78.5338 44.0295 81.0356 48.4765 77.2208 46.3472Z" fill="url(#paint11_linear_1_1605)"/>
<path d="M78.9838 46.8393C78.9838 46.8393 72.7143 40.8183 68.7852 38.6523" stroke="#B2C0CA" stroke-width="1.85" stroke-miterlimit="10" stroke-linecap="round"/>
<path d="M78.3705 46.2644C78.3705 46.2644 77.9014 44.3402 77.6543 44.0117" stroke="#B2C0CA" stroke-width="1.85" stroke-miterlimit="10" stroke-linecap="round"/>
<path d="M73.5605 44.5006C74.2751 44.9575 76.6053 44.6673 76.6053 44.6673C76.6053 44.6673 76.871 42.7348 76.6053 42.4297" stroke="#B2C0CA" stroke-width="1.85" stroke-miterlimit="10" stroke-linecap="round"/>
<path d="M74.8164 43.0971C74.8164 43.0971 74.9374 41.7481 74.8164 41.0078" stroke="#B2C0CA" stroke-width="1.85" stroke-miterlimit="10" stroke-linecap="round"/>
<path d="M73.1604 41.8187C73.1604 41.8187 73.599 39.7711 73.1604 39.1992" stroke="#B2C0CA" stroke-width="1.85" stroke-miterlimit="10" stroke-linecap="round"/>
<path d="M73.9926 42.4487C73.9926 42.4487 71.5649 42.8222 71.0117 42.3203" stroke="#B2C0CA" stroke-width="1.85" stroke-miterlimit="10" stroke-linecap="round"/>
<path d="M71.6739 40.5751C71.6739 40.5751 71.9075 38.8993 71.5059 38.4258" stroke="#B2C0CA" stroke-width="1.85" stroke-miterlimit="10" stroke-linecap="round"/>
<path d="M70.8183 39.9453C70.8183 39.9453 69.7575 40.2454 69.5137 40.042" stroke="#B2C0CA" stroke-width="1.85" stroke-miterlimit="10" stroke-linecap="round"/>
<path d="M75.8827 42.3436C75.8827 42.3436 72.7135 39.2906 71.9351 35.5689C71.1567 31.8473 71.814 30.3633 71.814 30.3633C71.814 30.3633 75.6104 31.3954 76.8814 36.1625C78.1525 40.9297 78.1996 46.0253 75.8827 42.3436Z" fill="url(#paint12_linear_1_1605)"/>
<path d="M77.1792 43.6118C77.1792 43.6118 74.5901 35.3465 72.1875 31.5781" stroke="#B2C0CA" stroke-width="1.85" stroke-miterlimit="10" stroke-linecap="round"/>
<path d="M76.9219 42.8238C76.9219 42.8238 77.4411 40.913 77.384 40.5078" stroke="#B2C0CA" stroke-width="1.85" stroke-miterlimit="10" stroke-linecap="round"/>
<path d="M73.5527 38.9801C73.9579 39.7221 76.1436 40.5775 76.1436 40.5775C76.1436 40.5775 77.3205 39.0068 77.2297 38.6133" stroke="#B2C0CA" stroke-width="1.85" stroke-miterlimit="10" stroke-linecap="round"/>
<path d="M75.3301 38.3381C75.3301 38.3381 76.0883 37.2126 76.3388 36.5039" stroke="#B2C0CA" stroke-width="1.85" stroke-miterlimit="10" stroke-linecap="round"/>
<path d="M74.5 36.4194C74.5 36.4194 75.8753 34.8303 75.7727 34.125" stroke="#B2C0CA" stroke-width="1.85" stroke-miterlimit="10" stroke-linecap="round"/>
<path d="M74.9132 37.3822C74.9132 37.3822 72.6032 36.5485 72.3594 35.8516" stroke="#B2C0CA" stroke-width="1.85" stroke-miterlimit="10" stroke-linecap="round"/>
<path d="M73.793 34.6461C73.793 34.6461 74.8017 33.2872 74.6891 32.6836" stroke="#B2C0CA" stroke-width="1.85" stroke-miterlimit="10" stroke-linecap="round"/>
<path d="M73.3388 33.6915C73.3388 33.6915 72.2611 33.4514 72.1467 33.1562" stroke="#B2C0CA" stroke-width="1.85" stroke-miterlimit="10" stroke-linecap="round"/>
<path d="M78.3693 51.5028C78.3693 51.5028 74.2064 42.6522 73.9845 38.4837C73.7626 34.3152 76.2509 35.2339 77.2008 38.2153C78.1507 41.1966 80.4154 39.1673 77.7859 35.0355C75.1564 30.9037 79.1007 27.1136 80.4154 29.6614C81.7302 32.2092 79.595 42.2854 81.0879 42.5539C82.5809 42.8223 81.8647 37.9368 83.4081 37.8618C84.9515 37.7867 85.9485 42.5105 83.6956 46.3822C81.4427 50.2539 81.8563 52.7501 80.7853 53.482C79.7143 54.214 78.3693 51.5028 78.3693 51.5028Z" fill="url(#paint13_linear_1_1605)"/>
<path d="M79.4902 50.3879C79.4902 50.3879 78.4057 46.5629 78.7891 44.8238C79.1724 43.0847 79.4902 39.7148 79.4902 39.7148" stroke="#4089C1" stroke-width="1.85" stroke-miterlimit="10" stroke-linecap="round"/>
<path d="M78.7121 45.2672C78.7121 45.2672 76.9316 43.0196 76.9316 41.9141" stroke="#4089C1" stroke-width="1.85" stroke-miterlimit="10" stroke-linecap="round"/>
<path d="M78.707 46.7896C78.7911 46.9563 83.307 43.5098 83.4045 41.9141" stroke="#4089C1" stroke-width="1.85" stroke-miterlimit="10" stroke-linecap="round"/>
<path d="M91.0035 56.963C91.0035 56.963 84.0313 58.6304 78.2039 56.4778C72.3766 54.3251 70.8887 52.1342 70.8887 52.1342C70.8887 52.1342 75.5963 47.8573 83.31 50.2517C91.0237 52.6461 98.1103 56.988 91.0035 56.963Z" fill="url(#paint14_linear_1_1605)"/>
<path d="M93.8971 56.312C93.8971 56.312 80.2064 52.6837 72.9062 52.6953" stroke="#B2C0CA" stroke-width="1.85" stroke-miterlimit="10" stroke-linecap="round"/>
<path d="M92.579 55.9783C92.579 55.9783 90.3798 53.6155 89.7695 53.3438" stroke="#B2C0CA" stroke-width="1.85" stroke-miterlimit="10" stroke-linecap="round"/>
<path d="M84.3359 57.2197C85.7146 57.308 88.7897 55.0704 88.7897 55.0704C88.7897 55.0704 87.6245 52.1207 87.0109 51.8906" stroke="#B2C0CA" stroke-width="1.85" stroke-miterlimit="10" stroke-linecap="round"/>
<path d="M85.003 54.2549C85.003 54.2549 84.0984 52.254 83.3301 51.2969" stroke="#B2C0CA" stroke-width="1.85" stroke-miterlimit="10" stroke-linecap="round"/>
<path d="M81.6194 53.7161C81.6194 53.7161 80.6106 50.4696 79.543 49.9961" stroke="#B2C0CA" stroke-width="1.85" stroke-miterlimit="10" stroke-linecap="round"/>
<path d="M83.3172 53.9922C83.3172 53.9922 80.1715 56.4233 78.9862 56.1465" stroke="#B2C0CA" stroke-width="1.85" stroke-miterlimit="10" stroke-linecap="round"/>
<path d="M78.5513 53.1501C78.5513 53.1501 77.5425 50.589 76.6094 50.2305" stroke="#B2C0CA" stroke-width="1.85" stroke-miterlimit="10" stroke-linecap="round"/>
<path d="M76.8243 52.9336C76.8243 52.9336 75.5583 54.1908 75.0488 54.0924" stroke="#B2C0CA" stroke-width="1.85" stroke-miterlimit="10" stroke-linecap="round"/>
<path d="M78.1659 54.9382C77.9878 54.7389 77.792 54.5558 77.5808 54.3913C77.373 54.2269 77.1539 54.077 76.9251 53.9427C76.6916 53.8053 76.4476 53.686 76.1954 53.5859C76.1316 53.5592 76.066 53.5359 76.0004 53.5125L75.8995 53.4792C75.8608 53.4643 75.8208 53.4526 75.7802 53.4442C75.5683 53.3871 75.3471 53.3724 75.1295 53.4008C74.9367 53.4236 74.7482 53.4735 74.5696 53.5492C74.4167 53.6153 74.2699 53.6946 74.1308 53.786C73.881 53.9492 73.6484 54.1369 73.4365 54.3462C73.2383 54.5387 73.0535 54.7443 72.8833 54.9615C72.7992 55.0666 72.7152 55.1749 72.6378 55.2833L72.5218 55.4501C72.4933 55.4934 72.4664 55.5318 72.4378 55.5768C72.1015 55.9803 71.7753 56.3821 71.4492 56.789C71.123 57.1958 70.7767 57.6227 70.4404 58.0412C70.1041 58.4597 69.778 58.8749 69.4485 59.3034C69.3207 59.4702 69.1963 59.6369 69.0685 59.8037V61.7795C69.1806 61.7831 69.2921 61.7618 69.3948 61.717C69.4975 61.6723 69.5888 61.6054 69.662 61.5211C70.0117 61.1154 70.358 60.7074 70.701 60.2972C71.044 59.887 71.3842 59.4741 71.7215 59.0583C72.0578 58.6448 72.3941 58.2246 72.7303 57.8094C73.0666 57.3943 73.4028 56.9757 73.729 56.5522L73.7609 56.5122L73.7895 56.4655L73.8685 56.3405L73.9593 56.2054C74.0221 56.1154 74.086 56.027 74.151 55.9403C74.2838 55.7735 74.4217 55.6068 74.5612 55.4534C74.6912 55.314 74.8348 55.1878 74.99 55.0766C75.0896 54.9992 75.204 54.9425 75.3262 54.9098C75.3518 54.9051 75.378 54.9051 75.4036 54.9098C75.4036 54.9098 75.4405 54.9182 75.4624 54.9232L75.5381 54.9432L75.6911 54.9882C75.8962 55.0482 76.1046 55.1199 76.3148 55.1983C76.525 55.2766 76.7402 55.3567 76.9554 55.4401C77.1706 55.5234 77.3942 55.6185 77.6043 55.6902L77.6481 55.7052C77.7277 55.7326 77.8132 55.7386 77.896 55.7225C77.9787 55.7064 78.0556 55.6687 78.1188 55.6135C78.167 55.5725 78.2065 55.5223 78.235 55.4661C78.2635 55.4098 78.2805 55.3484 78.2848 55.2856C78.2892 55.2227 78.281 55.1597 78.2605 55.1C78.2401 55.0404 78.208 54.9854 78.1659 54.9382Z" fill="#0D2933"/>
<path d="M91.909 53.826C91.8928 53.7376 91.868 53.6511 91.835 53.5675C91.7708 53.4147 91.6784 53.275 91.5626 53.1557C91.4654 53.0544 91.3565 52.9649 91.2381 52.8889C91.1306 52.8247 91.0182 52.7689 90.9019 52.7221C90.8481 52.7005 90.7943 52.6788 90.7421 52.6605L90.6614 52.6321L90.5572 52.6054C90.2787 52.5362 89.9884 52.5283 89.7065 52.5821C89.4501 52.6291 89.2032 52.7169 88.9751 52.8422C88.7713 52.9503 88.5806 53.0812 88.4068 53.2324C88.2427 53.3708 88.0887 53.5207 87.9462 53.6809C87.8778 53.7598 87.8106 53.8399 87.7444 53.921L87.6469 54.0477C87.6133 54.0944 87.5897 54.1278 87.546 54.1945L87.4939 54.2762L87.4603 54.3796C87.1487 55.3289 86.8427 56.2787 86.5423 57.2292L86.1388 58.5331V61.0075H86.1472C86.241 61.0409 86.3406 61.0556 86.4401 61.0507C86.5397 61.0459 86.6373 61.0217 86.7274 60.9794C86.8175 60.9371 86.8983 60.8776 86.9652 60.8043C87.0321 60.7311 87.0838 60.6454 87.1173 60.5523C87.2854 60.0821 87.4536 59.6102 87.6217 59.1383L88.1025 57.721C88.4068 56.809 88.7028 55.8952 88.997 54.9815L89.0541 54.9015C89.0962 54.8431 89.1416 54.7864 89.187 54.7347C89.2754 54.628 89.3715 54.5277 89.4745 54.4346C89.6288 54.2803 89.8161 54.1624 90.0226 54.0894C90.0879 54.0699 90.1568 54.0648 90.2243 54.0744H90.2495L90.2966 54.0844C90.3302 54.0844 90.3588 54.1011 90.3891 54.1078L90.5471 54.1494C90.6413 54.1761 90.69 54.1945 90.7237 54.1728C90.7419 54.1585 90.7643 54.1503 90.7875 54.1494C90.8028 54.1501 90.8174 54.1554 90.8296 54.1645L90.8514 54.1778H90.8632C90.8632 54.1778 90.8632 54.1778 90.8783 54.1645C90.8506 54.2189 90.834 54.2783 90.8295 54.3392C90.8249 54.4001 90.8326 54.4613 90.8519 54.5192C90.8713 54.5772 90.902 54.6307 90.9423 54.6769C90.9826 54.723 91.0317 54.7608 91.0868 54.7881C91.1418 54.8156 91.2016 54.832 91.263 54.8365C91.3244 54.841 91.3861 54.8335 91.4445 54.8142C91.5029 54.795 91.557 54.7646 91.6035 54.7246C91.65 54.6846 91.6881 54.6359 91.7156 54.5813L91.7627 54.5063L91.7963 54.4512C91.8161 54.414 91.8335 54.3756 91.8484 54.3362C91.8791 54.2564 91.8983 54.1728 91.9056 54.0878C91.9164 54.0009 91.9175 53.9131 91.909 53.826Z" fill="#0D2933"/>
<g style="mix-blend-mode:screen" opacity="0.59">
<path d="M70.469 57.5586C70.098 57.5599 69.7425 57.7067 69.4802 57.9669C69.2178 58.2271 69.0698 58.5796 69.0685 58.9475V60.5249L72.0595 57.5586H70.469Z" fill="#7FC8FD"/>
</g>
<g style="mix-blend-mode:screen" opacity="0.59">
<path d="M74.5814 57.5586H73.154L69.0685 61.6121V62.1623C69.0696 62.4476 69.159 62.7257 69.3247 62.9589C69.4904 63.1921 69.7244 63.3692 69.9949 63.4662L75.5549 57.9521C75.294 57.7008 74.945 57.5598 74.5814 57.5586Z" fill="#7FC8FD"/>
</g>
<g style="mix-blend-mode:screen" opacity="0.59">
<path d="M75.9752 58.9536C75.9755 58.7669 75.9378 58.5821 75.8644 58.4102C75.791 58.2383 75.6835 58.0829 75.5482 57.9531L69.9882 63.4672C70.14 63.5228 70.3004 63.5516 70.4623 63.5523H72.2764L75.9752 59.884V58.9536Z" fill="#F0F8FF"/>
</g>
<g style="mix-blend-mode:screen" opacity="0.59">
<path d="M72.2695 63.5562H74.5611C74.9321 63.5548 75.2876 63.4081 75.55 63.1479C75.8123 62.8877 75.9603 62.5352 75.9616 62.1672V59.8945L72.2695 63.5562Z" fill="#7FC8FD"/>
</g>
<g style="mix-blend-mode:screen" opacity="0.59">
<path d="M72.0595 57.5586L69.0685 60.5232V61.6104L73.154 57.5586H72.0595Z" fill="#F0F8FF"/>
</g>
<g style="mix-blend-mode:screen" opacity="0.59">
<path d="M80.8927 57.5586C80.5217 57.5599 80.1662 57.7067 79.9039 57.9669C79.6415 58.2271 79.4935 58.5796 79.4922 58.9475V60.5999L82.5589 57.5586H80.8927Z" fill="#7FC8FD"/>
</g>
<g style="mix-blend-mode:screen" opacity="0.59">
<path d="M82.5591 57.5586L79.4941 60.5983V61.422L83.3897 57.5586H82.5591Z" fill="#F0F8FF"/>
</g>
<g style="mix-blend-mode:screen" opacity="0.59">
<path d="M85.0051 57.5586H83.3894L79.4922 61.4236V62.1623C79.4928 62.4324 79.5726 62.6964 79.7218 62.9223C79.8711 63.1482 80.0834 63.3262 80.3328 63.4345L85.9147 57.8987C85.6622 57.6813 85.3395 57.5606 85.0051 57.5586Z" fill="#7FC8FD"/>
</g>
<g style="mix-blend-mode:screen" opacity="0.59">
<path d="M86.3978 58.959C86.3973 58.7598 86.3536 58.5631 86.2698 58.3822C86.186 58.2013 86.0639 58.0403 85.9119 57.9102L80.3301 63.446C80.5047 63.523 80.6938 63.5628 80.8849 63.5627H82.3291L86.3978 59.5259V58.959Z" fill="#F0F8FF"/>
</g>
<g style="mix-blend-mode:screen" opacity="0.59">
<path d="M82.3379 63.5602H85.0061C85.3771 63.5589 85.7326 63.4122 85.9949 63.152C86.2573 62.8918 86.4053 62.5393 86.4066 62.1713V59.5234L82.3379 63.5602Z" fill="#7FC8FD"/>
</g>
<path d="M74.5814 57.5586H70.469C69.6955 57.5586 69.0685 58.1804 69.0685 58.9475V62.1606C69.0685 62.9277 69.6955 63.5496 70.469 63.5496H74.5814C75.3549 63.5496 75.9819 62.9277 75.9819 62.1606V58.9475C75.9819 58.1804 75.3549 57.5586 74.5814 57.5586Z" stroke="#174859" stroke-width="5.55" stroke-miterlimit="10"/>
<path d="M85.0071 57.5586H80.8946C80.1212 57.5586 79.4941 58.1804 79.4941 58.9475V62.1606C79.4941 62.9277 80.1212 63.5496 80.8946 63.5496H85.0071C85.7805 63.5496 86.4076 62.9277 86.4076 62.1606V58.9475C86.4076 58.1804 85.7805 57.5586 85.0071 57.5586Z" stroke="#174859" stroke-width="5.55" stroke-miterlimit="10"/>
<path d="M75.9784 60.2018C75.9784 60.2018 77.8429 58.2009 79.494 60.2018" stroke="#174859" stroke-width="5.55" stroke-miterlimit="10"/>
<path d="M111.46 54.9794C111.993 55.3862 112.631 55.6348 113.301 55.6964C113.493 55.716 113.687 55.6727 113.852 55.5731C114.018 55.4735 114.146 55.3229 114.217 55.1445L114.58 54.2491C114.015 54.3035 113.446 54.2227 112.919 54.0135C112.393 53.8043 111.924 53.4728 111.554 53.0469L111.189 53.9489C111.115 54.1265 111.101 54.3232 111.15 54.5093C111.199 54.6953 111.307 54.8604 111.46 54.9794Z" fill="#FF5D7B"/>
<path d="M117.444 40.8243L112.51 53.0469L113.646 53.4981L118.58 41.2755L117.444 40.8243Z" fill="#F4B031"/>
<path d="M118.583 41.2813L113.648 53.5039L114.711 53.926L119.646 41.7034L118.583 41.2813Z" fill="#E8A423"/>
<path d="M116.62 40.504L111.686 52.7266L112.511 53.0544L117.446 40.8318L116.62 40.504Z" fill="#F4C43E"/>
<path d="M116.611 40.5137L119.182 38.4961L119.638 41.7159C119.638 41.7159 118.019 42.086 116.611 40.5137Z" fill="#FACFC9"/>
<path d="M118.223 39.2514C118.567 39.4762 118.95 39.6356 119.352 39.7216L119.184 38.4961L118.223 39.2514Z" fill="#174859"/>
<path d="M111.383 53.4679C111.754 53.8937 112.222 54.225 112.748 54.4342C113.275 54.6434 113.845 54.7243 114.409 54.6701L114.996 53.2178C114.431 53.2723 113.862 53.1915 113.335 52.9823C112.808 52.7731 112.34 52.4416 111.97 52.0156L111.383 53.4679Z" fill="#174859"/>
<path d="M112.461 57.0468C112.867 57.576 113.415 57.9806 114.043 58.2139C114.224 58.2818 114.423 58.2894 114.609 58.2355C114.794 58.1817 114.958 58.0694 115.074 57.9155L115.655 57.1485C115.096 57.0559 114.567 56.8317 114.113 56.4945C113.659 56.1574 113.293 55.7172 113.046 55.2109L112.461 55.9813C112.343 56.1344 112.279 56.3215 112.279 56.514C112.279 56.7065 112.343 56.8937 112.461 57.0468Z" fill="#FF5D7B"/>
<path d="M121.935 44.9225L113.982 55.4648L114.962 56.192L122.915 45.6497L121.935 44.9225Z" fill="#F4B031"/>
<path d="M122.911 45.6491L114.959 56.1914L115.876 56.8716L123.828 46.3293L122.911 45.6491Z" fill="#E8A423"/>
<path d="M121.218 44.3874L113.266 54.9297L113.978 55.4581L121.93 44.9157L121.218 44.3874Z" fill="#F4C43E"/>
<path d="M121.217 44.3882L124.226 43.0977L123.828 46.3241C123.828 46.3241 122.168 46.2674 121.217 44.3882Z" fill="#FACFC9"/>
<path d="M123.098 43.5812C123.373 43.8882 123.703 44.141 124.073 44.3265L124.224 43.0977L123.098 43.5812Z" fill="#174859"/>
<path d="M112.785 55.5703C113.032 56.0766 113.398 56.5168 113.852 56.8539C114.306 57.191 114.835 57.4153 115.395 57.5078L116.339 56.2556C115.78 56.1626 115.251 55.938 114.797 55.6006C114.343 55.2632 113.977 54.8229 113.73 54.3164L112.785 55.5703Z" fill="#174859"/>
<path d="M131.336 57.5325L130.316 61.3009C130.27 61.4684 130.159 61.6112 130.008 61.6981C129.856 61.7849 129.676 61.8088 129.507 61.7644C129.339 61.7168 129.197 61.6064 129.109 61.4564C129.022 61.3064 128.997 61.1287 129.04 60.9607L130.062 57.1924C130.108 57.0248 130.218 56.8821 130.37 56.7952C130.521 56.7083 130.701 56.6845 130.871 56.7288C131.04 56.7745 131.184 56.8847 131.271 57.0353C131.358 57.186 131.382 57.3647 131.336 57.5325Z" fill="#AAB9D8"/>
<path d="M119.499 50.1326C118.705 49.9214 117.876 49.8713 117.061 49.9853C116.247 50.0994 115.464 50.3752 114.76 50.7963C114.055 51.2174 113.444 51.7751 112.962 52.4361C112.48 53.0971 112.138 53.8477 111.955 54.643C111.615 56.1494 111.864 57.7277 112.653 59.0588C113.441 60.3898 114.71 61.3742 116.202 61.8128C116.975 62.0369 117.786 62.1067 118.586 62.0182C119.387 61.9298 120.162 61.6849 120.866 61.2976C121.582 60.8998 122.425 60.7906 123.22 60.9925L123.944 61.1859C124.261 61.2704 124.592 61.2922 124.917 61.25C125.242 61.2078 125.556 61.1025 125.84 60.9401C126.124 60.7776 126.373 60.5613 126.573 60.3033C126.773 60.0454 126.919 59.7509 127.004 59.4368L127.526 57.5126C127.694 56.8803 127.603 56.2077 127.273 55.6414C126.944 55.0752 126.402 54.6611 125.765 54.4896L125.041 54.2962C124.248 54.0814 123.571 53.5704 123.151 52.8705C122.339 51.5217 121.029 50.5397 119.499 50.1326Z" fill="#B4D3F7"/>
<path d="M117.077 49.9867C117.532 49.9921 117.984 50.0543 118.422 50.1718C119.774 50.5297 120.932 51.3958 121.65 52.5862C122.022 53.2047 122.62 53.6565 123.32 53.8467L123.962 54.0135C124.527 54.1647 125.009 54.5321 125.301 55.0351C125.593 55.5381 125.672 56.1356 125.521 56.6963L125.058 58.3971C124.983 58.6747 124.854 58.9349 124.677 59.1628C124.501 59.3908 124.281 59.582 124.03 59.7255C123.779 59.869 123.501 59.9621 123.214 59.9994C122.927 60.0367 122.635 60.0174 122.355 59.9428L121.714 59.776C121.01 59.5922 120.26 59.6867 119.624 60.0395C119.002 60.3807 118.318 60.5961 117.611 60.6734C116.904 60.7506 116.189 60.6882 115.507 60.4897C114.67 60.2448 113.905 59.803 113.277 59.2017C112.65 58.6004 112.178 57.8576 111.902 57.0365C112.101 58.1505 112.609 59.1875 113.369 60.0312C114.129 60.875 115.111 61.4922 116.205 61.8136C116.978 62.0369 117.787 62.1062 118.587 62.0175C119.387 61.9288 120.161 61.6838 120.865 61.2967C121.581 60.8989 122.424 60.7897 123.219 60.9916L123.944 61.185C124.26 61.2695 124.591 61.2913 124.916 61.2491C125.241 61.2069 125.555 61.1016 125.839 60.9392C126.123 60.7768 126.372 60.5604 126.572 60.3025C126.772 60.0445 126.919 59.7501 127.004 59.4359L127.525 57.5117C127.693 56.8794 127.602 56.2068 127.273 55.6406C126.943 55.0743 126.401 54.6602 125.765 54.4887L125.04 54.2953C124.248 54.0806 123.57 53.5695 123.15 52.8696C122.337 51.5227 121.027 50.5426 119.498 50.1368C118.71 49.9269 117.886 49.8759 117.077 49.9867Z" fill="#99C5F7"/>
<path d="M126.353 59.7025L119.201 57.7966C119.201 57.7966 120.081 57.8199 119.899 57.098C119.717 56.376 117.912 56.9829 118.875 57.2647C119.838 57.5465 120.935 56.1909 119.902 55.4939C118.87 54.7969 118.229 56.396 119.734 56.0825C121.239 55.769 120.047 54.6719 120.047 54.6719L127.199 56.5777" stroke="#C1DEFF" stroke-width="1.43" stroke-linejoin="round"/>
<path d="M128.886 56.3834L127.612 61.0888C127.555 61.2977 127.417 61.4756 127.228 61.5837C127.039 61.6918 126.814 61.7213 126.603 61.6657C126.392 61.6094 126.212 61.4725 126.103 61.285C125.994 61.0975 125.964 60.8747 126.02 60.6653L127.296 55.9599C127.353 55.751 127.491 55.5731 127.68 55.4649C127.869 55.3568 128.094 55.3274 128.305 55.3829C128.515 55.4396 128.695 55.5766 128.804 55.7641C128.913 55.9516 128.942 56.1742 128.886 56.3834Z" fill="#E0EFF2"/>
<path d="M129.529 56.5647L128.255 61.2685C128.198 61.4774 128.06 61.6553 127.871 61.7634C127.682 61.8715 127.457 61.901 127.246 61.8454C127.036 61.7888 126.856 61.6517 126.747 61.4643C126.638 61.2768 126.608 61.0541 126.664 60.845L127.941 56.1396C127.998 55.9307 128.136 55.7527 128.325 55.6446C128.514 55.5365 128.738 55.507 128.949 55.5626C129.16 55.62 129.339 55.7575 129.447 55.9452C129.556 56.1329 129.585 56.3556 129.529 56.5647Z" fill="#E0EFF2"/>
<path d="M130.174 56.7362L128.899 61.44C128.842 61.6489 128.704 61.8268 128.515 61.9349C128.326 62.043 128.102 62.0725 127.891 62.0169C127.68 61.9603 127.501 61.8232 127.392 61.6358C127.283 61.4483 127.253 61.2256 127.309 61.0165L128.583 56.3111C128.641 56.1024 128.779 55.9248 128.968 55.8167C129.157 55.7087 129.381 55.679 129.592 55.7341C129.803 55.7912 129.982 55.9285 130.091 56.1163C130.2 56.304 130.23 56.5269 130.174 56.7362Z" fill="#E0EFF2"/>
<path d="M130.822 56.9024L129.548 61.6062C129.49 61.8151 129.352 61.9932 129.163 62.1016C128.974 62.2099 128.75 62.2399 128.539 62.1848C128.328 62.1278 128.149 61.9906 128.04 61.8033C127.931 61.6159 127.901 61.3935 127.957 61.1843L129.231 56.4806C129.289 56.2717 129.427 56.0936 129.616 55.9852C129.805 55.8768 130.029 55.8469 130.24 55.902C130.451 55.959 130.63 56.0961 130.739 56.2835C130.848 56.4709 130.878 56.6933 130.822 56.9024Z" fill="#E0EFF2"/>
<path d="M128.275 56.0244L126.898 61.1C126.837 61.3253 126.688 61.5173 126.484 61.6338C126.28 61.7504 126.038 61.7821 125.811 61.7219C125.583 61.6606 125.389 61.5126 125.272 61.3102C125.154 61.1078 125.122 60.8674 125.182 60.6414L126.557 55.5659C126.619 55.3404 126.768 55.1484 126.972 55.0319C127.176 54.9153 127.419 54.8837 127.646 54.9439C127.874 55.0053 128.068 55.1533 128.185 55.3557C128.303 55.5581 128.335 55.7985 128.275 56.0244Z" fill="#AAB9D8"/>
<path d="M116.583 53.1816C116.51 53.4494 116.332 53.6775 116.09 53.8161C115.847 53.9548 115.559 53.9928 115.289 53.9219L114.763 53.7818C114.492 53.7092 114.262 53.5333 114.122 53.2927C113.982 53.0521 113.944 52.7663 114.016 52.4979C114.09 52.2301 114.267 52.002 114.51 51.8633C114.752 51.7247 115.04 51.6867 115.311 51.7576L115.837 51.8977C116.107 51.9707 116.337 52.1466 116.477 52.3871C116.617 52.6276 116.655 52.9132 116.583 53.1816Z" fill="#C1DEFF"/>
<path d="M118.64 53.4805C118.584 53.6835 118.45 53.8564 118.266 53.9614C118.082 54.0663 117.863 54.0949 117.658 54.0408C117.454 53.9857 117.279 53.8525 117.174 53.6703C117.068 53.4882 117.039 53.2718 117.093 53.0687C117.149 52.8657 117.283 52.6927 117.467 52.5875C117.65 52.4822 117.868 52.4532 118.074 52.5067C118.279 52.5618 118.453 52.6952 118.559 52.8777C118.666 53.0601 118.695 53.2769 118.64 53.4805Z" fill="#C1DEFF"/>
<g style="mix-blend-mode:multiply">
<path d="M130.976 56.7738L130.317 59.2083C130.271 59.3758 130.16 59.5186 130.009 59.6054C129.857 59.6923 129.677 59.7162 129.508 59.6718L129.483 59.6618C129.397 59.8287 129.256 59.9614 129.083 60.0379C128.911 60.1143 128.717 60.1299 128.534 60.082C128.423 60.0515 128.32 59.9987 128.23 59.9269C128.118 59.9439 128.004 59.9382 127.894 59.9102C127.783 59.8798 127.679 59.827 127.589 59.7552C127.477 59.7723 127.363 59.7661 127.253 59.7368C127.142 59.7079 127.039 59.6556 126.951 59.5834C126.838 59.6007 126.724 59.5944 126.614 59.5651C126.577 59.5551 126.54 59.5422 126.505 59.5267C126.404 59.5866 126.291 59.6257 126.174 59.6417C126.057 59.6578 125.938 59.6504 125.824 59.6201C125.691 59.5844 125.567 59.5182 125.464 59.4267C125.361 59.3352 125.281 59.221 125.231 59.0932C125.061 59.1369 124.887 59.1631 124.711 59.1716C124.459 59.1802 124.208 59.1516 123.965 59.0865L123.24 58.8931C123.139 58.8681 123.04 58.8464 122.939 58.8298C122.334 58.7336 121.713 58.8129 121.152 59.0582C121.059 59.0982 120.967 59.1432 120.876 59.1933C120.446 59.4278 119.99 59.6103 119.516 59.7368C119.326 59.7885 119.133 59.8302 118.938 59.8635C118.543 59.9288 118.142 59.9557 117.742 59.9436C117.54 59.9436 117.337 59.9202 117.134 59.8936C116.823 59.8529 116.516 59.7888 116.216 59.7018C116.09 59.6651 115.965 59.6234 115.842 59.5784L115.748 59.5451C115.634 59.5001 115.52 59.455 115.412 59.4033H115.393C115.276 59.35 115.161 59.2916 115.049 59.2366L114.968 59.1916C114.864 59.1332 114.76 59.0732 114.66 59.0098L114.637 58.9965C114.529 58.9265 114.423 58.8531 114.321 58.7781L114.257 58.7297C114.161 58.658 114.067 58.583 113.976 58.5063C113.969 58.5016 113.963 58.496 113.958 58.4896C113.858 58.4062 113.763 58.3229 113.67 58.2278L113.626 58.1828C113.539 58.0961 113.458 58.0061 113.371 57.9143L113.359 57.9027C113.272 57.8026 113.191 57.7009 113.105 57.5959C113.098 57.5844 113.09 57.5732 113.082 57.5625C113.003 57.4603 112.928 57.3552 112.855 57.2474C112.779 57.134 112.707 57.019 112.64 56.9006L112.629 56.8839C112.282 56.2774 112.042 55.6165 111.92 54.9297C111.671 56.321 111.922 57.7549 112.629 58.9815L112.64 58.9982C112.707 59.1165 112.779 59.2316 112.855 59.345C112.927 59.4534 113.003 59.5567 113.082 59.6601C113.09 59.6708 113.098 59.682 113.105 59.6935C113.188 59.7985 113.273 59.9002 113.359 60.0003L113.371 60.012C113.453 60.1037 113.539 60.1937 113.626 60.2804L113.67 60.3254C113.763 60.4155 113.858 60.5038 113.958 60.5872C113.963 60.5936 113.969 60.5992 113.976 60.6039C114.067 60.6806 114.161 60.7556 114.257 60.8273L114.321 60.8757C114.423 60.9507 114.529 61.0241 114.637 61.0941L114.66 61.1074C114.76 61.1708 114.864 61.2308 114.968 61.2892L115.049 61.3325C115.161 61.3942 115.276 61.4526 115.393 61.4993H115.412C115.525 61.5493 115.639 61.596 115.748 61.641L115.842 61.6744C115.965 61.7194 116.09 61.7611 116.216 61.7977C116.511 61.8823 116.813 61.9447 117.118 61.9845C117.322 62.0112 117.525 62.0278 117.727 62.0345C118.127 62.046 118.528 62.0187 118.922 61.9528C119.117 61.9212 119.31 61.8795 119.501 61.8278C119.975 61.7014 120.432 61.5183 120.861 61.2825C120.952 61.2342 121.044 61.1891 121.137 61.1491C121.698 60.9038 122.318 60.8245 122.924 60.9207C123.025 60.9374 123.124 60.9574 123.225 60.984L123.95 61.1775C124.193 61.2428 124.444 61.2709 124.696 61.2608C124.871 61.2538 125.046 61.2281 125.216 61.1841C125.266 61.3119 125.346 61.4261 125.449 61.5176C125.552 61.6091 125.675 61.6754 125.809 61.711C125.923 61.7413 126.042 61.7487 126.159 61.7326C126.276 61.7166 126.388 61.6775 126.49 61.6177C126.525 61.6332 126.562 61.646 126.599 61.656C126.709 61.6849 126.823 61.6905 126.935 61.6727C127.024 61.746 127.127 61.799 127.238 61.8278C127.348 61.857 127.462 61.8633 127.574 61.8461C127.664 61.918 127.767 61.9702 127.879 61.9995C127.988 62.0288 128.103 62.0351 128.215 62.0178C128.305 62.0897 128.408 62.1425 128.519 62.1729C128.702 62.2208 128.896 62.2053 129.068 62.1288C129.241 62.0524 129.382 61.9196 129.467 61.7527L129.493 61.7627C129.662 61.8071 129.842 61.7832 129.993 61.6964C130.145 61.6095 130.256 61.4667 130.301 61.2992L131.322 57.5308C131.361 57.3844 131.348 57.2289 131.285 57.0909C131.222 56.9529 131.113 56.8408 130.976 56.7738Z" fill="#E0EFF2"/>
</g>
<path d="M92.6995 55.1637C92.6995 55.1637 93.1366 54.5884 94.7338 54.4434C96.331 54.2983 108.386 54.4434 108.386 54.4434C108.842 54.5502 109.251 54.8034 109.548 55.1637C109.983 55.7406 114.05 60.9263 114.05 60.9263C114.05 60.9263 114.63 61.6449 114.05 62.0784C113.47 62.512 90.0851 62.0784 90.0851 62.0784C90.0851 62.0784 88.7787 62.2218 89.3604 61.2131C89.9422 60.2043 92.6995 55.1637 92.6995 55.1637Z" fill="#164454"/>
<path d="M113.034 58.1836H90.0859V61.2083H113.034V58.1836Z" fill="white"/>
<path d="M92.6995 51.8473C92.6995 51.8473 93.1366 51.272 94.7338 51.127C96.331 50.9819 108.386 51.127 108.386 51.127C108.842 51.2338 109.251 51.487 109.548 51.8473C109.983 52.4242 114.05 57.6099 114.05 57.6099C114.05 57.6099 114.63 58.3302 114.05 58.762C113.47 59.1939 90.0851 58.762 90.0851 58.762C90.0851 58.762 88.7787 58.9054 89.3604 57.8967C89.9422 56.8879 92.6995 51.8473 92.6995 51.8473Z" fill="#164454"/>
<path d="M113.034 59.1992H90.0859V59.3426H113.034V59.1992Z" fill="#DFECF0"/>
<path d="M113.034 59.6289H90.0859V59.7723H113.034V59.6289Z" fill="#DFECF0"/>
<path d="M113.034 60.0625H90.0859V60.2059H113.034V60.0625Z" fill="#DFECF0"/>
<path d="M113.034 60.4922H90.0859V60.6356H113.034V60.4922Z" fill="#DFECF0"/>
<path d="M113.034 60.9258H90.0859V61.0692H113.034V60.9258Z" fill="#DFECF0"/>
<path d="M92.7899 51.1747C92.7899 51.1747 93.1934 50.6395 94.6779 50.5078C96.1625 50.376 107.363 50.5078 107.363 50.5078C107.787 50.606 108.167 50.8405 108.443 51.1747C108.848 51.71 112.626 56.5288 112.626 56.5288C112.626 56.5288 113.165 57.1957 112.626 57.5993C112.086 58.0028 90.3604 57.5993 90.3604 57.5993C90.3604 57.5993 89.1465 57.7326 89.6879 56.7956C90.2293 55.8585 92.7899 51.1747 92.7899 51.1747Z" fill="#66A1ED"/>
<path d="M111.67 53.9961H90.3496V56.8057H111.67V53.9961Z" fill="white"/>
<path d="M92.7899 48.1005C92.7899 48.1005 93.1934 47.5653 94.6779 47.4335C96.1625 47.3018 107.363 47.4335 107.363 47.4335C107.787 47.5318 108.167 47.7663 108.443 48.1005C108.848 48.6357 112.626 53.4546 112.626 53.4546C112.626 53.4546 113.165 54.1215 112.626 54.525C112.086 54.9285 90.3604 54.525 90.3604 54.525C90.3604 54.525 89.1465 54.6584 89.6879 53.7213C90.2293 52.7843 92.7899 48.1005 92.7899 48.1005Z" fill="#8CBDF7"/>
<path d="M111.67 54.9258H90.3496V55.0592H111.67V54.9258Z" fill="#DFECF0"/>
<path d="M111.67 55.3281H90.3496V55.4615H111.67V55.3281Z" fill="#DFECF0"/>
<path d="M111.67 55.7305H90.3496V55.8639H111.67V55.7305Z" fill="#DFECF0"/>
<path d="M111.67 56.1367H90.3496V56.2701H111.67V56.1367Z" fill="#DFECF0"/>
<path d="M111.67 56.5391H90.3496V56.6725H111.67V56.5391Z" fill="#DFECF0"/>
<path d="M108.221 64.3908C108.435 63.5886 108.415 62.7428 108.164 61.9514C108.092 61.7228 107.947 61.5236 107.751 61.3837C107.555 61.2439 107.319 61.171 107.077 61.176L105.865 61.201C106.203 61.8171 106.388 62.5045 106.402 63.2058C106.417 63.907 106.263 64.6015 105.951 65.2312L107.172 65.2045C107.412 65.2005 107.644 65.1189 107.834 64.9721C108.023 64.8252 108.159 64.6212 108.221 64.3908Z" fill="#FF5D7B"/>
<path d="M105.451 62.631L88.9062 62.9805L88.9388 64.4941L105.484 64.1447L105.451 62.631Z" fill="#F4B031"/>
<path d="M105.422 61.217L88.877 61.5664L88.9074 62.9834L105.452 62.6339L105.422 61.217Z" fill="#E8A423"/>
<path d="M105.483 64.1506L88.9375 64.5L88.9611 65.5986L105.506 65.2491L105.483 64.1506Z" fill="#F4C43E"/>
<path d="M88.9609 65.5954L85.373 63.6596L88.8752 61.5703C88.8752 61.5703 90.0991 63.226 88.9609 65.5954Z" fill="#FACFC9"/>
<path d="M86.7164 64.3817C86.8084 63.878 86.8049 63.3618 86.7063 62.8594L85.373 63.6547L86.7164 64.3817Z" fill="#174859"/>
<path d="M106.514 65.2199C106.825 64.5904 106.979 63.896 106.964 63.1951C106.949 62.4942 106.765 61.8071 106.426 61.1914L104.461 61.2331C104.799 61.8487 104.984 62.5358 104.999 63.2368C105.014 63.9377 104.86 64.632 104.548 65.2616L106.514 65.2199Z" fill="#174859"/>
<path d="M101.019 52.7552C105.171 52.7552 108.537 51.7055 108.537 50.4108C108.537 49.116 105.171 48.0664 101.019 48.0664C96.8662 48.0664 93.5 49.116 93.5 50.4108C93.5 51.7055 96.8662 52.7552 101.019 52.7552Z" fill="#0F2F3B"/>
<path d="M101.019 48.3295C105.171 48.3295 108.537 47.4434 108.537 46.3503C108.537 45.2572 105.171 44.3711 101.019 44.3711C96.8662 44.3711 93.5 45.2572 93.5 46.3503C93.5 47.4434 96.8662 48.3295 101.019 48.3295Z" fill="#DFECF0"/>
<path d="M108.537 46.3477H93.5V50.4111H108.537V46.3477Z" fill="#0F2F3B"/>
<path d="M101.615 42.5149C101.615 42.5149 86.9775 46.2099 87.1103 46.2099C87.2431 46.2099 100.418 50.6969 101.083 50.8286C101.749 50.9603 114.258 47.0019 114.789 46.7368C115.321 46.4717 102.148 42.3815 101.615 42.5149Z" fill="#143E4D"/>
<path d="M114.79 46.7519V46.3567L87.1113 45.8281V46.225L114.79 46.7519Z" fill="#143E4D"/>
<path d="M101.615 42.1281C101.615 42.1281 86.9775 45.8181 87.1103 45.8181C87.2431 45.8181 100.418 50.3051 101.083 50.4385C101.749 50.5719 114.258 46.6034 114.789 46.3467C115.321 46.0899 102.148 41.9964 101.615 42.1281Z" fill="#174859"/>
<path d="M100.958 45.8805V46.4607L87.5365 46.3507C87.5365 46.3507 87.1582 46.4074 87.017 46.9326C86.8758 47.4578 87.1112 49.9139 87.1112 49.9139C87.1112 49.9139 86.6959 50.4275 86.4521 49.7155C86.2083 49.0035 86.4521 46.3507 86.4521 46.3507C86.4521 46.3507 86.6051 45.8155 87.3062 45.8805C88.0073 45.9455 100.958 45.8805 100.958 45.8805Z" fill="#0F2F3B"/>
<path d="M86.4341 50.0955C86.4341 50.0955 85.8305 50.5674 86.1264 51.2627L86.424 51.953L86.4341 51.7429L86.7939 52.1014L86.9116 51.7429L87.0696 52.2131C87.0696 52.2131 88.1339 51.0576 87.0142 50.0054C87.0142 50.0004 86.6611 49.8354 86.4341 50.0955Z" fill="#0F2F3B"/>
<path d="M102.276 46.1449C102.276 46.32 101.843 46.4617 101.306 46.4617C100.77 46.4617 100.338 46.32 100.338 46.1449C100.338 45.9699 100.772 45.8281 101.306 45.8281C101.841 45.8281 102.276 45.9699 102.276 46.1449Z" fill="#F4C43E"/>
<path d="M87.1205 49.9906C87.1207 50.0413 87.1108 50.0915 87.0914 50.1383C87.072 50.1851 87.0434 50.2277 87.0072 50.2635C86.9711 50.2993 86.9282 50.3277 86.881 50.3469C86.8338 50.3662 86.7832 50.376 86.7321 50.3758C86.6811 50.3758 86.6306 50.3658 86.5835 50.3465C86.5364 50.3271 86.4936 50.2988 86.4575 50.263C86.4214 50.2272 86.3928 50.1848 86.3733 50.138C86.3538 50.0913 86.3438 50.0412 86.3438 49.9906C86.3442 49.8886 86.3852 49.7909 86.458 49.7188C86.5307 49.6466 86.6293 49.6059 86.7321 49.6055C86.8351 49.6055 86.9339 49.646 87.0067 49.7183C87.0796 49.7905 87.1205 49.8885 87.1205 49.9906Z" fill="#F4C43E"/>
<path d="M99.4775 29.2143C99.4775 29.2143 99.5212 29.5561 99.0857 29.993C98.6503 30.4299 98.4872 32.1123 100.554 31.4937C102.62 30.8751 101.006 28.6708 99.4775 29.2143Z" fill="#CF2949"/>
<path d="M99.5438 31.5406C99.5438 31.5406 100.447 31.1804 101.234 31.3288C101.234 31.3288 101.57 32.3876 101.054 32.7478C100.537 33.108 99.3152 32.6411 99.5438 31.5406Z" fill="#66A1ED"/>
<path d="M93.5247 21.4709L92.0367 21.831C91.9706 21.8467 91.9008 21.8359 91.8426 21.8009C91.7844 21.766 91.7424 21.7097 91.7257 21.6443C91.71 21.5784 91.7211 21.5091 91.7567 21.4513C91.7923 21.3935 91.8494 21.352 91.9157 21.3358L93.4036 20.9757C93.4701 20.9601 93.54 20.9711 93.5982 21.0064C93.6565 21.0417 93.6983 21.0984 93.7147 21.1641C93.7304 21.2297 93.7192 21.2989 93.6836 21.3564C93.648 21.4139 93.5908 21.4551 93.5247 21.4709Z" fill="#AAB9D8"/>
<path d="M93.8559 16.0708C93.7802 15.7622 93.6424 15.472 93.4508 15.2175C93.2592 14.963 93.0178 14.7495 92.741 14.5897C92.4643 14.43 92.1578 14.3273 91.8401 14.2878C91.5223 14.2484 91.1998 14.2729 90.8918 14.36C90.31 14.5265 89.8136 14.9061 89.5033 15.4218C89.193 15.9376 89.092 16.5511 89.2206 17.1379C89.2876 17.4415 89.4147 17.7288 89.5945 17.9832C89.7743 18.2377 90.0033 18.4542 90.2681 18.6203C90.5399 18.7896 90.7351 19.0567 90.8128 19.3656L90.8817 19.6474C90.9121 19.7705 90.9666 19.8865 91.0422 19.9887C91.1178 20.0909 91.213 20.1774 91.3223 20.243C91.4316 20.3087 91.5529 20.3523 91.6793 20.3714C91.8056 20.3906 91.9345 20.3848 92.0586 20.3544L92.8186 20.171C92.9429 20.1411 93.06 20.0871 93.1633 20.0122C93.2665 19.9373 93.3538 19.843 93.4202 19.7345C93.4866 19.6261 93.5308 19.5057 93.5501 19.3803C93.5695 19.2549 93.5637 19.127 93.5331 19.0038L93.4642 18.722C93.3893 18.4135 93.4382 18.0883 93.6004 17.8149C93.9121 17.289 94.0038 16.663 93.8559 16.0708Z" fill="#FFD96E"/>
<path d="M93.4569 15.2153C93.5394 15.3698 93.6021 15.534 93.6435 15.7039C93.7736 16.2282 93.6921 16.7822 93.4165 17.2479C93.2726 17.4895 93.2291 17.7772 93.2955 18.0499L93.356 18.2984C93.3829 18.4071 93.3879 18.52 93.3707 18.6306C93.3536 18.7413 93.3146 18.8475 93.2561 18.9432C93.1975 19.0389 93.1205 19.1222 93.0295 19.1884C92.9385 19.2545 92.8352 19.3023 92.7255 19.3288L92.053 19.4956C91.9434 19.5222 91.8296 19.527 91.718 19.5099C91.6065 19.4928 91.4995 19.454 91.4031 19.3957C91.3067 19.3375 91.2229 19.2609 91.1564 19.1705C91.0899 19.08 91.0421 18.9775 91.0157 18.8686L90.9535 18.6202C90.8849 18.3478 90.7125 18.1123 90.4726 17.9632C90.2385 17.8164 90.0361 17.6249 89.8771 17.4C89.718 17.175 89.6056 16.921 89.5462 16.6527C89.474 16.3233 89.483 15.9815 89.5726 15.6564C89.6622 15.3312 89.8296 15.0323 90.0607 14.7852C89.7143 15.061 89.4522 15.427 89.3037 15.8423C89.1552 16.2575 89.1263 16.7056 89.2201 17.1362C89.2871 17.4397 89.4141 17.727 89.5939 17.9815C89.7737 18.236 90.0027 18.4525 90.2675 18.6185C90.5393 18.7879 90.7346 19.055 90.8122 19.3639L90.8812 19.6457C90.9115 19.7688 90.966 19.8848 91.0416 19.987C91.1172 20.0892 91.2124 20.1756 91.3217 20.2413C91.4311 20.307 91.5524 20.3506 91.6787 20.3697C91.8051 20.3888 91.934 20.383 92.0581 20.3526L92.818 20.1692C92.9423 20.1393 93.0595 20.0854 93.1627 20.0105C93.266 19.9356 93.3533 19.8412 93.4197 19.7328C93.486 19.6243 93.5302 19.504 93.5496 19.3786C93.5689 19.2532 93.5632 19.1252 93.5326 19.002L93.4636 18.7202C93.3888 18.4118 93.4376 18.0866 93.5998 17.8132C93.913 17.2866 94.0053 16.6591 93.857 16.0657C93.7822 15.7586 93.6462 15.4695 93.4569 15.2153Z" fill="#F4C43E"/>
<path d="M91.8507 20.1796L91.1681 17.4017C91.1681 17.4017 91.3261 17.7035 91.5397 17.5067C91.7532 17.31 91.2034 16.8131 91.2908 17.1916C91.3782 17.5701 92.044 17.6918 92.0911 17.2082C92.1382 16.7247 91.4674 16.8114 91.8574 17.2616C92.2475 17.7118 92.4022 17.0949 92.4022 17.0949L93.0848 19.8728" stroke="#FFF8E6" stroke-width="0.56" stroke-linejoin="round"/>
<path d="M93.4581 20.4239L91.6086 20.8724C91.526 20.8921 91.4388 20.8786 91.3661 20.8349C91.2933 20.7912 91.241 20.7208 91.2203 20.639C91.2102 20.5985 91.2084 20.5564 91.2148 20.5152C91.2212 20.4739 91.2358 20.4344 91.2576 20.3987C91.2795 20.3631 91.3083 20.3321 91.3422 20.3075C91.3762 20.2829 91.4148 20.2652 91.4556 20.2555L93.3135 19.8053C93.3964 19.7861 93.4835 19.8 93.5562 19.844C93.6288 19.888 93.6811 19.9585 93.7018 20.0404C93.7115 20.0814 93.7129 20.124 93.7058 20.1656C93.6988 20.2072 93.6835 20.247 93.6608 20.2827C93.6381 20.3183 93.6085 20.3492 93.5737 20.3734C93.5389 20.3977 93.4996 20.4148 93.4581 20.4239Z" fill="#E0EFF2"/>
<path d="M93.5249 20.6687L91.667 21.1189C91.5843 21.1385 91.4972 21.1247 91.4247 21.0807C91.3522 21.0366 91.3003 20.9658 91.2803 20.8838C91.2606 20.802 91.2742 20.7158 91.3183 20.6439C91.3624 20.5721 91.4334 20.5205 91.5157 20.5003L93.3735 20.0518C93.4562 20.0321 93.5434 20.0456 93.6161 20.0893C93.6888 20.133 93.7412 20.2034 93.7619 20.2852C93.7817 20.3673 93.7678 20.4537 93.7233 20.5256C93.6789 20.5975 93.6075 20.649 93.5249 20.6687Z" fill="#E0EFF2"/>
<path d="M93.5847 20.9204L91.7269 21.3689C91.6442 21.3886 91.5571 21.3751 91.4843 21.3314C91.4116 21.2877 91.3592 21.2173 91.3385 21.1355C91.3192 21.0533 91.3333 20.9668 91.3776 20.8948C91.4219 20.8227 91.4931 20.7708 91.5756 20.7503L93.425 20.3018C93.5075 20.2821 93.5944 20.2957 93.6669 20.3394C93.7393 20.3831 93.7914 20.4535 93.8117 20.5352C93.8318 20.6161 93.8194 20.7015 93.777 20.7734C93.7346 20.8454 93.6657 20.8981 93.5847 20.9204Z" fill="#E0EFF2"/>
<path d="M93.648 21.1661L91.7902 21.6146C91.7075 21.6343 91.6203 21.6208 91.5476 21.5771C91.4749 21.5334 91.4225 21.463 91.4018 21.3812C91.3918 21.3407 91.3899 21.2986 91.3963 21.2573C91.4027 21.2161 91.4173 21.1766 91.4392 21.1409C91.461 21.1053 91.4898 21.0743 91.5238 21.0497C91.5577 21.0251 91.5963 21.0074 91.6372 20.9977L93.495 20.5475C93.5779 20.5283 93.665 20.5422 93.7377 20.5862C93.8103 20.6302 93.8627 20.7007 93.8834 20.7826C93.9031 20.8644 93.8895 20.9506 93.8454 21.0224C93.8013 21.0943 93.7303 21.1459 93.648 21.1661Z" fill="#E0EFF2"/>
<path d="M93.4771 20.1335L91.473 20.617C91.3839 20.6382 91.2899 20.6236 91.2115 20.5765C91.1331 20.5294 91.0766 20.4534 91.0544 20.3653C91.033 20.2768 91.0477 20.1836 91.0952 20.1059C91.1428 20.0282 91.2193 19.9722 91.3082 19.9501L93.3123 19.4665C93.4015 19.4453 93.4955 19.4599 93.5738 19.5071C93.6522 19.5542 93.7087 19.6301 93.731 19.7183C93.7523 19.8067 93.7376 19.8999 93.6901 19.9777C93.6426 20.0554 93.566 20.1114 93.4771 20.1335Z" fill="#AAB9D8"/>
<path d="M92.265 15.6599C92.212 15.6733 92.1568 15.6762 92.1027 15.6684C92.0486 15.6606 91.9966 15.6422 91.9496 15.6142C91.9027 15.5863 91.8619 15.5495 91.8294 15.5058C91.797 15.4621 91.7736 15.4125 91.7606 15.3597L91.7102 15.1563C91.6966 15.1038 91.6937 15.0491 91.7016 14.9954C91.7095 14.9417 91.7281 14.8901 91.7562 14.8436C91.7844 14.797 91.8215 14.7565 91.8656 14.7243C91.9096 14.6921 91.9597 14.669 92.0128 14.6561C92.0653 14.6434 92.1197 14.6411 92.173 14.6494C92.2264 14.6576 92.2775 14.6762 92.3236 14.7041C92.3697 14.732 92.4098 14.7686 92.4415 14.8119C92.4733 14.8551 92.4962 14.9042 92.5088 14.9562L92.5592 15.1613C92.5869 15.2661 92.5714 15.3775 92.5162 15.471C92.461 15.5645 92.3707 15.6325 92.265 15.6599Z" fill="#FFE69E"/>
<path d="M92.5475 16.4018C92.5078 16.4115 92.4665 16.4134 92.426 16.4072C92.3856 16.4011 92.3467 16.387 92.3117 16.366C92.2768 16.3449 92.2463 16.3172 92.2221 16.2844C92.198 16.2517 92.1806 16.2145 92.1709 16.1751C92.1516 16.0955 92.1648 16.0116 92.2076 15.9416C92.2505 15.8716 92.3195 15.8213 92.3996 15.8016C92.4798 15.7824 92.5644 15.7955 92.635 15.838C92.7055 15.8805 92.7563 15.9489 92.7762 16.0283C92.7859 16.0677 92.7878 16.1087 92.7816 16.1488C92.7754 16.1889 92.7613 16.2275 92.74 16.2622C92.7188 16.2969 92.6908 16.3271 92.6578 16.351C92.6248 16.375 92.5873 16.3923 92.5475 16.4018Z" fill="#FFE69E"/>
<g style="mix-blend-mode:multiply">
<path d="M93.7143 21.2049L92.7526 21.4383C92.6864 21.4534 92.6169 21.4421 92.559 21.4069C92.5012 21.3717 92.4596 21.3153 92.4432 21.2499C92.4424 21.2466 92.4424 21.2432 92.4432 21.2399C92.3697 21.2421 92.2976 21.2194 92.2389 21.1754C92.1802 21.1314 92.1384 21.0689 92.1204 20.9981C92.1121 20.9546 92.1121 20.9099 92.1204 20.8664C92.0928 20.831 92.0733 20.79 92.0633 20.7464C92.0532 20.703 92.0532 20.658 92.0633 20.6146C92.0354 20.5797 92.0154 20.5394 92.0044 20.4962C91.9952 20.4528 91.9952 20.408 92.0044 20.3645C91.9771 20.3295 91.9576 20.2892 91.9473 20.2461C91.9428 20.2315 91.94 20.2164 91.9388 20.2011C91.8992 20.1779 91.8646 20.1471 91.8372 20.1104C91.8098 20.0738 91.79 20.032 91.7791 19.9877C91.766 19.936 91.7655 19.8819 91.7778 19.8299C91.7901 19.778 91.8148 19.7297 91.8497 19.6892C91.8029 19.6382 91.7617 19.5823 91.727 19.5225C91.6761 19.4393 91.6386 19.3487 91.616 19.254L91.5454 18.9722C91.5368 18.9337 91.5255 18.8959 91.5118 18.8589C91.4319 18.6361 91.2889 18.441 91.0999 18.2969C91.0679 18.2719 91.0343 18.2502 91.0007 18.2286C90.8398 18.1265 90.6914 18.0062 90.5585 17.8701C90.5064 17.8151 90.456 17.7584 90.4072 17.7033C90.3065 17.5814 90.2186 17.4495 90.1449 17.3098C90.1083 17.24 90.0758 17.1682 90.0474 17.0947C90.0033 16.982 89.9679 16.866 89.9415 16.7479C89.9314 16.6979 89.9213 16.6479 89.9146 16.5978C89.9146 16.5862 89.9146 16.5728 89.9146 16.5595C89.9146 16.5128 89.9028 16.4645 89.8995 16.4178C89.8995 16.3677 89.8995 16.3177 89.8995 16.2677V16.2327V16.0943C89.8995 16.0943 89.8995 16.0943 89.8995 16.0843C89.8995 16.0343 89.9079 15.9842 89.9146 15.9359V15.9059C89.9146 15.8592 89.9297 15.8142 89.9381 15.7675C89.9482 15.7175 89.96 15.6691 89.9734 15.6207V15.5974C89.9869 15.5524 90.0003 15.5057 90.0171 15.4607C90.0356 15.4123 90.0558 15.364 90.076 15.3173V15.3023C90.0962 15.2556 90.118 15.2106 90.1416 15.1655C90.1668 15.1189 90.192 15.0738 90.2206 15.0288C90.3647 14.7978 90.5472 14.5926 90.7603 14.4219C90.2351 14.5992 89.789 14.9531 89.4993 15.4223C89.4707 15.4673 89.4438 15.514 89.4186 15.5607C89.3951 15.6057 89.3732 15.6508 89.3514 15.6958V15.7108C89.3295 15.7575 89.311 15.8058 89.2925 15.8542C89.2757 15.9009 89.2606 15.9459 89.2471 15.9926V16.0143C89.2337 16.0626 89.2202 16.1126 89.2101 16.161C89.2101 16.161 89.2101 16.161 89.2101 16.171C89.2 16.216 89.1933 16.261 89.1849 16.3077C89.1849 16.3177 89.1849 16.3277 89.1849 16.3377C89.1849 16.3877 89.1715 16.4361 89.1681 16.4861V16.4761C89.1681 16.5228 89.1681 16.5695 89.1681 16.6145V16.6512C89.1681 16.6996 89.1681 16.7496 89.1681 16.7996C89.1681 16.8463 89.1765 16.893 89.1832 16.9413V16.9797C89.1916 17.0297 89.2 17.0781 89.2118 17.1281C89.238 17.2462 89.2734 17.3622 89.3177 17.4749C89.3456 17.5483 89.3776 17.6201 89.4136 17.69C89.4845 17.828 89.569 17.9586 89.6658 18.0802C89.7131 18.1384 89.7637 18.1941 89.8171 18.2469C89.9491 18.3839 90.0976 18.5043 90.2592 18.6054C90.2929 18.6271 90.3248 18.6504 90.3568 18.6738C90.5463 18.8177 90.6899 19.0128 90.7704 19.2357C90.7838 19.274 90.7939 19.3107 90.804 19.3507L90.8729 19.6325C90.8959 19.7266 90.9334 19.8165 90.9839 19.8993C91.0183 19.9597 91.0601 20.0157 91.1083 20.0661C91.0739 20.1072 91.0496 20.1558 91.0373 20.2079C91.0251 20.26 91.0252 20.3142 91.0377 20.3662C91.0488 20.4104 91.0687 20.4521 91.0961 20.4887C91.1235 20.5253 91.1579 20.5562 91.1974 20.5796C91.1966 20.5941 91.1966 20.6085 91.1974 20.623C91.2084 20.6661 91.2284 20.7065 91.2562 20.7414C91.2462 20.7847 91.2462 20.8297 91.2562 20.8731C91.2662 20.9168 91.2857 20.9577 91.3134 20.9931C91.305 21.0366 91.305 21.0813 91.3134 21.1249C91.3244 21.168 91.3444 21.2083 91.3723 21.2432C91.3622 21.2866 91.3622 21.3316 91.3723 21.375C91.3898 21.4457 91.4313 21.5084 91.4896 21.5527C91.548 21.597 91.6199 21.6201 91.6934 21.6184C91.6942 21.6217 91.6942 21.6251 91.6934 21.6284C91.7101 21.6938 91.7521 21.7501 91.8103 21.785C91.8685 21.82 91.9382 21.8308 92.0044 21.8152L93.4924 21.455C93.5536 21.4469 93.6098 21.4172 93.6506 21.3712C93.6914 21.3252 93.714 21.2661 93.7143 21.2049Z" fill="#E0EFF2"/>
</g>
<path d="M100.268 42.7912C100.268 42.7912 99.6713 43.6383 99.8209 43.7917C99.9706 43.9451 100.608 43.4498 100.789 43.2097C100.971 42.9696 100.764 42.6328 100.764 42.6328L100.268 42.7912Z" fill="#FF5D7B"/>
<path d="M99.918 38.2897C99.918 38.2897 100.086 40.4206 100.152 40.6808C100.217 40.9409 100.199 42.7 100.293 42.9084C100.387 43.1168 100.806 42.7934 100.806 42.655C100.806 42.5166 101.063 41.3394 101.086 41.0476C101.11 40.7558 101.436 39.0884 101.46 38.6248C101.483 38.1613 100.456 37.516 99.918 38.2897Z" fill="#FACFC9"/>
<path d="M104.688 40.9344C104.688 40.9344 105.133 41.8681 105.335 41.8148C105.537 41.7614 105.426 40.9661 105.306 40.6909C105.187 40.4158 104.788 40.4258 104.788 40.4258L104.688 40.9344Z" fill="#FF5D7B"/>
<path d="M103.045 37.384C103.045 38.1493 103.045 38.6412 103.292 39.3482C103.41 39.6817 104.728 40.3103 104.984 40.6104C105.239 40.9105 104.952 41.0439 104.575 40.9672C104.199 40.8905 103.037 40.3269 102.618 40.0335C102.282 39.8 101.66 38.853 101.67 38.0443C101.68 37.2356 102.464 36.9538 103.045 37.384Z" fill="#FACFC9"/>
<path d="M99.5687 31.6199C99.5687 31.6199 98.0001 31.2864 97.7949 31.033C97.5898 30.7795 96.6618 29.574 96.3642 29.594C96.0666 29.614 95.9792 29.7791 95.9825 29.9742C95.9859 30.1693 97.23 31.6666 97.3544 31.795C97.4789 31.9234 99.1349 32.9622 99.3619 32.8838C99.5889 32.8054 99.9083 31.6966 99.5687 31.6199Z" fill="#174859"/>
<path d="M103.902 35.2838C103.902 35.2838 103.734 35.8207 103.926 35.9158C104.117 36.0108 104.208 35.9058 104.208 35.9058C104.208 35.9058 104.518 36.1742 104.63 35.9358C104.743 35.6973 104.608 35.1688 104.178 35.0821C104.116 35.0811 104.056 35.1003 104.006 35.1367C103.956 35.1732 103.92 35.2249 103.902 35.2838Z" fill="#FACFC9"/>
<path d="M101.268 32.6867C101.268 32.6867 102.731 33.3387 102.877 33.6338C103.024 33.929 103.671 35.3012 103.967 35.3396C104.263 35.3779 104.384 35.2395 104.423 35.0478C104.461 34.856 103.565 33.1319 103.471 32.9819C103.377 32.8318 101.978 31.4812 101.741 31.4962C101.504 31.5112 100.954 32.5417 101.268 32.6867Z" fill="#174859"/>
<path d="M99.0839 31.9184C99.0839 31.9184 99.1847 33.9426 99.5176 34.3361C99.5176 34.3361 99.6488 34.6296 99.6521 35.3883C99.6555 36.1469 99.252 37.4275 99.6992 38.7231C99.6992 38.7231 103.546 39.0182 103.566 37.6626C103.576 36.7922 102.989 35.6617 102.465 35.0231C102.016 34.4812 102.246 34.2861 102.1 33.6208V33.6108C102.024 33.259 101.961 31.7667 101.841 31.5749C101.722 31.3831 101.244 31.3281 101.244 31.3281C101.244 31.3281 100.893 32.437 100.536 32.4203C100.18 32.4036 99.5546 31.5399 99.5546 31.5399C99.5546 31.5399 99.1797 31.6149 99.0839 31.9184Z" fill="#174859"/>
<path d="M96.2967 29.6374C96.2967 29.6374 96.5085 29.0255 96.2967 28.9071C96.0849 28.7887 95.9705 28.9071 95.9705 28.9071C95.9705 28.9071 95.6259 28.5836 95.4863 28.8537C95.3468 29.1238 95.4762 29.7391 95.9705 29.8542C96.0413 29.8583 96.1115 29.8394 96.1704 29.8003C96.2293 29.7611 96.2737 29.7039 96.2967 29.6374Z" fill="#FACFC9"/>
<path d="M100.208 31.5146V31.1811C100.208 31.1811 99.5083 31.1544 99.4663 30.6509C99.4243 30.1473 99.4663 30.3974 99.4663 30.3974C99.4663 30.3974 99.2208 30.3107 99.2208 30.2307C99.2208 30.1507 99.5268 29.8872 99.5268 29.8872C99.5268 29.8872 99.6849 28.8868 100.48 28.8384C101.275 28.7901 101.602 29.462 101.575 30.0056C101.548 30.5492 101.151 31.0511 100.986 31.0777C100.821 31.1044 100.931 31.5129 100.931 31.5129C100.931 31.5129 100.44 31.8798 100.208 31.5146Z" fill="#FACFC9"/>
<path d="M100.34 28.4325C100.34 28.4325 99.141 28.6476 99.4269 29.1478C99.7127 29.648 100.548 29.6964 100.548 29.6964C100.548 29.6964 100.572 30.1716 100.868 30.3033C100.939 30.5509 100.947 30.8122 100.892 31.0637C100.836 31.3152 100.718 31.549 100.548 31.744C99.9615 32.4826 101.744 32.7844 102.075 31.0987C102.406 29.4129 101.794 28.8227 101.259 28.701C100.725 28.5792 100.61 28.701 100.61 28.701C100.61 28.701 100.498 28.3975 100.34 28.4325Z" fill="#FF5D7B"/>
<path d="M92.4941 21.7227C92.4941 21.7227 92.9834 27.8771 95.8651 29.2043C98.7468 30.5316 99.2613 32.5258 97.5329 33.4479" stroke="#174859" stroke-width="0.82" stroke-miterlimit="10"/>
<path d="M90.8758 41.5295C90.7609 41.6436 90.6866 41.7917 90.6639 41.9513C90.5883 42.4516 90.363 43.8655 90.2402 43.8889C90.0906 43.9139 88.3438 44.6826 88.3438 44.7226C88.3438 44.7626 88.3858 45.1811 89.0364 45.0427C89.6871 44.9043 90.8724 44.4358 90.9615 44.3207C91.0506 44.2057 91.4188 42.4399 91.3549 42.0731C91.3028 41.7679 91.1868 41.2294 90.8758 41.5295Z" fill="#CC3853"/>
<path d="M88.0016 48.0428C88.0016 48.0428 87.889 48.6397 87.7713 48.7281C87.7269 48.7473 87.6786 48.7561 87.6302 48.7539C87.5819 48.7517 87.5346 48.7384 87.4922 48.7152C87.4498 48.692 87.4134 48.6595 87.3857 48.6201C87.358 48.5807 87.3398 48.5355 87.3325 48.488C87.3207 48.2662 87.5577 47.5859 87.5577 47.5859C87.5577 47.5859 87.9091 47.5843 88.0016 48.0428Z" fill="#FACFC9"/>
<path d="M91.3495 44.8068C91.3495 44.8068 88.2442 44.6401 87.9752 45.0519C87.7062 45.4638 87.7398 45.8856 88.9369 45.8489C90.1339 45.8123 91.442 46.0157 91.6 45.5855C91.7581 45.1553 91.3495 44.8068 91.3495 44.8068Z" fill="#5384C2"/>
<path d="M88.1964 45.0198C88.1964 45.0198 87.9896 44.9481 87.8601 45.4C87.7306 45.8518 87.2246 48.0195 87.2683 48.0678C87.312 48.1162 87.85 48.3796 88.2031 48.3329C88.2031 48.3329 88.6671 46.317 88.7445 45.9735C88.8218 45.6301 88.6621 44.9598 88.1964 45.0198Z" fill="#5384C2"/>
<path d="M87.9149 48.5394C87.9171 48.6635 87.8935 48.7867 87.8458 48.9014C87.7981 49.0161 87.7272 49.1199 87.6375 49.2064C87.3282 49.5165 85.8671 48.6061 85.8083 48.1393C85.7494 47.6724 87.2912 48.2126 87.2912 48.2126C87.3595 48.3143 87.4523 48.3975 87.5612 48.4545C87.6702 48.5116 87.7917 48.5408 87.9149 48.5394Z" fill="#FF5D7B"/>
<path d="M86.8637 48.3822C86.3307 47.947 85.9154 47.9854 85.8835 47.9921C85.8569 48.0053 85.8355 48.0269 85.8224 48.0534C85.8094 48.0798 85.8054 48.1099 85.8112 48.1388C85.8667 48.5723 87.1276 49.386 87.5563 49.2543C87.78 49.0725 87.4084 48.8208 86.8637 48.3822Z" fill="#E03D5B"/>
<path d="M91.9799 41.0179C92.1224 40.9781 92.272 40.9699 92.418 40.9939C92.5641 41.0179 92.703 41.0735 92.8249 41.1568C92.9469 41.24 93.0489 41.3488 93.1237 41.4755C93.1984 41.6022 93.2442 41.7437 93.2577 41.8899C93.372 43.0171 93.4443 44.9213 92.7314 45.5499C92.417 45.8182 92.0461 46.0134 91.6458 46.1213C91.2456 46.2292 90.8261 46.247 90.418 46.1735C90.418 46.1735 90.8955 42.2751 90.8702 41.6715C90.8635 41.5014 91.2485 41.2179 91.9799 41.0179Z" fill="#FF5D7B"/>
<path d="M89.4297 48.6678C89.4297 48.6678 89.3171 49.2647 89.1994 49.3531C89.1552 49.3723 89.1072 49.3812 89.059 49.3791C89.0108 49.377 88.9638 49.3639 88.9215 49.3408C88.8793 49.3177 88.8429 49.2854 88.8153 49.2462C88.7877 49.2069 88.7696 49.162 88.7623 49.1147C88.7488 48.8912 88.9859 48.2109 88.9859 48.2109C88.9859 48.2109 89.3373 48.2109 89.4297 48.6678Z" fill="#FACFC9"/>
<path d="M92.7625 45.4062C92.7625 45.4062 92.86 46.5734 91.6125 46.5267C90.365 46.48 89.2923 46.5484 89.2923 46.3033C89.2923 46.0582 89.0418 45.4696 90.365 45.3128C91.164 45.2158 91.9736 45.2473 92.7625 45.4062Z" fill="#66A1ED"/>
<path d="M89.6241 45.508C89.6241 45.508 89.4173 45.4363 89.2878 45.8899C89.1584 46.3434 88.6523 48.5077 88.696 48.5577C88.7397 48.6078 89.2778 48.8712 89.6308 48.8229C89.6308 48.8229 90.0949 46.8086 90.1739 46.4635C90.2529 46.1183 90.0898 45.448 89.6241 45.508Z" fill="#66A1ED"/>
<path d="M89.3681 49.184C89.3702 49.308 89.3467 49.4312 89.299 49.5459C89.2512 49.6606 89.1803 49.7644 89.0906 49.8509C88.7813 50.1611 87.3203 49.2507 87.2614 48.7838C87.2026 48.3169 88.7443 48.8572 88.7443 48.8572C88.8124 48.9591 88.9052 49.0424 89.0142 49.0995C89.1231 49.1566 89.2448 49.1856 89.3681 49.184Z" fill="#FF5D7B"/>
<path d="M88.3129 49.0268C87.7799 48.5916 87.3646 48.6299 87.3327 48.6366C87.3061 48.6499 87.2847 48.6714 87.2716 48.6979C87.2586 48.7244 87.2546 48.7544 87.2604 48.7833C87.3159 49.2168 88.5768 50.0305 89.0056 49.8988C89.2292 49.7171 88.8492 49.4636 88.3129 49.0268Z" fill="#E03D5B"/>
<path d="M91.5386 41.4117L91.3856 41.0382C91.3856 41.0382 90.5752 41.3284 90.2927 40.7748C90.1351 40.4948 90.0357 40.1864 90.0002 39.8677C90.0002 39.8677 89.711 38.6438 90.597 38.232C91.4831 37.8201 92.1707 38.4287 92.3927 39.0657C92.6146 39.7026 92.3927 40.453 92.2245 40.5664C92.0564 40.6797 92.3658 41.0899 92.3658 41.0899C92.3658 41.0899 91.9757 41.7202 91.5386 41.4117Z" fill="#FACFC9"/>
<path d="M91.3957 38.9035C91.3957 38.9035 90.3869 39.5104 89.7766 39.2937C89.1663 39.0769 89.2335 38.4333 89.511 38.2616C89.7884 38.0898 89.8808 38.2616 89.8808 38.2616C89.8808 38.2616 90.2087 38.0181 90.2978 38.1849C90.2978 38.1849 91.2225 37.8364 91.3957 37.9164L91.5638 37.9981C91.5638 37.9981 91.3436 37.803 91.4478 37.7797C91.552 37.7563 91.6916 37.9164 91.6916 37.9164C91.6916 37.9164 92.085 37.8947 92.0497 37.9748C92.0144 38.0548 91.8698 38.0865 91.8698 38.0865C91.8698 38.0865 92.4162 38.3416 92.4818 39.167C92.5474 39.9923 92.4818 40.1541 92.4818 40.1541C92.4818 40.1541 92.4599 40.9361 92.1674 40.6876C91.8748 40.4392 92.1876 40.0724 92.1876 39.9923C92.1876 39.9123 92.3036 39.5455 92.1539 39.4087C92.0043 39.272 91.8698 39.5221 91.8698 39.5221C91.8698 39.5221 92.0026 39.8889 91.9455 39.924C91.8933 39.9368 91.8383 39.9296 91.7912 39.904C91.7442 39.8783 91.7086 39.8361 91.6916 39.7856C91.668 39.6722 91.6563 39.4304 91.6327 39.3854C91.6092 39.3404 91.4024 39.247 91.3789 39.1903C91.3712 39.0944 91.3769 38.9979 91.3957 38.9035Z" fill="#174859"/>
<path d="M90.4203 45.6686L92.2764 45.0883L90.232 44.5664L87.8496 45.0299L90.4203 45.6686Z" fill="#AAB9D8"/>
<path d="M92.6654 41.4908C92.6654 41.4908 92.3662 43.5817 92.2148 43.6084C92.0635 43.6351 90.3184 44.4021 90.3184 44.4421C90.3184 44.4821 90.3621 44.9006 91.011 44.7622C91.66 44.6238 92.847 44.1553 92.9361 44.0402C93.0252 43.9252 93.3934 42.1594 93.3295 41.7926C93.2656 41.4257 92.6974 41.2824 92.6654 41.4908Z" fill="#E03D5B"/>
<path d="M90.4149 44.4618C90.4149 44.4618 89.8315 44.4368 89.7323 44.6503C89.6331 44.8637 89.7777 45.0838 90.0686 45.0754C90.3594 45.0671 90.7512 44.807 90.7159 44.7153C90.648 44.599 90.5417 44.5094 90.4149 44.4618Z" fill="#FACFC9"/>
<path d="M87.4238 42.8164L90.2366 43.4267L90.4165 45.6727L87.8458 45.0341L87.4238 42.8164Z" fill="#E0EFF2"/>
<path d="M68.7964 53.9956L68.4417 54.3024C68.2055 54.3061 67.97 54.3278 67.7372 54.3674C67.5557 54.4191 67.216 54.6125 67.2682 54.6776C67.2682 54.6776 67.021 54.936 67.0849 54.9877C67.0849 54.9877 67.1252 55.1678 67.216 55.1678C67.2425 55.2071 67.2801 55.2378 67.324 55.2562C67.3679 55.2746 67.4163 55.2798 67.4632 55.2712C67.6021 55.1689 67.7644 55.1024 67.9356 55.0777C68.0434 55.0767 68.1511 55.0812 68.2584 55.0911C68.2584 55.0911 67.9592 55.1494 67.8684 55.2762C67.7776 55.4029 67.7759 55.4796 67.828 55.5046C67.8801 55.5296 68.1021 55.3495 68.2853 55.3495C68.4686 55.3495 68.7998 55.1294 68.7897 54.936C68.7796 54.7426 69.1915 54.4575 69.2941 54.3024C69.3967 54.1473 68.9864 53.8305 68.7964 53.9956Z" fill="#FACFC9"/>
<path d="M75.2607 52.7739C75.2607 52.7739 75.6575 54.1078 75.8827 54.1778C76.108 54.2478 76.7856 52.4687 76.7856 52.4687C76.7856 52.4687 76.9369 52.2403 77.4867 52.4687C78.0365 52.6971 76.3333 55.47 76.0828 55.47C75.8323 55.47 74.4772 54.8248 74.5797 54.3279C74.6823 53.831 74.9126 52.7772 75.2607 52.7739Z" fill="#E8A423"/>
<path d="M73.0969 63.6415C73.0969 63.6415 73.0196 64.16 73.1506 64.3501C73.2817 64.5402 73.4632 64.4402 73.5237 64.2467C73.5648 64.0033 73.5828 63.7565 73.5775 63.5098C73.5775 63.5098 73.2414 63.4097 73.0969 63.6415Z" fill="#FACFC9"/>
<path d="M73.6452 64.1055C73.7245 64.0736 73.8127 64.0706 73.894 64.0972C74.2019 64.2151 74.5156 64.3175 74.8339 64.404C75.0945 64.4557 75.5316 64.6524 75.5518 64.9042C75.572 65.156 73.889 65.0393 73.6334 65.0293C73.3779 65.0192 72.9828 65.0593 72.9609 64.8942C72.9475 64.7841 72.9609 64.429 72.9609 64.2106C72.9612 64.1901 72.9661 64.1701 72.9751 64.1517C72.9842 64.1334 72.9972 64.1173 73.0133 64.1045C73.0294 64.0918 73.0481 64.0827 73.0681 64.078C73.0881 64.0733 73.1089 64.073 73.1291 64.0772C73.2957 64.1309 73.4736 64.1407 73.6452 64.1055Z" fill="#5384C2"/>
<path d="M69.7615 63.5112C69.7615 63.5112 69.548 63.9914 69.6236 64.2082C69.6993 64.4249 69.9011 64.3749 70.0103 64.2082C70.1176 63.9844 70.2032 63.751 70.2659 63.5112C70.2659 63.5112 69.9717 63.3278 69.7615 63.5112Z" fill="#FACFC9"/>
<path d="M70.0399 64.043C70.1187 64.0088 70.2077 64.0058 70.2887 64.0347C70.5493 64.128 71.0419 64.3031 71.2285 64.3415C71.4891 64.3932 71.9263 64.5883 71.9464 64.8417C71.9666 65.0951 70.2837 64.9751 70.0281 64.9651C69.7725 64.9551 69.3774 64.9951 69.3556 64.83C69.3421 64.72 69.3556 64.3648 69.3556 64.1464C69.3561 64.1261 69.3612 64.1062 69.3703 64.0881C69.3795 64.07 69.3925 64.0541 69.4086 64.0415C69.4246 64.029 69.4432 64.02 69.4631 64.0154C69.483 64.0108 69.5037 64.0105 69.5237 64.0147C69.6904 64.068 69.8682 64.0777 70.0399 64.043Z" fill="#5384C2"/>
<path d="M70.8086 55.8204C70.8086 55.8204 70.9582 56.7708 71.3533 57.1293C71.3533 57.1293 73.6399 59.6304 73.7576 60.1056C73.8753 60.5808 73.0161 63.7406 73.0077 63.7739C72.9993 63.8073 73.6382 63.8423 73.7054 63.5438C73.7727 63.2453 74.8151 59.9989 74.7411 59.7605C74.6671 59.522 72.7858 56.7024 72.7858 56.7024C72.7858 56.7024 72.8799 55.787 72.6984 55.5236C72.5168 55.2601 70.8086 55.8204 70.8086 55.8204Z" fill="#E03D5B"/>
<path d="M72.7676 55.6094C72.7676 55.6094 70.8223 55.7178 70.8072 56.0112L71.209 60.9267L69.627 63.6146C69.7031 63.6992 69.8033 63.759 69.9143 63.786C70.0253 63.8131 70.142 63.8063 70.249 63.7663C70.6256 63.2811 72.1943 61.3469 72.3305 60.9684C72.4666 60.5899 72.1388 57.2434 72.1388 57.2434C72.1388 57.2434 72.7777 56.8616 72.7895 56.5365C72.8012 56.2113 72.7676 55.6094 72.7676 55.6094Z" fill="#FF5D7B"/>
<path d="M74.2807 51.8618C74.2807 51.8618 72.8667 51.4533 72.665 51.7668C72.4632 52.0802 71.0341 55.6602 71.246 56.0287C71.4578 56.3972 72.5506 57.0291 72.8213 56.8307C73.092 56.6323 75.1583 53.4759 75.2726 53.1824C75.387 52.8889 75.1163 52.3637 74.8574 52.2086L74.2807 51.8618Z" fill="#ABB5F3"/>
<path d="M73.1791 54.359C73.1791 54.359 72.4175 56.3999 72.014 56.7717C72.014 56.7717 71.1969 56.8601 70.6992 55.918C70.6992 55.918 71.5836 53.8721 71.6929 53.5753C71.8021 53.2785 72.4999 51.7411 72.4999 51.7411C72.4999 51.7411 72.6344 51.2309 74.282 51.8479L73.1791 54.359Z" fill="#F4B031"/>
<path d="M73.3688 54.8377C73.3688 54.8377 72.7971 56.7386 72.819 56.8386C72.8759 57.0111 72.9889 57.16 73.1401 57.2621C73.3419 57.4105 74.5759 54.3525 74.5759 54.3525C74.5759 54.3525 75.3913 53.3387 75.3359 53.1086C75.3007 52.9049 75.29 52.6978 75.3039 52.4917C75.3039 52.4917 74.8954 52.415 74.5641 52.9919C74.2329 53.5688 73.3688 54.8377 73.3688 54.8377Z" fill="#F4B031"/>
<path d="M74.9276 52.4469L75.0957 52.0584C75.0957 52.0584 75.9363 52.3602 76.2306 51.785C76.3937 51.4953 76.4966 51.1761 76.5332 50.8462C76.5332 50.8462 76.8341 49.574 75.9145 49.1471C74.9948 48.7203 74.2803 49.3506 74.0499 50.0075C73.8196 50.6645 74.0499 51.4482 74.2181 51.5582C74.3862 51.6683 74.0701 52.1018 74.0701 52.1018C74.0701 52.1018 74.4753 52.7671 74.9276 52.4469Z" fill="#FACFC9"/>
<path d="M75.0782 49.8514C75.0782 49.8514 76.134 50.4833 76.7594 50.2565C77.3849 50.0298 77.3244 49.3645 77.0352 49.1861C76.746 49.0076 76.6518 49.1861 76.6518 49.1861C76.6518 49.1861 76.3156 48.9343 76.2198 49.106C76.2198 49.106 75.2597 48.7459 75.0798 48.8292L74.8999 48.9109C74.8999 48.9109 75.1269 48.7092 75.0193 48.6858C74.9117 48.6625 74.7671 48.8292 74.7671 48.8292C74.7671 48.8292 74.3586 48.8042 74.3956 48.8876C74.4326 48.971 74.5822 49.0043 74.5822 49.0043C74.5822 49.0043 74.0156 49.2694 73.9467 50.1265C73.8777 50.9835 73.9467 51.1486 73.9467 51.1486C73.9467 51.1486 73.9702 51.9623 74.2728 51.7038C74.5755 51.4454 74.251 51.0652 74.251 50.9835C74.251 50.9018 74.1316 50.5183 74.288 50.3749C74.4443 50.2315 74.5822 50.495 74.5822 50.495C74.5822 50.495 74.4426 50.8751 74.5032 50.9118C74.5573 50.9248 74.6143 50.9173 74.6631 50.8908C74.7119 50.8642 74.749 50.8206 74.7671 50.7684C74.7907 50.65 74.8041 50.3999 74.8277 50.3516C74.8512 50.3032 75.0681 50.2098 75.0916 50.1498C75.1004 50.0502 75.0959 49.9498 75.0782 49.8514Z" fill="#174859"/>
<path d="M74.3732 51.7005C74.3732 51.7005 73.7007 51.6622 73.6789 51.7172C73.657 51.7722 73.847 52.1207 73.847 52.1207C73.847 52.1207 73.0652 53.2095 73.1072 53.7648C73.1385 54.0518 73.1385 54.3414 73.1072 54.6285C73.1072 54.6285 74.427 51.9023 74.3732 51.7005Z" fill="#E8A423"/>
<path d="M75.0154 52.0977C75.0154 52.0977 75.4391 52.6112 75.4088 52.6646C75.3785 52.7179 74.9801 52.7646 74.9801 52.7646C74.9801 52.7646 74.5497 54.0302 74.0722 54.3236C73.8209 54.4693 73.5859 54.6409 73.3711 54.8355C73.3711 54.8355 74.8204 52.1727 75.0154 52.0977Z" fill="#E8A423"/>
<path d="M72.6588 51.6537C72.6588 51.6537 70.463 52.1172 70.2562 52.274C70.0494 52.4307 68.4707 53.9414 68.4707 53.9414C68.4707 53.9414 68.659 54.655 69.2037 54.53C69.7485 54.4049 70.347 53.2144 70.5656 53.2144C70.7842 53.2144 72.5831 52.6925 72.8488 52.5991C73.1144 52.5057 73.0287 51.5703 72.6588 51.6537Z" fill="#F4C43E"/>
<path d="M77.0003 52.746L77.0928 52.4125C77.0928 52.4125 76.8691 52.1908 76.8691 52.1091C76.8691 52.0274 76.9818 51.5972 77.0928 51.5972C77.2037 51.5972 77.7182 51.307 77.8157 51.5288C77.9132 51.7506 77.8157 51.7489 77.8157 51.7489C77.8157 51.7489 77.9838 51.9573 77.8594 52.1091C77.854 52.2123 77.8348 52.3143 77.8023 52.4125C77.7602 52.4959 77.5097 52.5509 77.5097 52.5509L77.4223 52.8377C77.4223 52.8377 77.0776 53.1045 77.0003 52.746Z" fill="#FACFC9"/>
<path d="M77.3888 51.7513C77.3745 51.7513 77.3604 51.7484 77.3473 51.743C77.3341 51.7375 77.3222 51.7295 77.3122 51.7194C77.3022 51.7093 77.2943 51.6974 77.289 51.6842C77.2837 51.6711 77.281 51.657 77.2813 51.6429V50.7825C77.2813 50.7542 77.2926 50.727 77.3128 50.707C77.3329 50.687 77.3603 50.6758 77.3888 50.6758C77.4173 50.6758 77.4447 50.687 77.4649 50.707C77.485 50.727 77.4964 50.7542 77.4964 50.7825V51.6445C77.4959 51.6727 77.4845 51.6996 77.4644 51.7195C77.4443 51.7395 77.4172 51.7508 77.3888 51.7513Z" fill="#174859"/>
<path d="M77.3928 51.3073C77.7122 51.3073 77.9712 51.0505 77.9712 50.7337C77.9712 50.417 77.7122 50.1602 77.3928 50.1602C77.0734 50.1602 76.8145 50.417 76.8145 50.7337C76.8145 51.0505 77.0734 51.3073 77.3928 51.3073Z" fill="#174859"/>
<path d="M77.3869 51.1424C77.6126 51.1424 77.7955 50.961 77.7955 50.7372C77.7955 50.5134 77.6126 50.332 77.3869 50.332C77.1613 50.332 76.9784 50.5134 76.9784 50.7372C76.9784 50.961 77.1613 51.1424 77.3869 51.1424Z" fill="#C6E6FD"/>
<path d="M115.956 52.9763C115.956 52.9763 116.338 54.477 116.723 54.7137C117.108 54.9505 118.435 54.0851 118.435 54.0851C118.435 54.0851 118.498 53.6283 118.621 53.5682C118.744 53.5082 118.942 53.69 118.942 53.69C118.942 53.69 119.632 53.1731 119.815 53.158C119.998 53.143 119.455 53.6583 119.455 53.6583C119.455 53.6583 119.479 54.1585 119.287 54.2835C119.086 54.3882 118.869 54.4592 118.645 54.4936C118.645 54.4936 117.51 55.6608 116.699 55.6091C115.889 55.5575 114.816 53.5982 114.816 53.5982C114.816 53.5982 115.375 52.7629 115.956 52.9763Z" fill="#E0A880"/>
<path d="M117.895 61.5472L118.135 62.0691L118.799 61.9024L118.256 61.1554C118.256 61.1554 117.654 61.0237 117.895 61.5472Z" fill="#F8C29C"/>
<path d="M114.475 56.0765C114.475 56.0765 116.457 56.5684 117.165 57.6105C117.873 58.6527 118.727 61.2622 118.727 61.2622L117.718 61.8007L115.973 58.6477L113.666 57.3738C113.666 57.3738 113.785 55.8564 114.475 56.0765Z" fill="#E8A423"/>
<path d="M118.334 53.9284L118.189 54.587L119.613 53.7016L119.728 53.0547L118.334 53.9284Z" fill="white"/>
<path d="M114.576 52.5962C114.576 52.5962 115.176 51.7758 115.677 52.1693C116.001 52.4541 116.235 52.8268 116.349 53.2415L115.132 54.1185C115.132 54.1185 114.426 53.9518 114.576 52.5962Z" fill="#E03D5B"/>
<path d="M115.371 51.4107C115.371 51.4107 115.707 51.3941 115.737 51.1573C115.767 50.9205 115.889 49.6466 117.223 49.8851C118.187 50.0518 118.194 50.9439 118.194 51.164C118.194 51.3841 117.857 52.2028 117.904 52.3895C117.951 52.5763 117.55 52.3895 117.55 52.3895C117.55 52.3895 117.143 52.9181 117.01 52.9548C116.877 52.9914 116.203 52.5212 116.181 52.2878C116.146 51.8909 115.759 52.4879 115.581 52.4312C115.403 52.3745 115.093 51.7709 115.371 51.4107Z" fill="#F8C29C"/>
<path d="M115.367 51.418C115.367 51.418 112.941 51.5497 112.473 53.8907C112.006 56.2318 112.473 57.6507 112.473 57.6507C112.473 57.6507 113.896 57.7425 114.563 57.5324C115.231 57.3223 114.155 55.6582 115.421 54.4677C116.433 53.5172 115.367 51.418 115.367 51.418Z" fill="#FF5D7B"/>
<path d="M115.622 53.4373C115.622 53.4373 116.004 54.938 116.389 55.1747C116.774 55.4115 118.101 54.5461 118.101 54.5461C118.101 54.5461 118.164 54.0893 118.287 54.0292C118.41 53.9692 118.608 54.1509 118.608 54.1509C118.608 54.1509 119.298 53.6341 119.481 53.619C119.664 53.604 119.121 54.1193 119.121 54.1193C119.121 54.1193 119.143 54.6112 118.953 54.7445C118.752 54.849 118.535 54.9194 118.311 54.953C118.311 54.953 117.176 56.1202 116.365 56.0701C115.555 56.0201 114.482 54.0576 114.482 54.0576C114.482 54.0576 115.041 53.2239 115.622 53.4373Z" fill="#F8C29C"/>
<path d="M113.959 52.8399C113.959 52.8399 114.559 52.0178 115.059 52.4113C115.384 52.6959 115.617 53.0686 115.731 53.4835L114.514 54.3605C114.514 54.3605 113.806 54.1955 113.959 52.8399Z" fill="#E03D5B"/>
<path d="M116.822 62.0222L117.064 62.5458L117.727 62.379L117.185 61.632C117.185 61.632 116.582 61.5003 116.822 62.0222Z" fill="#F8C29C"/>
<path d="M113.405 56.5715C113.405 56.5715 115.389 57.0633 116.095 58.1055C116.801 59.1476 117.657 61.7571 117.657 61.7571L116.648 62.2957L114.901 59.1426L112.595 57.8687C112.595 57.8687 112.326 57.5352 112.4 57.2467C112.507 56.8399 113.005 56.4431 113.405 56.5715Z" fill="#F4C43E"/>
<path d="M116.976 62.4537C117.235 62.4717 117.493 62.4217 117.726 62.3086C117.726 62.3086 118.918 63.0006 119.175 63.0989C119.433 63.1973 119.407 63.5108 119.175 63.5225C118.943 63.5341 117.075 63.3557 116.976 63.244C116.877 63.1323 116.833 62.5737 116.976 62.4537Z" fill="#164454"/>
<path d="M118.021 61.856C118.28 61.8741 118.539 61.8241 118.772 61.7109C118.772 61.7109 119.964 62.4046 120.221 62.5013C120.479 62.598 120.453 62.9131 120.221 62.9248C119.989 62.9365 118.121 62.7581 118.021 62.6464C117.92 62.5346 117.876 61.9761 118.021 61.856Z" fill="#164454"/>
<path d="M115.618 51.3321C115.618 51.3321 115.449 51.4672 115.554 50.9002C115.658 50.3333 116.14 49.6914 116.275 49.7031C116.275 49.7031 116.001 49.5747 116.15 49.5246C116.254 49.4982 116.365 49.5126 116.458 49.5647C116.458 49.5647 116.762 49.2829 116.826 49.4063C116.89 49.5296 116.724 49.6163 116.724 49.6163C116.86 49.5565 117.011 49.5386 117.158 49.5651C117.304 49.5915 117.44 49.6611 117.546 49.7647C117.788 49.9948 118.081 50.166 118.402 50.265C118.449 50.2571 118.497 50.2593 118.543 50.2713C118.589 50.2834 118.632 50.305 118.669 50.3348C118.706 50.3647 118.737 50.4019 118.758 50.4442C118.779 50.4865 118.791 50.5328 118.793 50.5801C118.827 50.9553 118.487 50.7985 118.487 50.7985C118.487 50.7985 118.992 51.0987 118.647 51.3488C118.303 51.5989 118.17 51.5055 117.901 51.4255C117.632 51.3455 117.564 51.1887 117.425 51.1637C117.286 51.1504 117.145 51.1504 117.006 51.1637C117.006 51.1637 116.83 51.6222 116.724 51.5989C116.618 51.5756 116.519 51.5522 116.581 51.4055C116.643 51.2587 116.781 51.0537 116.724 50.9553C116.667 50.8569 116.233 50.8686 116.199 51.2454C116.166 51.6222 115.823 51.794 115.725 51.7206C115.628 51.6473 115.618 51.3321 115.618 51.3321Z" fill="#164454"/>
<path d="M147.504 25.8H149.584V37H147.504V25.8ZM161.013 35.256V37H152.613V25.8H160.789V27.544H154.693V30.456H160.101V32.168H154.693V35.256H161.013ZM163.332 25.8H165.412V35.24H171.268V37H163.332V25.8ZM174.135 27.56H170.423V25.8H179.927V27.56H176.215V37H174.135V27.56ZM184.851 37.16C183.987 37.16 183.15 37.0373 182.339 36.792C181.539 36.5467 180.904 36.2213 180.435 35.816L181.155 34.2C181.614 34.5627 182.174 34.8613 182.835 35.096C183.507 35.32 184.179 35.432 184.851 35.432C185.683 35.432 186.302 35.2987 186.707 35.032C187.123 34.7653 187.331 34.4133 187.331 33.976C187.331 33.656 187.214 33.3947 186.979 33.192C186.755 32.9787 186.467 32.8133 186.115 32.696C185.763 32.5787 185.283 32.4453 184.675 32.296C183.822 32.0933 183.128 31.8907 182.595 31.688C182.072 31.4853 181.619 31.1707 181.235 30.744C180.862 30.3067 180.675 29.72 180.675 28.984C180.675 28.3653 180.84 27.8053 181.171 27.304C181.512 26.792 182.019 26.3867 182.691 26.088C183.374 25.7893 184.206 25.64 185.187 25.64C185.87 25.64 186.542 25.7253 187.203 25.896C187.864 26.0667 188.435 26.312 188.915 26.632L188.259 28.248C187.768 27.96 187.256 27.7413 186.723 27.592C186.19 27.4427 185.672 27.368 185.171 27.368C184.35 27.368 183.736 27.5067 183.331 27.784C182.936 28.0613 182.739 28.4293 182.739 28.888C182.739 29.208 182.851 29.4693 183.075 29.672C183.31 29.8747 183.603 30.0347 183.955 30.152C184.307 30.2693 184.787 30.4027 185.395 30.552C186.227 30.744 186.91 30.9467 187.443 31.16C187.976 31.3627 188.43 31.6773 188.803 32.104C189.187 32.5307 189.379 33.1067 189.379 33.832C189.379 34.4507 189.208 35.0107 188.867 35.512C188.536 36.0133 188.03 36.4133 187.347 36.712C186.664 37.0107 185.832 37.16 184.851 37.16ZM194.738 23.528H196.53L191.25 38.6H189.457L194.738 23.528ZM200.135 27.56H196.423V25.8H205.927V27.56H202.215V37H200.135V27.56ZM212.564 37.16C211.423 37.16 210.393 36.9147 209.476 36.424C208.559 35.9227 207.839 35.2347 207.316 34.36C206.793 33.4747 206.532 32.488 206.532 31.4C206.532 30.312 206.793 29.3307 207.316 28.456C207.839 27.5707 208.559 26.8827 209.476 26.392C210.393 25.8907 211.423 25.64 212.564 25.64C213.705 25.64 214.735 25.8907 215.652 26.392C216.569 26.8827 217.289 27.5653 217.812 28.44C218.335 29.3147 218.596 30.3013 218.596 31.4C218.596 32.4987 218.335 33.4853 217.812 34.36C217.289 35.2347 216.569 35.9227 215.652 36.424C214.735 36.9147 213.705 37.16 212.564 37.16ZM212.564 35.336C213.311 35.336 213.983 35.1707 214.58 34.84C215.177 34.4987 215.647 34.0293 215.988 33.432C216.329 32.824 216.5 32.1467 216.5 31.4C216.5 30.6533 216.329 29.9813 215.988 29.384C215.647 28.776 215.177 28.3067 214.58 27.976C213.983 27.6347 213.311 27.464 212.564 27.464C211.817 27.464 211.145 27.6347 210.548 27.976C209.951 28.3067 209.481 28.776 209.14 29.384C208.799 29.9813 208.628 30.6533 208.628 31.4C208.628 32.1467 208.799 32.824 209.14 33.432C209.481 34.0293 209.951 34.4987 210.548 34.84C211.145 35.1707 211.817 35.336 212.564 35.336ZM229.201 35.256V37H220.801V25.8H228.977V27.544H222.881V30.456H228.289V32.168H222.881V35.256H229.201ZM233.6 27.544V30.952H239.008V32.712H233.6V37H231.52V25.8H239.696V27.544H233.6ZM241.707 25.8H243.787V35.24H249.643V37H241.707V25.8ZM254.894 23.528H256.686L251.406 38.6H249.614L254.894 23.528ZM262.143 25.8C263.114 25.8 263.957 25.96 264.671 26.28C265.397 26.6 265.951 27.0587 266.335 27.656C266.719 28.2533 266.911 28.9627 266.911 29.784C266.911 30.5947 266.719 31.304 266.335 31.912C265.951 32.5093 265.397 32.968 264.671 33.288C263.957 33.608 263.114 33.768 262.143 33.768H259.615V37H257.535V25.8H262.143ZM262.047 32.008C262.954 32.008 263.642 31.816 264.111 31.432C264.581 31.048 264.815 30.4987 264.815 29.784C264.815 29.0693 264.581 28.52 264.111 28.136C263.642 27.752 262.954 27.56 262.047 27.56H259.615V32.008H262.047ZM270.932 27.56H267.22V25.8H276.724V27.56H273.012V37H270.932V27.56ZM286.685 35.256V37H278.285V25.8H286.461V27.544H280.365V30.456H285.773V32.168H280.365V35.256H286.685ZM147.504 45.8H149.584V57H147.504V45.8ZM157.269 48.36C158.347 48.36 159.211 48.6747 159.861 49.304C160.512 49.9333 160.837 50.8667 160.837 52.104V57H158.837V52.36C158.837 51.6133 158.661 51.0533 158.309 50.68C157.957 50.296 157.456 50.104 156.805 50.104C156.069 50.104 155.488 50.328 155.061 50.776C154.635 51.2133 154.421 51.848 154.421 52.68V57H152.421V48.456H154.325V49.56C154.656 49.1653 155.072 48.8667 155.573 48.664C156.075 48.4613 156.64 48.36 157.269 48.36ZM166.015 57.112C165.321 57.112 164.644 57.0213 163.983 56.84C163.321 56.6587 162.793 56.4293 162.399 56.152L163.167 54.632C163.551 54.888 164.009 55.096 164.543 55.256C165.087 55.4053 165.62 55.48 166.143 55.48C167.337 55.48 167.935 55.1653 167.935 54.536C167.935 54.2373 167.78 54.0293 167.471 53.912C167.172 53.7947 166.687 53.6827 166.015 53.576C165.311 53.4693 164.735 53.3467 164.287 53.208C163.849 53.0693 163.465 52.8293 163.135 52.488C162.815 52.136 162.655 51.6507 162.655 51.032C162.655 50.2213 162.991 49.576 163.663 49.096C164.345 48.6053 165.263 48.36 166.415 48.36C167.001 48.36 167.588 48.4293 168.175 48.568C168.761 48.696 169.241 48.872 169.615 49.096L168.847 50.616C168.121 50.1893 167.305 49.976 166.399 49.976C165.812 49.976 165.364 50.0667 165.055 50.248C164.756 50.4187 164.607 50.648 164.607 50.936C164.607 51.256 164.767 51.4853 165.087 51.624C165.417 51.752 165.924 51.8747 166.607 51.992C167.289 52.0987 167.849 52.2213 168.287 52.36C168.724 52.4987 169.097 52.7333 169.407 53.064C169.727 53.3947 169.887 53.864 169.887 54.472C169.887 55.272 169.54 55.912 168.847 56.392C168.153 56.872 167.209 57.112 166.015 57.112ZM176.745 56.536C176.51 56.728 176.222 56.872 175.881 56.968C175.55 57.064 175.198 57.112 174.825 57.112C173.886 57.112 173.161 56.8667 172.649 56.376C172.137 55.8853 171.881 55.1707 171.881 54.232V50.12H170.473V48.52H171.881V46.568H173.881V48.52H176.169V50.12H173.881V54.184C173.881 54.6 173.982 54.92 174.185 55.144C174.388 55.3573 174.681 55.464 175.065 55.464C175.513 55.464 175.886 55.3467 176.185 55.112L176.745 56.536ZM178.39 48.456H180.39V57H178.39V48.456ZM179.398 47.048C179.035 47.048 178.731 46.936 178.486 46.712C178.241 46.4773 178.118 46.1893 178.118 45.848C178.118 45.5067 178.241 45.224 178.486 45C178.731 44.7653 179.035 44.648 179.398 44.648C179.761 44.648 180.065 44.76 180.31 44.984C180.555 45.1973 180.678 45.4693 180.678 45.8C180.678 46.152 180.555 46.4507 180.31 46.696C180.075 46.9307 179.771 47.048 179.398 47.048ZM188.151 56.536C187.916 56.728 187.628 56.872 187.287 56.968C186.956 57.064 186.604 57.112 186.231 57.112C185.292 57.112 184.567 56.8667 184.055 56.376C183.543 55.8853 183.287 55.1707 183.287 54.232V50.12H181.879V48.52H183.287V46.568H185.287V48.52H187.575V50.12H185.287V54.184C185.287 54.6 185.388 54.92 185.591 55.144C185.794 55.3573 186.087 55.464 186.471 55.464C186.919 55.464 187.292 55.3467 187.591 55.112L188.151 56.536ZM198.068 48.456V57H196.164V55.912C195.844 56.296 195.444 56.5947 194.964 56.808C194.484 57.0107 193.967 57.112 193.412 57.112C192.271 57.112 191.37 56.7973 190.708 56.168C190.058 55.528 189.732 54.584 189.732 53.336V48.456H191.732V53.064C191.732 53.832 191.903 54.408 192.244 54.792C192.596 55.1653 193.092 55.352 193.732 55.352C194.447 55.352 195.012 55.1333 195.428 54.696C195.855 54.248 196.068 53.608 196.068 52.776V48.456H198.068ZM205.823 56.536C205.588 56.728 205.3 56.872 204.959 56.968C204.628 57.064 204.276 57.112 203.903 57.112C202.964 57.112 202.239 56.8667 201.727 56.376C201.215 55.8853 200.959 55.1707 200.959 54.232V50.12H199.551V48.52H200.959V46.568H202.959V48.52H205.247V50.12H202.959V54.184C202.959 54.6 203.06 54.92 203.263 55.144C203.466 55.3573 203.759 55.464 204.143 55.464C204.591 55.464 204.964 55.3467 205.263 55.112L205.823 56.536ZM215.219 52.776C215.219 52.9147 215.208 53.112 215.187 53.368H208.483C208.6 53.9973 208.904 54.4987 209.395 54.872C209.896 55.2347 210.515 55.416 211.251 55.416C212.19 55.416 212.963 55.1067 213.571 54.488L214.643 55.72C214.259 56.1787 213.774 56.5253 213.187 56.76C212.6 56.9947 211.939 57.112 211.203 57.112C210.264 57.112 209.438 56.9253 208.723 56.552C208.008 56.1787 207.454 55.6613 207.059 55C206.675 54.328 206.483 53.5707 206.483 52.728C206.483 51.896 206.67 51.1493 207.043 50.488C207.427 49.816 207.955 49.2933 208.627 48.92C209.299 48.5467 210.056 48.36 210.899 48.36C211.731 48.36 212.472 48.5467 213.123 48.92C213.784 49.2827 214.296 49.8 214.659 50.472C215.032 51.1333 215.219 51.9013 215.219 52.776ZM210.899 49.96C210.259 49.96 209.715 50.152 209.267 50.536C208.83 50.9093 208.563 51.4107 208.467 52.04H213.315C213.23 51.4213 212.968 50.92 212.531 50.536C212.094 50.152 211.55 49.96 210.899 49.96Z" fill="white"/>
<defs>
<linearGradient id="paint0_linear_1_1605" x1="26.6749" y1="-12.9912" x2="37.2768" y2="132.014" gradientUnits="userSpaceOnUse">
<stop stop-color="#7C16FF"/>
<stop offset="1" stop-color="#D32F95"/>
</linearGradient>
<linearGradient id="paint1_linear_1_1605" x1="26.6749" y1="-12.9912" x2="37.2768" y2="132.014" gradientUnits="userSpaceOnUse">
<stop stop-color="#7C16FF"/>
<stop offset="1" stop-color="#D32F95"/>
</linearGradient>
<linearGradient id="paint2_linear_1_1605" x1="81.3352" y1="33.4685" x2="-83.7901" y2="100.894" gradientUnits="userSpaceOnUse">
<stop stop-color="#4F16FF"/>
<stop offset="1" stop-color="#D32F95"/>
</linearGradient>
<linearGradient id="paint3_linear_1_1605" x1="320.955" y1="-42.3039" x2="244.559" y2="145.855" gradientUnits="userSpaceOnUse">
<stop stop-color="#4F16FF"/>
<stop offset="1" stop-color="#D32F95"/>
</linearGradient>
<linearGradient id="paint4_linear_1_1605" x1="122.205" y1="28.6619" x2="126.857" y2="29.4563" gradientUnits="userSpaceOnUse">
<stop offset="0.19" stop-color="#47A2E9"/>
<stop offset="0.66" stop-color="#8ABCF7"/>
</linearGradient>
<linearGradient id="paint5_linear_1_1605" x1="123.903" y1="39.9706" x2="123.904" y2="31.3016" gradientUnits="userSpaceOnUse">
<stop offset="0.24" stop-color="#49687E"/>
<stop offset="1" stop-color="#DFF1FD"/>
</linearGradient>
<linearGradient id="paint6_linear_1_1605" x1="122.339" y1="36.0845" x2="122.364" y2="28.8948" gradientUnits="userSpaceOnUse">
<stop offset="0.24" stop-color="#49687E"/>
<stop offset="1" stop-color="#DFF1FD"/>
</linearGradient>
<linearGradient id="paint7_linear_1_1605" x1="116.97" y1="42.3819" x2="125.677" y2="42.3819" gradientUnits="userSpaceOnUse">
<stop offset="0.19" stop-color="#47A2E9"/>
<stop offset="0.66" stop-color="#8ABCF7"/>
</linearGradient>
<linearGradient id="paint8_linear_1_1605" x1="123.615" y1="58.7501" x2="123.615" y2="43.3516" gradientUnits="userSpaceOnUse">
<stop offset="0.24" stop-color="#49687E"/>
<stop offset="1" stop-color="#DFF1FD"/>
</linearGradient>
<linearGradient id="paint9_linear_1_1605" x1="128.244" y1="57.707" x2="128.245" y2="42.9592" gradientUnits="userSpaceOnUse">
<stop offset="0.24" stop-color="#49687E"/>
<stop offset="1" stop-color="#DFF1FD"/>
</linearGradient>
<linearGradient id="paint10_linear_1_1605" x1="85.0536" y1="55.1494" x2="85.1031" y2="40.2119" gradientUnits="userSpaceOnUse">
<stop offset="0.24" stop-color="#49687E"/>
<stop offset="1" stop-color="#DFF1FD"/>
</linearGradient>
<linearGradient id="paint11_linear_1_1605" x1="73.614" y1="46.6146" x2="73.6443" y2="37.4153" gradientUnits="userSpaceOnUse">
<stop offset="0.24" stop-color="#49687E"/>
<stop offset="1" stop-color="#DFF1FD"/>
</linearGradient>
<linearGradient id="paint12_linear_1_1605" x1="74.6467" y1="43.6" x2="74.6486" y2="30.3601" gradientUnits="userSpaceOnUse">
<stop offset="0.24" stop-color="#49687E"/>
<stop offset="1" stop-color="#DFF1FD"/>
</linearGradient>
<linearGradient id="paint13_linear_1_1605" x1="73.9711" y1="41.2166" x2="85.0121" y2="41.2166" gradientUnits="userSpaceOnUse">
<stop offset="0.19" stop-color="#47A2E9"/>
<stop offset="0.66" stop-color="#8ABCF7"/>
</linearGradient>
<linearGradient id="paint14_linear_1_1605" x1="82.4149" y1="57.5866" x2="82.4126" y2="49.5268" gradientUnits="userSpaceOnUse">
<stop offset="0.24" stop-color="#49687E"/>
<stop offset="1" stop-color="#DFF1FD"/>
</linearGradient>
</defs>
</svg>
