<svg width="72" height="45" viewBox="0 0 72 45" fill="none" xmlns="http://www.w3.org/2000/svg">
<path d="M1.69602 42H0.298295L3.43892 33.2727H4.96023L8.10085 42H6.70312L4.2358 34.858H4.16761L1.69602 42ZM1.9304 38.5824H6.46449V39.6903H1.9304V38.5824ZM9.25888 44.4545V35.4545H10.5032V36.5156H10.6097C10.6836 36.3793 10.7901 36.2216 10.9293 36.0426C11.0685 35.8636 11.2617 35.7074 11.5089 35.5739C11.756 35.4375 12.0827 35.3693 12.489 35.3693C13.0174 35.3693 13.489 35.5028 13.9038 35.7699C14.3185 36.0369 14.6438 36.4219 14.8796 36.9247C15.1183 37.4276 15.2376 38.0327 15.2376 38.7401C15.2376 39.4474 15.1197 40.054 14.8839 40.5597C14.6481 41.0625 14.3242 41.4503 13.9123 41.723C13.5004 41.9929 13.0302 42.1278 12.5018 42.1278C12.104 42.1278 11.7788 42.0611 11.5259 41.9276C11.2759 41.794 11.0799 41.6378 10.9379 41.4588C10.7958 41.2798 10.6864 41.1207 10.6097 40.9815H10.533V44.4545H9.25888ZM10.5075 38.7273C10.5075 39.1875 10.5742 39.5909 10.7077 39.9375C10.8413 40.2841 11.0344 40.5554 11.2873 40.7514C11.5401 40.9446 11.8498 41.0412 12.2163 41.0412C12.5969 41.0412 12.9151 40.9403 13.1708 40.7386C13.4265 40.5341 13.6197 40.2571 13.7504 39.9077C13.8839 39.5582 13.9506 39.1648 13.9506 38.7273C13.9506 38.2955 13.8853 37.9077 13.7546 37.5639C13.6268 37.2202 13.4336 36.9489 13.1751 36.75C12.9194 36.5511 12.5998 36.4517 12.2163 36.4517C11.8469 36.4517 11.5344 36.5469 11.2788 36.7372C11.0259 36.9276 10.8342 37.1932 10.7035 37.5341C10.5728 37.875 10.5075 38.2727 10.5075 38.7273ZM16.6651 44.4545V35.4545H17.9094V36.5156H18.016C18.0898 36.3793 18.1964 36.2216 18.3356 36.0426C18.4748 35.8636 18.668 35.7074 18.9151 35.5739C19.1623 35.4375 19.489 35.3693 19.8952 35.3693C20.4237 35.3693 20.8952 35.5028 21.31 35.7699C21.7248 36.0369 22.0501 36.4219 22.2859 36.9247C22.5245 37.4276 22.6438 38.0327 22.6438 38.7401C22.6438 39.4474 22.5259 40.054 22.2901 40.5597C22.0543 41.0625 21.7305 41.4503 21.3185 41.723C20.9066 41.9929 20.4364 42.1278 19.908 42.1278C19.5103 42.1278 19.185 42.0611 18.9322 41.9276C18.6822 41.794 18.4862 41.6378 18.3441 41.4588C18.2021 41.2798 18.0927 41.1207 18.016 40.9815H17.9393V44.4545H16.6651ZM17.9137 38.7273C17.9137 39.1875 17.9805 39.5909 18.114 39.9375C18.2475 40.2841 18.4407 40.5554 18.6935 40.7514C18.9464 40.9446 19.256 41.0412 19.6225 41.0412C20.0032 41.0412 20.3214 40.9403 20.5771 40.7386C20.8327 40.5341 21.0259 40.2571 21.1566 39.9077C21.2901 39.5582 21.3569 39.1648 21.3569 38.7273C21.3569 38.2955 21.2915 37.9077 21.1609 37.5639C21.033 37.2202 20.8398 36.9489 20.5813 36.75C20.3256 36.5511 20.006 36.4517 19.6225 36.4517C19.2532 36.4517 18.9407 36.5469 18.685 36.7372C18.4322 36.9276 18.2404 37.1932 18.1097 37.5341C17.979 37.875 17.9137 38.2727 17.9137 38.7273ZM25.3455 33.2727V42H24.0714V33.2727H25.3455ZM27.0597 42V35.4545H28.3338V42H27.0597ZM27.7031 34.4446C27.4815 34.4446 27.2912 34.3707 27.1321 34.223C26.9759 34.0724 26.8977 33.8935 26.8977 33.6861C26.8977 33.4759 26.9759 33.2969 27.1321 33.1491C27.2912 32.9986 27.4815 32.9233 27.7031 32.9233C27.9247 32.9233 28.1136 32.9986 28.2699 33.1491C28.429 33.2969 28.5085 33.4759 28.5085 33.6861C28.5085 33.8935 28.429 34.0724 28.2699 34.223C28.1136 34.3707 27.9247 34.4446 27.7031 34.4446ZM32.805 42.1321C32.1715 42.1321 31.6261 41.9886 31.1687 41.7017C30.7141 41.4119 30.3647 41.0128 30.1204 40.5043C29.8761 39.9957 29.7539 39.4134 29.7539 38.7571C29.7539 38.0923 29.8789 37.5057 30.1289 36.9972C30.3789 36.4858 30.7312 36.0866 31.1857 35.7997C31.6403 35.5128 32.1758 35.3693 32.7923 35.3693C33.2894 35.3693 33.7326 35.4616 34.1218 35.6463C34.511 35.8281 34.8249 36.0838 35.0636 36.4134C35.305 36.7429 35.4485 37.1278 35.494 37.5682H34.2539C34.1857 37.2614 34.0295 36.9972 33.7852 36.7756C33.5437 36.554 33.2198 36.4432 32.8136 36.4432C32.4585 36.4432 32.1474 36.5369 31.8803 36.7244C31.6161 36.9091 31.4102 37.1733 31.2624 37.517C31.1147 37.858 31.0408 38.2614 31.0408 38.7273C31.0408 39.2045 31.1133 39.6165 31.2582 39.9631C31.4031 40.3097 31.6076 40.5781 31.8718 40.7685C32.1388 40.9588 32.4528 41.054 32.8136 41.054C33.055 41.054 33.2738 41.0099 33.4698 40.9219C33.6687 40.831 33.8349 40.7017 33.9684 40.5341C34.1048 40.3665 34.1999 40.1648 34.2539 39.929H35.494C35.4485 40.3523 35.3107 40.7301 35.0806 41.0625C34.8505 41.3949 34.5423 41.6562 34.1559 41.8466C33.7724 42.0369 33.3221 42.1321 32.805 42.1321ZM38.7614 42.1449C38.3466 42.1449 37.9716 42.0682 37.6364 41.9148C37.3011 41.7585 37.0355 41.5327 36.8395 41.2372C36.6463 40.9418 36.5497 40.5795 36.5497 40.1506C36.5497 39.7812 36.6207 39.4773 36.7628 39.2386C36.9048 39 37.0966 38.8111 37.3381 38.6719C37.5795 38.5327 37.8494 38.4276 38.1477 38.3565C38.446 38.2855 38.75 38.2315 39.0597 38.1946C39.4517 38.1491 39.7699 38.1122 40.0142 38.0838C40.2585 38.0526 40.4361 38.0028 40.5469 37.9347C40.6577 37.8665 40.7131 37.7557 40.7131 37.6023V37.5724C40.7131 37.2003 40.608 36.9119 40.3977 36.7074C40.1903 36.5028 39.8807 36.4006 39.4688 36.4006C39.0398 36.4006 38.7017 36.4957 38.4545 36.6861C38.2102 36.8736 38.0412 37.0824 37.9474 37.3125L36.75 37.0398C36.892 36.642 37.0994 36.321 37.3722 36.0767C37.6477 35.8295 37.9645 35.6506 38.3224 35.5398C38.6804 35.4261 39.0568 35.3693 39.4517 35.3693C39.7131 35.3693 39.9901 35.4006 40.2827 35.4631C40.5781 35.5227 40.8537 35.6335 41.1094 35.7955C41.3679 35.9574 41.5795 36.1889 41.7443 36.4901C41.9091 36.7884 41.9915 37.1761 41.9915 37.6534V42H40.7472V41.1051H40.696C40.6136 41.2699 40.4901 41.4318 40.3253 41.5909C40.1605 41.75 39.9489 41.8821 39.6903 41.9872C39.4318 42.0923 39.1222 42.1449 38.7614 42.1449ZM39.0384 41.1222C39.3906 41.1222 39.6918 41.0526 39.9418 40.9134C40.1946 40.7741 40.3864 40.5923 40.517 40.3679C40.6506 40.1406 40.7173 39.8977 40.7173 39.6392V38.7955C40.6719 38.8409 40.5838 38.8835 40.4531 38.9233C40.3253 38.9602 40.179 38.9929 40.0142 39.0213C39.8494 39.0469 39.6889 39.071 39.5327 39.0938C39.3764 39.1136 39.2457 39.1307 39.1406 39.1449C38.8935 39.1761 38.6676 39.2287 38.4631 39.3026C38.2614 39.3764 38.0994 39.483 37.9773 39.6222C37.858 39.7585 37.7983 39.9403 37.7983 40.1676C37.7983 40.483 37.9148 40.7216 38.1477 40.8835C38.3807 41.0426 38.6776 41.1222 39.0384 41.1222ZM46.744 35.4545V36.4773H43.1687V35.4545H46.744ZM44.1275 33.8864H45.4016V40.0781C45.4016 40.3253 45.4386 40.5114 45.5124 40.6364C45.5863 40.7585 45.6815 40.8423 45.7979 40.8878C45.9173 40.9304 46.0465 40.9517 46.1857 40.9517C46.288 40.9517 46.3775 40.9446 46.4542 40.9304C46.5309 40.9162 46.5906 40.9048 46.6332 40.8963L46.8633 41.9489C46.7894 41.9773 46.6843 42.0057 46.5479 42.0341C46.4116 42.0653 46.2411 42.0824 46.0366 42.0852C45.7013 42.0909 45.3888 42.0312 45.0991 41.9062C44.8093 41.7812 44.5749 41.5881 44.396 41.3267C44.217 41.0653 44.1275 40.7372 44.1275 40.3423V33.8864ZM48.1534 42V35.4545H49.4276V42H48.1534ZM48.7969 34.4446C48.5753 34.4446 48.3849 34.3707 48.2259 34.223C48.0696 34.0724 47.9915 33.8935 47.9915 33.6861C47.9915 33.4759 48.0696 33.2969 48.2259 33.1491C48.3849 32.9986 48.5753 32.9233 48.7969 32.9233C49.0185 32.9233 49.2074 32.9986 49.3636 33.1491C49.5227 33.2969 49.6023 33.4759 49.6023 33.6861C49.6023 33.8935 49.5227 34.0724 49.3636 34.223C49.2074 34.3707 49.0185 34.4446 48.7969 34.4446ZM53.8988 42.1321C53.2852 42.1321 52.7496 41.9915 52.2923 41.7102C51.8349 41.429 51.4798 41.0355 51.2269 40.5298C50.9741 40.0241 50.8477 39.4332 50.8477 38.7571C50.8477 38.0781 50.9741 37.4844 51.2269 36.9759C51.4798 36.4673 51.8349 36.0724 52.2923 35.7912C52.7496 35.5099 53.2852 35.3693 53.8988 35.3693C54.5124 35.3693 55.0479 35.5099 55.5053 35.7912C55.9627 36.0724 56.3178 36.4673 56.5707 36.9759C56.8235 37.4844 56.9499 38.0781 56.9499 38.7571C56.9499 39.4332 56.8235 40.0241 56.5707 40.5298C56.3178 41.0355 55.9627 41.429 55.5053 41.7102C55.0479 41.9915 54.5124 42.1321 53.8988 42.1321ZM53.9031 41.0625C54.3008 41.0625 54.6303 40.9574 54.8917 40.7472C55.1531 40.5369 55.3462 40.2571 55.4712 39.9077C55.5991 39.5582 55.663 39.1733 55.663 38.7528C55.663 38.3352 55.5991 37.9517 55.4712 37.6023C55.3462 37.25 55.1531 36.9673 54.8917 36.7543C54.6303 36.5412 54.3008 36.4347 53.9031 36.4347C53.5025 36.4347 53.1701 36.5412 52.9059 36.7543C52.6445 36.9673 52.4499 37.25 52.3221 37.6023C52.1971 37.9517 52.1346 38.3352 52.1346 38.7528C52.1346 39.1733 52.1971 39.5582 52.3221 39.9077C52.4499 40.2571 52.6445 40.5369 52.9059 40.7472C53.1701 40.9574 53.5025 41.0625 53.9031 41.0625ZM59.6463 38.1136V42H58.3722V35.4545H59.5952V36.5199H59.6761C59.8267 36.1733 60.0625 35.8949 60.3835 35.6847C60.7074 35.4744 61.1151 35.3693 61.6065 35.3693C62.0526 35.3693 62.4432 35.4631 62.7784 35.6506C63.1136 35.8352 63.3736 36.1108 63.5582 36.4773C63.7429 36.8437 63.8352 37.2969 63.8352 37.8366V42H62.5611V37.9901C62.5611 37.5156 62.4375 37.1449 62.1903 36.8778C61.9432 36.608 61.6037 36.473 61.1719 36.473C60.8764 36.473 60.6136 36.5369 60.3835 36.6648C60.1563 36.7926 59.9759 36.9801 59.8423 37.2273C59.7116 37.4716 59.6463 37.767 59.6463 38.1136ZM70.4489 37.0526L69.294 37.2571C69.2457 37.1094 69.169 36.9687 69.0639 36.8352C68.9616 36.7017 68.8224 36.5923 68.6463 36.5071C68.4702 36.4219 68.25 36.3793 67.9858 36.3793C67.625 36.3793 67.3239 36.4602 67.0824 36.6222C66.8409 36.7812 66.7202 36.9872 66.7202 37.2401C66.7202 37.4588 66.8011 37.6349 66.9631 37.7685C67.125 37.902 67.3864 38.0114 67.7472 38.0966L68.7869 38.3352C69.3892 38.4744 69.8381 38.6889 70.1335 38.9787C70.429 39.2685 70.5767 39.6449 70.5767 40.108C70.5767 40.5 70.4631 40.8494 70.2358 41.1562C70.0114 41.4602 69.6974 41.6989 69.294 41.8722C68.8935 42.0455 68.429 42.1321 67.9006 42.1321C67.1676 42.1321 66.5696 41.9759 66.1065 41.6634C65.6435 41.348 65.3594 40.9006 65.2543 40.321L66.4858 40.1335C66.5625 40.4545 66.7202 40.6974 66.9588 40.8622C67.1974 41.0241 67.5085 41.1051 67.892 41.1051C68.3097 41.1051 68.6435 41.0185 68.8935 40.8452C69.1435 40.669 69.2685 40.4545 69.2685 40.2017C69.2685 39.9972 69.1918 39.8253 69.0384 39.6861C68.8878 39.5469 68.6562 39.4418 68.3438 39.3707L67.2358 39.1278C66.625 38.9886 66.1733 38.767 65.8807 38.4631C65.5909 38.1591 65.446 37.7741 65.446 37.3082C65.446 36.9219 65.554 36.5838 65.7699 36.294C65.9858 36.0043 66.2841 35.7784 66.6648 35.6165C67.0455 35.4517 67.4815 35.3693 67.973 35.3693C68.6804 35.3693 69.2372 35.5227 69.6435 35.8295C70.0497 36.1335 70.3182 36.5412 70.4489 37.0526Z" fill="#979797"/>
<path d="M44.8899 25H28.0976C28.0762 24.9867 28.0531 24.9758 28.0288 24.9675C26.6965 24.6804 26 23.8838 26 22.6503V2.34218C26 0.928871 27.0213 0 28.5739 0H38.9217V0.292145C38.9217 1.86193 38.9217 3.43254 38.9217 5.00399C38.9217 6.39482 39.9541 7.3237 41.4929 7.3237H46.9985V13.374C46.9985 16.4902 46.9985 19.6065 46.9985 22.7227C47.0165 23.1901 46.8698 23.6505 46.5797 24.0371C46.2896 24.4237 45.8713 24.7163 45.3854 24.8727C45.2175 24.9226 45.0523 24.9576 44.8899 25ZM36.4883 11.7659H41.2479C41.4166 11.781 41.5864 11.7485 41.7342 11.673C41.8819 11.5976 42.0005 11.4826 42.0737 11.3439C42.1344 11.2299 42.1612 11.1035 42.1514 10.9772C42.1416 10.8509 42.0957 10.7292 42.0181 10.624C41.9405 10.5188 41.8339 10.4338 41.709 10.3774C41.584 10.321 41.445 10.2953 41.3057 10.3026C39.8164 10.3026 38.3299 10.3026 36.8406 10.3026H31.7176C31.5557 10.2927 31.3942 10.3262 31.2532 10.3991C31.1122 10.4719 30.998 10.5808 30.9248 10.7121C30.8612 10.8273 30.8324 10.9556 30.8413 11.0841C30.8501 11.2126 30.8963 11.3367 30.9752 11.4437C31.0541 11.5508 31.1628 11.637 31.2903 11.6936C31.4178 11.7501 31.5595 11.7751 31.7011 11.7659C33.2977 11.7709 34.8916 11.7684 36.4883 11.7684V11.7659ZM41.2479 14.6949C41.4143 14.7066 41.5807 14.6723 41.7251 14.5965C41.8696 14.5207 41.9854 14.407 42.0572 14.2704C42.118 14.1562 42.1448 14.0295 42.1349 13.903C42.1251 13.7765 42.0789 13.6546 42.0009 13.5493C41.923 13.444 41.816 13.3591 41.6907 13.3029C41.5653 13.2467 41.426 13.2213 41.2864 13.2291C39.5934 13.2291 37.8977 13.2291 36.2047 13.2291H31.7149C31.5531 13.2199 31.392 13.2541 31.2515 13.3273C31.111 13.4006 30.9974 13.5097 30.9248 13.6411C30.8611 13.7564 30.8322 13.885 30.8412 14.0138C30.8502 14.1425 30.8966 14.2668 30.9758 14.3739C31.055 14.481 31.1642 14.5672 31.2921 14.6236C31.42 14.68 31.5621 14.7046 31.7039 14.6949H41.2479ZM36.5158 16.1606C34.9191 16.1606 33.3225 16.1606 31.7286 16.1606C31.5571 16.1474 31.3852 16.1831 31.2372 16.2628C31.0891 16.3425 30.9722 16.4621 30.9028 16.6051C30.8469 16.7213 30.8253 16.8488 30.8401 16.9749C30.8549 17.101 30.9056 17.2215 30.9872 17.3245C31.0688 17.4275 31.1786 17.5095 31.3057 17.5624C31.4327 17.6153 31.5728 17.6373 31.7121 17.6263H41.2672C41.4293 17.6361 41.5911 17.6021 41.7321 17.5288C41.8731 17.4556 41.9872 17.3461 42.06 17.2143C42.1235 17.0992 42.1523 16.9709 42.1435 16.8424C42.1346 16.7139 42.0884 16.5898 42.0096 16.4827C41.9307 16.3757 41.822 16.2895 41.6945 16.2329C41.567 16.1763 41.4252 16.1514 41.2837 16.1606H36.5158ZM34.8641 19.0896C33.8153 19.0896 32.7664 19.0896 31.7176 19.0896C31.5316 19.0913 31.349 19.135 31.1863 19.2169C31.0434 19.2961 30.9335 19.416 30.8737 19.5578C30.8139 19.6997 30.8077 19.8556 30.856 20.001C30.9024 20.1647 31.0102 20.3086 31.1609 20.4079C31.3117 20.5073 31.4959 20.5559 31.6818 20.5453H37.972C38.5364 20.5453 38.908 20.2482 38.9025 19.7962C38.897 19.3443 38.5391 19.0946 37.9638 19.0946L34.8641 19.0896Z" fill="#979797"/>
<path d="M46.4259 5.86046H41.4709C40.8239 5.86046 40.5156 5.58079 40.5156 4.99649C40.5156 3.56488 40.5156 2.13409 40.5156 0.704142V0.514382L46.4259 5.86046Z" fill="#979797"/>
</svg>
