<svg width="34" height="45" viewBox="0 0 34 45" fill="none" xmlns="http://www.w3.org/2000/svg">
<path d="M0.958807 42V33.2727H2.27557V37.0653H6.62642V33.2727H7.94744V42H6.62642V38.1946H2.27557V42H0.958807ZM12.5199 42.1321C11.9063 42.1321 11.3707 41.9915 10.9134 41.7102C10.456 41.429 10.1009 41.0355 9.84801 40.5298C9.59517 40.0241 9.46875 39.4332 9.46875 38.7571C9.46875 38.0781 9.59517 37.4844 9.84801 36.9759C10.1009 36.4673 10.456 36.0724 10.9134 35.7912C11.3707 35.5099 11.9063 35.3693 12.5199 35.3693C13.1335 35.3693 13.669 35.5099 14.1264 35.7912C14.5838 36.0724 14.9389 36.4673 15.1918 36.9759C15.4446 37.4844 15.571 38.0781 15.571 38.7571C15.571 39.4332 15.4446 40.0241 15.1918 40.5298C14.9389 41.0355 14.5838 41.429 14.1264 41.7102C13.669 41.9915 13.1335 42.1321 12.5199 42.1321ZM12.5241 41.0625C12.9219 41.0625 13.2514 40.9574 13.5128 40.7472C13.7741 40.5369 13.9673 40.2571 14.0923 39.9077C14.2202 39.5582 14.2841 39.1733 14.2841 38.7528C14.2841 38.3352 14.2202 37.9517 14.0923 37.6023C13.9673 37.25 13.7741 36.9673 13.5128 36.7543C13.2514 36.5412 12.9219 36.4347 12.5241 36.4347C12.1236 36.4347 11.7912 36.5412 11.527 36.7543C11.2656 36.9673 11.071 37.25 10.9432 37.6023C10.8182 37.9517 10.7557 38.3352 10.7557 38.7528C10.7557 39.1733 10.8182 39.5582 10.9432 39.9077C11.071 40.2571 11.2656 40.5369 11.527 40.7472C11.7912 40.9574 12.1236 41.0625 12.5241 41.0625ZM16.9933 42V35.4545H18.2163V36.5199H18.2972C18.4336 36.1591 18.6566 35.8778 18.9663 35.6761C19.2759 35.4716 19.6467 35.3693 20.0785 35.3693C20.516 35.3693 20.8825 35.4716 21.1779 35.6761C21.4762 35.8807 21.6964 36.1619 21.8384 36.5199H21.9066C22.0629 36.1705 22.3114 35.892 22.6523 35.6847C22.9933 35.4744 23.3995 35.3693 23.8711 35.3693C24.4648 35.3693 24.9492 35.5554 25.3242 35.9276C25.7021 36.2997 25.891 36.8608 25.891 37.6108V42H24.6168V37.7301C24.6168 37.2869 24.4961 36.9659 24.2546 36.767C24.0131 36.5682 23.7248 36.4688 23.3896 36.4688C22.9748 36.4688 22.6523 36.5966 22.4222 36.8523C22.1921 37.1051 22.0771 37.4304 22.0771 37.8281V42H20.8072V37.6491C20.8072 37.294 20.6964 37.0085 20.4748 36.7926C20.2532 36.5767 19.9648 36.4688 19.6097 36.4688C19.3683 36.4688 19.1452 36.5327 18.9407 36.6605C18.739 36.7855 18.5756 36.9602 18.4506 37.1847C18.3285 37.4091 18.2674 37.669 18.2674 37.9645V42H16.9933ZM30.4197 42.1321C29.7749 42.1321 29.2195 41.9943 28.7536 41.7188C28.2905 41.4403 27.9325 41.0497 27.6797 40.5469C27.4297 40.0412 27.3047 39.4489 27.3047 38.7699C27.3047 38.0994 27.4297 37.5085 27.6797 36.9972C27.9325 36.4858 28.2848 36.0866 28.7365 35.7997C29.1911 35.5128 29.7223 35.3693 30.3303 35.3693C30.6996 35.3693 31.0575 35.4304 31.4041 35.5526C31.7507 35.6747 32.0618 35.8665 32.3374 36.1278C32.6129 36.3892 32.8303 36.7287 32.9893 37.1463C33.1484 37.5611 33.228 38.0653 33.228 38.6591V39.1108H28.0249V38.1562H31.9794C31.9794 37.821 31.9112 37.5241 31.7749 37.2656C31.6385 37.0043 31.4467 36.7983 31.1996 36.6477C30.9553 36.4972 30.6683 36.4219 30.3388 36.4219C29.9808 36.4219 29.6683 36.5099 29.4013 36.6861C29.1371 36.8594 28.9325 37.0866 28.7876 37.3679C28.6456 37.6463 28.5746 37.9489 28.5746 38.2756V39.0213C28.5746 39.4588 28.6513 39.831 28.8047 40.1378C28.9609 40.4446 29.1783 40.679 29.4567 40.8409C29.7351 41 30.0604 41.0795 30.4325 41.0795C30.674 41.0795 30.8942 41.0455 31.093 40.9773C31.2919 40.9062 31.4638 40.8011 31.6087 40.6619C31.7536 40.5227 31.8643 40.3509 31.9411 40.1463L33.147 40.3636C33.0504 40.7187 32.8771 41.0298 32.6271 41.2969C32.38 41.5611 32.0689 41.767 31.6939 41.9148C31.3217 42.0597 30.897 42.1321 30.4197 42.1321Z" fill="white"/>
<path d="M0.958807 42V33.2727H2.27557V37.0653H6.62642V33.2727H7.94744V42H6.62642V38.1946H2.27557V42H0.958807ZM12.5199 42.1321C11.9063 42.1321 11.3707 41.9915 10.9134 41.7102C10.456 41.429 10.1009 41.0355 9.84801 40.5298C9.59517 40.0241 9.46875 39.4332 9.46875 38.7571C9.46875 38.0781 9.59517 37.4844 9.84801 36.9759C10.1009 36.4673 10.456 36.0724 10.9134 35.7912C11.3707 35.5099 11.9063 35.3693 12.5199 35.3693C13.1335 35.3693 13.669 35.5099 14.1264 35.7912C14.5838 36.0724 14.9389 36.4673 15.1918 36.9759C15.4446 37.4844 15.571 38.0781 15.571 38.7571C15.571 39.4332 15.4446 40.0241 15.1918 40.5298C14.9389 41.0355 14.5838 41.429 14.1264 41.7102C13.669 41.9915 13.1335 42.1321 12.5199 42.1321ZM12.5241 41.0625C12.9219 41.0625 13.2514 40.9574 13.5128 40.7472C13.7741 40.5369 13.9673 40.2571 14.0923 39.9077C14.2202 39.5582 14.2841 39.1733 14.2841 38.7528C14.2841 38.3352 14.2202 37.9517 14.0923 37.6023C13.9673 37.25 13.7741 36.9673 13.5128 36.7543C13.2514 36.5412 12.9219 36.4347 12.5241 36.4347C12.1236 36.4347 11.7912 36.5412 11.527 36.7543C11.2656 36.9673 11.071 37.25 10.9432 37.6023C10.8182 37.9517 10.7557 38.3352 10.7557 38.7528C10.7557 39.1733 10.8182 39.5582 10.9432 39.9077C11.071 40.2571 11.2656 40.5369 11.527 40.7472C11.7912 40.9574 12.1236 41.0625 12.5241 41.0625ZM16.9933 42V35.4545H18.2163V36.5199H18.2972C18.4336 36.1591 18.6566 35.8778 18.9663 35.6761C19.2759 35.4716 19.6467 35.3693 20.0785 35.3693C20.516 35.3693 20.8825 35.4716 21.1779 35.6761C21.4762 35.8807 21.6964 36.1619 21.8384 36.5199H21.9066C22.0629 36.1705 22.3114 35.892 22.6523 35.6847C22.9933 35.4744 23.3995 35.3693 23.8711 35.3693C24.4648 35.3693 24.9492 35.5554 25.3242 35.9276C25.7021 36.2997 25.891 36.8608 25.891 37.6108V42H24.6168V37.7301C24.6168 37.2869 24.4961 36.9659 24.2546 36.767C24.0131 36.5682 23.7248 36.4688 23.3896 36.4688C22.9748 36.4688 22.6523 36.5966 22.4222 36.8523C22.1921 37.1051 22.0771 37.4304 22.0771 37.8281V42H20.8072V37.6491C20.8072 37.294 20.6964 37.0085 20.4748 36.7926C20.2532 36.5767 19.9648 36.4688 19.6097 36.4688C19.3683 36.4688 19.1452 36.5327 18.9407 36.6605C18.739 36.7855 18.5756 36.9602 18.4506 37.1847C18.3285 37.4091 18.2674 37.669 18.2674 37.9645V42H16.9933ZM30.4197 42.1321C29.7749 42.1321 29.2195 41.9943 28.7536 41.7188C28.2905 41.4403 27.9325 41.0497 27.6797 40.5469C27.4297 40.0412 27.3047 39.4489 27.3047 38.7699C27.3047 38.0994 27.4297 37.5085 27.6797 36.9972C27.9325 36.4858 28.2848 36.0866 28.7365 35.7997C29.1911 35.5128 29.7223 35.3693 30.3303 35.3693C30.6996 35.3693 31.0575 35.4304 31.4041 35.5526C31.7507 35.6747 32.0618 35.8665 32.3374 36.1278C32.6129 36.3892 32.8303 36.7287 32.9893 37.1463C33.1484 37.5611 33.228 38.0653 33.228 38.6591V39.1108H28.0249V38.1562H31.9794C31.9794 37.821 31.9112 37.5241 31.7749 37.2656C31.6385 37.0043 31.4467 36.7983 31.1996 36.6477C30.9553 36.4972 30.6683 36.4219 30.3388 36.4219C29.9808 36.4219 29.6683 36.5099 29.4013 36.6861C29.1371 36.8594 28.9325 37.0866 28.7876 37.3679C28.6456 37.6463 28.5746 37.9489 28.5746 38.2756V39.0213C28.5746 39.4588 28.6513 39.831 28.8047 40.1378C28.9609 40.4446 29.1783 40.679 29.4567 40.8409C29.7351 41 30.0604 41.0795 30.4325 41.0795C30.674 41.0795 30.8942 41.0455 31.093 40.9773C31.2919 40.9062 31.4638 40.8011 31.6087 40.6619C31.7536 40.5227 31.8643 40.3509 31.9411 40.1463L33.147 40.3636C33.0504 40.7187 32.8771 41.0298 32.6271 41.2969C32.38 41.5611 32.0689 41.767 31.6939 41.9148C31.3217 42.0597 30.897 42.1321 30.4197 42.1321Z" fill="#1C4CA0"/>
<path d="M17.4905 24.9863C14.8027 24.9863 12.1173 24.9863 9.43191 24.9863C8.37056 25.0069 7.33845 24.6359 6.53026 23.9433C5.72206 23.2506 5.19364 22.2843 5.04478 21.2266C5.01069 20.9873 4.99636 20.7457 5.00177 20.504C5.00177 17.0421 5.00177 13.5818 5.00177 10.1231C4.98024 9.36251 5.15528 8.60934 5.50979 7.93721C5.86429 7.26509 6.38605 6.69705 7.02413 6.28874C9.64252 4.49036 12.2601 2.68803 14.8769 0.881616C16.5667 -0.284123 18.4216 -0.296245 20.1017 0.859859C22.7393 2.67109 25.372 4.48481 28 6.30086C28.6294 6.70544 29.1441 7.2668 29.4942 7.93063C29.8444 8.59446 30.0182 9.33821 29.9985 10.0895C29.9985 13.5707 29.9985 17.0502 29.9985 20.5281C30.0232 21.5962 29.6576 22.6362 28.9713 23.4512C28.2849 24.2662 27.3253 24.7996 26.2743 24.9502C26.0041 24.9892 25.7311 25.0054 25.4582 24.9984C22.8031 24.9936 20.1472 24.9895 17.4905 24.9863ZM17.5073 20.5932C18.4814 20.5932 19.4579 20.5932 20.432 20.5932C20.5685 20.5979 20.7049 20.5816 20.8365 20.5449C20.9601 20.5084 21.068 20.431 21.1427 20.3253C21.2173 20.2195 21.2545 20.0916 21.2482 19.9621C21.2545 19.8329 21.218 19.7054 21.1443 19.5994C21.0706 19.4934 20.964 19.4152 20.8413 19.3769C20.7203 19.3403 20.5941 19.324 20.4679 19.3287C18.4861 19.3287 16.5052 19.3287 14.525 19.3287C14.4186 19.3261 14.3123 19.3383 14.2091 19.3648C14.1061 19.3881 14.0112 19.4389 13.9343 19.5117C13.8573 19.5844 13.801 19.6766 13.7715 19.7786C13.7419 19.8807 13.7401 19.9888 13.7661 20.0918C13.7921 20.1948 13.8451 20.2889 13.9195 20.3643C14.0893 20.5041 14.301 20.5823 14.5204 20.586C15.516 20.6053 16.5116 20.5932 17.5145 20.5932H17.5073Z" fill="white"/>
<path d="M17.4905 24.9863C14.8027 24.9863 12.1173 24.9863 9.43191 24.9863C8.37056 25.0069 7.33845 24.6359 6.53026 23.9433C5.72206 23.2506 5.19364 22.2843 5.04478 21.2266C5.01069 20.9873 4.99636 20.7457 5.00177 20.504C5.00177 17.0421 5.00177 13.5818 5.00177 10.1231C4.98024 9.36251 5.15528 8.60934 5.50979 7.93721C5.86429 7.26509 6.38605 6.69705 7.02413 6.28874C9.64252 4.49036 12.2601 2.68803 14.8769 0.881616C16.5667 -0.284123 18.4216 -0.296245 20.1017 0.859859C22.7393 2.67109 25.372 4.48481 28 6.30086C28.6294 6.70544 29.1441 7.2668 29.4942 7.93063C29.8444 8.59446 30.0182 9.33821 29.9985 10.0895C29.9985 13.5707 29.9985 17.0502 29.9985 20.5281C30.0232 21.5962 29.6576 22.6362 28.9713 23.4512C28.2849 24.2662 27.3253 24.7996 26.2743 24.9502C26.0041 24.9892 25.7311 25.0054 25.4582 24.9984C22.8031 24.9936 20.1472 24.9895 17.4905 24.9863ZM17.5073 20.5932C18.4814 20.5932 19.4579 20.5932 20.432 20.5932C20.5685 20.5979 20.7049 20.5816 20.8365 20.5449C20.9601 20.5084 21.068 20.431 21.1427 20.3253C21.2173 20.2195 21.2545 20.0916 21.2482 19.9621C21.2545 19.8329 21.218 19.7054 21.1443 19.5994C21.0706 19.4934 20.964 19.4152 20.8413 19.3769C20.7203 19.3403 20.5941 19.324 20.4679 19.3287C18.4861 19.3287 16.5052 19.3287 14.525 19.3287C14.4186 19.3261 14.3123 19.3383 14.2091 19.3648C14.1061 19.3881 14.0112 19.4389 13.9343 19.5117C13.8573 19.5844 13.801 19.6766 13.7715 19.7786C13.7419 19.8807 13.7401 19.9888 13.7661 20.0918C13.7921 20.1948 13.8451 20.2889 13.9195 20.3643C14.0893 20.5041 14.301 20.5823 14.5204 20.586C15.516 20.6053 16.5116 20.5932 17.5145 20.5932H17.5073Z" fill="#1C4CA0"/>
</svg>
