<svg width="37" height="45" viewBox="0 0 37 45" fill="none" xmlns="http://www.w3.org/2000/svg">
<path d="M12.8703 24.9951C12.2707 25.0249 11.6725 24.9114 11.1247 24.664C10.5769 24.4166 10.0949 24.0422 9.71805 23.5714C9.38555 23.1894 9.15788 22.7265 9.05769 22.2285C8.95749 21.7306 8.98821 21.2149 9.14679 20.7326C9.85458 18.2739 11.2838 16.0882 13.2469 14.4625C15.0845 12.9903 17.4174 12.2935 19.7546 12.5188C22.8434 12.7405 25.1706 14.292 26.9477 16.7813C27.7544 17.9335 28.3888 19.1987 28.8306 20.5365C29.0962 21.334 29.0481 22.2037 28.6962 22.9665C28.3444 23.7294 27.7155 24.3272 26.9393 24.637C26.3593 24.8869 25.7335 25.0103 25.1029 24.9993L12.8703 24.9951Z" fill="#979797"/>
<path d="M19.0058 11.2614C18.2716 11.2637 17.5442 11.1201 16.8651 10.8389C16.1861 10.5577 15.5687 10.1443 15.0484 9.62254C14.5281 9.10075 14.115 8.48074 13.8327 7.79798C13.5505 7.11522 13.4047 6.38309 13.4036 5.64349C13.4024 4.15009 13.9894 2.71724 15.0357 1.65925C16.082 0.601254 17.5021 0.00451478 18.9846 0C20.4674 -6.81716e-06 21.8898 0.59224 22.94 1.64692C23.9901 2.70159 24.5823 4.13269 24.5868 5.62648C24.5879 6.36571 24.4444 7.09789 24.1645 7.78123C23.8845 8.46457 23.4737 9.08564 22.9554 9.60896C22.4371 10.1323 21.8215 10.5476 21.1438 10.8311C20.4661 11.1147 19.7396 11.2609 19.0058 11.2614Z" fill="#979797"/>
<path d="M0.958807 42V33.2727H4.0696C4.74858 33.2727 5.31108 33.3963 5.7571 33.6435C6.20313 33.8906 6.53693 34.2287 6.75852 34.6577C6.98011 35.0838 7.09091 35.5639 7.09091 36.098C7.09091 36.6349 6.97869 37.1179 6.75426 37.5469C6.53267 37.973 6.19744 38.3111 5.74858 38.5611C5.30256 38.8082 4.74148 38.9318 4.06534 38.9318H1.92614V37.8153H3.94602C4.375 37.8153 4.72301 37.7415 4.99006 37.5938C5.2571 37.4432 5.45312 37.2386 5.57812 36.9801C5.70312 36.7216 5.76562 36.4276 5.76562 36.098C5.76562 35.7685 5.70312 35.4759 5.57812 35.2202C5.45312 34.9645 5.25568 34.7642 4.9858 34.6193C4.71875 34.4744 4.36648 34.402 3.92898 34.402H2.27557V42H0.958807ZM8.53232 42V35.4545H9.76385V36.4943H9.83203C9.95135 36.142 10.1616 35.8651 10.4627 35.6634C10.7667 35.4588 11.1104 35.3565 11.494 35.3565C11.5735 35.3565 11.6673 35.3594 11.7752 35.3651C11.886 35.3707 11.9727 35.3778 12.0352 35.3864V36.6051C11.984 36.5909 11.8931 36.5753 11.7624 36.5582C11.6317 36.5384 11.5011 36.5284 11.3704 36.5284C11.0692 36.5284 10.8008 36.5923 10.565 36.7202C10.332 36.8452 10.1474 37.0199 10.011 37.2443C9.87464 37.4659 9.80646 37.7187 9.80646 38.0028V42H8.53232ZM15.6605 42.1321C15.0469 42.1321 14.5114 41.9915 14.054 41.7102C13.5966 41.429 13.2415 41.0355 12.9886 40.5298C12.7358 40.0241 12.6094 39.4332 12.6094 38.7571C12.6094 38.0781 12.7358 37.4844 12.9886 36.9759C13.2415 36.4673 13.5966 36.0724 14.054 35.7912C14.5114 35.5099 15.0469 35.3693 15.6605 35.3693C16.2741 35.3693 16.8097 35.5099 17.267 35.7912C17.7244 36.0724 18.0795 36.4673 18.3324 36.9759C18.5852 37.4844 18.7116 38.0781 18.7116 38.7571C18.7116 39.4332 18.5852 40.0241 18.3324 40.5298C18.0795 41.0355 17.7244 41.429 17.267 41.7102C16.8097 41.9915 16.2741 42.1321 15.6605 42.1321ZM15.6648 41.0625C16.0625 41.0625 16.392 40.9574 16.6534 40.7472C16.9148 40.5369 17.108 40.2571 17.233 39.9077C17.3608 39.5582 17.4247 39.1733 17.4247 38.7528C17.4247 38.3352 17.3608 37.9517 17.233 37.6023C17.108 37.25 16.9148 36.9673 16.6534 36.7543C16.392 36.5412 16.0625 36.4347 15.6648 36.4347C15.2642 36.4347 14.9318 36.5412 14.6676 36.7543C14.4063 36.9673 14.2116 37.25 14.0838 37.6023C13.9588 37.9517 13.8963 38.3352 13.8963 38.7528C13.8963 39.1733 13.9588 39.5582 14.0838 39.9077C14.2116 40.2571 14.4063 40.5369 14.6676 40.7472C14.9318 40.9574 15.2642 41.0625 15.6648 41.0625ZM23.2489 35.4545V36.4773H19.5501V35.4545H23.2489ZM20.5643 42V34.696C20.5643 34.2869 20.6538 33.9474 20.8327 33.6776C21.0117 33.4048 21.2489 33.2017 21.5444 33.0682C21.8398 32.9318 22.1609 32.8636 22.5075 32.8636C22.7631 32.8636 22.9819 32.8849 23.1637 32.9276C23.3455 32.9673 23.4805 33.0043 23.5685 33.0384L23.2702 34.0696C23.2106 34.0526 23.1339 34.0327 23.0401 34.0099C22.9464 33.9844 22.8327 33.9716 22.6992 33.9716C22.3896 33.9716 22.168 34.0483 22.0344 34.2017C21.9038 34.3551 21.8384 34.5767 21.8384 34.8665V42H20.5643ZM24.5636 42V35.4545H25.8377V42H24.5636ZM25.207 34.4446C24.9854 34.4446 24.7951 34.3707 24.636 34.223C24.4798 34.0724 24.4016 33.8935 24.4016 33.6861C24.4016 33.4759 24.4798 33.2969 24.636 33.1491C24.7951 32.9986 24.9854 32.9233 25.207 32.9233C25.4286 32.9233 25.6175 32.9986 25.7738 33.1491C25.9329 33.2969 26.0124 33.4759 26.0124 33.6861C26.0124 33.8935 25.9329 34.0724 25.7738 34.223C25.6175 34.3707 25.4286 34.4446 25.207 34.4446ZM28.826 33.2727V42H27.5518V33.2727H28.826ZM33.3612 42.1321C32.7163 42.1321 32.1609 41.9943 31.695 41.7188C31.2319 41.4403 30.8739 41.0497 30.6211 40.5469C30.3711 40.0412 30.2461 39.4489 30.2461 38.7699C30.2461 38.0994 30.3711 37.5085 30.6211 36.9972C30.8739 36.4858 31.2262 36.0866 31.6779 35.7997C32.1325 35.5128 32.6637 35.3693 33.2717 35.3693C33.641 35.3693 33.9989 35.4304 34.3455 35.5526C34.6921 35.6747 35.0032 35.8665 35.2788 36.1278C35.5543 36.3892 35.7717 36.7287 35.9308 37.1463C36.0898 37.5611 36.1694 38.0653 36.1694 38.6591V39.1108H30.9663V38.1562H34.9208C34.9208 37.821 34.8526 37.5241 34.7163 37.2656C34.5799 37.0043 34.3881 36.7983 34.141 36.6477C33.8967 36.4972 33.6097 36.4219 33.2802 36.4219C32.9222 36.4219 32.6097 36.5099 32.3427 36.6861C32.0785 36.8594 31.8739 37.0866 31.729 37.3679C31.587 37.6463 31.516 37.9489 31.516 38.2756V39.0213C31.516 39.4588 31.5927 39.831 31.7461 40.1378C31.9023 40.4446 32.1197 40.679 32.3981 40.8409C32.6765 41 33.0018 41.0795 33.3739 41.0795C33.6154 41.0795 33.8356 41.0455 34.0344 40.9773C34.2333 40.9062 34.4052 40.8011 34.5501 40.6619C34.695 40.5227 34.8058 40.3509 34.8825 40.1463L36.0884 40.3636C35.9918 40.7187 35.8185 41.0298 35.5685 41.2969C35.3214 41.5611 35.0103 41.767 34.6353 41.9148C34.2631 42.0597 33.8384 42.1321 33.3612 42.1321Z" fill="#979797"/>
</svg>
